<svg id="Arms_4" data-name="Arms 4" xmlns="http://www.w3.org/2000/svg" viewBox="0 0 500 500"><defs><style>.cls-1{fill:lime;}</style></defs><polygon class="cls-1" points="106.9 305 111.3 289.4 103 261.1 93.4 240.7 88.2 233.3 86.5 240.3 91.3 259.4 87.8 265.9 78.7 256.8 63.9 228.5 59.6 218.5 56.5 228.5 61.7 242 70 254.6 74.8 262.4 63.5 258.5 51.3 238.1 42.6 214.2 42.2 223.8 44.8 239 53.5 255.9 62.6 270.2 65.2 276.3 57.8 274.2 49.6 264.2 42.2 249.8 35.7 240.3 36.1 252.4 44.8 274.6 63 295.4 75.2 302.8 90 305.4 106.9 305"/><path d="M91.9,305.1c3,0,6.1-.2,9.2-.4l2.3-.4,1.2-.5h-.2l1.1-.5h.2c0-.1,0-.1.1-.1a.4.4,0,0,1,.1-.3,11.2,11.2,0,0,1,.5-1.3h-.1a24.6,24.6,0,0,0,1.4-3.8c.4-1.4.7-2.8,1-4.2s.1-2,.1-3a49,49,0,0,0-.4-5.4c-.4-2.6-1-5.1-1.6-7.6a131.5,131.5,0,0,0-4.3-12.5c-1.6-4.1-3.3-8.2-5-12.3-.8-1.9-1.5-3.7-2.3-5.5h.1l-2.1-4.7c-.7-1.5-1.5-2.9-2.3-4.4a17.7,17.7,0,0,0-1.6-2.2h.1l-.6-.7.3,3.4c.8,4.4,1.8,8.8,2.8,13.2a31.9,31.9,0,0,1,.8,6.3,24.7,24.7,0,0,1-.2,4.7,6.4,6.4,0,0,1-.6,1.8,4.6,4.6,0,0,1-.8,1.3,4.1,4.1,0,0,1-1.3,1,3.5,3.5,0,0,1-1.7.2c-2.3-.3-4.1-2.1-5.5-3.7l-2.8-3.2h0a.1.1,0,0,0-.1-.1h.1a13.4,13.4,0,0,1-1.1-1.4h-.2a52.1,52.1,0,0,1-3.6-5.5c-1.2-1.9-2.4-3.8-3.5-5.8a61.2,61.2,0,0,1-3.1-5.6c-1-2-2-4-2.9-6s-2-4.6-2.9-6.9-1.8-4.2-2.6-6.3c0,.1,0,.2.1.2l-.8-1.6a17,17,0,0,0-.4,2.2v-.2a16.4,16.4,0,0,0,0,5.1c.1,1.1.4,2.1.6,3.2l.9,2.4c-.1,0-.1-.1-.1-.2.7,1.7,1.4,3.3,2.2,4.9s.9,1.8,1.4,2.6l1.3,2.3,2.1,3.3,2.2,3c1.4,1.8,2.9,3.6,4.2,5.5a40.5,40.5,0,0,1,2.3,3.4,5.6,5.6,0,0,1,.9,3.1,2.7,2.7,0,0,1-.4,1.6,2.8,2.8,0,0,1-1.1,1.5,4.6,4.6,0,0,1-1.4.5,3.8,3.8,0,0,1-1.5-.1,11.9,11.9,0,0,1-3.5-1.5l-1.6-1.2-1.3-1a29.6,29.6,0,0,1-2.6-2.4l-2.3-2.5-1.9-2.4L57.5,252c-1.1-1.6-2.1-3.2-3.1-4.9h-.1l-.5-1-.3-.4v-.3l-1-1.7-1.5-3c-1-2-1.9-4-2.9-5.9s-1.7-4-2.4-6-.8-2.2-1.1-3.3a33.7,33.7,0,0,1-1-3.4,8.3,8.3,0,0,1-.4-1.5v1l.3,2.9.3,1.6a7.6,7.6,0,0,0,.3,1.6c.2,1.1.5,2.3.8,3.4s.6,2.2,1,3.3a25.3,25.3,0,0,0,1.2,3.6c.7,2.4,1.7,4.6,2.6,6.9s1.5,3.2,2.4,4.8,1.7,3.3,2.6,4.9h0c.5.9,1.1,1.8,1.6,2.8h0a.1.1,0,0,0,.1.1h-.1c1.2,1.9,2.3,3.7,3.6,5.5l1.9,2.6,2.9,3.9a22.2,22.2,0,0,1,2.1,3.7,7.9,7.9,0,0,1,1,4,2.8,2.8,0,0,1-1.8,2.3,4.8,4.8,0,0,1-3.5-.6,9.4,9.4,0,0,1-1.8-1.2l-1.4-.9-2.5-2.1a8,8,0,0,1-1.3-1.3l-1.2-1.3c-.7-.7-1.3-1.5-2-2.3s-1.5-1.8-2.2-2.8l-.9-1.3c-.4-.5-.7-1.1-1.1-1.7a66.5,66.5,0,0,1-3.3-5.8c-1.1-1.8-2.1-3.7-3.1-5.6-1.7-3.4-3.2-6.9-5.1-10.2h0v.2a30.3,30.3,0,0,0,.2,3.1.4.4,0,0,0-.1-.3c.2,1.1.3,2.2.5,3.3s.7,3.3,1.1,4.8h.1a31.9,31.9,0,0,0,2.1,5.9h-.1l1.9,3.9c.4,1,1,2,1.5,3a26.9,26.9,0,0,0,1.6,2.9c.6,1.2,1.3,2.4,2,3.6l2.8,4.3a13.3,13.3,0,0,0,1.4,1.9c.5.7.9,1.4,1.4,2s1.7,2.1,2.5,3.1a26.2,26.2,0,0,0,2.2,2.5c.7.8,1.4,1.7,2.1,2.4l2.8,3,1,.9.3-1.7a1.7,1.7,0,0,1,2.1-1.4,1.8,1.8,0,0,1,1.4,2.2,3.6,3.6,0,0,1-.2,1.1v.4h.1c.1.1.1.3.2.4s-.1-.1-.1-.2l.3.4.8.9.8.7a29.2,29.2,0,0,0,3.7,2.4h0c3.1,1.7,6.2,3.4,9.4,4.9l2.4.8,4.7,1.1Zm-.3,3.6H89l-2.8-.6-3.1-.8a54.3,54.3,0,0,1-8.5-3.9l-.9-.5-.6.4a4,4,0,0,1-3.3-.8,39.5,39.5,0,0,1-4.7-3.3l-2.3-2-1.7-1.6-1.2-1.1c-1.5-1.5-3-3.1-4.4-4.7s-1.5-1.7-2.3-2.6-1.6-2.1-2.5-3.1-1.1-1.5-1.6-2.2l-1.4-1.9L47,279l-3.6-5.8L41.6,270c-.7-1.1-1.2-2.2-1.8-3.3l-1.2-2.5c-.6-1.3-1.2-2.5-1.7-3.8s-1.1-2.8-1.6-4.2a22.4,22.4,0,0,1-1-3.7c-.3-1.2-.5-2.4-.8-3.6s-.1-1.1-.2-1.6l-.3-2.1a20.5,20.5,0,0,1-.1-4.3,4.5,4.5,0,0,1,.3-1.6,3,3,0,0,1,.8-1.6l.6-.4.7-.2a3.4,3.4,0,0,1,1.4.1,7,7,0,0,1,2.7,2.7,33.5,33.5,0,0,1,2,3.7l2.8,5.6c1.7,3.5,3.5,6.8,5.4,10.1.6,1,1.2,2.1,1.9,3.1l2.1,3,4.3,5.1,1.6,1.5,2.1,1.7h-.1l2.2,1.6v-.4a22.6,22.6,0,0,0-1.1-2.2,42.1,42.1,0,0,0-3.5-4.8l-2.1-2.9-2-2.9-.8-1.3-1-1.6h0c-.6-.9-1.1-1.9-1.7-2.9v.2a103.3,103.3,0,0,1-6-12c-.8-2-1.6-4-2.2-6s-.8-2.1-1.1-3.2l-1-3.4c-.3-1.2-.5-2.3-.8-3.5a5.9,5.9,0,0,1-.2-1.3,10.6,10.6,0,0,0-.4-1.9l-.3-3.3c-.1-.5,0-1-.1-1.5v-2.2a16.1,16.1,0,0,1,.6-4.4,8.8,8.8,0,0,1,.5-1.5,2.3,2.3,0,0,1,1.9-1.6,2.4,2.4,0,0,1,2.3,1.6,24.4,24.4,0,0,1,1.4,5.3,28.6,28.6,0,0,0,.7,2.8v0h0c.4,1.6.9,3.3,1.4,5l1.8,4.9V230c.9,2.3,2,4.5,3.1,6.8l1.7,3.5c.6,1.1,1.2,2.3,1.9,3.4h-.1v.3h.1l.7,1.2h0a2.1,2.1,0,0,1,.4.6l2.4,3.7a41.5,41.5,0,0,0,2.4,3.4l1.6,1.9,1.8,2,1.5,1.4,1.8,1.4a13.3,13.3,0,0,0,1.9,1.4l1.1.5.6.2h.2a.4.4,0,0,1-.1-.3l-.6-1c-.9-1.5-1.9-2.8-2.8-4.2s-2.8-3.4-4.1-5.2-1.4-1.9-2-2.9-1.2-1.7-1.7-2.6-1.1-1.8-1.6-2.8l-1.5-3.1c-.6-1.1-1.1-2.2-1.6-3.3a29.6,29.6,0,0,1-2-7.2,21.5,21.5,0,0,1,0-6.2,13.6,13.6,0,0,1,.6-2.9l.4-1.2a4.7,4.7,0,0,1,.7-1.2,3,3,0,0,1,2-1,4.3,4.3,0,0,1,2.1.9l.7.9c.3.4.5.9.8,1.4l.9,2,3.9,9.4c1,2.4,2.1,4.7,3.2,7l2.1,4.1,1.9,3.4v-.2l3.3,5.6,2,3.1,1.6,2.4c0-.1,0-.1-.1-.1l.3.3h-.1l1,1.3h0c.1.1.1.1.1.2h0c0,.1.1.1.1.2h0l3.7,4.1,1,.9.4.3h-.2l.7.3H88l.4.2a.1.1,0,0,1,.1-.1c0-.1,0-.2.1-.2a1.4,1.4,0,0,1,.2-.6c.1-.4.1-.8.2-1.2v.2a19.3,19.3,0,0,0,.1-2.4,17.7,17.7,0,0,0-.1-2.3,14.9,14.9,0,0,0-.2-2.1c-.9-4.3-1.9-8.7-2.8-13-.2-1.1-.4-2.1-.5-3.1a24.8,24.8,0,0,1-.3-4.7,4.2,4.2,0,0,1,.4-1.5,2.3,2.3,0,0,1,1.1-1.1,3.3,3.3,0,0,1,3.3.1,12,12,0,0,1,2.7,2.8,23.3,23.3,0,0,1,1.7,2.6,35.9,35.9,0,0,1,1.7,3.4c.5.9.9,1.9,1.4,2.9s1.7,3.9,2.5,5.9c1.7,4.1,3.3,8.2,5,12.2.9,2.2,1.7,4.3,2.5,6.4s1.5,4.3,2.2,6.4,1.1,4.2,1.6,6.3.8,4.4,1,6.7.2,3,.2,4.6a30.3,30.3,0,0,1-.6,4.2,55,55,0,0,1-2.3,7.2v-.2l-.5,1.2v-.2a4.7,4.7,0,0,1-.7,1.2,6.1,6.1,0,0,1-2.8,1.9,16.4,16.4,0,0,1-4.5,1l-3.3.2-3.3.2H91.6Z"/><path d="M80.9,293.5l-5.3-3.2h0l-1.8-.9h0a1.8,1.8,0,0,1-1.9-1.4h0a.4.4,0,0,1-.1-.3h0a4.3,4.3,0,0,1,.2-1.1,2,2,0,0,1,1.5-1l1.4.2,1.9.9,1.9,1.2,2.5,1.5h-.1l1.5.9a1.9,1.9,0,0,1,.8,2.4,1.9,1.9,0,0,1-1.7,1Z"/><path d="M87.3,288.8q-1.8-1.7-3.3-3.3a10.7,10.7,0,0,1-1.4-1.6,8.4,8.4,0,0,1-1.5-1.8,1.8,1.8,0,0,1,.4-2.5,1.8,1.8,0,0,1,2.6.5h0c1.4,1.7,2.9,3.2,4.4,4.7h0l1.1,1.1a1.8,1.8,0,0,1,.2,2.6,1.8,1.8,0,0,1-1.4.6A1.5,1.5,0,0,1,87.3,288.8Z"/><path d="M94.6,284a26.4,26.4,0,0,0-2.3-3.5,16.3,16.3,0,0,0-1.1-1.7,8.1,8.1,0,0,1-1.6-2.7,1.8,1.8,0,0,1,3.6-.8h0c.7,1.1,1.5,2.1,2.2,3.1l2.2,3.5a1.7,1.7,0,0,1-.5,2.5,1.7,1.7,0,0,1-1,.3A1.8,1.8,0,0,1,94.6,284Z"/><polygon class="cls-1" points="398.5 305 394.2 289.4 402.4 261.1 412 240.7 417.2 233.3 418.9 240.3 414.1 259.4 417.6 265.9 426.7 256.8 441.5 228.5 445.9 218.5 448.9 228.5 443.7 242 435.4 254.6 430.7 262.4 441.9 258.5 454.1 238.1 462.8 214.2 463.2 223.8 460.6 239 451.9 255.9 442.8 270.2 440.2 276.3 447.6 274.2 455.9 264.2 463.2 249.8 469.8 240.3 469.3 252.4 460.6 274.6 442.4 295.4 430.2 302.8 415.5 305.4 398.5 305"/><path d="M416,305l4.7-1.1,2.4-.8c3.2-1.5,6.4-3.2,9.5-4.9h-.1a29.2,29.2,0,0,0,3.7-2.4,2.7,2.7,0,0,0,.8-.7l.8-.9.3-.4c0,.1-.1.1-.1.2a.8.8,0,0,0,.2-.4h.1V293c-.1-.3-.1-.7-.2-1.1a1.8,1.8,0,0,1,1.4-2.2,1.9,1.9,0,0,1,2.2,1.4c0,.6.2,1.2.2,1.7l1-.9,2.8-3,2.1-2.4A26.2,26.2,0,0,0,450,284c.8-1,1.7-2,2.5-3.1a14.3,14.3,0,0,0,1.4-2l1.5-1.9,2.7-4.3,2.1-3.6,1.5-2.9c.5-1,1.1-2,1.5-3s1.3-2.6,1.9-3.9h0a58.9,58.9,0,0,0,2.1-5.9h0c.4-1.5.7-3.2,1.1-4.8s.3-2.2.5-3.3a.4.4,0,0,1-.1.3,29.6,29.6,0,0,0,.3-3.1v-.2h0c-2,3.3-3.5,6.8-5.2,10.2l-3,5.6c-1.1,2-2.2,3.9-3.4,5.8a9.9,9.9,0,0,1-1.1,1.7l-.9,1.3c-.7,1-1.5,1.9-2.2,2.8a22,22,0,0,1-2,2.3l-1.2,1.3a8,8,0,0,1-1.3,1.3l-2.5,2.1-1.4.9a5.7,5.7,0,0,1-1.8,1.2,4.8,4.8,0,0,1-3.5.6,2.8,2.8,0,0,1-1.8-2.3,7.9,7.9,0,0,1,1-4,22.2,22.2,0,0,1,2.1-3.7l2.9-3.9,1.9-2.6a64.9,64.9,0,0,0,3.6-5.5h0c.5-1,1.1-1.9,1.6-2.8h0l2.7-4.9,2.3-4.8c.9-2.3,1.9-4.5,2.7-6.9l1.2-3.6c.3-1.1.6-2.2,1-3.3s.5-2.3.8-3.4.1-1,.2-1.6l.3-1.6.3-2.9c0-.3.1-.7.1-1s-.3,1-.5,1.5l-.9,3.4c-.4,1.1-.8,2.2-1.1,3.3s-1.6,4-2.5,6-1.9,3.9-2.8,5.9-1,2-1.6,3l-.9,1.7-.2.3-.3.4-.5,1H451c-1,1.7-2,3.3-3.1,4.9l-1.7,2.4-1.9,2.4-2.3,2.5c-.8.9-1.7,1.6-2.5,2.4l-1.4,1-1.6,1.2a10,10,0,0,1-3.5,1.5,3.8,3.8,0,0,1-1.5.1l-1.4-.5a3.5,3.5,0,0,1-1.1-1.5,2.7,2.7,0,0,1-.4-1.6,5,5,0,0,1,1-3.1,24.6,24.6,0,0,1,2.2-3.4c1.3-1.9,2.8-3.7,4.2-5.5l2.2-3c.8-1.1,1.4-2.2,2.2-3.3l1.3-2.3c.4-.8.9-1.7,1.3-2.6s1.5-3.2,2.3-4.9v.2c.3-.8.5-1.6.8-2.4a18,18,0,0,0,.6-3.2,16.4,16.4,0,0,0,0-5.1c0,.1,0,.2.1.2a17.4,17.4,0,0,0-.5-2.2,11.1,11.1,0,0,0-.7,1.6v-.2L443,229l-3,6.9c-.9,2-1.9,4-2.9,6a61.2,61.2,0,0,1-3.1,5.6c-1.1,2-2.3,3.9-3.5,5.8a52.1,52.1,0,0,1-3.6,5.5h-.1a13.4,13.4,0,0,0-1.1,1.4h-.1l-2.8,3.2c-1.4,1.6-3.2,3.4-5.4,3.7a3.7,3.7,0,0,1-1.8-.2,4.1,4.1,0,0,1-1.3-1,4.6,4.6,0,0,1-.8-1.3,6.1,6.1,0,0,1-.5-1.8,24.8,24.8,0,0,1-.3-4.7,31.9,31.9,0,0,1,.9-6.3c.9-4.4,1.9-8.8,2.7-13.2.1-1.1.3-2.2.3-3.4l-.5.7h0a10.7,10.7,0,0,0-1.5,2.2,47.7,47.7,0,0,0-2.4,4.4c-.7,1.6-1.4,3.1-2,4.7h0c-.8,1.8-1.5,3.6-2.3,5.5l-5,12.3a131.5,131.5,0,0,0-4.3,12.5c-.6,2.5-1.2,5-1.6,7.6a49,49,0,0,0-.4,5.4,15.1,15.1,0,0,0,.2,3,31.5,31.5,0,0,0,.9,4.2c.4,1.3.9,2.6,1.4,3.8h0a5,5,0,0,0,.5,1.3.4.4,0,0,0,.1.3h.2l1.1.5h-.2l1.3.5,2.2.4c3.1.2,6.2.4,9.2.4Zm-2.8,3.7h-2.5l-3.3-.2-3.3-.2a17.3,17.3,0,0,1-4.5-1,6.1,6.1,0,0,1-2.8-1.9,4.7,4.7,0,0,1-.7-1.2v.2c-.1-.4-.3-.8-.4-1.2s0,.1.1.2a43.4,43.4,0,0,1-2.4-7.2,20.1,20.1,0,0,1-.5-4.2,34.9,34.9,0,0,1,.1-4.6,49.3,49.3,0,0,1,1.1-6.7,48.5,48.5,0,0,1,1.6-6.3c.6-2.1,1.3-4.3,2.1-6.4s1.7-4.2,2.5-6.4c1.7-4,3.3-8.1,5-12.2.8-2,1.7-4,2.6-5.9a25.5,25.5,0,0,1,1.3-2.9,36.5,36.5,0,0,1,1.8-3.4,22.6,22.6,0,0,1,1.6-2.6,12,12,0,0,1,2.7-2.8,3.4,3.4,0,0,1,3.4-.1,2.7,2.7,0,0,1,1,1.1,4.2,4.2,0,0,1,.4,1.5,18.6,18.6,0,0,1-.3,4.7c-.1,1-.3,2-.5,3.1-.9,4.3-1.9,8.7-2.7,13l-.3,2.1c0,.8-.1,1.5-.1,2.3a19.4,19.4,0,0,0,.2,2.4.3.3,0,0,1-.1-.2,5.3,5.3,0,0,0,.3,1.2c0,.2.1.4.1.6s.1.1.1.2.1,0,.1.1l.4-.2h-.1l.6-.3h-.2l.4-.3,1-.9c1.3-1.3,2.5-2.7,3.7-4.1h0c0-.1.1-.1.1-.2h0c0-.1.1-.1.1-.2h0a11.3,11.3,0,0,0,1-1.3h0l.2-.3a.1.1,0,0,0-.1.1l1.6-2.4,2-3.1,3.4-5.6v.2l1.8-3.4,2.1-4.1c1.1-2.3,2.2-4.6,3.2-7l3.9-9.4.9-2c.3-.5.5-1,.8-1.4l.8-.9a3.7,3.7,0,0,1,2-.9,2.8,2.8,0,0,1,2,1,2.9,2.9,0,0,1,.7,1.2,5.6,5.6,0,0,1,.4,1.2,13.6,13.6,0,0,1,.6,2.9,21.5,21.5,0,0,1,0,6.2,25.7,25.7,0,0,1-2,7.2l-1.5,3.3c-.5,1.1-1.1,2.1-1.6,3.1a25.4,25.4,0,0,1-1.6,2.8c-.5.9-1.1,1.7-1.7,2.6s-1.3,1.9-2,2.9-2.7,3.5-4,5.2-2,2.7-2.9,4.2l-.5,1a.4.4,0,0,0-.1.3h.1l.7-.2,1-.5,2-1.4,1.7-1.4,1.5-1.4,1.8-2c.6-.6,1.1-1.3,1.6-1.9a41.5,41.5,0,0,0,2.4-3.4c.9-1.2,1.6-2.5,2.4-3.7l.4-.6h0a7.5,7.5,0,0,0,.7-1.2h.1a.4.4,0,0,0,.1-.3h0l1.9-3.4c.6-1.2,1.1-2.4,1.7-3.5s2.1-4.5,3.1-6.8a.4.4,0,0,0-.1.3c.6-1.6,1.3-3.3,1.8-4.9s1-3.4,1.4-5h0c.1,0,.1-.1.1-.2v.2l.6-2.8a31.8,31.8,0,0,1,1.4-5.3,2.5,2.5,0,0,1,2.3-1.6,2.5,2.5,0,0,1,2,1.6c.1.5.3,1,.4,1.5a16.1,16.1,0,0,1,.6,4.4v2.2a7.6,7.6,0,0,1-.1,1.5c-.1,1.1-.1,2.2-.3,3.3l-.3,1.9-.3,1.3c-.3,1.2-.5,2.3-.8,3.5l-1,3.4c-.3,1.1-.7,2.1-1.1,3.2s-1.4,4-2.2,6a89.6,89.6,0,0,1-6,12,.3.3,0,0,0,.1-.2c-.6,1-1.1,2-1.7,2.9h0l-.9,1.6-.9,1.3-1.9,2.9a31.5,31.5,0,0,0-2.2,2.9,59.2,59.2,0,0,0-3.5,4.8l-1.1,2.2v.4l2.3-1.6h-.2l2.1-1.7,1.6-1.5,4.3-5.1c.7-1,1.5-2,2.1-3s1.3-2.1,1.9-3.1c1.9-3.3,3.8-6.6,5.4-10.1,1-1.8,1.8-3.7,2.8-5.6l2-3.7a6.6,6.6,0,0,1,2.8-2.7,3.2,3.2,0,0,1,1.4-.1l.6.2.6.4a3.2,3.2,0,0,1,.9,1.6,8.8,8.8,0,0,1,.2,1.6,20.5,20.5,0,0,1-.1,4.3l-.3,2.1c-.1.5-.1,1.1-.2,1.6s-.5,2.4-.8,3.6a22.4,22.4,0,0,1-1,3.7c-.4,1.4-1,2.8-1.5,4.2l-1.8,3.8-1.2,2.5-1.7,3.3-1.9,3.2c-1.1,2-2.4,3.9-3.6,5.8l-.7.9-1.3,1.9-1.7,2.2-2.5,3.1c-.7.9-1.5,1.7-2.3,2.6s-2.9,3.2-4.4,4.7l-1.1,1.1-1.8,1.6-2.3,2a39.5,39.5,0,0,1-4.7,3.3,3.9,3.9,0,0,1-3.3.8l-.6-.4-.9.5a54.3,54.3,0,0,1-8.5,3.9l-3,.8-2.8.6h-3.3Z"/><path d="M424.5,293.5l5.4-3.2h0l1.7-.9h.1a1.8,1.8,0,0,0,1.9-1.4h0v-.3h0a2.2,2.2,0,0,0-.2-1.1,1.8,1.8,0,0,0-1.5-1l-1.4.2-1.8.9-2,1.2-2.5,1.5h.1l-1.4.9a1.8,1.8,0,0,0-.9,2.4,1.9,1.9,0,0,0,1.7,1Z"/><path d="M418.2,288.8l3.2-3.3,1.5-1.6c.5-.6,1-1.1,1.5-1.8a1.9,1.9,0,0,0-.5-2.5,1.7,1.7,0,0,0-2.5.5h-.1c-1.4,1.7-2.9,3.2-4.4,4.7h.1l-1.2,1.1a1.8,1.8,0,0,0-.2,2.6,2,2,0,0,0,1.4.6A1.9,1.9,0,0,0,418.2,288.8Z"/><path d="M410.8,284c.7-1.2,1.5-2.4,2.3-3.5l1.1-1.7a8.1,8.1,0,0,0,1.6-2.7,1.9,1.9,0,0,0-1.4-2.1,1.8,1.8,0,0,0-2.1,1.3h-.1c-.7,1.1-1.5,2.1-2.2,3.1l-2.2,3.5a1.8,1.8,0,0,0,.5,2.5,1.7,1.7,0,0,0,1,.3A1.8,1.8,0,0,0,410.8,284Z"/></svg>