<svg id="Arms_3" data-name="Arms 3" xmlns="http://www.w3.org/2000/svg" viewBox="0 0 500 500"><defs><style>.cls-1{fill:lime;}</style></defs><path class="cls-1" d="M120.4,255.5,106.9,248l-12.6-3H81.6l-12.2,8.1L67.2,260s4,3.4,4.9,3.5,5.8-2.8,5.8-2.8l7.2-4,6.4,1,1.3,2.6-10.6,4.5-12.1,6.8-6.4,9-.8,8.2,5.4,1.5,8.4-4.1,11.8-10.3,6.7.9.4,2.2-7.2,4-5.7,4.7-2.8,7.1,2.9,4.9H89l10.7-8.5,10.8-9.8h6.8l7.8-1.4,4.7-7.2L128,262.7Z"/><path d="M88.9,301.9a14,14,0,0,0,2.6-1.6l2.1-1.6,1.9-1.8,1.8-1.8c1.1-1,2.2-2,3.2-3.1l.8.4a1.5,1.5,0,0,0,1.9-.7,1.4,1.4,0,0,0-.6-1.9l1.9-2.3,1.9-1.8h0l.4-.3.6.6a21.1,21.1,0,0,0,2.3,1.9,1.7,1.7,0,0,0,2.1-.2,1.4,1.4,0,0,0-.2-2.1l-1.5-1.2-.8-.6.3-.2,2.1-.9h.2l.7.7a1.4,1.4,0,0,0,2.1,0,1.5,1.5,0,0,0,.4-1.1h1.5l1.8.2,1.9.2a7.8,7.8,0,0,0,2.2-.2,6.3,6.3,0,0,0,2.3-.8,9,9,0,0,0,3.7-3.8,14.9,14.9,0,0,0,2.1-4.8,20.6,20.6,0,0,0,.3-2.6,26.2,26.2,0,0,0-.1-2.8l-.6-2.5a5.2,5.2,0,0,0-.6-1.5,2.7,2.7,0,0,0-.8-1l-.2-.2a8.1,8.1,0,0,0-1.2-1.8,26.1,26.1,0,0,0-2.3-2.4l-1.2-1.1a14.9,14.9,0,0,0-1.4-1.2l-1.6-1.3-1.5-1-2.7-1.8a47.6,47.6,0,0,0-4.9-2.8l-5-2.4-4.9-2a31.8,31.8,0,0,0-5.3-1.4,54.8,54.8,0,0,0-5.7-.5H86.8l-1.3.3a34.1,34.1,0,0,0-5.5,1.4c-1.7.6-3.3,1.5-5,2.3a27.1,27.1,0,0,0-3.5,2.4,23.7,23.7,0,0,0-2.8,2.7,12.8,12.8,0,0,0-2.4,3.9,12.7,12.7,0,0,0-.6,1.8,6.1,6.1,0,0,0-.1,3,7,7,0,0,0,3.3,4.2,6,6,0,0,0,2.9.8,5.1,5.1,0,0,0,2.9-.8l.4-.3,1.3,1.2h.3l-1.2.6a15.5,15.5,0,0,0-2.2,1.2L71,269.3l-1.3.9-1,.9a3.9,3.9,0,0,0-1,.8l-1,.9c-1,1.1-2,2.1-2.9,3.3a22.1,22.1,0,0,0-1.8,3.4l-.6,1.6-.3,1.2a11.6,11.6,0,0,0-.4,1.8v1.2a7,7,0,0,0,2.6,5.6,7.6,7.6,0,0,0,2.8,1.5,8.7,8.7,0,0,0,3.2.1,13.8,13.8,0,0,0,4.8-2.1,22.2,22.2,0,0,0,3.8-3.7h0a4.6,4.6,0,0,1,.7-.7,1.6,1.6,0,0,0,1.5-1c0-.3.1-.5,0-.7l1.5-1.6h0l1.3-1.2a13.3,13.3,0,0,1,1.9-1.4l2.5-1.5,1.6-.6.6-.2.2.2a1.6,1.6,0,0,0,2.1-.2v-.2h.5l.7.2.5.3.5.3.3.2a.1.1,0,0,0,.1.1h-.1a.3.3,0,0,0-.1.2l-.3.2-.7.5a.1.1,0,0,0,.1-.1h-.1l-2,1-2.3,1a31.3,31.3,0,0,0-3.2,1.5,13.5,13.5,0,0,0-2.7,2l-1.2,1.3a16.6,16.6,0,0,0-1.6,2.1,13.5,13.5,0,0,0-1.9,3.8,7.8,7.8,0,0,0,.9,5.8l.9,1.4a8.1,8.1,0,0,0,2.4,2.1A7.3,7.3,0,0,0,88.9,301.9Zm16.2-22.6-1.8-2.5c-.8-1.4-1.5-2.8-2.2-4.3s-1.2-2.8-1.7-4.3a11.8,11.8,0,0,1-.4-2,15.2,15.2,0,0,1-.3-2.1,51.2,51.2,0,0,1,.3-5.6,10.9,10.9,0,0,1,.4-2.6,12.1,12.1,0,0,1,.5-1.8,6.7,6.7,0,0,1,.6-1.2,8.6,8.6,0,0,1,1-1.6,6.4,6.4,0,0,1,1-1.3l.5-.5h.2a1.5,1.5,0,0,0,.9-.6c2.2,1,4.5,2,6.7,3.2a12.5,12.5,0,0,0-3.7,4.2,22,22,0,0,0-2.5,8,20.6,20.6,0,0,0,.1,4.3,27.4,27.4,0,0,0,1.8,6.2,21.3,21.3,0,0,0,2.7,4.6l.7.8-.7.3-2.1,1.1ZM125,262.5a1.6,1.6,0,0,0-.3.9,1.4,1.4,0,0,0,1.4,1.5h.4l.5.3h.1v.2c.3,1,.5,2,.7,2.9a4.5,4.5,0,0,1,.1,1.1v1.8c-.1.5-.1.9-.2,1.4l-.6,1.6-.6,1.3-1,1.7a3.9,3.9,0,0,1-.8,1l-.6.5-.3.2-.5.3-1,.4h-.6a27.2,27.2,0,0,0-1.6-3.5,5.8,5.8,0,0,1-.5-1.4,14.6,14.6,0,0,1-.5-2h0a16.6,16.6,0,0,1-.3-2.2,9.1,9.1,0,0,1,.1-1.7,7.7,7.7,0,0,1,.2-1.5,5.8,5.8,0,0,1,.5-1.4,5.2,5.2,0,0,1,.6-1.3,15.9,15.9,0,0,1,1.3-2.2l1.1-1.3.2-.2a.5.5,0,0,0,.4-.2Zm-9.4-7.7,3.4,2.3,1.6,1.3.3.2-.8.8a18.7,18.7,0,0,0-3.9,7.2l-.3,1.9a10.4,10.4,0,0,0,0,2.5,20.3,20.3,0,0,0,.7,4.3c.4,1,.8,2.1,1.3,3.1l.6,1.2h0l-1.4-.2H113l-2.5-3.3-1.1-1.9-.9-2.3c-.3-1.1-.5-2.1-.7-3.2a7.6,7.6,0,0,1-.3-2.1,12.7,12.7,0,0,1,.1-2l.3-2.1h0c.3-.8.5-1.7.8-2.5a16.3,16.3,0,0,1,.9-1.9,11.9,11.9,0,0,1,.9-1.5l.8-1,.8-.7h0a.1.1,0,0,1,.1-.1c-.1,0-.1,0-.1.1l.8-.6h.2a1.6,1.6,0,0,0,1-.2Zm-31.8-8.1,1.8-.4h.2a7.8,7.8,0,0,0-1.1,1.8,6.9,6.9,0,0,0-.5,2.4,4.5,4.5,0,0,0,.1,2,5.4,5.4,0,0,0,.8,2.1l.4.6-1.6.3a18.8,18.8,0,0,0-3,1.2l-.6-.8-.6-1.2-.6-1.3c-.1-.3-.1-.7-.2-1s-.1-.4-.1-.6v-.4c.1-.1.1-.2.1-.4v-.2c0-.1.1-.2.1-.3l.2-.3h.1a1.5,1.5,0,0,0,1.1-1.4,1.9,1.9,0,0,0-.2-.8l.4-.2,1.6-.5Zm-3.2,17.8-1.8.7a1.5,1.5,0,0,0-.5-1.5l-.8-.7,1.4-1.3,1.4-1h.1a1.5,1.5,0,0,0,2.1.1,1.7,1.7,0,0,0,.3-1.7h0l1.3-.6,1.1-.2,1.6-.2h1.5l.6.2.7.3.5.3.5.4.2.3.2.2h0l-.4.2-.9.5-4.1,1.6ZM79,250.6Zm.4-.5Zm-6.1,1.7,1.6-1.2,1.2-.7a5,5,0,0,0-.2,1.2,8.5,8.5,0,0,0,.4,3.2,15.3,15.3,0,0,0,2.1,4h-.1l-3,2.5-.3-.3-.9-1.2a2.5,2.5,0,0,0-.4-.7l-.3-.9a.9.9,0,0,1-.1-.5,1.3,1.3,0,0,1-.1-.6v-.6h0a1.6,1.6,0,0,0,.6-1.5,1.6,1.6,0,0,0-2-1.2h-.2Zm-4.8,8.6Zm2.8,2.5h-.4l-.5-.3a.1.1,0,0,0,.1.1h-.1l-.3-.2-.4-.3-.5-.5-.5-.6c0-.1,0-.2-.1-.2v-.4a2,2,0,0,0-.1-.7.8.8,0,0,1,.1-.4v-.5l.3-.8a14.2,14.2,0,0,1,.8-1.8,3.3,3.3,0,0,1,.6-1l.4-.5-.2.5a2.8,2.8,0,0,0-.1.9,4.6,4.6,0,0,0,.1,2,10.7,10.7,0,0,0,2.5,4.7h-.1l-.3.2H71.3Zm1.9,24.4-1.6,1.1-1.1.7-.9.3-.7.2H67.1l-.6-.2-.5-.2-.6-.5-.4-.3-.4-.3c-.1-.2-.2-.3-.2-.4a2.1,2.1,0,0,1-.4-.6c0-.2-.1-.3-.1-.5a1.4,1.4,0,0,1-.2-.7c0-.2-.1-.4-.1-.6a2.5,2.5,0,0,1,.1-.8,7.8,7.8,0,0,1,.2-1.4l.3-1.1a3.6,3.6,0,0,0,.4-1.1l.9-1.7a9.5,9.5,0,0,1,1-1.7l1.1-1.4a11.4,11.4,0,0,0,1.1-1.1,2.7,2.7,0,0,0-.6,1.6h0c-.2,2,1.1,3.7,2.4,5a18.1,18.1,0,0,0,5,3.3l-1.1,1.1ZM71,277h0Zm12.2.6L82,276c-.7-1-1.5-2.1-2.1-3.1a7.5,7.5,0,0,1-.7-1.2h0c0-.1,0-.2-.1-.2l.4-.6a1.4,1.4,0,0,0-1-1.8h-.9a2.6,2.6,0,0,0-.9.5,2.2,2.2,0,0,0-.6,1.3v.9a6.8,6.8,0,0,0,1.3,2.7,16.3,16.3,0,0,0,1.1,1.7l2.4,3.1-.4.3a39.7,39.7,0,0,0-2.8,3l-.5-.2-1.6-.7-1.6-1-1.4-1.1-.7-.8-.5-.7a.8.8,0,0,1-.2-.4.4.4,0,0,1-.1-.3H71v-.2h0a1.7,1.7,0,0,0,1-1.3,1.5,1.5,0,0,0-1.5-1.5,1.4,1.4,0,0,0-1.1.2l.7-.7,1.9-1.5,2-1.3h0l2.3-1.3,1.9-.9,5-2,2.8-1.2a5.9,5.9,0,0,0-.5,2.2,7.4,7.4,0,0,0,0,2.1,15.8,15.8,0,0,0,1.5,4.8l.4.7c-.8.4-1.6.7-2.4,1.2Zm14.1,2.1a2.3,2.3,0,0,0,.1-1.4,3.4,3.4,0,0,0-1.5-2.2,8.5,8.5,0,0,0-5.4-1.5l-.3-.4a6.4,6.4,0,0,1-.8-1.4c-.2-.4-.3-.9-.5-1.3l-.3-1.5h0a.1.1,0,0,1-.1-.1.1.1,0,0,0,.1.1c-.1-.4-.1-.7-.2-1.1V268a1.3,1.3,0,0,0,.1-.6c.1-.2.1-.4.2-.6s0-.1.1-.2h0a1.4,1.4,0,0,0,1-1.4,1.3,1.3,0,0,0-.4-1l1.1-.4a17.1,17.1,0,0,0,2.3-1.3,3.6,3.6,0,0,0,1.3-2.2,3.6,3.6,0,0,0-1.1-2.6,6.9,6.9,0,0,0-2.4-1.8l-1-.3-.4-.5h.1l-1.1-1.3a3.5,3.5,0,0,1-.5-.8l-.3-.5-.2-.3v-.4h0a1.3,1.3,0,0,1-.1-.6v-.6c0-.2.1-.4.1-.7l.2-.5a2,2,0,0,1,.4-.8l.3-.5.5-.7,1.5-1.4h0l.3-.2h3.1l2.3.3,2.2.4,2.6.8h.2l-.4.3a16.6,16.6,0,0,0-2.3,3.1,13.7,13.7,0,0,0-1.5,3.8,21.4,21.4,0,0,0-.6,3.5v.3c-.1,1.2-.2,2.4-.2,3.7a12.8,12.8,0,0,0,.2,3.9,18.6,18.6,0,0,0,.7,3.4c.8,2.1,1.7,4.2,2.7,6.2a24.7,24.7,0,0,0,3.4,5.4l1.9,2.1h-.2a20.6,20.6,0,0,0-2.9,3l-1.6,1.8-.5-.3-1.4-1.1-1-1.1a3.5,3.5,0,0,1-.5-.8L96,284a10.4,10.4,0,0,0-.4-1c0-.2-.1-.4-.1-.6h0a.8.8,0,0,0,.2-.4v-.3l.8-.7A3.1,3.1,0,0,0,97.3,279.7ZM91.4,284l1.3-.6a10.6,10.6,0,0,0,.6,1.9,23.3,23.3,0,0,0,1.7,2.6l2.4,2.2.6.3-3.2,3-1,1-1.7-.8-1.2-.8-1.1-.8-.4-.5-.6-.8a5.9,5.9,0,0,1-.4-.8l-.3-.8a2.4,2.4,0,0,1-.2-.8c0-.1,0-.1-.1-.2v-.2a.9.9,0,0,0,.3-1,1.2,1.2,0,0,0-.7-1.1l.5-.3Zm-3.5,4.2h0ZM85,299.5l-.7-.2H84a1,1,0,0,1-.5-.4l-.3-.2-.5-.5-.5-.7-.6-1.1a1.4,1.4,0,0,1-.2-.6c-.1-.1-.1-.3-.2-.5v-1.4a.7.7,0,0,1,.1-.5,1.4,1.4,0,0,1,.2-.7l.3-.7L83,290l.9-1.2.9-1h.1v.5a7.6,7.6,0,0,0,.6,2.6,22.5,22.5,0,0,0,1.2,2.1,11.8,11.8,0,0,0,4,3.3l.8.4-.3.2-2.5,1.9-.7.4-1,.3H85Z"/><path class="cls-1" d="M381.1,245.7l15.3,1.9,12.1,5,10.2,7.5,5,13.7-2.2,6.9s-5.3.4-6.1,0-3-5.8-3-5.8l-3.5-7.4-5.7-3-2.6,1.3,5.9,10,5.7,12.6v11l-4.2,7.2-5.2-2.1-4.4-8.3L394.9,281l-6-3.2-1.6,1.5,3.4,7.4,1.9,7.2-2,7.4-5.2,2.3-5-3.7-3.6-13.2-2.9-14.3-5.5-3.9-5.5-5.8.4-8.6,7.4-7.1Z"/><path d="M384.4,305.4a8.2,8.2,0,0,0,3.1-.3l1.6-.6a8.2,8.2,0,0,0,4.1-4.1,12.3,12.3,0,0,0,.7-4.2,12.2,12.2,0,0,0,0-2.7c-.1-.6-.1-1.1-.2-1.7a20.7,20.7,0,0,0-1-3.3c-.5-1-1.1-2-1.7-3a25.3,25.3,0,0,1-1.3-2.2l-1-2h0c0-.1-.1-.1-.1-.2v.2l-.3-.8a.6.6,0,0,0-.1-.4v-.2h1.6l.8.2.4.3a.3.3,0,0,0-.1.2,1.6,1.6,0,0,0,1.6,1.4h.3l.4.5.9,1.5a22.1,22.1,0,0,1,1.2,2.7,18.7,18.7,0,0,1,.7,2.2l.3,1.8h0a14.9,14.9,0,0,1,.2,2.1l-.3.6a1.6,1.6,0,0,0,.6,1.7c0,.3.1.7.1,1h0a19.1,19.1,0,0,0,1,5.2,11.1,11.1,0,0,0,2.5,4.5,8,8,0,0,0,2.7,1.8,8.4,8.4,0,0,0,3.1.5,7.3,7.3,0,0,0,5.4-3,3.6,3.6,0,0,0,.7-1,8,8,0,0,0,.8-1.6l.5-1.2c.1-.6.3-1.1.4-1.7a15.8,15.8,0,0,0,.5-3.8,21.7,21.7,0,0,0-.3-4.4L414,290l-.3-1.2-.3-1.3c-.2-.5-.3-1-.5-1.5l-1-2.5-1.1-2.2c-.2-.5-.5-.9-.7-1.3h.4l1.7-.2c.1.2.1.4.2.5a5,5,0,0,0,1.9,2.4,5.2,5.2,0,0,0,2.7,1,6.2,6.2,0,0,0,6.9-3.8l.6-1.9a11.9,11.9,0,0,0,.3-4.6,25,25,0,0,0-.6-3.8,27.4,27.4,0,0,0-1.5-4,44.5,44.5,0,0,0-2.6-4.8,49.4,49.4,0,0,0-3.6-4.4l-.9-.9-1.2-1.1-1-.8-1-.8c-1.6-1-3.2-2-4.9-2.9a24.5,24.5,0,0,0-5.1-2,47.7,47.7,0,0,0-5.1-1.3l-5.5-1c-1.9-.4-3.8-.5-5.6-.7h-7.1l-1.8.2-1.7.2a17.7,17.7,0,0,0-3.2.5,7,7,0,0,0-2,.8h-.3a3.1,3.1,0,0,0-1.3.3,6,6,0,0,0-1.3.9l-2,1.7a11.8,11.8,0,0,0-1.7,2.2,10.5,10.5,0,0,0-1.3,2.3,18.1,18.1,0,0,0-1.2,5.1,9.7,9.7,0,0,0,.8,5.3,6.4,6.4,0,0,0,1.3,1.9,12.2,12.2,0,0,0,1.7,1.5c.5.4,1.1.6,1.7,1l1.5.8,1.3.8a1.4,1.4,0,0,0-.3,1.2,1.4,1.4,0,0,0,1.7,1.2l1-.2v.2l1.2,2c0,.1.1.2.1.3h-2.9a1.5,1.5,0,0,0-1.4,1.6,1.5,1.5,0,0,0,1.6,1.4h3.8c0,.1.1.3.1.4h0c.2.8.3,1.6.5,2.5s.1,2,.2,3a1.5,1.5,0,0,0-1.7,1.1,1.6,1.6,0,0,0,1.2,1.8h.8c.2,1.5.6,2.9.8,4.4a20.2,20.2,0,0,1,.4,2.6,22.1,22.1,0,0,0,.5,2.5,10.3,10.3,0,0,0,.7,2.5,13.9,13.9,0,0,0,1.2,2.8A7.1,7.1,0,0,0,384.4,305.4Zm-7.9-30.8a21.2,21.2,0,0,0-1.1-2.1l-.4-.6,1.1-.3a21.3,21.3,0,0,0,4.9-2.1,25,25,0,0,0,5.1-4,17,17,0,0,0,2.6-3.4,22.3,22.3,0,0,0,2.7-8,11.5,11.5,0,0,0-.5-5.5c2.5.4,4.9.8,7.4,1.4a1,1,0,0,0,.3,1v.2a1.3,1.3,0,0,1,.1.6,9.7,9.7,0,0,1,.1,1.7,10.9,10.9,0,0,1-.1,1.8l-.3,1.3-.6,1.8-1.2,2.3a38.8,38.8,0,0,1-3.2,4.7c-.4.6-.9,1.1-1.3,1.6l-1.7,1.4c-1.2.9-2.5,1.6-3.8,2.4a34.8,34.8,0,0,1-4.3,2.2,17.1,17.1,0,0,1-3,.9Zm-.7-26.4a.5.5,0,0,0,.2.4v.3c0,.6.1,1.1.1,1.7s-.1,1.7-.2,2.5l-.3,1.5a12.1,12.1,0,0,1-.5,1.4,8.3,8.3,0,0,1-.7,1.3,6.7,6.7,0,0,1-.9,1.4l-1.5,1.7h0c-.1,0-.1,0-.1.1h0l-1.6,1.3-1.3.9a21.7,21.7,0,0,0-3.3,1.9h0l-.2-.2c-.1-.1-.2-.2-.2-.3l-.6-.9-.3-.5a.6.6,0,0,0-.1-.4c0-.2-.1-.4-.1-.7a5.7,5.7,0,0,1-.1-1.3,13.6,13.6,0,0,1,.2-2l.3-1.4a14.2,14.2,0,0,1,.5-1.6,8.3,8.3,0,0,1,.7-1.3l.9-1.4.8-.8,2.3-2h.8c0,.1.1.1.2.1h.1a1.6,1.6,0,0,0,2.1-.4,1.9,1.9,0,0,0,.2-.8Zm11.4-.1a1.2,1.2,0,0,0,.7.7.4.4,0,0,0,.1.3l.3.9h0c.1.4.1.7.2,1a6.6,6.6,0,0,0,.1,1.4c-.1.6-.1,1.1-.2,1.7a11.8,11.8,0,0,1-.4,2,18.4,18.4,0,0,1-.9,2.5.1.1,0,0,0,.1-.1v.2h0a17.4,17.4,0,0,1-1,1.9,9.1,9.1,0,0,1-1.1,1.6,7.5,7.5,0,0,1-1.5,1.6,24.1,24.1,0,0,1-2.4,2.1l-2.1,1.3a8.8,8.8,0,0,1-2,.9l-4,1.3-1.1-.9a10.7,10.7,0,0,0-2.2-1.5l-1.3-.7h.1l1.2-.7a16.1,16.1,0,0,0,2.8-1.7,17.7,17.7,0,0,0,3.1-3,9.5,9.5,0,0,0,1.5-2l.9-1.8a18.5,18.5,0,0,0,1.1-8.1c-.1-.4-.1-.7-.2-1.1h2.5l4.1.2Zm29.6,13.4a11.3,11.3,0,0,1,1,1.3l.3.4a1.6,1.6,0,0,0-.8.6,1.4,1.4,0,0,0,.1,1.7h0v.6a.4.4,0,0,0-.1.3l-.2.3-.2.3-.4.5-.8.7-1.3.7-1.1.6-1,.3a16.1,16.1,0,0,0-1.7-2.8,11.4,11.4,0,0,0-1.1-1.1l.7-.3a7.6,7.6,0,0,0,1.9-1.2,10.1,10.1,0,0,0,1.3-1.6,8.5,8.5,0,0,0,.9-2.2,7.5,7.5,0,0,0,.2-2.1l.2.2,1.1,1.3A6.4,6.4,0,0,1,416.8,261.5Zm-11.7,10.4c-.8-1.2-1.6-2.4-2.3-3.7a3.1,3.1,0,0,1-.5-1c-.1-.1-.1-.2-.1-.4a.1.1,0,0,1-.1-.1h.2c.1,0,.2,0,.2-.1h2.3l.6.2.6.3.7.5a6.5,6.5,0,0,1,1.2,1.1l.7.8.8,1.2h0a1.5,1.5,0,0,0,1,2.7h0a10.9,10.9,0,0,1,.5,1.7c.2.6.3,1.2.5,1.8h-1.1a1.7,1.7,0,0,0-1.3,1l-1.1-1.7C407,274.9,406.1,273.4,405.1,271.9Zm12.3-5.8h0Zm0-.6h0Zm4.3,7.4a.4.4,0,0,0-.1-.3,1.8,1.8,0,0,0-2.3-.2,1.6,1.6,0,0,0-.4,1.6h0l-.4.5-.4.5-.4.3-.8.5-.7.4-1.5.4h-.3c-.4-1.3-.7-2.5-1-3.8h0a15.3,15.3,0,0,0,4-2.1,8.4,8.4,0,0,0,2.3-2.3,11.7,11.7,0,0,0,.5-1.1,6.9,6.9,0,0,0,.5,1.3,6,6,0,0,1,.6,1.9A20,20,0,0,1,421.7,272.9Zm-1.6,7.3h0Zm-4,.3-.3-.3h-.1l-.2-.3h0l-.2-.3a.1.1,0,0,1-.1-.1,11.1,11.1,0,0,0,4.9-2.3,5.7,5.7,0,0,0,1.2-1.5,5.9,5.9,0,0,0,.4-.8l.2-.5v.6a3.7,3.7,0,0,1-.1,1.1,11.8,11.8,0,0,1-.4,2l-.3.8a1.7,1.7,0,0,1-.2.5l-.3.3-.4.5h-.5l-.7.2-.7.2h-1.5l-.4-.2Zm-15.9,17a7.7,7.7,0,0,1-.2-1.5,19.5,19.5,0,0,0,5.9.3c1.9-.3,3.9-.9,5-2.6h0a3,3,0,0,0,.5-1.6,7.7,7.7,0,0,0,.2,1.5,9.1,9.1,0,0,0,.1,1.7c-.1.7-.1,1.4-.2,2l-.3,1.9c-.1.4-.3.8-.4,1.2a4.2,4.2,0,0,1-.4,1l-.6,1.3-.4.7-.5.4a1.2,1.2,0,0,1-.5.5l-.4.3-.6.3h-2.8l-.5-.3a1.5,1.5,0,0,1-.7-.3l-.3-.2c-.2-.1-.3-.3-.5-.5l-.5-.5-.5-.9a3.7,3.7,0,0,1-.5-1.1l-.6-1.8Zm8.1-5.3h0Zm-11-8.7a16.7,16.7,0,0,0-1.2-2.3l.7-.4a13.6,13.6,0,0,0,4.1-3,9,9,0,0,0,2.1-3.7c.5.8,1,1.7,1.6,2.5s1.9,3.1,2.8,4.6.7,1.3,1,1.9a25.6,25.6,0,0,1,1.1,2.4h.1a.1.1,0,0,1-.1-.1,19.5,19.5,0,0,1,.8,2.2,21.7,21.7,0,0,1,.7,2.4c.1.3.1.7.2,1a2.4,2.4,0,0,0-.8-.9,1.5,1.5,0,0,0-2.1.4,1.5,1.5,0,0,0,0,1.6h-.2a.1.1,0,0,1-.1.1l-.3.2h-.3a1.6,1.6,0,0,1-.9.3l-1,.2h-3.7l-1.7-.4h-.5a27,27,0,0,0-.5-4.1v-.4l3.8-1.2,1.9-.7a6.2,6.2,0,0,0,2.5-1.4,1.9,1.9,0,0,0,.6-.7,1.8,1.8,0,0,0,.3-1.4,1.9,1.9,0,0,0-.5-1l-.7-.4a1.6,1.6,0,0,0-1.9.9c0,.2-.1.4,0,.6h-.2l-1.2.6-3.6,1.2-1.9.5A15.4,15.4,0,0,0,397.3,283.5Zm-11.9-3.2a3.6,3.6,0,0,0,.2,1.1.3.3,0,0,0-.1.2.9.9,0,0,0-.1.5h-.1l-.4.4-.9.6-1,.4-.8.3-1.6.3h-2.3c-.1-.8-.1-1.6-.2-2.3a30.3,30.3,0,0,0-.6-4.2.1.1,0,0,0-.1-.1h0l2.7-.6a25.7,25.7,0,0,0,6-2.3,55.8,55.8,0,0,0,5.8-3.5,18.8,18.8,0,0,0,2.6-2.2,14.8,14.8,0,0,0,2.5-3.1l2.1-3.1c0-.1.1-.2.1-.3a30.1,30.1,0,0,0,1.6-3.1,17.2,17.2,0,0,0,1-3.9,12.7,12.7,0,0,0,0-3.9,4.3,4.3,0,0,0-.1-.5h.1l2.6.9,2.1,1,2,1.1,2.1,1.4.4.3.2.4h0l.3,2c0,.3.1.6.1.9a4.3,4.3,0,0,1-.1.5,2.9,2.9,0,0,1-.2.9,1.4,1.4,0,0,1-.2.6.9.9,0,0,1-.3.6l-.3.5-.4.4h0l-.3.3-.3.2-.5.2-.9.3-1.7.4H406l-1-.3a7.6,7.6,0,0,0-3,0,3.6,3.6,0,0,0-2.4,1.5,3.4,3.4,0,0,0-.3,2.6,9.7,9.7,0,0,0,1.1,2.3l.6,1a1.5,1.5,0,0,0-.9.6,1.4,1.4,0,0,0,0,1.7h0v.2a1.4,1.4,0,0,0-.2.6l-.3.5-.6.8-.7.8h0l-1.2,1-1.1.7-1.5.7-.5.2a7.7,7.7,0,0,0-5.2-2,4,4,0,0,0-2.6.8,7.5,7.5,0,0,0-.7,1.2A2.6,2.6,0,0,0,385.4,280.3Zm4.2,8.8.3.5a1.7,1.7,0,0,0-1.3.5,1.7,1.7,0,0,0-.3,1h-.1l-.2.2-.6.5-.7.5-.9.4-.9.3h-3.4l-1.8-.3a7.8,7.8,0,0,1-.2-1.4l-.9-4.3h.7a18.7,18.7,0,0,0,3.2-.4,10.2,10.2,0,0,0,2.9-1.1,9.1,9.1,0,0,0,1.6-1.1,7.5,7.5,0,0,1,.7,1.2C388.4,286.9,389,288,389.6,289.1Zm-1.4,2.1h0Zm-4.9,10.7-.4-.3-.5-.4-.3-.4a5.6,5.6,0,0,1-.5-.8l-.3-.7c-.4-1-.7-2-1-3s-.1-.3-.1-.4l.9.2a11.4,11.4,0,0,0,5.2-.4,6.7,6.7,0,0,0,2.1-.9,7.4,7.4,0,0,0,2.1-1.8l.3-.4v.2a5.7,5.7,0,0,1,.1,1.3,7.6,7.6,0,0,1,.1,1.5c-.1.7-.1,1.5-.2,2.2s-.1.5-.1.8l-.3.7c-.1.1-.1.3-.2.4a4.3,4.3,0,0,1-.4.7l-.5.5-.4.3-.5.3-1.1.5-.9.3h-2l-.6-.3Z"/></svg>