<svg id="Arms_3" data-name="Arms 3" xmlns="http://www.w3.org/2000/svg" viewBox="0 0 500 500"><defs><style>.cls-1{fill:lime;}</style></defs><path class="cls-1" d="M62.1,252.1,56,266.2l-1.8,12.9,1.2,12.6,9.2,11.4,7.1,1.5s3-4.3,3-5.2-3.3-5.5-3.3-5.5l-4.6-6.8.3-6.4,2.4-1.6L75,289.3l8,11.3,9.5,5.5h8.3l1-5.5-5-8L85.5,281.9l.3-6.8,2.1-.6,4.6,6.8,5.3,5.2,7.3,2.1,4.6-3.3-.6-6.2-9.5-9.8-10.7-9.8-.7-6.8L86.1,245l-7.7-4-9.8,2.8Z"/><path d="M111.3,279a14.4,14.4,0,0,0-1.8-2.5,15.7,15.7,0,0,0-1.8-1.9l-1.9-1.7-2.1-1.6c-1.1-1-2.1-2-3.3-2.9l.3-.8a1.5,1.5,0,0,0-2.8-1.1l-2.4-1.7-1.9-1.6h-.1c0-.1-.2-.2-.3-.3l.6-.7a21.3,21.3,0,0,0,1.6-2.5,1.4,1.4,0,0,0-.4-2,1.5,1.5,0,0,0-2.1.4c-.3.5-.7,1-1,1.6l-.6.8a.2.2,0,0,0-.2-.2,21.2,21.2,0,0,0-1.1-2.1v-.2l.6-.7a1.4,1.4,0,0,0-.1-2.1,1.3,1.3,0,0,0-1.2-.3c0-.5-.1-1-.1-1.5s.1-1.2.1-1.8a13.3,13.3,0,0,0,0-2,15.5,15.5,0,0,0-.4-2.1,6.2,6.2,0,0,0-1-2.2,9.4,9.4,0,0,0-4.1-3.3,14.6,14.6,0,0,0-5-1.6H76.2l-2.8.4-2.5.8-1.4.7a2.2,2.2,0,0,0-.9,1l-.2.2a10.9,10.9,0,0,0-1.7,1.3,25.2,25.2,0,0,0-2.1,2.5l-1,1.4a8.3,8.3,0,0,0-1.1,1.5c-.4.5-.7,1.1-1.1,1.7l-.9,1.5L59,256.1c-.8,1.7-1.6,3.4-2.3,5.2s-1.3,3.4-1.9,5.2a28.8,28.8,0,0,0-1.5,5,33.2,33.2,0,0,0-.9,5.5,54.2,54.2,0,0,0,0,5.7c.1.4.1.8.2,1.2a5.3,5.3,0,0,0,.1,1.3l.3,1.6.4,1.2a30.5,30.5,0,0,0,2,5.3,27.3,27.3,0,0,0,2.7,4.7,22.4,22.4,0,0,0,2.7,3.4,17.6,17.6,0,0,0,3,2.4,10.7,10.7,0,0,0,4.1,2.1l1.9.4a6.1,6.1,0,0,0,3-.2,6.9,6.9,0,0,0,3.8-3.7,5.8,5.8,0,0,0,.6-2.9,6.9,6.9,0,0,0-1.1-2.8.8.8,0,0,0-.4-.4l1.1-1.5a1,1,0,0,0,.1-.3l.7,1.2,1.3,2.1,1.7,2.2,1.1,1.2.9.9.9.9,1,.9a23.1,23.1,0,0,0,3.6,2.5,21.7,21.7,0,0,0,3.5,1.5l1.7.5,1.2.2,1.9.2h1.2a7.6,7.6,0,0,0,5.3-3.2,7.9,7.9,0,0,0,1.1-2.9,6.9,6.9,0,0,0-.1-3.2,13.1,13.1,0,0,0-2.6-4.6,25.7,25.7,0,0,0-4-3.4h0l-.8-.6a1.5,1.5,0,0,0-1.2-1.4h-.6l-1.8-1.3H93L91.6,287,90,285.2l-1.7-2.4-.8-1.5c-.1-.2-.1-.4-.2-.6l.2-.2a1.7,1.7,0,0,0-.4-2.1h-.2v-.4c.1-.3.1-.5.2-.8a1.4,1.4,0,0,1,.2-.6c.1-.1.1-.3.2-.5l.2-.2a.1.1,0,0,1,.1-.1h.3l.3.3.5.6h0a19.9,19.9,0,0,1,1.2,1.9l1.3,2.3a22.8,22.8,0,0,0,1.7,3,17.9,17.9,0,0,0,2.3,2.5l1.4,1.1,2.2,1.3a12.2,12.2,0,0,0,4,1.5,7.7,7.7,0,0,0,5.7-1.4l1.3-1a7.6,7.6,0,0,0,1.8-2.6A7,7,0,0,0,111.3,279Zm-24-14L85,267.1l-4.1,2.6-4.1,2-2,.7-2,.4a54.6,54.6,0,0,1-5.7.4l-2.6-.2-1.8-.4-1.3-.4-1.7-.8-1.3-1a1,1,0,0,1-.5-.4v-.2a1.4,1.4,0,0,0-.7-.8c.8-2.4,1.6-4.7,2.5-7a12.3,12.3,0,0,0,4.6,3.2,20.8,20.8,0,0,0,8.2,1.8,14.7,14.7,0,0,0,4.2-.6,22.5,22.5,0,0,0,6.1-2.3A21.3,21.3,0,0,0,87,261a3,3,0,0,1,.8-.8l.3.7,1.2,1.9A20.9,20.9,0,0,1,87.3,265ZM68.7,246.9l.9.2a1.5,1.5,0,0,0,1.3-1.6h0v-.3a.8.8,0,0,0,.2-.5h.2c1-.3,1.9-.7,2.9-.9l1.1-.2,1.7-.2h1.5l1.6.4,1.4.5,1.7.8,1.2.8.5.5c.1,0,.1.1.2.2l.4.5a9.3,9.3,0,0,1,.5,1c0,.1.1.2.1.4h0a21.7,21.7,0,0,0-3.3,1.9l-1.4.7-1.9.6h-.1l-2.2.4H74l-1.5-.3-1.3-.5-2.3-1.1-1.4-.9-.2-.2-.2-.4A14.6,14.6,0,0,1,68.7,246.9ZM61.9,257l1.9-3.6,1.2-1.8.2-.3.8.7a17.2,17.2,0,0,0,7.6,3.2h1.9l2.5-.2a20,20,0,0,0,4.2-1.1,26.9,26.9,0,0,0,2.9-1.6l1.2-.7h0v1.4a12.2,12.2,0,0,0,.1,2.7l.3,1.3L83.6,260l-1.8,1.2-2.3,1.1-3,1.1-2.1.5h-2l-2.1-.2h-.1l-2.6-.5-1.9-.7-1.6-.7-1.1-.8-.8-.6h0c0-.1,0-.1-.1-.1h.1l-.6-.7-.2-.2a1.7,1.7,0,0,0-.3-1Zm-5,32.3-.6-1.7v-.2a6.6,6.6,0,0,0,1.9.9,9.9,9.9,0,0,0,2.4.3,5.4,5.4,0,0,0,4-1.3l.6-.5c.1.6.3,1.1.4,1.6a15.9,15.9,0,0,0,1.5,2.9l-.7.6-1.1.8-1.3.7-1,.3H61.2l-.4-.2h-.1a1.5,1.5,0,0,0-1.5-1l-.8.4c-.1-.2-.2-.3-.2-.5a10.1,10.1,0,0,1-.7-1.5Zm18,1.5.9,1.8a1.4,1.4,0,0,0-1.5.6l-.6.9-1.4-1.3-1.2-1.3a.1.1,0,0,0,.1-.1,1.4,1.4,0,0,0-.2-2,1.4,1.4,0,0,0-1.7-.2h0l-.7-1.3-.3-1a4.5,4.5,0,0,1-.3-1.6,2.8,2.8,0,0,1-.1-.9v-.7c.1-.2.1-.4.2-.6a1.4,1.4,0,0,1,.2-.6l.3-.6.3-.5.3-.3h.4l.3.4.6.9c.7,1.3,1.3,2.6,1.9,3.9Zm-13.6,2.9h0Zm-.6-.3h0Zm2.3,5.9-1.4-1.5a7.6,7.6,0,0,0-.8-1.1H62a8.8,8.8,0,0,0,3.2-.7,13.9,13.9,0,0,0,3.8-2.5h.1l2.7,2.8c0,.1-.1.2-.2.3l-1.1,1-.7.4-.9.5h-.4l-.6.2h-.7a1.4,1.4,0,0,0-1.5-.4,1.5,1.5,0,0,0-1,2v.3A13.7,13.7,0,0,1,63,299.3Zm8.9,4h0Zm2.3-3.1c0,.2-.1.3-.1.5a1.7,1.7,0,0,1-.2.5h0c0,.1-.1.2-.2.3s-.1.3-.2.5l-.5.5-.6.5H69.5l-1.9-.7-1.1-.5-.5-.3h1.4a6.5,6.5,0,0,0,2-.4,10.9,10.9,0,0,0,4.5-2.9h0l.2.3h0c0,.1.1.2.1.4h0v.7ZM98.3,296l1.3,1.5a4.1,4.1,0,0,1,.7,1.1,5.6,5.6,0,0,1,.5.8c.1.2.1.5.2.7s.1.5.2.7v.4a2,2,0,0,1-.1.7,1.3,1.3,0,0,1-.1.6,2.1,2.1,0,0,1-.5,1.2l-.3.4-.3.4-.3.3-.6.4-.4.2-.7.2H95.1l-1.2-.2-1.1-.3-1.9-.7-1.7-.9-1.5-.9a10,10,0,0,0-1.1-1,2.8,2.8,0,0,0,1.6.5h.1c1.9-.1,3.5-1.5,4.7-3a16.8,16.8,0,0,0,2.8-5.3l1.2,1Zm-10,3.2ZM87.7,287l-1.5,1.3a34.7,34.7,0,0,1-2.9,2.5,4.1,4.1,0,0,1-1.1.7h-.1l-.6-.2a1.5,1.5,0,0,0-1.8,1.1,2.8,2.8,0,0,0,.1.9,1.8,1.8,0,0,0,.6.9,1.8,1.8,0,0,0,1.3.4h.9a8.4,8.4,0,0,0,2.6-1.5l1.5-1.3,3-2.6.3.3a39.2,39.2,0,0,0,3.2,2.5,4.3,4.3,0,0,1-.1.5l-.6,1.7a13,13,0,0,1-.8,1.7l-1,1.4-.7.8-.7.6-.3.2-.3.2h-.4a1.5,1.5,0,0,0-2.8.8,2,2,0,0,0,.3,1.1l-.7-.7a9.8,9.8,0,0,1-1.7-1.8l-1.5-1.8h0l-1.5-2.2-1.1-1.8c-.9-1.6-1.7-3.2-2.5-4.8l-1.4-2.7a5.7,5.7,0,0,0,2.2.4,7.6,7.6,0,0,0,2.1-.3,14.4,14.4,0,0,0,4.6-1.9l.8-.5a10.5,10.5,0,0,0,1.3,2.3Zm.7-14.3a3.3,3.3,0,0,0-3.4,1.8,8.2,8.2,0,0,0-1,5.5l-.3.4-1.4.9-1.2.6-1.5.5h0l-1.1.2H76.4c0-.1-.1-.1-.2-.1h0a1.3,1.3,0,0,0-1.4-.9,1.2,1.2,0,0,0-1,.5l-.6-1.1-1.4-2.1a3,3,0,0,0-2.3-1,3.5,3.5,0,0,0-2.6,1.3,7.4,7.4,0,0,0-1.5,2.6,2.9,2.9,0,0,0-.2.9l-.4.4h0l-1.2,1.2-.7.6-.5.3-.3.2H59.3l-.8-.3L58,285l-.8-.5-1.5-1.3h0l-.3-.4v-.5a20.9,20.9,0,0,1-.1-2.5v-2.3c.1-.8.1-1.5.2-2.2l.6-2.8h0l.4.3a16.1,16.1,0,0,0,3.3,2,14.6,14.6,0,0,0,3.9,1.2l3.5.2h4a27.6,27.6,0,0,0,4-.6,17.3,17.3,0,0,0,3.2-1.1c2.1-.9,4-2.1,6-3.2a27.4,27.4,0,0,0,5-4l1.9-2h.2a26.9,26.9,0,0,0,3.2,2.7,13.7,13.7,0,0,0,2,1.3l-.3.6-1,1.5a5.2,5.2,0,0,1-1,1.1l-.7.6-.9.6-.9.5-.6.2h0l-.5-.2h-.2l-.8-.7A3.7,3.7,0,0,0,88.4,272.7Zm4.9,5.5-.7-1.2,1.8-.8a15,15,0,0,0,2.4-2,17.9,17.9,0,0,0,2-2.6l.2-.5,3.3,2.8,1.1.9-.6,1.8-.7,1.3-.7,1.1-.5.5-.7.6-.7.6a2,2,0,0,0-.8.4l-.8.2h-.3a1.5,1.5,0,0,0-1.1-.2,1.4,1.4,0,0,0-1,.8l-.4-.5Zm4.5,3.2Zm11.5,1.8a1.3,1.3,0,0,1-.1.6c0,.1-.1.2-.1.3l-.3.6-.2.3-.4.5-.7.6-1.1.7-.5.3-.5.2h-2.6l-.7-.3-2.1-1-1.2-.8-1.1-.7c0-.1-.1-.1-.1-.2h.5a7.5,7.5,0,0,0,2.5-.9,13.7,13.7,0,0,0,2-1.3,14.2,14.2,0,0,0,2.9-4.3l.3-.9.3.3,2.1,2.3a4.3,4.3,0,0,1,.4.7l.5.9c0,.1.1.3.1.4a1.3,1.3,0,0,1,.1.6.9.9,0,0,1,.1.5A1.3,1.3,0,0,1,109.3,283.2Z"/><path class="cls-1" d="M450.3,252.1l6.1,14.1,1.8,12.9L457,291.7l-9.2,11.4-7.1,1.5s-3-4.3-3-5.2,3.4-5.5,3.4-5.5l4.6-6.8-.3-6.4-2.5-1.6-5.5,10.2-8,11.3-9.5,5.5h-8.3l-.9-5.5,4.9-8,11.3-10.7-.3-6.8-2.1-.6-4.6,6.8-5.3,5.2-7.3,2.1-4.6-3.3.6-6.2,9.5-9.8,10.7-9.8.7-6.8,2.1-7.7,7.7-4,9.8,2.8Z"/><path d="M400.6,285.3a7.6,7.6,0,0,0,1.8,2.6l1.3,1a7.8,7.8,0,0,0,5.7,1.4,12.2,12.2,0,0,0,4-1.5l2.2-1.3,1.4-1.1a17.9,17.9,0,0,0,2.3-2.5,22.8,22.8,0,0,0,1.7-3l1.3-2.3,1.2-1.9h0l.6-.6c0-.1.1-.2.2-.3h.3a.1.1,0,0,1,.1.1l.2.2a1.7,1.7,0,0,1,.2.5,1.4,1.4,0,0,1,.2.6,2.4,2.4,0,0,1,.2.8v.4h-.2a1.7,1.7,0,0,0-.4,2.1l.2.2c-.1.2-.1.4-.2.6l-.8,1.5-1.7,2.4-1.6,1.8-1.4,1.1h.1l-1.8,1.3h-.6a1.5,1.5,0,0,0-1.2,1.4l-.8.6h.1a22.5,22.5,0,0,0-4.1,3.4,13.1,13.1,0,0,0-2.6,4.6,6.9,6.9,0,0,0-.1,3.2,6.7,6.7,0,0,0,1.2,2.9,7.2,7.2,0,0,0,5.2,3.2H416l1.9-.2,1.3-.2,1.6-.5a21.7,21.7,0,0,0,3.5-1.5,23.1,23.1,0,0,0,3.6-2.5l1-.9.9-.9a7.6,7.6,0,0,0,.9-.9l1.1-1.2,1.7-2.2,1.3-2.1a7.5,7.5,0,0,0,.7-1.2.5.5,0,0,1,.1.3l1.1,1.5c-.1.1-.3.2-.4.4a6.9,6.9,0,0,0-1.1,2.8,5.8,5.8,0,0,0,.6,2.9,6.9,6.9,0,0,0,3.8,3.7,6.1,6.1,0,0,0,3,.2l1.9-.4a10.7,10.7,0,0,0,4.1-2.1,17.6,17.6,0,0,0,3-2.4,22.4,22.4,0,0,0,2.7-3.4,36.4,36.4,0,0,0,2.8-4.7A41.4,41.4,0,0,0,459,288c.1-.4.3-.8.4-1.2l.3-1.6c.1-.4.1-.8.2-1.3a4.9,4.9,0,0,1,.1-1.2,54.2,54.2,0,0,0,0-5.7,25.3,25.3,0,0,0-.9-5.5,28.8,28.8,0,0,0-1.5-5c-.6-1.8-1.2-3.5-1.9-5.2a48.3,48.3,0,0,0-2.3-5.2l-1.5-2.9-.9-1.5c-.4-.6-.7-1.2-1.1-1.7s-.7-1-1-1.5a17.1,17.1,0,0,0-1.1-1.4,25.2,25.2,0,0,0-2.1-2.5,10.9,10.9,0,0,0-1.7-1.3l-.2-.2a2.2,2.2,0,0,0-.9-1l-1.4-.7-2.5-.8-2.8-.4h-2.6a15.4,15.4,0,0,0-5,1.6,9.4,9.4,0,0,0-4.1,3.3,8.8,8.8,0,0,0-1,2.2,15.5,15.5,0,0,0-.4,2.1,13.3,13.3,0,0,0,0,2c0,.6.1,1.2.1,1.8s-.1,1-.1,1.5a1.3,1.3,0,0,0-1.2.3,1.4,1.4,0,0,0-.1,2.1l.6.7v.2a21.2,21.2,0,0,0-1.1,2.1.2.2,0,0,0-.2.2l-.6-.8c-.3-.6-.7-1.1-1-1.6a1.5,1.5,0,0,0-2.1-.4,1.4,1.4,0,0,0-.4,2c.5.9,1.1,1.7,1.6,2.5l.6.7-.3.3h-.1l-1.9,1.6-2.4,1.7a1.5,1.5,0,0,0-2.8,1.1l.3.8-3.3,2.9-2.1,1.6-1.9,1.7c-.7.6-1.2,1.3-1.8,1.9a14.4,14.4,0,0,0-1.8,2.5A7.4,7.4,0,0,0,400.6,285.3Zm22.5-22.5,1.2-1.9.3-.7a3,3,0,0,1,.8.8,21.3,21.3,0,0,0,4.3,3.1,22.5,22.5,0,0,0,6.1,2.3,14.7,14.7,0,0,0,4.2.6,20.8,20.8,0,0,0,8.2-1.8,12.3,12.3,0,0,0,4.6-3.2c.9,2.3,1.7,4.6,2.5,7a1.4,1.4,0,0,0-.7.8v.2l-.6.4-1.3,1-1.7.8-1.3.4-1.8.4-2.6.2a54.6,54.6,0,0,1-5.7-.4l-2-.4-2-.7-4.1-2-4.1-2.6-2.3-2.1A20.9,20.9,0,0,1,423.1,262.8Zm22.3-14a.5.5,0,0,0-.2.4l-.3.2-1.4.9-2.3,1.1-1.3.5-1.5.3h-3.2l-2.2-.4h-.1l-1.9-.6-1.4-.7a21.7,21.7,0,0,0-3.3-1.9h0a.8.8,0,0,0,.1-.4,9.3,9.3,0,0,0,.5-1l.4-.5c.1-.1.1-.2.2-.2l.5-.5,1.2-.8,1.7-.8,1.4-.5,1.6-.4h1.5l1.7.2,1.1.2c1,.2,1.9.6,2.9.9h.2a.8.8,0,0,0,.2.5v.3h0a1.5,1.5,0,0,0,1.4,1.6l.8-.2Zm5.9,9.7a1.7,1.7,0,0,0-.3,1v.2l-.7.7h.1a.1.1,0,0,0-.1.1h0l-.7.6-1.2.8-1.6.7-1.9.7-2.6.5h-.1l-2.1.2h-2l-2.1-.5-3-1.1-2.3-1.1-1.7-1.2-3.2-2.9.3-1.3a12.2,12.2,0,0,0,.1-2.7v-1.4h0l1.2.7a26.9,26.9,0,0,0,2.9,1.6,21.7,21.7,0,0,0,4.2,1.1l2.5.2h1.9a17.2,17.2,0,0,0,7.6-3.2l.8-.7.2.3,1.2,1.8,1.9,3.6A10.9,10.9,0,0,1,451.3,258.5Zm3.6,32.3a10.1,10.1,0,0,1-.7,1.5c0,.2-.1.3-.2.5l-.8-.4a1.5,1.5,0,0,0-1.5,1h-.1l-.3.2h-1.9l-1-.3-1.3-.7-1.1-.8-.7-.6a15.9,15.9,0,0,0,1.5-2.9,7.5,7.5,0,0,0,.4-1.6l.6.5a7.8,7.8,0,0,0,2,1.1,6.8,6.8,0,0,0,2,.2,9.9,9.9,0,0,0,2.4-.3,6.6,6.6,0,0,0,1.9-.9v.2l-.6,1.7ZM440,286.1c.6-1.3,1.2-2.6,1.9-3.9l.6-.9.3-.4h.4l.3.3.3.5.3.6a1.4,1.4,0,0,1,.2.6c.1.2.1.4.2.6v1.6a9.4,9.4,0,0,1-.4,1.6l-.3,1-.7,1.3h0a1.4,1.4,0,0,0-1.7.2,1.4,1.4,0,0,0-.2,2,.1.1,0,0,0,.1.1l-1.2,1.3-1.4,1.3-.6-.9a1.4,1.4,0,0,0-1.5-.6l.9-1.8Zm11.2,7.6Zm.5-.3h0Zm-4.1,7.5a.4.4,0,0,0,.1-.3,1.5,1.5,0,0,0-1-2,1.4,1.4,0,0,0-1.5.4h-.7l-.5-.2h-.5l-.8-.5-.8-.4-1.1-1-.2-.3,2.7-2.8h.1a15.6,15.6,0,0,0,3.8,2.5,8.8,8.8,0,0,0,3.2.7h1.2l-.8,1.1-1.3,1.5Zm-7.1,2.4c-.1,0-.1,0-.1-.1Zm-2.3-3.4v-.4h0a.8.8,0,0,0,.1-.4h0a.1.1,0,0,0,.1-.1h0a.4.4,0,0,1,.1-.3c0-.1,0-.1.1-.1a10,10,0,0,0,4.4,2.9,6.5,6.5,0,0,0,2,.4h1.4l-.5.3-1,.5-2,.7H440l-.6-.5c-.1-.2-.3-.3-.5-.5l-.2-.5c-.1-.1-.2-.2-.2-.3h0c-.1-.2-.1-.4-.2-.5s-.1-.3-.1-.5Zm-22.8-5,1.2-1a16.8,16.8,0,0,0,2.8,5.3c1.2,1.5,2.8,2.9,4.7,3h.1a3.4,3.4,0,0,0,1.7-.5l-1.2,1-1.5.9-1.7.9-1.9.7-1.1.3-1.1.2h-2.9l-.6-.2-.5-.2-.5-.4-.4-.3-.3-.4-.3-.4a2.1,2.1,0,0,1-.5-1.2,1.3,1.3,0,0,1-.1-.6,2,2,0,0,1-.1-.7v-.4c.1-.2.1-.5.2-.7s.1-.5.2-.7a5.6,5.6,0,0,1,.5-.8,4.1,4.1,0,0,1,.7-1.1l1.3-1.5Zm8.7,4.3Zm1.9-13.9a17.6,17.6,0,0,0,1.4-2.3,1.8,1.8,0,0,0,.7.5,15.4,15.4,0,0,0,4.6,1.9,7.6,7.6,0,0,0,2.1.3,5.7,5.7,0,0,0,2.2-.4l-1.4,2.7c-.8,1.6-1.6,3.2-2.5,4.8l-1.1,1.8-1.5,2.2h0l-1.5,1.8a9.8,9.8,0,0,1-1.7,1.8l-.7.7a2,2,0,0,0,.3-1.1,1.5,1.5,0,0,0-2.8-.8h-.4l-.3-.2-.3-.2-.7-.6-.7-.8-1-1.4a13,13,0,0,1-.8-1.7l-.6-1.7a4.3,4.3,0,0,1-.1-.5l3.3-2.5.3-.3,2.9,2.6,1.5,1.3a8.4,8.4,0,0,0,2.6,1.5h.9a1.8,1.8,0,0,0,1.3-.4,1.8,1.8,0,0,0,.6-.9,2.8,2.8,0,0,0,.1-.9,1.5,1.5,0,0,0-1.8-1.1l-.6.2h-.1a4.1,4.1,0,0,1-1.1-.7l-2.9-2.5-1.4-1.3Zm-3.4-11.9-.8.7h-.2l-.5.2h0l-.6-.2-.9-.5-.9-.6-.7-.6a5.2,5.2,0,0,1-1-1.1l-1-1.5-.3-.6a13.7,13.7,0,0,0,2-1.3,20.8,20.8,0,0,0,3.2-2.7h.2l1.9,2a27.4,27.4,0,0,0,5,4c2,1.1,3.9,2.3,6,3.2a16,16,0,0,0,3.3,1.1,24.4,24.4,0,0,0,3.9.6h4l3.5-.2a14.6,14.6,0,0,0,3.9-1.2,13.8,13.8,0,0,0,3.3-2l.4-.3h0l.6,2.8a15,15,0,0,1,.2,2.2,17.7,17.7,0,0,0,.1,2.3c-.1.8-.1,1.7-.2,2.5v.5l-.3.4h0l-1.5,1.3-.8.5-.5.2-.8.3h-2.8l-.3-.2-.5-.3-.7-.6-1.2-1.2h0l-.4-.4a2.9,2.9,0,0,0-.2-.9,6.1,6.1,0,0,0-1.5-2.6,3.5,3.5,0,0,0-2.6-1.3,2.7,2.7,0,0,0-2.2,1,13.7,13.7,0,0,0-1.5,2.1l-.6,1.1a1.1,1.1,0,0,0-.9-.5,1.3,1.3,0,0,0-1.5.9h-2.3l-1.1-.2h0l-1.5-.5-1.2-.6-1.4-.9-.3-.4a8.2,8.2,0,0,0-1-5.5,3.1,3.1,0,0,0-2-1.7,3.3,3.3,0,0,0-1.4-.1A3.7,3.7,0,0,0,422.6,273.4Zm-5.3,8.1-.3.5a1.5,1.5,0,0,0-1.1-.8,1.2,1.2,0,0,0-1,.2h-.4l-.7-.2-.9-.4-.7-.6-.7-.6a1,1,0,0,1-.4-.5,4.4,4.4,0,0,1-.8-1.1l-.7-1.3-.6-1.8,1.1-.9,3.3-2.8.2.5a17.9,17.9,0,0,0,2,2.6,12.2,12.2,0,0,0,2.5,2l1.7.8-.7,1.2Zm-2.6-.1h0ZM403,282.6c0-.2.1-.3.1-.5s.1-.4.1-.6.1-.3.2-.4a3.6,3.6,0,0,1,.4-.9l.5-.7a22,22,0,0,1,2-2.3l.3-.3.3.9a12.8,12.8,0,0,0,3,4.3,9.1,9.1,0,0,0,1.9,1.3,8.4,8.4,0,0,0,2.5.9h.5c0,.1-.1.1-.1.2l-1,.7-1.3.8-2,1-.8.3H407l-.5-.2-.5-.3-1.1-.7-.7-.6-.4-.5-.2-.3-.3-.6c0-.1-.1-.2-.1-.3s-.1-.4-.1-.6S403,282.8,403,282.6Z"/></svg>