<svg id="Arms_1" data-name="Arms 1" xmlns="http://www.w3.org/2000/svg" viewBox="0 0 500 500"><defs><style>.cls-1{fill:lime;}.cls-2{fill:red;}</style></defs><path class="cls-1" d="M165.1,239l-10.8-23.1-13.7-11.7-20.2-1.5-9.8,6.5-7.2,10.7L95,242.2l-10.9,2.6L65.2,230.7,52.4,215.5l-8-4.6-13.9,2.2L25.3,220a2.5,2.5,0,0,0,1.2,4.2l8.7-.2,8.1,4.3,15,27.6,11.3,10.6,15.8,4.8,19.8.6,13.2-13.8,6.3-8.9,6.2-.4.4,7.5,2.2,7.2,15.3-1.3a16,16,0,0,0,14-12.4Z"/><path class="cls-2" d="M136.5,226.3v-.2l-.2-.3h0a.1.1,0,0,0-.1-.1.1.1,0,0,1,.1.1v-.2l-.4-.3-.4-.3h0l-.6-.3-.7-.2h-3.9l-.9.4-.5.2h-.2c0,.1-.1.1-.1.2h0l.4-.2.6-.2a.8.8,0,0,1,.8.7c.1.4-.3.7-.7.8h.1l.3.3.5.3h.1l.6.2.9.4,1.2.2h2.5l.3-.2h.2a.1.1,0,0,0,.1-.1h.2a.4.4,0,0,0,.1-.3v-.2h0a.1.1,0,0,0-.1-.1A.6.6,0,0,0,136.5,226.3Z"/><path class="cls-2" d="M130.9,236.5h.1c0-.1,0-.1-.1-.1h-2.3l-1.4.2-1.3.5-1.2.6-.6.4.2.2a.7.7,0,0,1,0,.9h1.4l1.4-.2h.1l1.9-.7.8-.4.8-.6C130.8,236.7,130.8,236.6,130.9,236.5Z"/><path class="cls-2" d="M100.8,266l-.9-.2-.8-.5-.2-.2-.2-.3a1.1,1.1,0,0,1-.1-.5h0l.3.4a.7.7,0,0,1-.1,1.1c0,.1-.1.1-.3.1a1.3,1.3,0,0,1,.3.8v.4l.4-.3a10.8,10.8,0,0,1,2.4-1.2Z"/><path class="cls-2" d="M140.4,237.4h0c0-.1-.1-.3-.1-.4l-.3-.7h-.1l-.2-.4-.7-.7-.9-.9-1.3-.8-.9-.5c0,.1.1.2,0,.2a.7.7,0,0,1-.6.7v.2c0,.1.1.2.1.4l.5.9.6.8,1.3,1.5.5.4.8.6.4.2h.9a.4.4,0,0,0,.1-.3v-.6Z"/><polygon class="cls-2" points="151.3 246.5 151.3 246.5 151.3 246.5 151.3 246.5"/><path class="cls-2" d="M142.9,230l.6.9.9.9h0l1.5,1.2a3.8,3.8,0,0,0,1.3.9l1.5.8,1.3.4h.1a.1.1,0,0,1-.1-.1h1.7a.6.6,0,0,0,.1-.4h0v-.6h0l-.2-.4-.6-.9-.7-.8-1-.8-1-.7-1.4-.7-1.2-.4h-.3l-.5.3-1.3-.2H143l-.3.2h-.1Z"/><path class="cls-2" d="M140.5,250v-.6h0c0-.2,0-.3-.1-.4h0a6.4,6.4,0,0,1-.2-.7l-.4-.7-.6-.9h0l-.7-.8h.1l-.3-.3v.2l-.2.4h0v.4a.7.7,0,0,0,.1.5l.3,1,.6,1.1a4.1,4.1,0,0,0,.5.9l.3.3h0l.3.2h.3v-.2h0Z"/><path class="cls-2" d="M100.4,263.9c.1.2,0,.3,0,.5h.5l.7.2h2.6l1-.2.6-.3h.4l.2-.2h-.3l-.3-.2h-.4l-.8-.2h-2.2l-1.3.2-1.1.4A.7.7,0,0,1,100.4,263.9Z"/><path class="cls-2" d="M151.6,246.1h0Z"/><path class="cls-2" d="M97.3,267.4H97l-.3-.2-.8-.4-.7-.2-1.7-.4H92l-1.7.2a4.7,4.7,0,0,0-1.7.3l-.8.2-.5.3h-.1c0,.1-.1.2-.1.3h.1l1.3.5h0l2.4.5H91l3,.2h2.9l.3-.2a.1.1,0,0,0,.1-.1h.1a.1.1,0,0,0-.1-.1Z"/><path class="cls-2" d="M161.6,246.7h-.1a1.9,1.9,0,0,0-.2-.7c-.2-.3-.3-.7-.5-1l-.8-1.1-.8-1h-.1l-.9-.9-.6-.4-.7-.4h-1.5l-.3.2-.6.4a1.4,1.4,0,0,0,.2.6,10.9,10.9,0,0,0,.8,1.5,18.8,18.8,0,0,0,1.2,1.8l1.1,1.3h0l1.1.9.8.6h.1l.3.2h1.5a.1.1,0,0,1,.1-.1h0v-.4a.4.4,0,0,1-.1-.3C161.7,247.1,161.6,246.9,161.6,246.7Z"/><path class="cls-2" d="M151.6,245.4h0c-.1-.3-.1-.6-.2-.9l-.3-.7-.4-1-.8-1a3.9,3.9,0,0,0-.8-1l-1.1-.9-1.1-.8h0l-.7-.3h.1l-.8-.3h-.6l.3.8a11.9,11.9,0,0,0,1.2,2.2h-.1a18.5,18.5,0,0,0,1.9,2.7h-.1l1.5,1.7.5.4.3.2.4.2h.5v-.2c.1,0,.1-.1.1-.2h.1v-.6h0Z"/><path class="cls-2" d="M150,253.2a.9.9,0,0,0-.1-.5h0c-.1-.4-.3-.8-.4-1.3l-.7-1.3a10.5,10.5,0,0,0-.8-1.1,6.9,6.9,0,0,0-1.1-1.3l-1.3-1.2h0a2.4,2.4,0,0,0-.9-.6l-.6-.4h-.6c.1.1,0,.3-.1.4l-.3.3v.7c.1.2.1.5.2.7h0a11.2,11.2,0,0,0,.5,1.3h-.1l1.2,2.3h0a12.2,12.2,0,0,0,1.2,1.9l.9,1,1.1.9.3.2h1.5c.1-.2.1-.4.2-.6v-.4a.9.9,0,0,0-.1-.5Z"/><path class="cls-2" d="M117.4,236.6h.5l1.1-.3h0l.9-.5.9-.6.8-.7.5-.6.4-.6.4-.7a.4.4,0,0,1,.1-.3V232h0c0-.1-.1-.2-.1-.3h-1.8l-.7.2-1,.6-.7.4h0l-1,.9-.7.8h0l-.6.9a4.3,4.3,0,0,0-.4.7h0c0,.1-.1.3-.1.4a.4.4,0,0,0-.1.3h.2l.6.3h.8Z"/><path class="cls-2" d="M94.8,257.9h1.1a.8.8,0,0,1,.8.7.7.7,0,0,1-.4.6h.2l.8.2h2.3l1.1-.2.7-.2.4-.2h0l.3-.2c0-.1.1-.1.2-.2h.2v-.2h0v-.2h-.1a.1.1,0,0,0-.1-.1l-.3-.3-.3-.2h0l-.4-.2-.5-.2-1.2-.2H97.5l-1,.2h0l-.7.2h0l-.4.2h-.2c0,.1-.1.2-.1.3s-.1.2-.1.3h-.2v.2h0Z"/><path class="cls-2" d="M129.6,241.4a.8.8,0,0,1,.8.6.6.6,0,0,1-.2.7h.3l.7.2h2.5l-.2-.2h-.1l-.3-.2H133l-1.1-.3h0l-1-.2h-1.3Z"/><path class="cls-2" d="M139.6,258a10.9,10.9,0,0,0-.5-1.7l-.6-1.1h-.1l-.5.2-.8-.2h0a.3.3,0,0,1-.1.2h0v.7c.1.2.1.5.2.7h0l.3,1,.6,1.2h0a4.7,4.7,0,0,0,.6.9l.3.3.2.3h.6v-1.5C139.7,258.5,139.7,258.2,139.6,258Z"/><polygon class="cls-2" points="93.3 256.6 93.3 256.6 93.3 256.6 93.3 256.6"/><path class="cls-2" d="M92,256.7h1.3l-.4-.2h0l-1-.3H89.5l-.9.2h.2a.1.1,0,0,0,.1.1h-.1l.7.2,1.1.2H92Z"/><path class="cls-2" d="M108.2,254.3v.2h.5l1-.6,1.4-.9,1.2-1.1.5-.5.3-.5h-.4l-.6.2-1,.3-1.1.6-1.2.8h0l-1,.8A.8.8,0,0,1,108.2,254.3Z"/><path class="cls-2" d="M119.4,246.2h.7l1.8-.6,2.1-1.1,1-.7h-1l-1.2.2-.8.3-1.4.7-.6.4-.5.4v.2h-.2Z"/><path class="cls-2" d="M110.8,258.3a.8.8,0,0,1,.1.9l.9-.6,2-1.8h0l1.2-1.2.4-.6h-.1l-1.1.4-1,.5-1.7,1.2h0l-1.3,1.1h.1Z"/><path class="cls-2" d="M108,248.6l2.6-1.7,1.7-1.5h-.1l1.1-1.3a2.1,2.1,0,0,0,.4-.6l.3-.4c0-.2.1-.3.1-.4s.1-.3.1-.4h-1.5l-1,.2h0l-.8.2-1.7.9-1.6,1.1-1.6,1.4-1.2,1.3h0l-.4.6-.3.5a.9.9,0,0,0-.1.5h0c0,.1-.1.2-.1.3v.4a.9.9,0,0,1,.1.5h0c0,.1.1.1.1.2a1.3,1.3,0,0,1-.1.6h.1l1.7-.6Z"/><path class="cls-2" d="M90.1,259.9H90l-.3-.2h-.4l-.6-.2H87.5l-.8.2h-.3l.6.2h3.1Z"/><path class="cls-2" d="M123,231.9Z"/><path class="cls-2" d="M80.5,256a.4.4,0,0,1-.1-.3l-.3-.5-.2-.3-.3-.3h0a1.2,1.2,0,0,0-.5-.5l-.3-.2-.4-.2h.1l-.5-.2h-.6c0,.3.1.5.1.8l.3.8h0l.4.8.3.4.4.5h.2c.1.1.1.2.3.2h1.1v-.5h0Z"/><path class="cls-2" d="M67.4,245.6h.2v-.4h.1a.6.6,0,0,0-.1-.4v-.2l-.2-.5a2.5,2.5,0,0,0-.4-.7l-.4-.6-.5-.6-1.1-.9-.7-.5H64l-.4-.2h-.7v.2h0c.1.2.1.5.2.7a6.4,6.4,0,0,0,.2.7l.6,1.2.6.9.8.8.5.5H66l.4.2h1Z"/><path class="cls-2" d="M31.5,221.8h-.2l.3.2Z"/><path class="cls-2" d="M56.6,239.4h0a.4.4,0,0,1-.1-.3l-.3-.6-.3-.4h0l-.4-.5-.3-.3h0l-.4-.2h0l-.3-.2h-.8a.6.6,0,0,1,0,.6l-.4.4h0a3,3,0,0,0,.4.8l.6.9h-.1l.7.8.4.3h0l.3.2h1.1v-.6A.6.6,0,0,1,56.6,239.4Z"/><path class="cls-2" d="M101.4,268.7Z"/><path class="cls-2" d="M57.2,237.4h0Z"/><path class="cls-2" d="M67.3,259.2v.2a2.5,2.5,0,0,0,.4.7l.2.3.5.6.6.5.4.3h.9c0-.1,0-.1.1-.2s-.1-.1-.1-.2h0a.5.5,0,0,0-.2-.4c0-.2-.1-.3-.2-.5l-.2-.3-.5-.6-.5-.4-.4-.2h0l-.9-.4h-.3v.4A.6.6,0,0,1,67.3,259.2Z"/><path class="cls-2" d="M58.1,233.9h0c0-.2-.1-.3-.1-.4h0l-.3-.5-.2-.4-.5-.5-.3-.3-.3-.2h.1l-.4-.2H55a.7.7,0,0,1-.8-.5h0v.9h0a1.9,1.9,0,0,0,.2.8h-.1c.1.2.1.4.2.6l.5.8.4.7.5.6.4.3.3.2H58l.2-.3v-.8C58.2,234.2,58.1,234,58.1,233.9Z"/><path class="cls-2" d="M59.7,240.1h0l-.6-.8v.1h0c.1.1.1.2.2.4a4.1,4.1,0,0,0,.5.9l.6.9h.1a4.1,4.1,0,0,0-.3-.8A2,2,0,0,0,59.7,240.1Z"/><path class="cls-2" d="M72.2,255.7H73v-1.1a.9.9,0,0,0-.1-.5h0c0-.1-.1-.2-.1-.4l-.5-.9-.5-.6a3.9,3.9,0,0,0-.8-1l-1-.9-1.2-.7h0l-.6-.3-.4-.2.6.4h0a.8.8,0,0,1,.3.9.8.8,0,0,1-1,.4l-.4-.3h0v.2h0v.3h0c.1.2.1.5.2.7v.4h0l.5,1h0l.6.9.7.8.8.7h0a1,1,0,0,0,.5.4h0l.6.3.4.2h.6Z"/><path class="cls-2" d="M81.4,264.9h0Z"/><path class="cls-2" d="M49.5,225.4l.6.3a.4.4,0,0,1-.1-.3h0c0-.1-.1-.1-.1-.2l-.4-.8-.7-.9-.8-1-.6-.4a.8.8,0,0,1-.5.7h0a10,10,0,0,0,1.4,1.5Z"/><path class="cls-2" d="M77.8,262.8v.2l.2.3.3.3h0l.5.5.4.2h0l.6.3.6.2h1.2v-.2h-.1c0-.1-.1-.2-.1-.3h-.1c0-.1-.1-.2-.1-.3l-.3-.3-.4-.3-.5-.4-1-.4h0l-.9-.3-.3.2h-.3v.2C77.7,262.5,77.7,262.7,77.8,262.8Z"/><path class="cls-2" d="M102.7,268.6h.1l1.2-.2,1.4-.5h0l.4-.2a1,1,0,0,0,.5-.4c.1,0,.1,0,.1-.1h-.1c-.1,0-.1,0-.1-.1h-1.8l-1.3.3-1.1.4a.8.8,0,0,1-.3.8l-.3.3h1.3Z"/><path class="cls-2" d="M43.2,220.3h-.1V220c-.1-.1-.2-.2-.2-.3h-.8a.1.1,0,0,0-.1-.1h-.4l-.4.2h-.3l.2.3c.1.2.3.3.5.5h-.1l.3.3h0l.3.2c.1.1.2.1.2.2s0-.1-.1-.1h.9a.1.1,0,0,1,.1-.1h0Z"/><path class="cls-2" d="M57.3,248.3a3.2,3.2,0,0,0,.3.9,3.1,3.1,0,0,0,.5,1l.7,1.1.6.7.6.5h1.2v-.3a.4.4,0,0,1,.1-.3v-.3a.6.6,0,0,0-.1-.4.6.6,0,0,0-.1-.4h0c-.1-.2-.1-.5-.2-.7a1.6,1.6,0,0,0-.4-.7l-.4-.6h0l-.4-.5-.6-.6-.4-.2h0l-.6-.3H57.1v.3A2.4,2.4,0,0,0,57.3,248.3Z"/><path class="cls-2" d="M45.5,227.6h0l.2.5h0c0,.1,0,.2.1.2l.2.5.5.5.3.2.4.3a.1.1,0,0,1-.1-.1h.5a.1.1,0,0,1,.1-.1h0a.4.4,0,0,1-.1-.3c-.1-.2-.1-.3-.2-.4h.1v-.2l-.4-.6-.5-.5-.7-.6a.8.8,0,0,1-.2-.4h-.1v.4h0A.4.4,0,0,1,45.5,227.6Z"/><path class="cls-2" d="M76.4,266.2l1,.6.9.4H79v-.2c-.1-.1-.1-.1-.1-.2h-.1l-.2-.3-.6-.5-.6-.4-1-.4h-1v.2l.3.3Z"/><path d="M166.1,237.5c-.2-.5-.3-1-.5-1.5a24.2,24.2,0,0,0-1.2-3.5c-.9-2.3-2-4.5-3-6.8s-1.5-3-2.3-4.4l-1.4-2.5-1.7-2.4-1.7-2.4-.8-.8-.9-1.1c-.7-.5-1.2-1.2-1.9-1.7l-2-1.8h-.1l-1.7-1.2a.1.1,0,0,0-.1-.1,24.6,24.6,0,0,0-3.4-2.2,36.2,36.2,0,0,0-4-1.9l-3.5-1.3a32.5,32.5,0,0,0-5.4-1.2,20,20,0,0,0-7.7.3,23.6,23.6,0,0,0-6.8,2.7,27.8,27.8,0,0,0-5.6,4.1,39.8,39.8,0,0,0-3.9,4.3,7.6,7.6,0,0,0-.8,1.1l-1,1.4a17.1,17.1,0,0,0-1.3,2.3h0a17.4,17.4,0,0,1-1,1.9l-.7,1.9a3.6,3.6,0,0,0-.4,1.1l-.4.9-.6,2.1c-.3,1.3-.7,2.7-1,4.1s-.6,2.6-1,4-.8,2.6-1.3,3.8l-1,2-.8,1.2-.8.9-.8.7-.7.5-1.2.6-1.3.4-2.2.5H85.4l-1.5-.3-2-.7a15.9,15.9,0,0,1-2.9-1.5l-1.3-.9a12.4,12.4,0,0,1-1.8-1.4L74,236.8l-3.6-3.3-4.5-5.1c-1.3-1.3-2.5-2.7-3.7-4.1l-3.5-4.2c-1.1-1.3-2.2-2.7-3.4-4l-1.9-1.9-1.7-1.3-2.2-1.3a17.1,17.1,0,0,0-10.6-2,30.2,30.2,0,0,0-5.2,1.2,16.9,16.9,0,0,0-4.9,2.3l-2.1,1.6-1.9,2-1.6,2-.7,1.2a4.3,4.3,0,0,0-.5,1.6,4.9,4.9,0,0,0,0,1.7,2.4,2.4,0,0,0,.6,1.1,3.2,3.2,0,0,0,1.2,1.1,5.4,5.4,0,0,0,2.5.9h2.3l2.1-.5h.1l2.1-.5h1.7l.9.2.7.2.7.4,1.2.8h0l1.3,1.2a44.8,44.8,0,0,1,3.6,4l1.8,2.6,1.8,2.7a33.3,33.3,0,0,1,2.5,5c.8,1.9,1.5,3.8,2.4,5.5a18.3,18.3,0,0,0,1.3,2.4l1.7,2.4,3.2,4.2,1.8,2.3a17,17,0,0,0,1.9,1.9l2,2,1.8,1.7,2.2,1.7,2.4,1.5a13.6,13.6,0,0,0,2.4,1.3l2.5,1.1a44.8,44.8,0,0,0,5.2,1.6l5.2,1.1,5,.7a43.5,43.5,0,0,0,5.1.2h.9a24.8,24.8,0,0,0,4.7-.3,23.2,23.2,0,0,0,4.4-1.6l2.4-1.1a20.7,20.7,0,0,0,2.5-1.5l2.1-1.7,1.8-2,1.6-2a26,26,0,0,0,2.9-4.2c.7-1.5,1.3-3.1,2.1-4.6l.7-1.1,1.4-1.6.7-.6.8-.5.9-.5.7-.2h2.4l.4.3.3.2.7.8a2.2,2.2,0,0,1,.5.8,5.6,5.6,0,0,0,.5.8,2.4,2.4,0,0,1,.2.8,16,16,0,0,1,.5,2.1c.1.8.1,1.6.2,2.4a2.8,2.8,0,0,1-.1.9l-.3,1.7-.4,1.3a1.5,1.5,0,0,0,.9,1.9,1.6,1.6,0,0,0,1.9-1,14.3,14.3,0,0,0,.9-4.1,15.3,15.3,0,0,0-.2-3.7,12.7,12.7,0,0,0-1.1-3.8,9.7,9.7,0,0,0-2.2-3.1,5.6,5.6,0,0,0-2.4-1.3,5.8,5.8,0,0,0-3.2-.2,10.2,10.2,0,0,0-4.6,2.7,13.5,13.5,0,0,0-3.1,4c-.7,1.4-1.2,3-2,4.4a11,11,0,0,1-1.4,2.1l-1.8,2.3a21.1,21.1,0,0,1-1.9,2.3,10.7,10.7,0,0,1-1.6,1.4l-1,.7c0-.2-.1-.4-.1-.6l-.3-.5-.3-.2-.3-.2h-.5l.7-.4.6-.6.3-.6v-.5c-.1-.2-.1-.4-.2-.6v-.3l-.5-.5a2,2,0,0,0-.8-.4l-.8-.3a10.2,10.2,0,0,0-4.9.2,8.5,8.5,0,0,0-2.2.9l-.8.6-.5.5a2.4,2.4,0,0,0-.2.8c-.1.2,0,.5,0,.7a.4.4,0,0,1,.1.3l-.6-.4a10.5,10.5,0,0,0-2.4-.6,12.9,12.9,0,0,0-2.8-.1,9,9,0,0,0-2.8.4l-1.3.4-.9.5c-.1.1-.3.2-.4.4h0a1,1,0,0,0-.7.4,1.3,1.3,0,0,0-.1.6.9.9,0,0,0,.1.5l.5.5.9.5a11.2,11.2,0,0,0,2.6.8l2.9.4h2.8l1.4-.2,1-.2a2.7,2.7,0,0,0,1-.6c0,.2.1.3.1.4a.8.8,0,0,0,.9.5l.4-.3h.1a1.2,1.2,0,0,0,.9.5l.9.2-.6.2h0l-1.3.3-3.7.2H92.2l-3.5-.3h-.2l-4.3-.7-4.5-1a1,1,0,0,0,.5-.4.5.5,0,0,0,.3-.5,3,3,0,0,0-.3-1.6l.9.2h.3a2.1,2.1,0,0,0,1-.4l.3-.2c0-.1.1-.2.2-.3a.8.8,0,0,0,.2-.5,1.7,1.7,0,0,0,0-1.2,5.4,5.4,0,0,0-.7-1.3,7.4,7.4,0,0,0-1.3-1.2l-1.7-.8-1.9-.5a10.5,10.5,0,0,0-2.5,0,.8.8,0,0,0-.7.8c.1.4.4.8.8.7h1.2c0,.1-.1.1-.1.2a2.4,2.4,0,0,0,0,1.2,3.1,3.1,0,0,0,.5,1l-1-.2H74.6l-.7.3a.8.8,0,0,0-.3,1c0,.1.1.1.1.2v.2l.3.6.5.5.5.5.3.2-.5-.2a35.9,35.9,0,0,1-3.4-1.7l-2.6-1.7a34.7,34.7,0,0,1-2.9-2.5l-2.8-2.6-1.7-1.9-1.6-2h0a8.6,8.6,0,0,0-.7-1,3.1,3.1,0,0,0,1.3.6h.4a2,2,0,0,0,1.1-.3,1.6,1.6,0,0,0,.7-1.1,1.9,1.9,0,0,0,.2-.8,3.3,3.3,0,0,0,0-1,4.5,4.5,0,0,0-.6-1.9,7.6,7.6,0,0,0-2.6-3l-.6-.3h.1a.9.9,0,0,0-.5-1h0l-.4-.2-.7-.2a1.4,1.4,0,0,0-1.1.3,2.6,2.6,0,0,0-.7,1.1,5.9,5.9,0,0,0-.1,1.9,11.7,11.7,0,0,0,.6,2l-1-1.5a17.4,17.4,0,0,1-1-1.9,16.3,16.3,0,0,1-.9-1.9,77.5,77.5,0,0,0-3.5-7.8,39.6,39.6,0,0,0-2.2-3.4c-.6-1-1.3-1.9-1.9-2.8l.2.2a2.4,2.4,0,0,0,1.1.6h1c.3-.1.6-.2.7-.5l.3-.3c0-.2.1-.4.1-.6a2.2,2.2,0,0,0-.1-1.1c0-.1-.1-.2-.1-.3h0a5.3,5.3,0,0,0-1.4-2.4l-1-.7h-1a1.2,1.2,0,0,0-1.3.8,2.2,2.2,0,0,0-.2,1.1,1.9,1.9,0,0,0,.2,1.3l.3.6-2.4-2.6a15.7,15.7,0,0,0-4-3.2,9.2,9.2,0,0,0-4-1.1h0c0-.2-.1-.3-.1-.5a2.4,2.4,0,0,0-1.1-1.3,3.1,3.1,0,0,0-1.9-.1H30a.8.8,0,0,0-.6.9v.4a1.3,1.3,0,0,0,.3.5,1.9,1.9,0,0,0,.6.7h0L29,223l-1,.3H25.3l-.2-.2-.2-.2h0V222c0-.2.1-.3.1-.5a5.6,5.6,0,0,0,.5-.8l.6-.8a19.2,19.2,0,0,1,1.8-2.2l1.9-1.7,1.2-.7,2.5-1.3,2.4-.8,3.6-.7h3l1.2.2,1.2.3,2,.6,2.2,1.1,1.4,1a15.4,15.4,0,0,1,1.9,1.7l1.5,1.6a20.9,20.9,0,0,1,1.4,1.7l2.5,3c1.8,2.1,3.5,4.2,5.4,6.2l3.7,4.1c1.2,1.4,2.5,2.6,3.8,3.9l2,1.7a15.4,15.4,0,0,0,1.9,1.7l1.2,1,1.3.8,1.2.7,1.8,1a16.9,16.9,0,0,0,6.7,1.6,23.5,23.5,0,0,0,3.7-.5,16.1,16.1,0,0,0,3.3-1.2,11.4,11.4,0,0,0,4.7-4.7,24.8,24.8,0,0,0,2-4.4,15.5,15.5,0,0,0,.7-2.3c.3-1,.5-1.9.7-2.8s.9-3.5,1.3-5.3.3-1.2.5-1.8a13.4,13.4,0,0,0,.7-1.8v.2l.8-1.8.9-1.9h0l1-1.8h0l.6-.8.6-.9,1.3-1.7v.2a11.5,11.5,0,0,1,1.4-1.7l1.4-1.4,2-1.8,3-2,2.9-1.4a11.7,11.7,0,0,1,2.4-.9h.1l2.3-.5h.1l2.3-.2,2.9.2,3,.6a57.1,57.1,0,0,1,5.8,2.1h0l3.5,1.8,2.5,1.6h0l1.8,1.5h.1l1.9,1.7,1.7,1.6.7.7.7.8,1.2,1.6,1.3,1.8,1.2,1.8,1.5,2.8,1.5,3.1c1,2,1.9,3.9,2.7,5.9l.9,2.2a17.2,17.2,0,0,1,.7,2.1,16,16,0,0,1,.5,2.1h0a1.4,1.4,0,0,0,1.6,1.3,1.3,1.3,0,0,0,1.3-1.5A7.8,7.8,0,0,0,166.1,237.5ZM97.4,267.7h-.1a.1.1,0,0,1-.1.1l-.3.2H94l-3-.2h-.1l-2.4-.5h0l-1.3-.5h-.1c0-.1.1-.2.1-.3h.1l.5-.3.8-.2a4.7,4.7,0,0,1,1.7-.3l1.7-.2h1.5l1.7.4.7.2.8.4.3.2h.3a.1.1,0,0,1,.1.1Zm3.7-4.7,1.3-.2h2.2l.8.2h.4l.3.2h.3l-.2.2h-.4l-.6.3-1,.2h-2.6l-.7-.2h-.5c0-.2.1-.3,0-.5a.7.7,0,0,0-.4-.5Zm-1.9,4.4-.4.3v-.4a1.3,1.3,0,0,0-.3-.8c.2,0,.3,0,.3-.1a.7.7,0,0,0,.1-1.1l-.3-.4h0a1.1,1.1,0,0,0,.1.5l.2.3.2.2.8.5.9.2.8.2A10.8,10.8,0,0,0,99.2,267.4Zm2.2,1.3Zm0,0h0l.3-.3a.8.8,0,0,0,.3-.8l1.1-.4,1.3-.3h1.8c0,.1,0,.1.1.1h.1c0,.1,0,.1-.1.1a1,1,0,0,1-.5.4l-.4.2h0l-1.4.5-1.2.2h-1.4Zm-20-3.8Zm-3.8-2.8h.3l.3-.2.9.3h0l1,.4.5.4.4.3.3.3c0,.1.1.2.1.3h.1c0,.1.1.2.1.3h.1v.2H80.5l-.6-.2-.6-.3h0l-.4-.2-.5-.5h0l-.3-.3-.2-.3v-.2c-.1-.1-.1-.3-.2-.4v-.2Zm-2.2,3h1l1,.4.6.4.6.5.2.3h.1c0,.1,0,.1.1.2v.2h-.7l-.9-.4-1-.6-.7-.6-.3-.3Zm-18.2-18h1l.6.3h0l.4.2.6.6.4.5h0l.4.6a1.6,1.6,0,0,1,.4.7c.1.2.1.5.2.7h0a.6.6,0,0,1,.1.4.6.6,0,0,1,.1.4v.3a.4.4,0,0,0-.1.3v.3H60l-.6-.5-.6-.7-.7-1.1a3.1,3.1,0,0,1-.5-1,3.2,3.2,0,0,1-.3-.9,2.4,2.4,0,0,1-.2-.8v-.3ZM45.4,227v-.2h.1a.8.8,0,0,0,.2.4l.7.6.5.5.4.6v.2h-.1c.1.1.1.2.2.4a.4.4,0,0,0,.1.3h0a.1.1,0,0,0-.1.1h-.5a.1.1,0,0,0,.1.1l-.4-.3-.3-.2-.5-.5-.2-.5c-.1,0-.1-.1-.1-.2h0l-.2-.5h0a.4.4,0,0,0-.1-.3h0Zm-14.1-5.5h.3l-.3-.2Z"/><path d="M73,257l.7-.5a2.7,2.7,0,0,0,.8-1.6,4.1,4.1,0,0,0-.2-1.9,9,9,0,0,0-1.2-2.4l-.9-.9a7.6,7.6,0,0,0-.9-.9l-1.2-.9-1-.6-1-.3H68a.9.9,0,0,0,.6-.4,2.7,2.7,0,0,0,.5-1.4,3.4,3.4,0,0,0,0-1l-.3-.9a8.1,8.1,0,0,0-1-1.8L66.3,240a8.2,8.2,0,0,0-1.7-1.1,4.5,4.5,0,0,0-1.6-.3h-.7c-.3,0-.5.2-.7.5s-.1.3-.1.4-.1.1-.1.2h0l-.6-1-.9-1.2-.4-.3-.6-.3h-.3l.2-.2a.2.2,0,0,0,.2-.2l.2-.3.2-.3a4,4,0,0,0,.3-1.5,7.6,7.6,0,0,0-.3-1.6,4.2,4.2,0,0,0-.9-1.4,5.2,5.2,0,0,0-1.1-1l-.7-.4-.7-.2H54.8v-.4a.9.9,0,0,0-.9-.6,2.1,2.1,0,0,0-1.1,1.3,5.7,5.7,0,0,0,.3,3.4,12.9,12.9,0,0,0,.9,1.6h-.9l-.3.2-.3.2-.4.3-.2.2c-.2.1-.2.3-.3.4a1.1,1.1,0,0,0-.1.5,6.4,6.4,0,0,0,.2.7l.3.8a17.4,17.4,0,0,0,1.1,1.8,15.9,15.9,0,0,0,1.3,1.3,3.3,3.3,0,0,0,1.6.7h.2l.9-.2.6-.4c0-.1.1-.2.1-.3l.2-.3c0-.1.1-.2.1-.4a9.5,9.5,0,0,0,1,1.7l.4.4.3.3.4.2h.6a1.1,1.1,0,0,0,.9-.5,1.4,1.4,0,0,0,.2-.6H62a10.3,10.3,0,0,0,1.1,2.1,4.3,4.3,0,0,0,.9,1l.7.7a3.9,3.9,0,0,0,1.4.8l-.5.5a2.8,2.8,0,0,0-.6,1.5.7.7,0,0,0,.5.9h.2c0,.2.1.4.1.6a7.5,7.5,0,0,0,.8,2.4,11.2,11.2,0,0,0,1.6,2.2,9.4,9.4,0,0,0,1.9,1.4,3.9,3.9,0,0,0,1.8.6h.3ZM56.7,240.4H55.6l-.3-.2h0l-.4-.3-.7-.8h.1l-.6-.9a3,3,0,0,1-.4-.8h0l.4-.4a.6.6,0,0,0,0-.6h.8l.3.2h0l.4.2h0l.3.3.4.5h0l.3.4.3.6a.4.4,0,0,0,.1.3h0a.6.6,0,0,0,.1.4v.6Zm.6-2.9h0Zm.9-2.6v.2l-.2.3H56.6l-.3-.2-.4-.3-.5-.6-.4-.7-.5-.8c-.1-.2-.1-.4-.2-.6h.1a1.9,1.9,0,0,1-.2-.8h0v-.9h0a.7.7,0,0,0,.8.5h1.1l.4.2h-.1l.3.2.3.3.5.5.2.4.3.5h0c0,.1.1.2.1.4h0c0,.1.1.3.1.4v.6Zm2.1,6.7-.6-.9a4.1,4.1,0,0,1-.5-.9c-.1-.2-.1-.3-.2-.4h0v-.1l.6.8h0a2,2,0,0,1,.4.8,4.1,4.1,0,0,1,.3.8Zm6.8,4.2h-.7l-.4-.2h-.2l-.5-.5-.8-.8-.6-.9-.6-1.2a6.4,6.4,0,0,1-.2-.7c-.1-.2-.1-.5-.2-.7h0v-.2h.7l.4.2h.3l.7.5,1.1.9.5.6.4.6a2.5,2.5,0,0,1,.4.7l.2.5v.2a.6.6,0,0,1,.1.4h-.1v.4h-.5Zm4.7,9.9h-.2l-.4-.2-.6-.3h0a1,1,0,0,1-.5-.4h0l-.8-.7-.7-.8-.6-.9h0l-.5-1h0v-.4c-.1-.2-.1-.5-.2-.7h0v-.3h0v-.2h0l.4.3a.8.8,0,0,0,1-.4.8.8,0,0,0-.3-.9h0l-.6-.4.4.2.6.3h0l1.2.7,1,.9a3.9,3.9,0,0,1,.8,1l.5.6.5.9c0,.2.1.3.1.4h0a.9.9,0,0,1,.1.5V255H71.8Z"/><path d="M65.8,259.3c.1.2.1.5.2.7a8.6,8.6,0,0,0,1,1.6l.7.7.8.6a3.1,3.1,0,0,0,1.3.6h1.3l.3-.3h.1l.3-.6a2.8,2.8,0,0,0,.1-1.3,5.8,5.8,0,0,0-1.7-2.9,4.6,4.6,0,0,0-1.5-.9.8.8,0,0,0-.7-.5h-.4l-.8-.2a1.9,1.9,0,0,0-1.3.2c-.2,0-.3.2-.4.3s-.2.3-.3.4a.8.8,0,0,0,.3,1,.9.9,0,0,0,.7,0h0A2.1,2.1,0,0,0,65.8,259.3Zm1.4-.9h.3l.9.4h0l.4.2.5.4.5.6.2.3c.1.2.2.3.2.5a.5.5,0,0,1,.2.4h0c0,.1,0,.2.1.2s-.1.1-.1.2h-.9l-.4-.3-.6-.5-.5-.6-.2-.3a2.5,2.5,0,0,1-.4-.7v-.2a.6.6,0,0,0-.1-.4v-.4Z"/><path d="M80.3,253.1l-1.2-.8-.7-.2H76.6a.5.5,0,0,0-.5.3l-.6.3a.8.8,0,0,0,.5,1.4,5,5,0,0,0,.4,1.3,6.4,6.4,0,0,0,1.5,2.5,4.1,4.1,0,0,0,1.1.7l.6.2h.6l.9-.5a1.2,1.2,0,0,0,.6-.6,2,2,0,0,0,.3-1.1,3,3,0,0,0-.2-1.3A5.4,5.4,0,0,0,80.3,253.1Zm.2,3.5v.2H79.4c-.2,0-.2-.1-.3-.2h-.2l-.4-.5-.3-.4-.4-.8h0l-.3-.8c0-.3-.1-.5-.1-.8H78l.5.2h-.1l.4.2.3.2a1.2,1.2,0,0,1,.5.5h0l.3.3.2.3.3.5a.4.4,0,0,0,.1.3v.2h0Z"/><path d="M91.4,259.1a9621756389300.6,9621756389300.6,0,0,0-1-.8l-1.6-.5H87.2a4.2,4.2,0,0,0-1.6.4l-.4-.3a.9.9,0,0,0-1,.5,4.3,4.3,0,0,1-.1.5v.4c0,.1.1.2.1.3a.4.4,0,0,0,.1.3.1.1,0,0,0,.1.1l.2.3.3.3.6.4,1.5.5,1.9.2h1.4a1.7,1.7,0,0,0,1-.6l.3-.6c.1-.1.1-.2.1-.4v-.4a.4.4,0,0,1-.1-.3Zm-1.2.9H87l-.6-.2h.3l.8-.2h1.2l.6.2h.4l.3.2h.2Z"/><path d="M105.7,251.4a17.7,17.7,0,0,0,3.1-1.5,21.1,21.1,0,0,0,2.7-1.8,11,11,0,0,0,2.2-2.1l1-1.2a3.9,3.9,0,0,0,.6-1.1,3,3,0,0,0,.3-2.1,1.5,1.5,0,0,0-.5-.6l-.8-.6-1.2-.2-1.2.2-1.5.5-1.5.7a13.8,13.8,0,0,0-2.5,1.7l-1.4,1.2-1.1,1.2a8.4,8.4,0,0,0-1.4,2.4,4.9,4.9,0,0,0-.1,1.2c.1.2.1.4.2.6h-.2l-.4.2c-.2.1-.4.1-.5.3s-.2.3-.3.5a1.3,1.3,0,0,0,.1.6,1.8,1.8,0,0,0,1.5.6h.1l1.3-.2Zm-1.7-1a1.3,1.3,0,0,0,.1-.6c0-.1-.1-.1-.1-.2h0a.9.9,0,0,0-.1-.5v-.4c0-.1.1-.2.1-.3h0a.9.9,0,0,1,.1-.5l.3-.5.4-.6h0l1.2-1.3,1.6-1.4,1.6-1.1,1.7-.9.8-.2h0l1-.2h1.5c0,.1-.1.3-.1.4s-.1.2-.1.4l-.3.4a2.1,2.1,0,0,1-.4.6l-1.1,1.3h.1l-1.7,1.5-2.6,1.7-2.2,1.2-1.7.6Z"/><path d="M105.5,255.7a.8.8,0,0,0,.7.5h.2l.4-.3h1.3l1.8-.7a8.6,8.6,0,0,0,2-1.3l1.5-1.3.6-.7.5-.7a1.4,1.4,0,0,0,.1-.9l-.3-.6-.4-.4a2,2,0,0,0-1.1-.3l-1.1.2-.8.3-1.8.9a11.8,11.8,0,0,0-3.2,2.7,3.4,3.4,0,0,0-.6,1.2v.6A1.4,1.4,0,0,0,105.5,255.7Zm3.3-3.1h0l1.2-.8,1.1-.6,1-.3.6-.2h.4l-.3.5-.5.5-1.2,1.1-1.4.9-1,.6h-.5v-.2a.8.8,0,0,0-.4-.9Z"/><path d="M107.4,260.3l.3.4h.1a.5.5,0,0,0,.2.4l.4.3h.6l.9-.2,1.6-.8a26,26,0,0,0,3.6-3l1-1.1.5-.7a2.5,2.5,0,0,0,.4-1.1,2.1,2.1,0,0,0-.6-1l-.4-.2h-.5a5.9,5.9,0,0,0-1.9.5,20,20,0,0,0-3.7,2.5,10,10,0,0,0-1.5,1.4l-.8.9-.3.4a4.3,4.3,0,0,0-.1.5.4.4,0,0,0,.1.3A.8.8,0,0,0,107.4,260.3Zm4.1-3.3h0l1.7-1.2,1-.5,1.1-.4h.1l-.4.6-1.2,1.2h0l-2,1.8-.9.6a.8.8,0,0,0-.1-.9l-.5-.2h-.1Z"/><path d="M117.7,238.1l1.3-.3a11.9,11.9,0,0,0,2.2-1.2,6.9,6.9,0,0,0,3-3.5,2.5,2.5,0,0,0,.2-1.7l-.3-.8-.2-.3-.3-.2-.6-.3-1-.2h-.9l-1.3.4a8.2,8.2,0,0,0-2,1.2,12.9,12.9,0,0,0-1.8,1.6,23.9,23.9,0,0,0-1.3,2.1,4.6,4.6,0,0,0-.5,2c0,.2.1.4.1.6a.4.4,0,0,0,.1.3,3,3,0,0,0,.4.8l.6.6.7.5h.4a.7.7,0,0,0,.6-.3.9.9,0,0,0-.2-1.1l-.4-.3h1.2Zm5.3-6.2Zm-7,4.5h-.2a.4.4,0,0,1,.1-.3c0-.1.1-.3.1-.4h0a4.3,4.3,0,0,1,.4-.7l.6-.9h0l.7-.8,1-.9h0l.7-.4,1-.6.7-.2h1.8c0,.1.1.2.1.3h0v.2a.4.4,0,0,0-.1.3l-.4.7-.4.6-.5.6-.8.7-.9.6-.9.5h0l-1.1.3h-1.3Z"/><path d="M137.5,225.1l-.6-.7a2.4,2.4,0,0,0-.9-.6,8.5,8.5,0,0,0-2.2-.9,10.3,10.3,0,0,0-2.5-.1l-1.5.3-1.2.4-.9.5-.6.6a.9.9,0,0,0-.3.6.6.6,0,0,0,0,.6,1.3,1.3,0,0,0,.8.8h.3a.6.6,0,0,0,.1.4,1.3,1.3,0,0,0,.3.5,2.2,2.2,0,0,0,.7.6,6.7,6.7,0,0,0,1.8,1.1,9.2,9.2,0,0,0,2.8.5h1.3l1.1-.2.8-.4.7-.6a1.6,1.6,0,0,0,.4-.7,1.9,1.9,0,0,0,.2-.8,2.1,2.1,0,0,0-.1-1.1A4.1,4.1,0,0,0,137.5,225.1Zm-.8,1.8v.2a.4.4,0,0,1-.1.3h-.2a.1.1,0,0,1-.1.1H136l-.3.2h-2.5l-1.2-.2-.9-.4-.6-.2h-.1l-.5-.3-.3-.3h-.1c.4-.1.8-.4.7-.8a.8.8,0,0,0-.8-.7l-.6.2-.4.2h0c0-.1.1-.1.1-.2h.2l.5-.2.9-.4H134l.7.2.6.3h0l.4.3.4.3v.2a.1.1,0,0,0-.1-.1.1.1,0,0,1,.1.1h0l.2.3v.2a.6.6,0,0,1,.1.4.1.1,0,0,1,.1.1Z"/><path d="M140.9,230a.7.7,0,0,0,.7.7l.3.5a11.5,11.5,0,0,0,2.1,2.3l2.5,1.9,1.6.8,1.5.5h2.2a2.3,2.3,0,0,0,1.3-1.1,3.6,3.6,0,0,0,.2-1.1,3.4,3.4,0,0,0-.1-1l-.6-1.2-.9-1.2a15.9,15.9,0,0,0-2.4-2,14.3,14.3,0,0,0-2.8-1.3l-1.5-.4h-2.1a1.5,1.5,0,0,0-1.3.1l-.3.2-.2.3a2.8,2.8,0,0,0-.1.9h0v.9Zm1.7-.7h.1l.3-.2h.5l1.3.2.5-.3h.3l1.2.4,1.4.7,1,.7,1,.8.7.8.6.9.2.4h0v.6h0a.6.6,0,0,1-.1.4H150a.1.1,0,0,0,.1.1H150l-1.3-.4-1.5-.8a3.8,3.8,0,0,1-1.3-.9l-1.5-1.2h0l-.9-.9-.6-.9-.3-.6Z"/><path d="M162.7,245.4l-.6-1.2a9.5,9.5,0,0,0-1.5-2,7.6,7.6,0,0,0-4.1-2.7h-1l-.7.2-.2-.2h-.7a.4.4,0,0,0-.5,0,1.1,1.1,0,0,0-.7.9v.3a1.5,1.5,0,0,0,.1.7,1.9,1.9,0,0,0,.2.7.8.8,0,0,0,.2.5,10.1,10.1,0,0,0,1.2,2.3,13.2,13.2,0,0,0,3.6,4.2,5.1,5.1,0,0,0,2.2,1.1l.8.2h.2l.7-.2.3-.2.4-.4a1,1,0,0,0,.4-.7,2.5,2.5,0,0,0,.1-1.9A7.4,7.4,0,0,0,162.7,245.4Zm-1,2.5v.2h0a.1.1,0,0,0-.1.1h-1.5l-.3-.2h-.1l-.8-.6-1.1-.9h0l-1.1-1.3a18.8,18.8,0,0,1-1.2-1.8,10.9,10.9,0,0,1-.8-1.5,1.4,1.4,0,0,1-.2-.6l.6-.4.3-.2h1.5l.7.4.6.4.9.9h.1l.8,1,.8,1.1c.2.3.3.7.5,1a1.9,1.9,0,0,1,.2.7h.1c0,.2.1.4.1.7a.4.4,0,0,0,.1.3Z"/><path d="M151.6,241.6a6.5,6.5,0,0,0-1.5-1.8,9.5,9.5,0,0,0-1.9-1.6,8.7,8.7,0,0,0-1.9-1l-1.2-.3-.3-.2h-.5a.7.7,0,0,0-.9.5h-.2a.8.8,0,0,0,.1,1.5h.1l.9,2.2A30.1,30.1,0,0,0,147,245a5.2,5.2,0,0,0,1,1.1,3,3,0,0,0,.8.8,4,4,0,0,0,1.5,1l.9.2h.4a2.3,2.3,0,0,0,1.1-.8,3.2,3.2,0,0,0,.4-1.6,8,8,0,0,0-.5-2.1A6.9,6.9,0,0,0,151.6,241.6Zm-.3,4.9Zm.3-.4Zm0-.5v.4h-.1c0,.1,0,.2-.1.2v.2h-.5l-.4-.2-.3-.2-.5-.4-1.5-1.7h.1a18.5,18.5,0,0,1-1.9-2.7h.1a11.9,11.9,0,0,1-1.2-2.2l-.3-.8h.6l.8.3h-.1l.7.3h0l1.1.8,1.1.9a3.9,3.9,0,0,1,.8,1l.8,1,.4,1,.3.7c.1.3.1.6.2.9h0Z"/><path d="M140,234l-1.7-1.5a9.7,9.7,0,0,0-2.3-1.1l-1.3-.4h-1l-.8.2-.5.5a1.3,1.3,0,0,0-.3,1c.1.4.4.8.8.7a.8.8,0,0,0,.7-.8h.7a1.2,1.2,0,0,0-.5.9v.9a4.2,4.2,0,0,0,.4,1,17.4,17.4,0,0,0,1.1,1.8l1,1.1.8.8,1,.7.9.5h1.6c.2-.1.5-.2.6-.4l.4-.4.3-.6c0-.3.1-.6.1-.9a3.7,3.7,0,0,0-.6-2.1,4.7,4.7,0,0,0-.6-.9Zm.5,4.1a.4.4,0,0,1-.1.3h-.9l-.4-.2-.8-.6-.5-.4-1.3-1.5-.6-.8-.5-.9c0-.2-.1-.3-.1-.4v-.2a.7.7,0,0,0,.6-.7c.1,0,0-.1,0-.2l.9.5,1.3.8.9.9.7.7.2.4h.1l.3.7c0,.1.1.3.1.4h.1v.6Z"/><path d="M149,247.7a15.2,15.2,0,0,0-2.2-2.2l-1.3-.9-.9-.5-.7-.2h-1.3l-.9.5-.6.6a.8.8,0,0,0,0,1.1l.5.2v.7a6.5,6.5,0,0,0,.4,1.3c.3.9.7,1.8,1.1,2.7a13.8,13.8,0,0,0,1.7,2.5,7.6,7.6,0,0,0,1.9,2.1l1,.7.5.3h1.4l.5-.2h.3l.6-.5a5.9,5.9,0,0,0,.4-.8c0-.2.1-.4.1-.6a4.3,4.3,0,0,0,.1-.5,4.1,4.1,0,0,0-.1-1.1A12.6,12.6,0,0,0,149,247.7Zm1.1,6.4c-.1.2-.1.4-.2.6h-1.5l-.3-.2-1.1-.9-.9-1a12.2,12.2,0,0,1-1.2-1.9h0l-1.2-2.3h.1a11.2,11.2,0,0,1-.5-1.3h0c-.1-.2-.1-.5-.2-.7v-.7l.3-.3c.1-.1.2-.3.1-.4h.6l.6.4a2.4,2.4,0,0,1,.9.6h0l1.3,1.2a6.9,6.9,0,0,1,1.1,1.3,10.5,10.5,0,0,1,.8,1.1l.7,1.3c.1.5.3.9.4,1.3h0a.9.9,0,0,1,.1.5h0a.9.9,0,0,1,.1.5Z"/><path d="M141.3,247.1a12.7,12.7,0,0,0-1.3-1.9l-1.3-1.2-.6-.3h-.9a1.8,1.8,0,0,0-1.2.5,2.6,2.6,0,0,0-.7,1.1,10.9,10.9,0,0,0-.1,1.8c0,.5.2.8.7.8s.7-.2.8-.6h0a2.9,2.9,0,0,0,.2.9l.9,1.9a6.7,6.7,0,0,0,1.2,1.6,2.3,2.3,0,0,0,1.2.6h.1a1.2,1.2,0,0,0,1-.5l.4-.4a1.4,1.4,0,0,0,.2-.6,2.6,2.6,0,0,0,.1-1.5A6.5,6.5,0,0,0,141.3,247.1Zm-.8,3.1v.2h-.3l-.3-.2h0l-.3-.3a4.1,4.1,0,0,1-.5-.9l-.6-1.1-.3-1a.7.7,0,0,1-.1-.5v-.4h0l.2-.4v-.2l.3.3h-.1l.7.8h0l.6.9.4.7a6.4,6.4,0,0,0,.2.7h0c.1.1.1.2.1.4h0v.8h0Z"/><path d="M141,257.2a13.6,13.6,0,0,0-1.1-2.5,5.3,5.3,0,0,0-1.1-1.5,3.1,3.1,0,0,0-1.6-1,1.4,1.4,0,0,0-.9-.1h-.6a2.2,2.2,0,0,0-1.3.8,1.1,1.1,0,0,0-.1.5c-.1.2,0,.4,0,.6a.8.8,0,0,0,1.5-.3h0c0-.1,0-.1.1-.1h.7l-.4.2-.2.2a.8.8,0,0,0-.2.4,3.1,3.1,0,0,0-.2,1.9,8.3,8.3,0,0,0,.6,2.1,9.4,9.4,0,0,0,1.2,2.2,4.6,4.6,0,0,0,.7.7l.6.5.7.2h.7a2.4,2.4,0,0,0,.9-.8l.3-.8v-1A8.3,8.3,0,0,0,141,257.2Zm-1.2,2.9v.2h-.6l-.2-.3-.3-.3a4.7,4.7,0,0,1-.6-.9h0l-.6-1.2-.3-1h0c-.1-.2-.1-.5-.2-.7v-.7h0a.3.3,0,0,0,.1-.2h0l.8.2.5-.2h.1l.6,1.1a10.9,10.9,0,0,1,.5,1.7c.1.2.1.5.2.8v1.3Z"/><path d="M117.9,247.5a2.5,2.5,0,0,0,1.2.2h.2l1.8-.3,1.7-.7,2-1,.9-.6c.2-.2.4-.3.5-.5l.3-.4a1.3,1.3,0,0,0,.1-.6,2.8,2.8,0,0,0-.1-.9,1.6,1.6,0,0,0-.9-.5l-.7-.2h-.8a8.8,8.8,0,0,0-3.5,1l-1.5.9-.7.6-.4.5a2.9,2.9,0,0,0-.3,1h0a.7.7,0,0,0-.3,1Zm1.3-1.6h.2v-.2l.5-.4.6-.4,1.4-.7.8-.3,1.2-.2h1l-1,.7-2.1,1.1-1.8.6h-.7l-.2-.2Z"/><path d="M131.6,237.9a2.3,2.3,0,0,0,.9-1.1,3,3,0,0,0-.2-1.3c-.1-.1-.2-.4-.4-.5l-.5-.3-.8-.3h-.8a8.7,8.7,0,0,0-2.3.1l-2.2.7a8.2,8.2,0,0,0-2,1.2l-.8.6-.2.3v.3a.8.8,0,0,0-.2.7.7.7,0,0,0,.1.6.6.6,0,0,0,.6.6l.3.3.2.2h2.2a14.5,14.5,0,0,0,4.5-1.3A5.9,5.9,0,0,0,131.6,237.9Zm-2.5-.2-1.9.7h-.1l-1.4.2h-1.4a.7.7,0,0,0,0-.9l-.2-.2.6-.4,1.2-.6,1.3-.5,1.4-.2h2.3c.1,0,.1,0,.1.1h-.1c-.1.1-.1.2-.2.2l-.8.6Z"/><path d="M128.2,243a3.6,3.6,0,0,0,2.7,1.4h2l.9-.2h.4a2,2,0,0,0,.9-.9.9.9,0,0,0,.1-.5c.1-.1,0-.3,0-.5a.8.8,0,0,0-.2-.4l-.4-.6a2.4,2.4,0,0,0-1.1-.6,8.6,8.6,0,0,0-3.6-.8h-.7l-.7.2-.6.4-.4.4a.8.8,0,0,0-.1,1.1l.6.2h0A1,1,0,0,0,128.2,243Zm1.2-1.6h1.5l1,.2h0l1.1.3h.1l.3.2h.1l.2.2h-2.5l-.7-.2h-.3a.6.6,0,0,0,.2-.7.8.8,0,0,0-.8-.6h-.2Z"/><path d="M92.7,258.1h.6l.3,1a6.5,6.5,0,0,0,1.3,1.6.9.9,0,0,0,.6.3l.5-.2c0-.1.1-.2.1-.3h.1a9.5,9.5,0,0,0,2.9.2h1.3l1.2-.3,1.2-.6.5-.4.2-.2a2.1,2.1,0,0,0,.5-1.5,1.1,1.1,0,0,0-.1-.8,1.8,1.8,0,0,0-.5-.7,1.3,1.3,0,0,0-.7-.6l-.8-.5-1.5-.4-1.4-.2a8,8,0,0,0-2.6.3,4.1,4.1,0,0,0-1.9.8l-.4-.3-.7-.3-.8-.3-1.3-.2h-2l-1.4.3-1.2.6-.4.3c-.1.2-.3.3-.4.4a.8.8,0,1,0,1.2,1c0-.1.1-.2.2-.3a.4.4,0,0,0,.1.3l.6.4,1.2.4,2,.3h1.5Zm2.1-.4H95c0-.1.1-.2.1-.3s.1-.2.1-.3h.2l.4-.2h0l.7-.2h0l1-.2h2.1l1.2.2.5.2.4.2h0l.3.2.3.3a.1.1,0,0,1,.1.1h.1v.2h0v.2h-.2c-.1.1-.2.1-.2.2l-.3.2h0l-.4.2-.7.2-1.1.2H97.3l-.8-.2h-.2a.7.7,0,0,0,.4-.6.8.8,0,0,0-.8-.7H94.8Zm-1.5-1.1Zm-2.7,0-1.1-.2-.7-.2h.1a.1.1,0,0,1-.1-.1h-.2l.9-.2h2.4l1,.3h0l.4.2H90.6Z"/><path d="M42.5,217.8h-.9l-.9.3h-.3l-.3-.2a.8.8,0,0,0-.9.4,1.3,1.3,0,0,0-.1.6,1.9,1.9,0,0,0,.2.7,4.9,4.9,0,0,0,1.4,1.8l.4.4.6.3.8.2h.3A1.9,1.9,0,0,0,44,222l.4-.4v-.3a2.5,2.5,0,0,0,.2-.7,3.5,3.5,0,0,0-.6-1.8A4.4,4.4,0,0,0,42.5,217.8Zm.7,2.8h0a.1.1,0,0,0-.1.1h-.9c.1,0,.1,0,.1.1s-.1-.1-.2-.2l-.3-.2h0l-.3-.3h.1c-.2-.2-.4-.3-.5-.5l-.2-.3h.3l.4-.2H42a.1.1,0,0,1,.1.1h.8c0,.1.1.2.2.3v.2h.1Z"/><path d="M44.8,222.3l.3.6.3.5.9,1a19.9,19.9,0,0,0,2.1,2l1,.7.7.2h.1l.7-.2.5-.3.2-.8a.9.9,0,0,0-.1-.5,1.3,1.3,0,0,0-.1-.6,17.6,17.6,0,0,0-1.4-2.3,7.7,7.7,0,0,0-1.8-1.8l-1-.6h-.9a.7.7,0,0,0-.8.7.7.7,0,0,0,.2.6h-.5A.9.9,0,0,0,44.8,222.3Zm2.1.5a.8.8,0,0,0,.5-.7l.6.4.8,1,.7.9.4.8c0,.1.1.1.1.2h0a.4.4,0,0,0,.1.3l-.6-.3-1.2-1.1a10,10,0,0,1-1.4-1.5Z"/><path class="cls-1" d="M342.6,239l10.9-23.1,13.7-11.7,20.2-1.5,9.7,6.5,7.2,10.7,8.5,22.3,10.8,2.6,18.9-14.1,12.8-15.2,8.1-4.6,13.9,2.2,5.2,6.9a2.5,2.5,0,0,1-1.3,4.2l-8.7-.2-8,4.3-15,27.6-11.3,10.6-15.9,4.8-19.8.6-13.2-13.8-6.3-8.9-6.1-.4-.4,7.5-2.3,7.2-15.3-1.3a16.1,16.1,0,0,1-14-12.4Z"/><path class="cls-2" d="M371.2,226.3v-.2l.3-.3h0c0-.1,0-.1.1-.2l.3-.3.5-.3h-.1l.6-.3.7-.2h3.9l1,.4.4.2h.2v.2h0a.5.5,0,0,0-.4-.2l-.6-.2a.8.8,0,0,0-.8.7.8.8,0,0,0,.7.8h.1a.1.1,0,0,0-.1.1l-.3.3-.6.3h0l-.6.2-1,.4-1.1.2h-2.5l-.4-.2h-.5v-.5h0Z"/><path class="cls-2" d="M376.8,236.5h2.3l1.4.2,1.3.5,1.2.6.7.4c-.1.1-.2.1-.2.2a.6.6,0,0,0-.1.9H382l-1.4-.2h0l-1.9-.7-.8-.4-.8-.6Z"/><path class="cls-2" d="M406.9,266l.9-.2.8-.5.2-.2.2-.3a1.1,1.1,0,0,0,.1-.5h.1l-.4.4a.9.9,0,0,0,.1,1.1h.3a1.3,1.3,0,0,0-.3.8v.4l-.4-.3a10.1,10.1,0,0,0-2.3-1.2Z"/><path class="cls-2" d="M367.3,237.4h0a.8.8,0,0,1,.2-.4l.3-.7h0l.3-.4.6-.7,1-.9,1.2-.8.9-.5v.2a.7.7,0,0,0,.7.7v.2c-.1.1-.1.2-.2.4a4.1,4.1,0,0,1-.5.9,5.6,5.6,0,0,1-.5.8l-1.3,1.5-.5.4-.9.6-.4.2h-.6a.1.1,0,0,0-.1-.1h-.2a.4.4,0,0,0-.1-.3v-.2a.8.8,0,0,1,.1-.4Z"/><polygon class="cls-2" points="356.5 246.5 356.5 246.5 356.5 246.5 356.5 246.5"/><path class="cls-2" d="M364.8,230l-.6.9-.8.9h0l-1.5,1.2a4.2,4.2,0,0,1-1.4.9,5.3,5.3,0,0,1-1.5.8l-1.2.4H356a.6.6,0,0,0-.1-.4h0a.6.6,0,0,1,.1-.4v-.2h.1a.5.5,0,0,1,.2-.4l.6-.9.6-.8,1.1-.8.9-.7,1.4-.7,1.3-.4h.3c.1.2.3.2.5.3l1.2-.2h.5l.3.2a.1.1,0,0,1,.1.1h0Z"/><path class="cls-2" d="M367.2,250v-.6h0c0-.2.1-.3.1-.4h0l.3-.7.3-.7.6-.9h0l.7-.8h-.1l.3-.3v.2a.5.5,0,0,0,.2.4h0v.4c-.1.2-.1.4-.2.5a2.9,2.9,0,0,1-.3,1,11.7,11.7,0,0,1-.5,1.1l-.6.9-.3.3h0c-.1,0-.1.1-.2.2h-.4v-.2h0Z"/><path class="cls-2" d="M407.3,263.9a.9.9,0,0,0,.1.5h-.6l-.7.2h-2.6l-.9-.2-.6-.3h-.5c0-.1-.1-.1-.1-.2s-.1,0-.1-.1h0a.1.1,0,0,1,.1-.1h0a.1.1,0,0,0,.1-.1h.1l.3-.2h.4l.9-.2h2.1l1.4.2,1,.4A1,1,0,0,0,407.3,263.9Z"/><path class="cls-2" d="M356.2,246.1h0Z"/><path class="cls-2" d="M410.4,267.4h.2a.1.1,0,0,0,.1-.1l.3-.2.8-.4.8-.2,1.6-.4h1.5l1.8.2,1.7.3.7.2.5.3h.1c0,.1.1.2.1.3h0l-1.4.5h0l-2.4.5h-.1l-3,.2h-2.9l-.3-.2a.1.1,0,0,1-.1-.1h0Z"/><path class="cls-2" d="M346.2,246.7h0a1.9,1.9,0,0,0,.2-.7l.6-1,.7-1.1.9-1h0l1-.9.6-.4.7-.4h1.5l.3.2.6.4-.3.6-.7,1.5-1.3,1.8a6.9,6.9,0,0,1-1.1,1.3h0l-1,.9-.9.6h0l-.4.2H346v-.7A6.4,6.4,0,0,1,346.2,246.7Z"/><path class="cls-2" d="M356.2,245.4h0c0-.3.1-.6.1-.9l.3-.7a4.7,4.7,0,0,1,.5-1,6.1,6.1,0,0,1,.7-1l.9-1,1-.9,1.1-.8h.1l.7-.3h-.1l.7-.3h.6l-.3.8a22.6,22.6,0,0,1-1.1,2.2h0a18.1,18.1,0,0,1-1.8,2.7h0l-1.5,1.7-.4.4-.4.2-.3.2h-.6v-.4h0c0-.1-.1-.2,0-.4v-.2h0Z"/><path class="cls-2" d="M357.7,253.2c0-.2.1-.3.1-.5h0a11.2,11.2,0,0,1,.5-1.3l.6-1.3.8-1.1,1.1-1.3,1.3-1.2h0a2.4,2.4,0,0,1,.9-.6l.7-.4h.5a.6.6,0,0,0,.1.4c.1.2.2.2.4.3v.2a.9.9,0,0,1-.1.5c0,.2-.1.5-.1.7h-.1a9.3,9.3,0,0,1-.4,1.3h0a24,24,0,0,1-1.1,2.3h0a12.7,12.7,0,0,1-1.3,1.9l-.9,1-1,.9-.4.2h-1.5a1.3,1.3,0,0,1-.1-.6c0-.2-.1-.3-.1-.4a.9.9,0,0,0,.1-.5Z"/><path class="cls-2" d="M390.3,236.6h-.5l-1.1-.3h.1l-1-.5-.9-.6-.7-.7-.6-.6-.4-.6-.3-.7a.4.4,0,0,1-.1-.3V232h.1a.4.4,0,0,1,.1-.3h1.7l.8.2.9.6.7.4h0l1,.9a2.7,2.7,0,0,1,.7.8h0a4.7,4.7,0,0,1,.6.9,1.6,1.6,0,0,1,.4.7h0c.1.1.1.3.2.4a.4.4,0,0,0,.1.3h-.2a.6.6,0,0,0-.6.3h-.9Z"/><path class="cls-2" d="M412.9,257.9h-1a.8.8,0,0,0-.8.7.6.6,0,0,0,.3.6h-.2l-.8.2h-2.3l-1.1-.2-.6-.2-.5-.2h.1a.5.5,0,0,0-.4-.2c0-.1-.1-.1-.1-.2s-.1,0-.1-.1h-.1c0-.1-.1-.1-.1-.2h0v-.2h.2l.3-.3.3-.2h0l.4-.2.5-.2,1.3-.2h2l1,.2h.1l.6.2h0l.4.2h.2c0,.1.1.2.1.3l.2.3h.1v.2h0Z"/><path class="cls-2" d="M378.2,241.4a.9.9,0,0,0-.9.6.9.9,0,0,0,.3.7h-.3l-.8.2h-2.4v-.2h.1l.3-.2h.1l1.1-.3h.1l1-.2h1.3Z"/><path class="cls-2" d="M368.1,258l.6-1.7a5.4,5.4,0,0,1,.5-1.1h.1l.6.2.7-.2h0v.2h0v.7c0,.2-.1.5-.1.7h0a3,3,0,0,1-.4,1l-.6,1.2a.1.1,0,0,1,.1-.1l-.6.9-.3.3-.3.3h-.6v-.5a3.1,3.1,0,0,1,.1-1C368,258.5,368.1,258.2,368.1,258Z"/><polygon class="cls-2" points="414.4 256.6 414.4 256.6 414.4 256.6 414.4 256.6"/><path class="cls-2" d="M415.7,256.7h-1.3l.5-.2h-.1l1-.3h2.5l.8.2H419a.1.1,0,0,0-.1.1h0l-.7.2-1.1.2h-1.4Z"/><path class="cls-2" d="M399.5,254.3v.2h-.5l-1.1-.6-1.3-.9-1.3-1.1c-.1-.2-.3-.3-.5-.5l-.3-.5a.1.1,0,0,0,.1-.1h.3l.6.2,1,.3,1.2.6,1.1.8h0l1,.8A.8.8,0,0,0,399.5,254.3Z"/><path class="cls-2" d="M388.3,246.2h-.6l-1.9-.6-2-1.1-1.1-.7h1l1.3.2.8.3,1.3.7.6.4.5.4v.2a.1.1,0,0,1,.1.1h.1C388.4,246,388.4,246.1,388.3,246.2Z"/><path class="cls-2" d="M396.9,258.3a1,1,0,0,0-.1.9l-.8-.6-2.1-1.8h0l-1.1-1.2-.5-.6h.2l1.1.4.9.5a10.4,10.4,0,0,1,1.7,1.2h0l1.4,1.1h-.2Z"/><path class="cls-2" d="M399.7,248.6a22,22,0,0,1-2.5-1.7l-1.8-1.5h.1l-1.1-1.3-.4-.6a.8.8,0,0,1-.2-.4l-.2-.4v-.4H395l1,.2h0l.8.2,1.8.9,1.5,1.1,1.6,1.4a14.2,14.2,0,0,1,1.2,1.3h0a2.1,2.1,0,0,1,.4.6,1.3,1.3,0,0,1,.3.5l.2.5h0v.7a.9.9,0,0,1-.1.5h0v.2a.6.6,0,0,0,0,.6h-.1l-1.6-.6Z"/><path class="cls-2" d="M417.6,259.9h.1l.3-.2h.2c0-.1.1-.1.2-.1l.7-.2h1.2l.7.2h.6a.1.1,0,0,0-.1.1h-.2l-.6.2h-3.1Z"/><path class="cls-2" d="M384.7,231.9Z"/><path class="cls-2" d="M427.3,256a.4.4,0,0,1,.1-.3c0-.2.1-.3.2-.5l.2-.3.3-.3h0c.2-.2.3-.4.5-.5l.4-.2.3-.2h0l.4-.2h.6a2.2,2.2,0,0,1-.1.8l-.3.8h0a3,3,0,0,1-.4.8l-.2.4-.5.5h-.1l-.3.2h-.2a.1.1,0,0,0-.1.1h-.7c-.1,0-.1,0-.1-.1h0c0-.1,0-.1-.1-.2v-.3h0C427.3,256.1,427.3,256.1,427.3,256Z"/><path class="cls-2" d="M440.3,245.6h-.2v-.4h0v-.6c0-.2.1-.3.1-.5l.4-.7.4-.6.6-.6,1-.9.7-.5h.3l.4-.2h.6a.1.1,0,0,1,.1.1h0v.2h0c0,.2-.1.5-.1.7l-.3.7-.6,1.2-.6.9-.7.8-.6.5h-.2l-.4.2h-.2a.1.1,0,0,1-.1.1h-.7Z"/><path class="cls-2" d="M476.2,221.8h.2l-.2.2Z"/><path class="cls-2" d="M451.2,239.4h0a.4.4,0,0,1,.1-.3.9.9,0,0,1,.3-.6.8.8,0,0,1,.2-.4h0l.5-.5.3-.3h0l.3-.2h0l.4-.2h.7v.6a1,1,0,0,0,.5.4h0l-.5.8a4.1,4.1,0,0,1-.5.9h0l-.7.8-.3.3h-.1l-.3.2h-.9c0-.1,0-.1-.1-.1h0v-.6A.6.6,0,0,1,451.2,239.4Z"/><path class="cls-2" d="M406.4,268.7Z"/><path class="cls-2" d="M450.5,237.4h0Z"/><path class="cls-2" d="M440.4,259.2c0,.1,0,.1-.1.2l-.3.7-.2.3-.6.6-.6.5-.4.3h-.1c-.1,0-.2,0-.2.1h-.6v-.4h0c.1-.2.1-.3.2-.4l.2-.5.2-.3.5-.6.5-.4.4-.2h0l.9-.4h.3v.8Z"/><path class="cls-2" d="M449.6,233.9h0c.1-.2.1-.3.2-.4h0c0-.2.1-.3.2-.5a.5.5,0,0,0,.2-.4l.5-.5.3-.3.3-.2h0l.4-.2h1a.9.9,0,0,0,.9-.5h0v.9h0a3.1,3.1,0,0,0-.2.8h0c-.1.2-.1.4-.2.6s-.3.5-.4.8a1.6,1.6,0,0,0-.4.7l-.6.6-.3.3-.4.2a.1.1,0,0,1-.1.1h-1a.1.1,0,0,0-.1-.1h-.2a.4.4,0,0,1-.1-.3v-.8A.6.6,0,0,0,449.6,233.9Z"/><path class="cls-2" d="M448,240.1h.1a3.5,3.5,0,0,1,.5-.8l.2-.2c0,.1-.1.2-.1.3h0l-.2.4-.4.9-.7.9h-.1l.3-.8A5.9,5.9,0,0,1,448,240.1Z"/><path class="cls-2" d="M435.5,255.7h-.7c0-.2-.1-.3-.1-.4v-.7c0-.2.1-.3.1-.5h0l.2-.4.4-.9.5-.6.9-1,1-.9,1.1-.7h0l.6-.3.4-.2-.6.4h.1a.6.6,0,0,0-.3.9.7.7,0,0,0,1,.4l.4-.3h0v.2h0v.3h0a1.9,1.9,0,0,1-.2.7v.4h0a3.1,3.1,0,0,1-.5,1h0l-.6.9-.6.8-.9.7h.1l-.5.4h0l-.7.3-.4.2h-.6Z"/><path class="cls-2" d="M426.3,264.9Z"/><path class="cls-2" d="M458.2,225.4l-.5.3a.4.4,0,0,1,.1-.3h0v-.2l.5-.8.6-.9.9-1,.5-.4a.8.8,0,0,0,.5.7h.1l-1.5,1.5Z"/><path class="cls-2" d="M429.9,262.8c0,.1,0,.2-.1.2s-.1.2-.2.3l-.2.3h0l-.6.5-.3.2h0l-.6.3-.7.2H426v-.2h.1l.2-.3h0l.2-.3.3-.3.3-.3.6-.4,1-.4h0l.8-.3.3.2h.3v.2A.8.8,0,0,1,429.9,262.8Z"/><path class="cls-2" d="M405,268.6h0l-1.3-.2-1.3-.5h0l-.5-.2-.5-.4a.1.1,0,0,1-.1-.1h2.1l1.2.3,1.2.4a.7.7,0,0,0,.3.8l.3.3H405Z"/><path class="cls-2" d="M464.6,220.3h0V220l.2-.3h.7c0-.1.1-.1.2-.1h.4l.4.2h.2v.3l-.5.5h0l-.3.3h0l-.3.2-.2.2a.1.1,0,0,1,.1-.1h-.9Z"/><path class="cls-2" d="M450.5,248.3l-.3.9-.6,1-.6,1.1-.7.7c-.2.2-.4.3-.5.5h-.4a.1.1,0,0,0-.1.1h-.7a6181264102210.9,6181264102210.9,0,0,1-.2-.6v-.7c0-.1.1-.3.1-.4h0l.3-.7.3-.7.4-.6h0l.4-.5.7-.6.3-.2h0l.6-.3h1.2c0,.1-.1.2-.1.3S450.5,248,450.5,248.3Z"/><path class="cls-2" d="M462.2,227.6h0c0,.2-.1.3-.2.5h.1a.3.3,0,0,0-.1.2l-.3.5-.5.5-.3.2-.4.3c.1,0,.1,0,.1-.1s-.1.1-.2.1h-.3a.4.4,0,0,1,.1-.3c0-.2,0-.3.1-.4h0c0-.1,0-.2.1-.2l.3-.6.5-.5.7-.6a.8.8,0,0,0,.2-.4h.1v.4h0A.4.4,0,0,1,462.2,227.6Z"/><path class="cls-2" d="M431.4,266.2l-1,.6-1,.4h-.7V267a.1.1,0,0,0,.1-.1l.3-.3.6-.5.6-.4.9-.4h1v.2l-.3.3Z"/><path d="M341.4,239.1a1.4,1.4,0,0,0,1.4,1.5,1.5,1.5,0,0,0,1.6-1.3h0c.1-.7.3-1.4.4-2.1a17.2,17.2,0,0,0,.7-2.1l.9-2.2,2.7-5.9,1.5-3.1,1.6-2.8,1.1-1.8,1.3-1.8,1.2-1.6.7-.8a4.6,4.6,0,0,0,.7-.7l1.7-1.6,2-1.7h0l1.9-1.5h-.1a22.6,22.6,0,0,1,2.6-1.6,38.4,38.4,0,0,1,3.5-1.8h-.1c1.9-.8,3.9-1.5,5.8-2.1l3-.6,2.9-.2,2.4.2h0l2.3.5h.1a12.5,12.5,0,0,1,2.5.9l2.8,1.4a22.3,22.3,0,0,1,3,2l2.1,1.8a9.3,9.3,0,0,0,1.4,1.4c.5.5.9,1.1,1.4,1.7V213l1.2,1.7.7.9.5.8h0l1.1,1.8h-.1l.9,1.9a14.2,14.2,0,0,1,.8,1.8v-.2a13.4,13.4,0,0,1,.7,1.8c.2.6.3,1.2.5,1.8s.9,3.5,1.3,5.3.5,1.8.7,2.8a15.5,15.5,0,0,0,.8,2.3,24.4,24.4,0,0,0,1.9,4.4,10.5,10.5,0,0,0,2,2.7,9.5,9.5,0,0,0,2.8,2,17.5,17.5,0,0,0,3.2,1.2,23.2,23.2,0,0,0,3.8.5,17.3,17.3,0,0,0,6.7-1.6l1.8-1,1.1-.7,1.3-.8,1.2-1,2-1.7,1.9-1.7c1.3-1.3,2.6-2.5,3.9-3.9l3.7-4.1c1.8-2,3.6-4.1,5.3-6.2l2.5-3,1.4-1.7,1.5-1.6,1.9-1.7,1.5-1,2.2-1.1,1.9-.6,1.2-.3,1.3-.2h2.9l3.6.7,2.5.8,2.5,1.3,1.1.7a15.4,15.4,0,0,1,1.9,1.7,20,20,0,0,1,1.9,2.2l.6.8a5.9,5.9,0,0,0,.4.8l.2.5v.4h-.1l-.2.2-.2.2h-2.7l-1-.3-1.3-.3h.1l.6-.7.2-.5a.8.8,0,0,0,.1-.4,1,1,0,0,0-.6-.9h-1.1a2.7,2.7,0,0,0-1.8.1,2.5,2.5,0,0,0-1.2,1.3v.5h0a9.6,9.6,0,0,0-4.1,1.1,17.6,17.6,0,0,0-4,3.2c-.8.9-1.6,1.7-2.3,2.6l.3-.6a5.1,5.1,0,0,0,.2-1.3,2.3,2.3,0,0,0-.3-1.1,1.2,1.2,0,0,0-1.2-.8h-1.1a2.2,2.2,0,0,0-.9.7,5.3,5.3,0,0,0-1.4,2.4h0l-.2.3a2.2,2.2,0,0,0-.1,1.1c.1.2.1.4.2.6l.2.3a1.4,1.4,0,0,0,.8.5h.9a2.4,2.4,0,0,0,1.1-.6l.3-.2-2,2.8a38.7,38.7,0,0,0-2.1,3.4,60.1,60.1,0,0,0-3.5,7.8l-.9,1.9a17.4,17.4,0,0,0-1,1.9l-1.1,1.5a6.6,6.6,0,0,0,.6-2,5.9,5.9,0,0,0-.1-1.9,1.9,1.9,0,0,0-.7-1.1,1.4,1.4,0,0,0-1.1-.3l-.7.2-.4.2h0a.8.8,0,0,0-.4,1h0l-.5.3a7.1,7.1,0,0,0-2.7,3l-.3.9-.3,1v1a1.9,1.9,0,0,0,.2.8,2.1,2.1,0,0,0,.7,1.1,2,2,0,0,0,1.1.3h.5a2.7,2.7,0,0,0,1.2-.6,8.6,8.6,0,0,0-.7,1h0l-1.5,2-1.8,1.9a34.5,34.5,0,0,1-2.8,2.6,23.7,23.7,0,0,1-2.9,2.5,22,22,0,0,1-2.5,1.7L433,267l-.5.2c.1-.1.2-.1.2-.2l.6-.5.4-.5c.1-.2.3-.4.3-.6v-.2c.1-.1.1-.1.1-.2a.7.7,0,0,0-.3-1l-.7-.3H432l-.9.2a3,3,0,0,0,.4-1,1.7,1.7,0,0,0,0-1.2v-.2h1.1a.7.7,0,0,0,.8-.7.8.8,0,0,0-.7-.8,10.5,10.5,0,0,0-2.5,0l-1.8.5-1.8.8a6.8,6.8,0,0,0-1.2,1.2,3.5,3.5,0,0,0-.8,1.3,2.4,2.4,0,0,0,0,1.2l.3.5.2.3.2.2a2.1,2.1,0,0,0,1.1.4h.3l.9-.2a2.4,2.4,0,0,0-.4,1.6l.3.5a1,1,0,0,0,.5.4l-4.4,1-4.4.7h-.1l-3.6.3h-3.7l-3.8-.2-1.2-.3h-.1l-.6-.2.9-.2a1.1,1.1,0,0,0,.9-.5.1.1,0,0,0,.1-.1l.4.3a.7.7,0,0,0,.9-.5c.1-.1.1-.2.1-.4a2.4,2.4,0,0,0,1.1.6l.9.2,1.4.2h2.9l2.9-.4a12.1,12.1,0,0,0,2.5-.8,1.9,1.9,0,0,0,.9-.5l.5-.5c.1-.2.2-.3.2-.5a1.4,1.4,0,0,0-.2-.6.8.8,0,0,0-.6-.4h-.1a.8.8,0,0,0-.4-.4l-.9-.5-1.3-.4a9,9,0,0,0-2.8-.4,12.2,12.2,0,0,0-2.7.1,10.2,10.2,0,0,0-2.5.6l-.6.4v-.3a1.7,1.7,0,0,0,.1-.7l-.3-.8-.4-.5-.9-.6a7.3,7.3,0,0,0-2.2-.9,10.1,10.1,0,0,0-4.9-.2l-.8.3-.8.4-.4.5-.2.3a1.3,1.3,0,0,0-.1.6.5.5,0,0,0,0,.5.9.9,0,0,0,.3.6l.5.6.7.4h-.5l-.3.2-.2.2a.5.5,0,0,0-.3.5,1.4,1.4,0,0,0-.2.6l-1-.7-1.6-1.4a21.1,21.1,0,0,1-1.9-2.3l-1.8-2.3a11,11,0,0,1-1.4-2.1c-.8-1.4-1.3-3-2-4.4a15,15,0,0,0-3-4,10.6,10.6,0,0,0-4.7-2.7,5.8,5.8,0,0,0-3.2.2,5.3,5.3,0,0,0-2.3,1.3,10,10,0,0,0-2.3,3.1,12.6,12.6,0,0,0-1,3.8,15.4,15.4,0,0,0-.3,3.7,18.7,18.7,0,0,0,.9,4.1,1.5,1.5,0,1,0,2.9-.9c-.2-.4-.3-.9-.5-1.3l-.3-1.7v-.9a19.4,19.4,0,0,1,.2-2.4,15.5,15.5,0,0,1,.4-2.1l.3-.8a5.9,5.9,0,0,1,.4-.8l.6-.8.6-.8.4-.2.3-.3h2.4l.7.2,1,.5.7.5.8.6c.4.5.9,1,1.3,1.6a4.1,4.1,0,0,1,.7,1.1c.9,1.5,1.4,3.1,2.2,4.6a17.5,17.5,0,0,0,2.9,4.2l1.6,2a16.3,16.3,0,0,0,1.7,2,18.4,18.4,0,0,0,2.2,1.7,19.4,19.4,0,0,0,2.4,1.5l2.4,1.1a17.1,17.1,0,0,0,9.2,1.9h.8a43.5,43.5,0,0,0,5.1-.2l5.1-.7,5.2-1.1a43.2,43.2,0,0,0,5.1-1.6l2.6-1.1,2.4-1.3,2.3-1.5,2.2-1.7,1.8-1.7,2.1-2,1.8-1.9,1.8-2.3,3.3-4.2,1.6-2.4a18.3,18.3,0,0,0,1.3-2.4,45.6,45.6,0,0,0,2.4-5.5c.8-1.7,1.6-3.4,2.5-5l1.8-2.7,1.8-2.6,3.6-4,1.4-1.2h0l1.1-.8.8-.4.6-.2.9-.2h1.7l2.1.5h.1l2.1.5h2.3a6.2,6.2,0,0,0,2.6-.9,3.8,3.8,0,0,0,1.1-1.1,2.4,2.4,0,0,0,.6-1.1,3.3,3.3,0,0,0,.1-1.7,4.4,4.4,0,0,0-.6-1.6,7.5,7.5,0,0,0-.7-1.2,15.6,15.6,0,0,0-1.6-2,18,18,0,0,0-1.9-2,11.6,11.6,0,0,0-2.1-1.6,17.7,17.7,0,0,0-4.8-2.3,31.3,31.3,0,0,0-5.3-1.2,17.1,17.1,0,0,0-10.6,2,14.8,14.8,0,0,0-2.1,1.3,10.9,10.9,0,0,0-1.7,1.3l-2,1.9c-1.2,1.3-2.2,2.7-3.3,4l-3.6,4.2-3.6,4.1-4.6,5.1-3.5,3.3-1.9,1.7-1.8,1.4-1.3.9-3,1.5-2,.7-1.5.3h-2.8l-2.2-.5-1.3-.4-1.1-.6-.8-.5-.7-.7-.8-.9a8.3,8.3,0,0,1-.8-1.2,12.4,12.4,0,0,1-1-2c-.5-1.2-1-2.5-1.4-3.8s-.7-2.7-1-4-.6-2.8-1-4.1l-.6-2.1-.3-.9a7.6,7.6,0,0,1-.4-1.1c-.3-.6-.5-1.3-.8-1.9a17.4,17.4,0,0,0-1-1.9h.1c-.5-.8-.9-1.6-1.4-2.3a7.1,7.1,0,0,0-1-1.4,7.6,7.6,0,0,0-.8-1.1,26.2,26.2,0,0,0-3.9-4.3,25.2,25.2,0,0,0-5.6-4.1,24.2,24.2,0,0,0-6.7-2.7,20.5,20.5,0,0,0-7.8-.3,34.9,34.9,0,0,0-5.4,1.2l-3.4,1.3a29.3,29.3,0,0,0-4,1.9,25.6,25.6,0,0,0-3.5,2.2h0l-1.7,1.2h-.1l-2.1,1.8-1.8,1.7-1,1.1-.8.8-1.7,2.4-1.6,2.4-1.5,2.5c-.8,1.4-1.5,2.9-2.2,4.4s-2.2,4.5-3.1,6.8a24.2,24.2,0,0,0-1.2,3.5,8.3,8.3,0,0,0-.4,1.5A7.6,7.6,0,0,0,341.4,239.1Zm69,28.5h.2a.1.1,0,0,0,.1-.1l.3-.2.8-.4.8-.2,1.6-.4h1.5l1.8.2,1.7.3.7.2.5.3h.1c0,.1.1.2.1.3h0l-1.4.5h0l-2.4.5h-.1l-3,.2h-2.9l-.3-.2a.1.1,0,0,1-.1-.1h0Zm-2.7-4.2a1,1,0,0,0-.4.5.9.9,0,0,0,.1.5h-.6l-.7.2h-2.6l-.9-.2-.6-.3h-.5c0-.1-.1-.1-.1-.2s-.1,0-.1-.1h0a.1.1,0,0,1,.1-.1h0a.1.1,0,0,0,.1-.1h.1l.3-.2h.4l.9-.2h2.1l1.4.2Zm-1.5,2.8.7-.2.9-.2.8-.5.2-.2.2-.3a1.1,1.1,0,0,0,.1-.5h.1l-.4.4a.9.9,0,0,0,.1,1.1h.3a1.3,1.3,0,0,0-.3.8v.4l-.4-.3A10.1,10.1,0,0,0,406.2,266.2Zm.2,2.5Zm-.5,0H405l-1.3-.2-1.3-.5h0l-.5-.2-.5-.4a.1.1,0,0,1-.1-.1h2.1l1.2.3,1.2.4a.7.7,0,0,0,.3.8l.3.3h-.5Zm20.4-3.8Zm3.8-2.7v.2a.8.8,0,0,1-.2.4c0,.1,0,.2-.1.2s-.1.2-.2.3l-.2.3h0l-.6.5-.3.2h0l-.6.3-.7.2H426v-.2h.1l.2-.3h0l.2-.3.3-.3.3-.3.6-.4,1-.4h0l.8-.3.3.2h.3Zm2.2,3.1-.3.3-.6.6-1,.6-1,.4h-.7V267a.1.1,0,0,0,.1-.1l.3-.3.6-.5.6-.4.9-.4h1Zm18.4-18.1c0,.1-.1.2-.1.3s-.1.5-.1.8l-.3.9-.6,1-.6,1.1-.7.7c-.2.2-.4.3-.5.5h-.4a.1.1,0,0,0-.1.1h-.7a6181264102210.9,6181264102210.9,0,0,1-.2-.6v-.7c0-.1.1-.3.1-.4h0l.3-.7.3-.7.4-.6h0l.4-.5.7-.6.3-.2h0l.6-.3h1.2Zm11.6-20h0a.4.4,0,0,1-.1.3h0c0,.2-.1.3-.2.5h.1a.3.3,0,0,0-.1.2l-.3.5-.5.5-.3.2-.4.3c.1,0,.1,0,.1-.1s-.1.1-.2.1h-.3a.4.4,0,0,1,.1-.3c0-.2,0-.3.1-.4h0c0-.1,0-.2.1-.2l.3-.6.5-.5.7-.6a.8.8,0,0,0,.2-.4h.1v.4Zm14.1-5.6-.2.2h.2Z"/><path d="M435.6,257.2h.2a4.2,4.2,0,0,0,1.9-.6,8.6,8.6,0,0,0,1.8-1.4,11.8,11.8,0,0,0,1.7-2.2,11.3,11.3,0,0,0,.8-2.4V250h.2a.8.8,0,0,0,.6-.9,2.8,2.8,0,0,0-.6-1.5l-.6-.5a4.4,4.4,0,0,0,1.5-.8,4.6,4.6,0,0,0,.7-.7l.8-1a7.2,7.2,0,0,0,1.2-2.1h0c.1.2.1.4.2.6a1.2,1.2,0,0,0,.9.5h.6l.4-.2.3-.3.4-.4a9.5,9.5,0,0,0,1-1.7c.1.2.1.3.2.4a.4.4,0,0,0,.1.3l.2.3.5.4.9.2h.2a3.3,3.3,0,0,0,1.6-.7,8,8,0,0,0,1.3-1.3,8.7,8.7,0,0,0,1.1-1.8l.3-.8a1.4,1.4,0,0,0,.2-.7,1.1,1.1,0,0,0-.1-.5l-.2-.4-.3-.2-.3-.3-.3-.2-.3-.2h-1a6.5,6.5,0,0,0,.9-1.6,5.7,5.7,0,0,0,.3-3.4,1.6,1.6,0,0,0-1.1-1.3.9.9,0,0,0-.9.6v.4h-1.1l-.7.2-.8.4-1.1,1a6.4,6.4,0,0,0-.8,1.4,7.5,7.5,0,0,0-.4,1.6,4,4,0,0,0,.3,1.5l.2.3.2.3.2.2.3.2h-.4l-.6.3-.3.3-1,1.2-.5,1h-.1v-.2c-.1-.1-.1-.3-.2-.4s-.3-.5-.6-.5h-.8a4,4,0,0,0-1.5.3,6.2,6.2,0,0,0-1.7,1.1,6.7,6.7,0,0,0-1.5,1.4,8.7,8.7,0,0,0-1.1,1.8l-.3.9v1a2.7,2.7,0,0,0,.5,1.4c.1.2.4.3.6.4h-.1l-.9.3-1.1.6-1.2.9-.9.9-.8.9a7,7,0,0,0-1.3,2.4,3.1,3.1,0,0,0-.1,1.9,2.1,2.1,0,0,0,.7,1.6l.7.5Zm15.5-17v-.4a.6.6,0,0,1,.1-.4h0a.4.4,0,0,1,.1-.3.9.9,0,0,1,.3-.6.8.8,0,0,1,.2-.4h0l.5-.5.3-.3h0l.3-.2h0l.4-.2h.7v.6a1,1,0,0,0,.5.4h0l-.5.8a4.1,4.1,0,0,1-.5.9h0l-.7.8-.3.3h-.1l-.3.2h-.9c0-.1,0-.1-.1-.1h0Zm-.7-2.8Zm-.9-2.9v-.2a.6.6,0,0,0,.1-.4h0c.1-.2.1-.3.2-.4h0c0-.2.1-.3.2-.5a.5.5,0,0,0,.2-.4l.5-.5.3-.3.3-.2h0l.4-.2h1a.9.9,0,0,0,.9-.5h0v.9h0a3.1,3.1,0,0,0-.2.8h0c-.1.2-.1.4-.2.6s-.3.5-.4.8a1.6,1.6,0,0,0-.4.7l-.6.6-.3.3-.4.2a.1.1,0,0,1-.1.1h-1a.1.1,0,0,0-.1-.1h-.2a.4.4,0,0,1-.1-.3v-.6Zm-2.2,7.2.3-.8a5.9,5.9,0,0,1,.4-.8h.1a3.5,3.5,0,0,1,.5-.8l.2-.2c0,.1-.1.2-.1.3h0l-.2.4-.4.9-.7.9Zm-6.8,4h-.4v-.4h0v-.6c0-.2.1-.3.1-.5l.4-.7.4-.6.6-.6,1-.9.7-.5h.3l.4-.2h.6a.1.1,0,0,1,.1.1h0v.2h0c0,.2-.1.5-.1.7l-.3.7-.6,1.2-.6.9-.7.8-.6.5h-.2l-.4.2h-.2a.1.1,0,0,1-.1.1h-.5Zm-4.8,10h-.9c0-.2-.1-.3-.1-.4v-.7c0-.2.1-.3.1-.5h0l.2-.4.4-.9.5-.6.9-1,1-.9,1.1-.7h0l.6-.3.4-.2-.6.4h.1a.6.6,0,0,0-.3.9.7.7,0,0,0,1,.4l.4-.3h0v.2h0v.3h0a1.9,1.9,0,0,1-.2.7v.4h0a3.1,3.1,0,0,1-.5,1h0l-.6.9-.6.8-.9.7h.1l-.5.4h0l-.7.3-.4.2h-.4Z"/><path d="M442,258.5h0a.6.6,0,0,0,.6,0,.7.7,0,0,0,.3-1,.8.8,0,0,0-.2-.4.9.9,0,0,0-.5-.3,1.7,1.7,0,0,0-1.2-.2l-.9.2h-.4a.8.8,0,0,0-.7.5,4.2,4.2,0,0,0-1.4.9,5.9,5.9,0,0,0-1.8,2.9,1.9,1.9,0,0,0,.2,1.3,1.4,1.4,0,0,0,.2.6h.2l.2.3h1.3a3.5,3.5,0,0,0,1.4-.6l.7-.6a2.3,2.3,0,0,0,.7-.7,8.6,8.6,0,0,0,1-1.6,1.9,1.9,0,0,0,.2-.7A1.9,1.9,0,0,0,442,258.5Zm-1.5.1v.6c0,.1,0,.1-.1.2l-.3.7-.2.3-.6.6-.6.5-.4.3h-.1c-.1,0-.2,0-.2.1h-.6v-.4h0c.1-.2.1-.3.2-.4l.2-.5.2-.3.5-.6.5-.4.4-.2h0l.9-.4h.3Z"/><path d="M425.9,255.3a2.9,2.9,0,0,0-.1,1.3,2,2,0,0,0,.3,1.1,1,1,0,0,0,.5.6l1,.5h.5l.7-.2,1-.7a6.7,6.7,0,0,0,1.6-2.5,5,5,0,0,0,.4-1.3.7.7,0,0,0,.6-.3.9.9,0,0,0-.2-1.1l-.5-.3a.7.7,0,0,0-.6-.3h-1.8l-.6.2-1.2.8A4.8,4.8,0,0,0,425.9,255.3Zm1.3,1h0c.1-.1.1-.1.1-.2a.4.4,0,0,1,.1-.3c0-.2.1-.3.2-.5l.2-.3.3-.3h0c.2-.2.3-.4.5-.5l.4-.2.3-.2h0l.4-.2h.6a2.2,2.2,0,0,1-.1.8l-.3.8h0a3,3,0,0,1-.4.8l-.2.4-.5.5h-.1l-.3.2h-.2a.1.1,0,0,0-.1.1h-.7c-.1,0-.1,0-.1-.1h0c0-.1,0-.1-.1-.2Z"/><path d="M416.2,259.4a.4.4,0,0,0-.1.3.6.6,0,0,0-.1.4c0,.2.1.3.1.4l.3.6a2.4,2.4,0,0,0,1.1.6h1.3l2-.2,1.5-.5.6-.4c.1-.1.2-.2.2-.3l.3-.3a.1.1,0,0,1,.1-.1.4.4,0,0,1,.1-.3V259a1.1,1.1,0,0,0-.1-.5.8.8,0,0,0-.9-.5c-.2.1-.4.2-.4.3a5.3,5.3,0,0,0-1.7-.4h-1.6l-1.6.5a1,1,0,0,0-.5.4l-.5.4Zm1.3.6h.2l.3-.2h.2c0-.1.1-.1.2-.1l.7-.2h1.2l.7.2h.6a.1.1,0,0,0-.1.1h-.2l-.6.2h-3.2Z"/><path d="M403.6,251.9l1.2.2h.1a1.7,1.7,0,0,0,1.5-.6.7.7,0,0,0,.1-.6.5.5,0,0,0-.3-.5c-.1-.2-.3-.2-.5-.3l-.4-.2h-.1c0-.2.1-.4.1-.6a4.9,4.9,0,0,0-.1-1.2,11.2,11.2,0,0,0-1.3-2.4l-1.1-1.2-1.5-1.2a13.8,13.8,0,0,0-2.5-1.7l-1.5-.7-1.5-.5-1.2-.2-1.1.2-.9.6a.8.8,0,0,0-.4.6,2.6,2.6,0,0,0,.2,2.1,3.9,3.9,0,0,0,.6,1.1l1,1.2a15.1,15.1,0,0,0,2.3,2.1,12.7,12.7,0,0,0,2.7,1.8l3,1.5Zm0-1.5-1.6-.6-2.3-1.2a22,22,0,0,1-2.5-1.7l-1.8-1.5h.1l-1.1-1.3-.4-.6a.8.8,0,0,1-.2-.4l-.2-.4v-.4H395l1,.2h0l.8.2,1.8.9,1.5,1.1,1.6,1.4a14.2,14.2,0,0,1,1.2,1.3h0a2.1,2.1,0,0,1,.4.6,1.3,1.3,0,0,1,.3.5l.2.5h0v.7a.9.9,0,0,1-.1.5h0v.2a.6.6,0,0,0,0,.6Z"/><path d="M402.5,255.1a1.3,1.3,0,0,0-.1-.6,3.4,3.4,0,0,0-.6-1.2,11.8,11.8,0,0,0-3.2-2.7,9.1,9.1,0,0,0-1.7-.9l-.9-.3-1.1-.2a1.9,1.9,0,0,0-1,.3l-.5.4-.3.6a1,1,0,0,0,.2.9,4.3,4.3,0,0,0,.4.7,2.3,2.3,0,0,0,.7.7,8.6,8.6,0,0,0,1.4,1.3,12,12,0,0,0,2.1,1.3l1.7.7H401l.3.3h.3a.8.8,0,0,0,.7-.5A1.4,1.4,0,0,0,402.5,255.1Zm-2.6-1.7a.8.8,0,0,0-.4.9v.2h-.5l-1.1-.6-1.3-.9-1.3-1.1c-.1-.2-.3-.3-.5-.5l-.3-.5a.1.1,0,0,0,.1-.1h.3l.6.2,1,.3,1.2.6,1.1.8h0Z"/><path d="M400.5,259.9v-.3a.4.4,0,0,0-.1-.5.5.5,0,0,0-.2-.4l-.8-.9a10.7,10.7,0,0,0-1.6-1.4,12.5,12.5,0,0,0-1.9-1.5l-1.8-1a6.1,6.1,0,0,0-1.8-.5h-.5l-.4.2a1.5,1.5,0,0,0-.6,1c-.1.4.1.7.3,1.1a1.8,1.8,0,0,1,.5.7l1,1.1a26,26,0,0,0,3.6,3l1.7.8.8.2h.6l.4-.3.3-.4h0c.2-.1.3-.3.4-.4S400.5,260,400.5,259.9Zm-2.9-1.8h-.2l-.5.2a1,1,0,0,0-.1.9l-.8-.6-2.1-1.8h0l-1.1-1.2-.5-.6h.2l1.1.4.9.5a10.4,10.4,0,0,1,1.7,1.2h0Z"/><path d="M391.1,238.2h.2l-.5.3a.9.9,0,0,0-.2,1.1.9.9,0,0,0,.6.3h.5l.7-.5.5-.6a3.5,3.5,0,0,0,.5-.8v-.3a1.3,1.3,0,0,0,.1-.6,4.6,4.6,0,0,0-.5-2,12,12,0,0,0-1.3-2.1,6.9,6.9,0,0,0-1.8-1.6,8.2,8.2,0,0,0-2-1.2l-1.2-.4h-1l-.9.2-.7.3-.2.2-.2.3a2,2,0,0,0-.4.8,3.2,3.2,0,0,0,.2,1.7,7.4,7.4,0,0,0,3,3.5,10.1,10.1,0,0,0,2.3,1.2l1.3.3Zm-6.4-6.3Zm6.5,4.8h-1.4l-1.1-.3h.1l-1-.5-.9-.6-.7-.7-.6-.6-.4-.6-.3-.7a.4.4,0,0,1-.1-.3V232h.1a.4.4,0,0,1,.1-.3h1.7l.8.2.9.6.7.4h0l1,.9a2.7,2.7,0,0,1,.7.8h0a4.7,4.7,0,0,1,.6.9,1.6,1.6,0,0,1,.4.7h0c.1.1.1.3.2.4a.4.4,0,0,0,.1.3h-.2A.6.6,0,0,0,391.2,236.7Z"/><path d="M369.7,226a4.1,4.1,0,0,0-.1,1.1,1.9,1.9,0,0,0,.2.8,1.6,1.6,0,0,0,.4.7l.7.6.8.4,1.1.2h1.3a8.7,8.7,0,0,0,2.8-.5,7.2,7.2,0,0,0,1.9-1.1l.7-.6.3-.5a.6.6,0,0,1,.1-.4h.2a1.1,1.1,0,0,0,.8-.8c.1-.1.1-.4.1-.6l-.3-.6-.6-.6-1-.5-1.2-.4-1.5-.3a9.7,9.7,0,0,0-2.4.1,9.2,9.2,0,0,0-2.3.9,1.6,1.6,0,0,0-.8.6l-.7.7Zm1.4.8h0v-.6l.3-.3h0c0-.1,0-.1.1-.2l.3-.3.5-.3h-.1l.6-.3.7-.2h3.9l1,.4.4.2h.2v.2h0a.5.5,0,0,0-.4-.2l-.6-.2a.8.8,0,0,0-.8.7.8.8,0,0,0,.7.8h.1a.1.1,0,0,0-.1.1l-.3.3-.6.3h0l-.6.2-1,.4-1.1.2h-2.5l-.4-.2h-.5v-.5Z"/><path d="M366.8,229.4a.4.4,0,0,0-.1-.3h0c0-.3.1-.6-.1-.9v-.3l-.4-.2c-.4-.3-.8-.2-1.3-.1h-2l-1.6.4a14.3,14.3,0,0,0-2.8,1.3,11.4,11.4,0,0,0-2.3,2l-1,1.2a6.1,6.1,0,0,0-.5,1.2,2.4,2.4,0,0,0,.1,2.1,1.9,1.9,0,0,0,1.2,1.1h2.2l1.5-.5,1.6-.8a16.4,16.4,0,0,0,2.5-1.9,11.5,11.5,0,0,0,2.1-2.3l.3-.5a.7.7,0,0,0,.7-.7Zm-1.6-.1h-.1l-.3.6-.6.9-.8.9h0l-1.5,1.2a4.2,4.2,0,0,1-1.4.9,5.3,5.3,0,0,1-1.5.8l-1.2.4H356a.6.6,0,0,0-.1-.4h0a.6.6,0,0,1,.1-.4v-.2h.1a.5.5,0,0,1,.2-.4l.6-.9.6-.8,1.1-.8.9-.7,1.4-.7,1.3-.4h.3c.1.2.3.2.5.3l1.2-.2h.5l.3.2a.1.1,0,0,1,.1.1Z"/><path d="M344.6,246.8a4,4,0,0,0,.1,1.9,1.6,1.6,0,0,0,.4.7l.4.4.4.2.7.2h.1l.8-.2a4.2,4.2,0,0,0,2.2-1.1,14.9,14.9,0,0,0,3.7-4.2l1.2-2.3.2-.5a1.9,1.9,0,0,1,.2-.7v-1a1,1,0,0,0-.6-.9.4.4,0,0,0-.5,0h-.7l-.3.2-.6-.2h-1.1a8,8,0,0,0-4.1,2.7l-1.5,2a6.1,6.1,0,0,0-.5,1.2A7.8,7.8,0,0,0,344.6,246.8Zm1.4.9v-.3a6.4,6.4,0,0,1,.2-.7h0a1.9,1.9,0,0,0,.2-.7l.6-1,.7-1.1.9-1h0l1-.9.6-.4.7-.4h1.5l.3.2.6.4-.3.6-.7,1.5-1.3,1.8a6.9,6.9,0,0,1-1.1,1.3h0l-1,.9-.9.6h0l-.4.2H346v-.4Z"/><path d="M355.1,243.5a5.2,5.2,0,0,0-.4,2.1,2.4,2.4,0,0,0,.4,1.6c.3.3.6.7,1,.8h.4l1-.2a6.5,6.5,0,0,0,1.5-1l.7-.8a11.4,11.4,0,0,0,1.1-1.1,29.6,29.6,0,0,0,2.6-4.2,8.5,8.5,0,0,0,.9-2.2h.1a.8.8,0,0,0,.1-1.5h-.2a.6.6,0,0,0-.8-.5h-.6l-.2.2-1.2.3a6.9,6.9,0,0,0-1.9,1,10,10,0,0,0-2,1.6l-1.5,1.8A11.4,11.4,0,0,0,355.1,243.5Zm1.4,3Zm-.3-.5h0Zm0-.6h0c0-.3.1-.6.1-.9l.3-.7a4.7,4.7,0,0,1,.5-1,6.1,6.1,0,0,1,.7-1l.9-1,1-.9,1.1-.8h.1l.7-.3h-.1l.7-.3h.6l-.3.8a22.6,22.6,0,0,1-1.1,2.2h0a18.1,18.1,0,0,1-1.8,2.7h0l-1.5,1.7-.4.4-.4.2-.3.2h-.6v-.4h0c0-.1-.1-.2,0-.4Z"/><path d="M366.9,234.9l-.6.9a4.7,4.7,0,0,0-.6,2.1,2.9,2.9,0,0,0,.2.9,1.4,1.4,0,0,0,.2.6l.4.4.6.4h1.6a1.9,1.9,0,0,0,.9-.5l1-.7.9-.8.9-1.1a17.4,17.4,0,0,0,1.1-1.8,2.1,2.1,0,0,0,.4-1c0-.1.1-.2.1-.4a1.1,1.1,0,0,0-.1-.5,1.2,1.2,0,0,0-.5-.9h.7a.8.8,0,0,0,.7.8.7.7,0,0,0,.8-.7,1.8,1.8,0,0,0-.2-1l-.6-.5-.8-.2h-1l-1.3.4a9.1,9.1,0,0,0-2.2,1.1l-1.8,1.5Zm.3,3a.8.8,0,0,1,.1-.4h0a.8.8,0,0,1,.2-.4l.3-.7h0l.3-.4.6-.7,1-.9,1.2-.8.9-.5v.2a.7.7,0,0,0,.7.7v.2c-.1.1-.1.2-.2.4a4.1,4.1,0,0,1-.5.9,5.6,5.6,0,0,1-.5.8l-1.3,1.5-.5.4-.9.6-.4.2h-.6a.1.1,0,0,0-.1-.1h-.2a.4.4,0,0,0-.1-.3Z"/><path d="M356.2,252.9v1.6c.1.2.1.4.2.6a2,2,0,0,0,.4.8,1,1,0,0,0,.6.5c0,.1.1.1.2.1l.6.2h1.3l.5-.3,1.1-.7a12.9,12.9,0,0,0,1.9-2.1,21.3,21.3,0,0,0,1.6-2.5,15.9,15.9,0,0,0,1.2-2.7l.3-1.3c0-.2.1-.5.1-.7l.4-.2a.9.9,0,0,0,.1-1.1l-.7-.6-.9-.5h-1.3l-.6.2-.9.5-1.4.9a11,11,0,0,0-2.1,2.2A11.6,11.6,0,0,0,356.2,252.9Zm1.4.8a.9.9,0,0,0,.1-.5h0c0-.2.1-.3.1-.5h0a11.2,11.2,0,0,1,.5-1.3l.6-1.3.8-1.1,1.1-1.3,1.3-1.2h0a2.4,2.4,0,0,1,.9-.6l.7-.4h.5a.6.6,0,0,0,.1.4c.1.2.2.2.4.3v.2a.9.9,0,0,1-.1.5c0,.2-.1.5-.1.7h-.1a9.3,9.3,0,0,1-.4,1.3h0a24,24,0,0,1-1.1,2.3h0a12.7,12.7,0,0,1-1.3,1.9l-.9,1-1,.9-.4.2h-1.5a1.3,1.3,0,0,1-.1-.6C357.7,253.9,357.6,253.8,357.6,253.7Z"/><path d="M365.8,249.2a3.8,3.8,0,0,0,0,1.5,1.4,1.4,0,0,0,.2.6l.4.4a1.6,1.6,0,0,0,1,.5h.1a2,2,0,0,0,1.2-.6,4.8,4.8,0,0,0,1.2-1.6,6.6,6.6,0,0,0,.9-1.9l.3-.9h0a.6.6,0,0,0,.8.6.7.7,0,0,0,.7-.8,5.5,5.5,0,0,0-.2-1.8,1.9,1.9,0,0,0-.7-1.1,1.7,1.7,0,0,0-1.2-.5h-.9l-.5.3a8.7,8.7,0,0,0-1.4,1.2,7.6,7.6,0,0,0-1.2,1.9A4.8,4.8,0,0,0,365.8,249.2Zm1.4,1.1h0v-.8h0c0-.2.1-.3.1-.4h0l.3-.7.3-.7.6-.9h0l.7-.8h-.1l.3-.3v.2a.5.5,0,0,0,.2.4h0v.4c-.1.2-.1.4-.2.5a2.9,2.9,0,0,1-.3,1,11.7,11.7,0,0,1-.5,1.1l-.6.9-.3.3h0c-.1,0-.1.1-.2.2h-.4v-.2Z"/><path d="M366.4,259.4a3.4,3.4,0,0,0,.1,1,3.1,3.1,0,0,0,.2.8,2.7,2.7,0,0,0,1,.8h.6l.8-.2a1.2,1.2,0,0,0,.5-.5,2.3,2.3,0,0,0,.7-.7,15.9,15.9,0,0,0,1.3-2.2,8.3,8.3,0,0,0,.6-2.1,4.1,4.1,0,0,0-.2-1.9l-.3-.4-.2-.2-.3-.2h.8a.8.8,0,0,0,.5.9.8.8,0,0,0,.9-.6,1.3,1.3,0,0,0,.1-.6l-.2-.5a2,2,0,0,0-1.2-.8h-.7a1.1,1.1,0,0,0-.8.1,3,3,0,0,0-1.7,1,8.3,8.3,0,0,0-1.1,1.5,8.7,8.7,0,0,0-1,2.5A17,17,0,0,0,366.4,259.4Zm1.5.4a3.1,3.1,0,0,1,.1-1c0-.3.1-.6.1-.8l.6-1.7a5.4,5.4,0,0,1,.5-1.1h.1l.6.2.7-.2h0v.2h0v.7c0,.2-.1.5-.1.7h0a3,3,0,0,1-.4,1l-.6,1.2a.1.1,0,0,1,.1-.1l-.6.9-.3.3-.3.3h-.6v-.5Z"/><path d="M390.4,247a.9.9,0,0,0-.3-1H390a1.7,1.7,0,0,0-.3-1l-.4-.5-.6-.6-1.6-.9a8.8,8.8,0,0,0-3.5-1h-.7l-.8.2a1.4,1.4,0,0,0-.8.5,1.5,1.5,0,0,0-.2.9,1.4,1.4,0,0,0,.2.6.5.5,0,0,0,.2.4l.5.5,1,.6,1.9,1,1.7.7a5.8,5.8,0,0,0,1.9.3h.2a2.2,2.2,0,0,0,1.1-.2A1.5,1.5,0,0,0,390.4,247Zm-1.9-1.1h0c-.1,0-.1.1-.2.2h-.6l-1.9-.6-2-1.1-1.1-.7h1l1.3.2.8.3,1.3.7.6.4.5.4v.2a.1.1,0,0,1,.1.1Z"/><path d="M377.8,238.9a15.1,15.1,0,0,0,4.6,1.3h2.1l.3-.2.3-.3c.3,0,.5-.3.6-.6s.1-.4.1-.6a1.4,1.4,0,0,0-.2-.7l-.2-.3-.2-.3-.7-.6a11.3,11.3,0,0,0-2.1-1.2l-2.2-.7a8.1,8.1,0,0,0-2.2-.1h-.8l-.9.3-.5.3c-.2.1-.3.4-.4.5a2.9,2.9,0,0,0-.1,1.3,2.8,2.8,0,0,0,.8,1.1A5.9,5.9,0,0,0,377.8,238.9Zm.1-1.6-.8-.6-.3-.2h2.3l1.4.2,1.3.5,1.2.6.7.4c-.1.1-.2.1-.2.2a.6.6,0,0,0-.1.9H382l-1.4-.2h0l-1.9-.7Z"/><path d="M379.7,242.3h0l.6-.2a.8.8,0,0,0,0-1.1l-.5-.4-.6-.4-.7-.2h-.7a9.4,9.4,0,0,0-3.6.8,2.2,2.2,0,0,0-1.4,1.2l-.3.4v.5c0,.2.1.3.2.5a2,2,0,0,0,.9.9h.4l.9.2h1.9a3.8,3.8,0,0,0,2.8-1.4A.9.9,0,0,0,379.7,242.3Zm-1.3-.9h-.2a.9.9,0,0,0-.9.6.9.9,0,0,0,.3.7h-.3l-.8.2h-2.4v-.2h.1l.3-.2h.1l1.1-.3h.1l1-.2h1.5Z"/><path d="M415.8,258.2h.8l1.9-.3,1.2-.4a.9.9,0,0,0,.6-.4.4.4,0,0,0,.1-.3l.3.3a.8.8,0,0,0,1,.1.8.8,0,0,0,.1-1.1l-.4-.4-.4-.3-1.1-.6-1.5-.3h-1.9l-1.4.2-.8.3-.7.3-.3.3a5,5,0,0,0-2-.8,7.4,7.4,0,0,0-2.6-.3l-1.3.2-1.5.4-.9.5a1.9,1.9,0,0,0-.7.6l-.5.7a2.2,2.2,0,0,0-.1.8,2.7,2.7,0,0,0,.5,1.5l.3.2.5.4,1.1.6,1.2.3h1.3a9.3,9.3,0,0,0,2.9-.2.1.1,0,0,0,.1-.1c0,.1.1.2.2.3l.5.2a.5.5,0,0,0,.5-.3,6.5,6.5,0,0,0,1.3-1.6,3.8,3.8,0,0,0,.3-1h1.4Zm-2.9-.3h-1a.8.8,0,0,0-.8.7.6.6,0,0,0,.3.6h-.2l-.8.2h-2.3l-1.1-.2-.6-.2-.5-.2h.1a.5.5,0,0,0-.4-.2c0-.1-.1-.1-.1-.2s-.1,0-.1-.1h-.1c0-.1-.1-.1-.1-.2h0v-.2h.2l.3-.3.3-.2h0l.4-.2.5-.2,1.3-.2h2l1,.2h.1l.6.2h0l.4.2h.2c0,.1.1.2.1.3l.2.3h.1Zm1.5-1.3Zm2.8,0h-2.8l.5-.2h-.1l1-.3h2.5l.8.2H419a.1.1,0,0,0-.1.1h0l-.7.2-1.1.2Z"/><path d="M463.7,218.8a2.3,2.3,0,0,0-.6,1.8,2,2,0,0,0,.1.7l.2.3.4.4a1.5,1.5,0,0,0,1.1.4h.4l.8-.2.5-.3.5-.4a5.9,5.9,0,0,0,1.3-1.8,1.9,1.9,0,0,0,.2-.7v-.6a.9.9,0,0,0-1-.4l-.3.2H467l-.8-.3h-1A3.3,3.3,0,0,0,463.7,218.8Zm.8,1.7h.1V220l.2-.3h.7c0-.1.1-.1.2-.1h.4l.4.2h.2v.3l-.5.5h0l-.3.3h0l-.3.2-.2.2a.1.1,0,0,1,.1-.1h-1Z"/><path d="M462.5,221.4h-.4a1.4,1.4,0,0,0,.2-.6.8.8,0,0,0-.8-.7h-.9a3.3,3.3,0,0,0-1,.6,7.7,7.7,0,0,0-1.8,1.8,11.4,11.4,0,0,0-1.5,2.3c0,.2-.1.4-.1.6v.5a1.2,1.2,0,0,0,.2.8l.4.3.7.2h.1l.7-.2,1-.7a13.4,13.4,0,0,0,2.1-2l.9-1,.4-.5a1.4,1.4,0,0,1,.2-.6A.9.9,0,0,0,462.5,221.4Zm-1.6,1.4-1.5,1.5-1.2,1.1-.5.3a.4.4,0,0,1,.1-.3h0v-.2l.5-.8.6-.9.9-1,.5-.4a.8.8,0,0,0,.5.7Z"/></svg>