<svg id="Arms_5" data-name="Arms 5" xmlns="http://www.w3.org/2000/svg" viewBox="0 0 500 500"><defs><style>.cls-1{fill:lime;}</style></defs><polyline class="cls-1" points="369.7 275.9 387.3 277.1 403.9 278.6 425.4 265.5 433.2 255.3 427.6 247.2 410.4 257.7 422.2 244.9 432.2 238.7 433.4 234.4 427 227.2 409.3 237.3 401.6 241.3 415.5 231.6 420.4 221.6 410.2 214.5 400.1 219.8 386.4 232.6 386.8 230.1 394.6 217.5 385.6 210.6 374.1 224.2 370.7 239.9 354.8 250 369.7 275.9"/><path d="M437.7,225.7a7,7,0,0,1,.1,2.5,14,14,0,0,1-.6,2.8,25.4,25.4,0,0,1-3.1,5.3l-1.9,2.4-1.4,1.6-.7.8a9.4,9.4,0,0,0-1,1l-1.1,1-2.3,2h.2l-2.2,1.8h.1l-3,2.4-2.4,1.7,1.2-.7c2.5-1.5,5.1-3,7.8-4.3l1.1-.4a18.2,18.2,0,0,1,3-1.1l2.7-.4a8.2,8.2,0,0,1,2.7.1,3.6,3.6,0,0,1,2,1.1,2.9,2.9,0,0,1,.8,2.3,5.4,5.4,0,0,1-.6,2.5,13.5,13.5,0,0,1-1.5,2.6l-1.5,2.1-.3.4-1.1,1.3-1.2,1.4-1.9,2-1.5,1.4-1.4,1.4-3.3,2.9-3.6,3-2.2,1.8a41.5,41.5,0,0,1-4.3,3,22.7,22.7,0,0,1-3.4,1.9l-2.4,1.3-2.4,1-3.2,1.1a34.3,34.3,0,0,1-6.4,1.1h-8.6l-1.6-.2-3.3-.3-3.1-.5-3.5-.5-1.6-.2-1.8-.2h-2.3a2.1,2.1,0,0,1-1.1,0l-.6-.4h-.1a1.5,1.5,0,0,1-.2-1.3,1.3,1.3,0,0,1,1.6-.6,21.7,21.7,0,0,1,3.6.2l4,.5,4.3.6,4.1.5,2.3.2H396l4.4-.5h-.2l3.3-.7h-.1a34.1,34.1,0,0,0,4.8-1.8h0l2.4-1.2,3.7-2.1h-.1a33.7,33.7,0,0,0,4.5-3.2l2.4-2a.1.1,0,0,1-.1.1l3.1-2.6,2.9-2.6,2.8-2.6,1-1.2a18.5,18.5,0,0,0,1.4-1.4l1.9-2.3.7-.9a8.3,8.3,0,0,1,.8-1.2h0l1-1.6h0c.2-.3.3-.7.5-1a1.4,1.4,0,0,1,.2-.7v-.2h0v-.7h0v-.3h-.1c-.1,0-.1,0-.1-.1h0a.1.1,0,0,0-.1-.1l-.3-.2h-1.5l-1.8.2-2.1.5h0a19.9,19.9,0,0,0-3.4,1.3h.2c-2.6,1.3-5.2,2.8-7.7,4.3l-3.9,2.2-2.2,1.2a12.1,12.1,0,0,1-2,.9l-1.2.5-.6.2H410l-.9.2a1.2,1.2,0,0,1-1.1-1.3,1.5,1.5,0,0,1,.2-.9,3.4,3.4,0,0,1,.9-.8l1.2-1,1.7-1.4,3.5-2.6,3.2-2.3,3.5-2.8,2.1-1.8h-.1a49.8,49.8,0,0,0,4.1-3.8l1.8-1.9h.1l.9-1.2,1.6-2a.1.1,0,0,0-.1.1,16.5,16.5,0,0,0,1.5-2.5h.1c.2-.5.5-1,.7-1.6l.4-1.2c0-.4.1-.7.1-1v-1.2h0v-.2h-.4l-.2-.2h-2.1l-1,.3-1.6.6h.1a18.2,18.2,0,0,0-3.6,2l-3.6,2.3-3.8,2.6c-2.5,1.7-4.8,3.6-7.3,5.2l-4.9,3.1-2.2,1.2-1.3.7-.6.4-.8.3a1,1,0,0,1-1.1-.4,1.1,1.1,0,0,1-.3-1.3,4.1,4.1,0,0,1,1-1.3l1-.9,1.6-1.6,3.4-3.2,6.7-6.3,1.6-1.6h0a72.1,72.1,0,0,0,4.7-6.2h-.1a22.6,22.6,0,0,0,1.6-2.6,3.6,3.6,0,0,0,.4-.9,1.4,1.4,0,0,0,.2-.6,14404887478046.5,14404887478046.5,0,0,0,.2-1.6c0-.2-.1-.5-.1-.7s0-.3-.1-.4h0l-.2-.3h.1v-.2l-.2-.2h.1a.1.1,0,0,1-.1-.1h-.9l-.8-.2h-1.2l-1.6.2h.1l-3.2.8h.1l-4,1.3-1.8.6-1.9.9-1.3.6-1.2.7-1.3.9-1.4,1.1-2.7,2.2h.1l-.2.2h0l-3.2,2.8-3.1,3-1.6,1.5-2.4,1.8a6.9,6.9,0,0,1-2.4.5,1.9,1.9,0,0,1-1.7-.8c-1-1.3-.1-3,.7-4.2a24.8,24.8,0,0,1,1.9-2.6l2.1-2.4,1.9-2.2a23.5,23.5,0,0,0,1.9-2.5l.8-1.3a5,5,0,0,0,.5-1.3,5.6,5.6,0,0,0,.4-1.2c0-.3.1-.7.1-1.1v-.6a10998156482516.2,10998156482516.2,0,0,1-.2-1.2v0a.5.5,0,0,0-.2-.4h-.2l-.2-.2H394l-.3-.2h-1.8l-1,.3-1.4.5a30.4,30.4,0,0,0-3.6,1.9h0l-.7.4h.1l-2.1,1.6-1,.9-1,1a13.4,13.4,0,0,0-1.1,1.4l-1.1,1.5h0l-1,1.5-.9,1.6-1.7,3h0l-1.1,2.3c-.3.9-.7,1.7-1,2.6a8.4,8.4,0,0,0-.5,1.7v-.2c-.2.7-.3,1.5-.5,2.2l-.3,2a15.5,15.5,0,0,1-.7,2.3l-.6,1.5-1.7,2.4c-2.9,3.2-6.8,5.1-10.5,7l-2.1,1.2a1.3,1.3,0,0,1-1.6-.5,1.3,1.3,0,0,1,.5-1.7l1.9-1,2.1-1.1,2.1-1.2,1.9-1.1,2.2-1.6a18.5,18.5,0,0,0,1.4-1.4h.1l1-1.4.6-.8h0a11.7,11.7,0,0,0,.5-1.1l.3-1.3h0l.9-4.1a7.5,7.5,0,0,1,.4-1.6,6.2,6.2,0,0,1,.7-1.9,10.8,10.8,0,0,1,.8-1.9,14.7,14.7,0,0,1,1-2.2,16.2,16.2,0,0,1,1-1.8,28.8,28.8,0,0,1,2.2-3.8,33.7,33.7,0,0,1,3.3-4.4c.7-.6,1.3-1.3,2.1-1.9L384,211h-.1a24.6,24.6,0,0,1,3.9-2.2,15.7,15.7,0,0,1,2.3-.9,6.9,6.9,0,0,1,2.4-.5,5.4,5.4,0,0,1,2.5.6,4.4,4.4,0,0,1,1.8,1.5,5.8,5.8,0,0,1,.6,2.6,8.2,8.2,0,0,1-.2,2.7,13.3,13.3,0,0,1-1.9,4.2,21.5,21.5,0,0,1-1.8,2.4l-2,2.4-1.9,2.2-1.9,2.4-.7,1.2a.8.8,0,0,0-.2.4h.9l.4-.3,1.4-1,1.5-1.4,1.4-1.5,3.3-3,3.4-2.8a31.7,31.7,0,0,1,3.6-2.8,22.4,22.4,0,0,1,4-2.2l4.3-1.6,4.3-1.4a18.1,18.1,0,0,1,5.2-.6,7.4,7.4,0,0,1,2.5.5l.9.6a3.1,3.1,0,0,1,.9,1.1,4.2,4.2,0,0,1,.4,1,4.9,4.9,0,0,1,.1,1.2,9.2,9.2,0,0,1-.4,2.9,12.8,12.8,0,0,1-1.1,2.4l-1.4,2.1c-1.3,1.8-2.5,3.7-4,5.4s-1.9,2.1-2.9,3.1l-1.6,1.5-3.7,3.4-.9.8h.2l3.6-2.5,3.8-2.7,7.4-5.1,2.1-1.2,1.8-1.1a11.7,11.7,0,0,1,2.6-1,10.5,10.5,0,0,1,3-.5,6.2,6.2,0,0,1,2.3.7,3.6,3.6,0,0,1,1.5,1.9Z"/><path d="M406.1,231.7c-.7.5-1.5-.1-2.1-.5l-1.5-1.3-2.4-2.3a1.2,1.2,0,1,1,1.7-1.6l2.3,2.1h.1l1.5,1.2h0a1.1,1.1,0,0,1,.9.6h.1A1.2,1.2,0,0,1,406.1,231.7Z"/><path d="M407.9,228.6a1.1,1.1,0,0,1-1.4.2,6.7,6.7,0,0,1-1.6-1.8,1.2,1.2,0,0,1,.3-1.7,1.2,1.2,0,0,1,1.7.2l.6.9.3.3.4.4v.2A1.1,1.1,0,0,1,407.9,228.6Z"/><path d="M385.3,220.2a1.3,1.3,0,0,1-.7.4,2.2,2.2,0,0,1-1.9-.6,1.2,1.2,0,0,1,1.5-1.9h.1a1.4,1.4,0,0,1,1.2.7h.1A1.5,1.5,0,0,1,385.3,220.2Z"/><path d="M385.8,217.6h-.2a1.2,1.2,0,0,1-1.3-.1l-.3-.2a1.3,1.3,0,0,1-.5-1.7,1.2,1.2,0,0,1,1.7-.4l.5.3a1,1,0,0,1,.5.6A1.1,1.1,0,0,1,385.8,217.6Z"/><path d="M414.3,246.3a1.3,1.3,0,0,1-1.6-.4h0a1.8,1.8,0,0,0-.5-.7,1.2,1.2,0,1,1,2-1.4l.6.8h.1A1.4,1.4,0,0,1,414.3,246.3Z"/><path d="M416.9,242.6h0a1.2,1.2,0,0,1-1.5,0l-.5-.6a1.2,1.2,0,0,1,.2-1.7,1.2,1.2,0,0,1,1.7.3l.2.2h.1l.2.3A1.2,1.2,0,0,1,416.9,242.6Z"/><path d="M419,262.8a1.1,1.1,0,0,1-1.5-.7,1.3,1.3,0,0,1,.7-1.6,1.3,1.3,0,0,1,1.6.8A1.2,1.2,0,0,1,419,262.8Z"/><path d="M420.5,260.6a1.1,1.1,0,0,1-1.5-.7,1.3,1.3,0,0,1,.7-1.6,1.3,1.3,0,0,1,1.6.8A1.2,1.2,0,0,1,420.5,260.6Z"/><path d="M434,253.8a1.9,1.9,0,0,1-.2.8,1.3,1.3,0,0,1-.6.7,1.1,1.1,0,0,1-1.1,0,1.4,1.4,0,0,1-.9-.8l-.7-.9-.6-1.1h0l-1.1-1.6-1.5-2a1.3,1.3,0,0,1,.3-1.7,1.2,1.2,0,0,1,1.7.3l1.8,2.4,1.7,2.7h0a1.2,1.2,0,0,1,1.1.7A1.1,1.1,0,0,1,434,253.8Z"/><path d="M433.7,233.1h0a1.4,1.4,0,0,1-.3,1.3,1.2,1.2,0,0,1-1.5.2l-1.1-.8-.7-.5-1.7-1.5-3.2-2.9a1.2,1.2,0,0,1,0-1.7,1.3,1.3,0,0,1,1.8,0l1.6,1.6,2.3,2,2.2,1.7c.3.1.4.3.6.6Z"/><path d="M420.3,223.1a1.4,1.4,0,0,1-1.6.3l-.3-.4h-.2l-.8-.7h0a31.2,31.2,0,0,1-4-3.2l-2.9-3.1a1.2,1.2,0,0,1,0-1.7,1.3,1.3,0,0,1,1.8,0c1.1,1.2,2.1,2.4,3.3,3.5l2.8,2.2h-.1l1.6,1.3a1,1,0,0,1,.5.4h0v.3A1.3,1.3,0,0,1,420.3,223.1Z"/><path d="M396.2,216.2a1.4,1.4,0,0,1-1.6,1.3,6.1,6.1,0,0,1-1.7-.7l-1.1-.6a28.3,28.3,0,0,1-2.8-2l-2.8-2.2-2.8-2.6a1.2,1.2,0,0,1,.1-1.7,1.2,1.2,0,0,1,1.7,0l2.8,2.6h0l2.1,1.7,2.3,1.7h-.2l1.9,1.1.7.3h.2a1.1,1.1,0,0,1,1.1.8A.6.6,0,0,1,396.2,216.2Z"/><polyline class="cls-1" points="131.2 275.9 113.7 277.1 97 278.6 75.5 265.5 67.7 255.3 73.3 247.2 90.6 257.7 78.7 244.9 68.7 238.7 67.5 234.4 74 227.2 91.6 237.3 99.3 241.3 85.4 231.6 80.5 221.6 90.7 214.5 100.8 219.8 114.5 232.6 114.1 230.1 106.3 217.5 115.3 210.6 126.8 224.2 130.2 239.9 146.1 250 131.2 275.9"/><path d="M63.3,225.7a5.3,5.3,0,0,0-.2,2.5,14,14,0,0,0,.6,2.8,25.4,25.4,0,0,0,3.1,5.3l1.9,2.4,1.4,1.6.7.8a9.4,9.4,0,0,1,1,1l1.1,1,2.3,2h-.1l2.1,1.8h-.1l3.1,2.4,2.3,1.7a4.1,4.1,0,0,1-1.1-.7c-2.6-1.5-5.2-3-7.9-4.3l-1.1-.4a18.2,18.2,0,0,0-3-1.1l-2.7-.4a8.2,8.2,0,0,0-2.7.1,3.6,3.6,0,0,0-2,1.1,2.9,2.9,0,0,0-.8,2.3,7.1,7.1,0,0,0,.6,2.5,22,22,0,0,0,1.5,2.6l1.5,2.1c.1.1.2.3.4.4l1,1.3,1.2,1.4,1.9,2,1.5,1.4,1.4,1.4,3.3,2.9,3.6,3,2.2,1.8c1.4,1.1,2.9,2.1,4.3,3a22.7,22.7,0,0,0,3.4,1.9l2.4,1.3,2.4,1,3.2,1.1a35.7,35.7,0,0,0,6.4,1.1H112l1.6-.2,3.3-.3,3.1-.5,3.5-.5,1.6-.2,1.9-.2h2.2a2,2,0,0,0,1.1,0,1.3,1.3,0,0,0,.6-.4.1.1,0,0,0,.1-.1h0a1.2,1.2,0,0,0,.2-1.3,1.3,1.3,0,0,0-1.6-.6,21.7,21.7,0,0,0-3.6.2l-4,.5-4.3.6-4,.5-2.4.2h-6.4l-4.4-.5h.2l-3.3-.7h.1a34.1,34.1,0,0,1-4.8-1.8h0l-2.4-1.2-3.7-2.1h.1a41.6,41.6,0,0,1-4.5-3.2l-2.4-2a.1.1,0,0,0,.1.1l-3.1-2.6-2.9-2.6-2.8-2.6-1-1.2a18.5,18.5,0,0,1-1.4-1.4l-1.9-2.3-.7-.9a8.3,8.3,0,0,0-.8-1.2h0l-1-1.6h0l-.4-1-.3-.7v-.2h0v-.7h0a.4.4,0,0,0,.1-.3h.2c0-.1.1-.1.2-.1l.2-.2h1.5l1.8.2,2.1.5h0a19.9,19.9,0,0,1,3.4,1.3h-.2c2.7,1.3,5.2,2.8,7.7,4.3l3.9,2.2,2.2,1.2a12.1,12.1,0,0,0,2,.9l1.2.5.7.2h.3l.9.2a1.3,1.3,0,0,0,1.2-1.3,3.2,3.2,0,0,0-.3-.9,3.4,3.4,0,0,0-.9-.8l-1.1-1-1.8-1.4L85.4,250l-3.2-2.3-3.5-2.8-2.1-1.8h.1l-4.1-3.8-1.8-1.9h-.1l-.9-1.2-1.6-2a.1.1,0,0,1,.1.1c-.5-.8-1.1-1.7-1.5-2.5h0a8,8,0,0,1-.8-1.6l-.3-1.2a4.4,4.4,0,0,1-.2-1v-1.2h.1v-.2H66l.2-.2h2.1l1,.3a5.2,5.2,0,0,1,1.6.6h0a17.5,17.5,0,0,1,3.5,2l3.6,2.3,3.8,2.6c2.5,1.7,4.8,3.6,7.3,5.2l4.9,3.1,2.2,1.2,1.3.7.6.4.8.3a1.2,1.2,0,0,0,1.2-.4,1.2,1.2,0,0,0,.2-1.3,4.1,4.1,0,0,0-1-1.3l-1-.9-1.6-1.6-3.4-3.2-6.7-6.3c-.5-.5-1.1-1-1.6-1.6h0c-1.7-1.9-3.1-4.1-4.7-6.2h.1a22.6,22.6,0,0,1-1.6-2.6l-.4-.9a1.4,1.4,0,0,1-.2-.6,2.2,2.2,0,0,1-.1-.8,2.2,2.2,0,0,1-.1-.8,1.7,1.7,0,0,0,.1-.7c0-.2.1-.3.1-.4h0l.2-.3h-.1v-.2l.2-.2h-.1a.1.1,0,0,0,.1-.1h.9l.8-.2h1.2l1.6.2H83l3.2.8h-.1l4,1.3,1.8.6,1.9.9,1.3.6,1.3.7,1.2.9,1.5,1.1,2.6,2.2h-.1l.2.2h0l3.2,2.8,3.1,3,1.6,1.5a14.4,14.4,0,0,0,2.5,1.8,5.9,5.9,0,0,0,2.3.5,2.2,2.2,0,0,0,1.8-.8c.9-1.3,0-3-.7-4.2s-1.3-1.8-2-2.6l-2.1-2.4c-.6-.7-1.2-1.5-1.9-2.2s-1.3-1.6-1.9-2.5l-.8-1.3c-.2-.4-.3-.8-.5-1.3l-.3-1.2c-.1-.3-.1-.7-.2-1.1v-.6a1.3,1.3,0,0,1,.1-.6,1.3,1.3,0,0,1,.1-.6v0l.2-.4a.1.1,0,0,1,.1-.1h.1l.2-.2h.2l.3-.2H109l1.1.3,1.4.5a39,39,0,0,1,3.5,1.9h0l.7.4h-.1l2.1,1.6,1,.9,1,1a13.4,13.4,0,0,1,1.1,1.4l1.1,1.5h0l1,1.5a14,14,0,0,1,1,1.6l1.6,3h0l1.1,2.3c.3.9.7,1.7,1.1,2.6a8.5,8.5,0,0,1,.4,1.7v-.2c.2.7.3,1.5.5,2.2a14.2,14.2,0,0,0,.4,2,8.6,8.6,0,0,0,.6,2.3l.6,1.5a18.8,18.8,0,0,0,1.8,2.4c2.8,3.2,6.7,5.1,10.4,7l2.1,1.2a1.3,1.3,0,0,0,1.6-.5,1.3,1.3,0,0,0-.5-1.7l-1.9-1-2.1-1.1-2.1-1.2-1.8-1.1a18.8,18.8,0,0,1-2.3-1.6l-1.4-1.4h-.1l-1-1.4a2.2,2.2,0,0,1-.5-.8h-.1c-.1-.3-.3-.7-.4-1.1a6.5,6.5,0,0,1-.4-1.3h0l-.9-4.1a7.5,7.5,0,0,0-.4-1.6,10.6,10.6,0,0,0-.6-1.9l-.9-1.9a14.7,14.7,0,0,0-1-2.2,16.2,16.2,0,0,0-1-1.8,28.8,28.8,0,0,0-2.2-3.8,33.7,33.7,0,0,0-3.3-4.4l-2-1.9-2.3-1.6h.1a24.6,24.6,0,0,0-3.9-2.2,15.7,15.7,0,0,0-2.3-.9,6.9,6.9,0,0,0-2.4-.5,5.4,5.4,0,0,0-2.5.6,4.4,4.4,0,0,0-1.8,1.5,5.8,5.8,0,0,0-.6,2.6,8.2,8.2,0,0,0,.2,2.7,15.9,15.9,0,0,0,1.9,4.2,21.5,21.5,0,0,0,1.8,2.4l2,2.4,2,2.2,1.8,2.4.7,1.2.2.4h-.9l-.4-.3-1.3-1a10.7,10.7,0,0,1-1.6-1.4l-1.4-1.5-3.3-3-3.4-2.8a24.8,24.8,0,0,0-3.6-2.8,19.4,19.4,0,0,0-4-2.2l-4.3-1.6-4.3-1.4a17.8,17.8,0,0,0-5.1-.6,7,7,0,0,0-2.5.5l-1,.6a3.1,3.1,0,0,0-.9,1.1,4.2,4.2,0,0,0-.4,1,4.9,4.9,0,0,0-.1,1.2,9.2,9.2,0,0,0,.4,2.9,25.6,25.6,0,0,0,1.1,2.4l1.4,2.1c1.3,1.8,2.6,3.7,4,5.4s1.9,2.1,2.9,3.1l1.6,1.5,3.7,3.4.9.8h-.2c-1.2-.8-2.4-1.6-3.5-2.5L84,232c-2.4-1.8-4.9-3.4-7.4-5.1l-2.1-1.2-1.8-1.1a11.7,11.7,0,0,0-2.6-1,10.5,10.5,0,0,0-3-.5,6.2,6.2,0,0,0-2.3.7,3.6,3.6,0,0,0-1.5,1.9Z"/><path d="M94.8,231.7c.7.5,1.5-.1,2.1-.5a6.4,6.4,0,0,0,1.5-1.3,27.3,27.3,0,0,0,2.5-2.3,1.2,1.2,0,0,0-.1-1.7,1.2,1.2,0,0,0-1.7.1l-2.3,2.1h-.1l-1.5,1.2h0a1.1,1.1,0,0,0-.9.6h-.1A1.3,1.3,0,0,0,94.8,231.7Z"/><path d="M93,228.6a1.2,1.2,0,0,0,1.5.2A8.4,8.4,0,0,0,96,227a1.2,1.2,0,0,0-.2-1.7,1.4,1.4,0,0,0-1.8.2l-.6.9-.2.3-.4.4c-.1.1-.1.1-.1.2A1.1,1.1,0,0,0,93,228.6Z"/><path d="M115.6,220.2a1.2,1.2,0,0,0,.8.4,2.3,2.3,0,0,0,1.9-.6,1.2,1.2,0,0,0,.1-1.7,1.2,1.2,0,0,0-1.7-.2h0a1.5,1.5,0,0,0-1.3.7h0A1.2,1.2,0,0,0,115.6,220.2Z"/><path d="M115.1,217.6h.2a1.2,1.2,0,0,0,1.3-.1l.4-.2a1.4,1.4,0,0,0,.4-1.7,1.2,1.2,0,0,0-1.7-.4l-.5.3a1,1,0,0,0-.5.6A1.1,1.1,0,0,0,115.1,217.6Z"/><path d="M86.6,246.3a1.3,1.3,0,0,0,1.6-.4h0l.5-.7a1.2,1.2,0,1,0-2-1.4l-.6.8H86A1.4,1.4,0,0,0,86.6,246.3Z"/><path d="M84,242.6h0a1.2,1.2,0,0,0,1.5,0l.5-.6a1.2,1.2,0,1,0-1.9-1.4l-.2.2h-.1l-.2.3A1.2,1.2,0,0,0,84,242.6Z"/><path d="M81.9,262.8a1.1,1.1,0,0,0,1.5-.7,1.3,1.3,0,0,0-.7-1.6,1.2,1.2,0,0,0-1.5.8A1.1,1.1,0,0,0,81.9,262.8Z"/><path d="M80.4,260.6a1.1,1.1,0,0,0,1.5-.7,1.3,1.3,0,0,0-.7-1.6,1.2,1.2,0,0,0-1.5.8A1.1,1.1,0,0,0,80.4,260.6Z"/><path d="M66.9,253.8a1.9,1.9,0,0,0,.2.8,1.3,1.3,0,0,0,.6.7,1.1,1.1,0,0,0,1.1,0,1.4,1.4,0,0,0,.9-.8l.7-.9.6-1.1h0l1.1-1.6,1.5-2a1.3,1.3,0,0,0-.3-1.7,1.2,1.2,0,0,0-1.7.3l-1.8,2.4-1.7,2.7h0a1.2,1.2,0,0,0-1.1.7A1.1,1.1,0,0,0,66.9,253.8Z"/><path d="M67.3,233.1h0a1.2,1.2,0,0,0,.2,1.3,1.2,1.2,0,0,0,1.5.2l1.1-.8.7-.5,1.7-1.5,3.2-2.9a1.2,1.2,0,0,0,0-1.7,1.1,1.1,0,0,0-1.7,0l-1.7,1.6-2.3,2-2.2,1.7a1,1,0,0,0-.5.6Z"/><path d="M80.6,223.1a1.4,1.4,0,0,0,1.6.3c.1-.1.3-.2.3-.4h.2l.8-.7h0a31.2,31.2,0,0,0,4-3.2l2.9-3.1a1.2,1.2,0,1,0-1.7-1.7c-1.2,1.2-2.2,2.4-3.4,3.5L82.5,220h.1L81,221.2l-.4.4h-.1v.3A1.3,1.3,0,0,0,80.6,223.1Z"/><path d="M104.7,216.2a1.4,1.4,0,0,0,1.6,1.3,6.1,6.1,0,0,0,1.7-.7l1.1-.6a28.3,28.3,0,0,0,2.8-2l2.8-2.2,2.8-2.6a1.2,1.2,0,0,0-.1-1.7,1.2,1.2,0,0,0-1.7,0l-2.8,2.6h0l-2.1,1.7-2.2,1.7h.1a11.8,11.8,0,0,1-1.9,1.1l-.7.3h-.2a1.2,1.2,0,0,0-1.1.8A.6.6,0,0,0,104.7,216.2Z"/></svg>