<svg id="Arms_2" data-name="Arms 2" xmlns="http://www.w3.org/2000/svg" viewBox="0 0 500 500"><defs><style>.cls-1{fill:lime;}</style></defs><path class="cls-1" d="M143.9,251.7l-7-7.5-6.2-4.4-4.5-20.4-8-10.8L106.5,199l.5,11.7,8.9,11.3-1.8,6.1-4.4-3.5-8.5-11.3s-8.1-10-10.8-10.8S73,196,73,196l-11.2-3.1,6.3,10,13.4,7,7.2.8,5.7,12.6-6.7-5.6L69.4,212l-12.1-2.6-6.2-1.3,5.3,7.8,13.9,6.6,12.1,2.6,2.2,4.3-12.5-1.7-9.4-1.3-13,.8,1.4,3.9,10.7,5.7,16.5,1.3,5.9,2.2,7.6,3.4,3.5,4.4,10.3,8.7,15.7,6.1,4-1.3,19.7,9.5Z"/><path d="M145.3,270.2h-.7l-2.3-1.2-2.1-1.1-4-1.9a91,91,0,0,1-8.4-3.9h-.1a1.4,1.4,0,0,0-1-.7,1.3,1.3,0,0,0-1.2.3l-.4-.3a1.6,1.6,0,0,0-2,.7H123l-2.6-.5-2-.4-1.5-.4-1.7-.6-2.7-1.2-2.7-1.4-3.3-2-3.2-2.2-2.7-2.3-2.4-2.1-2.1-2.2-.6-.9a1.3,1.3,0,0,0-1-1.2,9.1,9.1,0,0,0-2.5-1.8,3.8,3.8,0,0,0-1.5-.5l-1.9-.4-1-.3-1.7-.8-1.7-1-1.6-1.1-1.5-1.2a.9.9,0,0,0-.7-.3,2,2,0,0,0-.6-.7,3.3,3.3,0,0,0-1.4-.4H74.3l-4.2-.2a1.5,1.5,0,0,0-1.1-.4h-.9a1.3,1.3,0,0,0-1.1,1.1l-2.3-.2-2.8-.6-1.3-.4h.1l-2.8-1.4-2.4-1.5-2.2-1.6a21.1,21.1,0,0,1-2.3-1.9h3.5l3.6-.3a42.3,42.3,0,0,1,5-.5h1.5c1.6.2,3.3.8,4.9,1.1l3.7.5,4,.3a16.6,16.6,0,0,1,3.2.3h.2l3.5.4h.5l.5.3.5.5a38.3,38.3,0,0,0,2.8,2.9l1.7,1.3,1.2.7,1,.5.9.3h.3a1.4,1.4,0,0,0,1.4-1.1,1.4,1.4,0,0,0-1.1-1.7h-.4l-.6-.4a10.8,10.8,0,0,1-1.8-1.1l-1.3-1.2a23.5,23.5,0,0,1-3-3.3,35.5,35.5,0,0,1-2.3-3.1l-.9-1.6a2.3,2.3,0,0,0-1-1.2l-.6-.2a20,20,0,0,0-3.4-.2l-3.4-.2H75l-6.1-1-2.4-.8a79.2,79.2,0,0,1-7.2-3.5l-1.2-.8-1.8-1.5-1.7-1.9-1.8-2.5h.5l2.2.7,2,.4,4.5.8,4.2.5,2,.4a17.1,17.1,0,0,1,3,.9l3.2,1.2c2.1.7,4.3,1.2,6.5,1.8l2.7.7,2.5.9c1.4.6,2.8,1.3,4.3,1.8l1,.2a21.1,21.1,0,0,0,1.8,2.7,32.1,32.1,0,0,0,3.4,4.1l2,1.9,1.3,1a8.4,8.4,0,0,0,2.3,1.2h.4a1.5,1.5,0,0,0,1.4-1,1.3,1.3,0,0,0-.9-1.8l-.5-.2-.3-.2-.6-.4a19.2,19.2,0,0,1-2.2-1.8l-1.7-1.7-1.4-1.7L94,219.3c0-.1-.1-.2-.1-.3s-1.6-3-2.4-4.6l-1-2.2-.6-1.3a6.7,6.7,0,0,0-.6-1.2,2.7,2.7,0,0,0-1.8-1,18.3,18.3,0,0,0-2.5-.6l-2.3-.5-2.2-.5h0l-2.2-.8-2.2-.8a42.5,42.5,0,0,1-4.3-2.1L69,201.6l-1-.8-.6-.7-1.5-2c-.5-.6-1-1.3-1.6-1.9a10.1,10.1,0,0,0-1.3-1.6l2.9.7,2.8.7,3,.9,3.2.7.8.3,2.1.9,2.5,1a33.9,33.9,0,0,1,5.1,1.7,34.9,34.9,0,0,1,3.9,1.9l1.1.8,1.8,1.3h.1l2,1.7c1.5,1.6,3,3.2,4.3,4.9s2,2.5,2.9,3.8l2.6,3.6,2.7,3.9c.4.6.9,1.2,1.3,1.9s3.3,3,3.6,3.3l.5.7-.3,1.2a13.3,13.3,0,0,0-.4,4,22.9,22.9,0,0,0,.2,2.5,21.7,21.7,0,0,0,.4,2.5,26.7,26.7,0,0,0,.9,2.6,2.7,2.7,0,0,0,1.3,1.5l.7.2.7-.2a1.5,1.5,0,0,0,.8-1.5,1.2,1.2,0,0,0-.8-1.1v-.2c-.1-.4-.3-.8-.4-1.3a14,14,0,0,1-.6-2.8,19.4,19.4,0,0,1-.2-2.4,10.9,10.9,0,0,1,.1-1.8,26.1,26.1,0,0,1,.6-2.7,25,25,0,0,1,.9-2.5,3.1,3.1,0,0,1,.5-1l1.2-1.9,1-1.4a1.5,1.5,0,0,0,.4-1.5,1.2,1.2,0,0,0-.9-.9h-.4l-1.7-.9-1-.7-.8-.7a26.2,26.2,0,0,1-2.2-2.5h0l-1.6-2.3a17.1,17.1,0,0,1-1.3-2.3,5.8,5.8,0,0,1-.5-1.4,5.6,5.6,0,0,1-.4-1.2,36.7,36.7,0,0,1-.9-4.3h0v-.2h0a24.3,24.3,0,0,1-.3-3.8l.3.2,1.9,1.3h0l3.3,2.5h-.1l3,2.5,2.3,2.4,1.1,1.5,1.1,1.2,1.9,2,.7,1.2,1.2,1.8,1.4,2.8c.4,1,.8,2,1.1,3h0c.1.3.1.5.2.8h0l.9,3.3c.3,1.2.5,2.4.8,3.7s.5,2.3.8,3.4.5,2.4.7,3.6h0c0,.6.1,1.3.1,1.9h0v.8a1.4,1.4,0,0,0,1.3,1.5,1.3,1.3,0,0,0,1.4-.7,4.8,4.8,0,0,0,1.6,2.6l.4.6.4.8.2.6a4.4,4.4,0,0,1,.2,1,12.8,12.8,0,0,1,.1,1.9v.6h0a1.4,1.4,0,0,0,1.1,1.7h.3a1.5,1.5,0,0,0,1.5-1.1v-1.7a9.2,9.2,0,0,0-.1-1.6c.1.1.2.1.2.2l.9.7.6.6a2.1,2.1,0,0,0,.4.6,3,3,0,0,0,.4.8,15.9,15.9,0,0,1,.7,2c0,.2.1.3.1.4a1.4,1.4,0,0,0,1.4,1.1h.3a1.4,1.4,0,0,0,1.1-1.7,12.1,12.1,0,0,0-.5-1.8,9.2,9.2,0,0,0-1.4-2.8,10,10,0,0,0-2.3-2.3l-1.2-.8a1.6,1.6,0,0,0-1.3-.6h-.5l-.4-.6-1-1.2-.2-.4h-.1a1.5,1.5,0,0,0-1.5-1.2,1.5,1.5,0,0,0-1.2.7v-.8a23.2,23.2,0,0,0-.6-4.5c-.2-1.4-.6-2.8-.9-4.2l-.9-4.5-1.2-4.3h0a29.2,29.2,0,0,0-1.9-4.9l-1.2-2.2-1.3-2-.4-.6c-.1-.3-.3-.4-.5-.6l-1.4-1.5c-.5-.6-1.1-1.1-1.6-1.8h.1c-.6-.7-1.1-1.4-1.8-2.1a17,17,0,0,0-1.9-1.9,44.6,44.6,0,0,0-4.2-3.4h0l-2.4-1.9-2.2-1.5-1.3-1a1.7,1.7,0,0,0-2.2,0c-.8.7-.7,1.9-.7,2.9a35.4,35.4,0,0,0,.7,7.3,28.8,28.8,0,0,0,1.5,5,24,24,0,0,0,2.7,4.6l1.5,2a18,18,0,0,0,1.9,2,13.8,13.8,0,0,0,2.8,1.9h.2l-1.2,1.7a15.1,15.1,0,0,0-1.1,2.2l-1.5-1.3a1,1,0,0,0-.5-.6,30.6,30.6,0,0,1-2.1-2.9l-2.4-3.3c-.9-1.4-1.8-2.7-2.8-4l-3.1-4.1c-1.1-1.4-2.3-2.7-3.5-4a17,17,0,0,0-1.9-1.9l-2-1.5-1.5-1.2-1.8-1.1a22.6,22.6,0,0,0-3.5-1.7l-1.9-.7-1.9-.7-1.7-.5-1.6-.5a22.2,22.2,0,0,0-3.2-1.4l-3.6-.9-2.3-.7-2.4-.6-2.3-.6-2.3-.5a10.5,10.5,0,0,0-2.5,0,4.7,4.7,0,0,0-1.7.4,1.6,1.6,0,0,0-.9.9,1.6,1.6,0,0,0,.6,1.7l1.8,1.5,2.4,2.8,1.4,2a12.8,12.8,0,0,0,2.9,2.8,17,17,0,0,0,2.2,1.5l2.4,1.3a26.7,26.7,0,0,0,4.6,2l2.3.9a21,21,0,0,0,2.4.6l2.4.5,2.3.5h0l1,.3,1.2,2.7a21,21,0,0,0,1.3,2.6l-2.3-.9-3.4-1.1c-2.1-.7-4.3-1.2-6.5-1.8l-3.8-1.2a20.9,20.9,0,0,0-3.5-1.3l-3.9-.8-3.7-.4-3.5-.6-3.3-.7-2.2-.8-1.4-.6h.1l-.8-.4-.7-.4a2,2,0,0,0-1.5.1,2.3,2.3,0,0,0-.6,2.2,3.8,3.8,0,0,0,.6,1.3,9.8,9.8,0,0,0,1.3,2.2l1.4,2.1a21.6,21.6,0,0,0,3.6,3.8l2.1,1.6,2.4,1.3,4.7,2.2,2.4.9,2.6.6a41.7,41.7,0,0,0,4.9.8,29,29,0,0,0,5.1.2h1.3l.9,1.6.7,1.1H82l-4.4-.5H75l-2.1-.2-3.9-.6-2.2-.6a18.7,18.7,0,0,0-5.3-.4L57,226l-3.9.3-1.5-.2h0l-2.6-.4-1.1-.2a2.6,2.6,0,0,0-1.5,0,1.4,1.4,0,0,0-.9,1.6,2.6,2.6,0,0,0,.9,1.4l.9.9a15.4,15.4,0,0,0,1.9,1.7,27.9,27.9,0,0,0,3.8,3l2,1.4,2.3,1.4a18.1,18.1,0,0,0,4.9,1.8,27.3,27.3,0,0,0,4.9.6,41.7,41.7,0,0,0,5-.1h2a1.7,1.7,0,0,1,1.2-.1h3.4a2.3,2.3,0,0,0,.7.7,24,24,0,0,0,3.7,2.5l3.3,1.4a14.8,14.8,0,0,0,2.7,1l1.5.2h.2l1.8.5a3.2,3.2,0,0,0,1,2.2c.6.8,1.3,1.5,2,2.3l2.7,2.4a34.7,34.7,0,0,0,2.9,2.5l2.9,2.1,2.4,1.5,2.1,1.2,2.4,1.3,2.7,1.1a31.3,31.3,0,0,0,5.2,1.6l2.5.5a11.3,11.3,0,0,0,1.8.3l.8-.2a2.6,2.6,0,0,0,1.4-.9l.5.4,1.1.7,2.6,1.3,4.5,2,4.9,2.3,2.6,1.4a11.7,11.7,0,0,0,3.1,1.2h.3a1.4,1.4,0,0,0,1.4-1.2A1.3,1.3,0,0,0,145.3,270.2ZM78,238.7h0Z"/><path class="cls-1" d="M372.8,251.7l6.8-7.5,6-4.4,4.4-20.4,7.8-10.8,11.3-9.6-.4,11.7L400,222l1.7,6.1,4.3-3.5,8.3-11.3s7.8-10,10.4-10.8l17-6.5,10.8-3.1-6.1,10-13,7-7,.8-5.6,12.6,6.5-5.6,17.8-5.7,11.8-2.6,6.1-1.3-5.3,7.8-13.4,6.6-11.8,2.6-2.1,4.3,12.1-1.7,9.2-1.3,12.6.8-1.3,3.9-10.5,5.7-16,1.3-5.7,2.2-7.4,3.4-3.5,4.4-9.9,8.7-15.2,6.1-4-1.3-19.1,9.5Z"/><path d="M370.3,271.8a1.6,1.6,0,0,0,1.4,1.2h.3a11.7,11.7,0,0,0,3.1-1.2l2.5-1.4c1.5-.8,3.1-1.6,4.8-2.3l4.3-2,2.5-1.3,1.1-.7.5-.4a2.1,2.1,0,0,0,1.3.9l.8.2a8.6,8.6,0,0,0,1.7-.3l2.5-.5a29.1,29.1,0,0,0,5-1.6l2.6-1.1,2.4-1.3,2-1.2,2.3-1.5,2.9-2.1,2.8-2.5,2.6-2.4c.7-.8,1.4-1.5,2-2.3a4.4,4.4,0,0,0,1-2.2l1.7-.5h.1l1.5-.2a11.7,11.7,0,0,0,2.6-1l3.2-1.4a23.1,23.1,0,0,0,3.6-2.5l.8-.7h3.2a1.7,1.7,0,0,1,1.2.1h1.9a40.1,40.1,0,0,0,4.9.1,24.2,24.2,0,0,0,4.7-.6,16.4,16.4,0,0,0,4.8-1.8l2.2-1.4,2-1.4a34.7,34.7,0,0,0,3.7-3l1.8-1.7.9-.9a3.4,3.4,0,0,0,.9-1.4,1.4,1.4,0,0,0-1-1.6,2.2,2.2,0,0,0-1.4,0l-1.1.2-2.5.4h0l-1.4.2-3.8-.3-4.4-.6a17.6,17.6,0,0,0-5.1.4l-2.2.6-3.8.6-2,.2h-2.6l-4.2.5h-.5l.7-1.1.8-1.6h1.3a27.9,27.9,0,0,0,5-.2,40,40,0,0,0,4.8-.8l2.5-.6,2.3-.9,4.5-2.2a17.1,17.1,0,0,0,2.3-1.3,11.6,11.6,0,0,0,2.1-1.6,21.1,21.1,0,0,0,3.5-3.8l1.4-2.1a15.9,15.9,0,0,0,1.3-2.2,6.9,6.9,0,0,0,.5-1.3,1.9,1.9,0,0,0-.6-2.2,1.7,1.7,0,0,0-1.4-.1l-.7.4-.7.4h0l-1.3.6-2.2.8-3.1.7-3.4.6-3.6.4-3.9.8a29.2,29.2,0,0,0-3.4,1.3l-3.6,1.2c-2.1.6-4.3,1.1-6.4,1.8l-3.2,1.1-2.2.9a20.3,20.3,0,0,0,1.1-2.6l1.2-2.7,1-.3h0l2.2-.5,2.4-.5a19.5,19.5,0,0,0,2.3-.6l2.2-.9a22.8,22.8,0,0,0,4.5-2l2.4-1.3,2.1-1.5a12.4,12.4,0,0,0,2.8-2.8l1.4-2,2.3-2.8,1.8-1.5a1.4,1.4,0,0,0,.5-1.7,1.4,1.4,0,0,0-.8-.9,4.7,4.7,0,0,0-1.7-.4,9.6,9.6,0,0,0-2.4,0l-2.3.5-2.2.6-2.3.6-2.3.7c-1.1.3-2.3.5-3.4.9a22.2,22.2,0,0,0-3.2,1.4l-1.5.5-1.7.5-1.8.7-1.9.7a20.6,20.6,0,0,0-3.3,1.7,10.8,10.8,0,0,0-1.8,1.1l-1.5,1.2-1.9,1.5-1.9,1.9-3.3,4c-1.1,1.3-2.1,2.7-3.1,4.1s-1.8,2.6-2.7,4l-2.3,3.3a29.8,29.8,0,0,1-2,2.9,1,1,0,0,0-.5.6l-1.5,1.3a9.1,9.1,0,0,0-1.1-2.2c-.4-.5-.7-1.1-1.1-1.7h.2a13.1,13.1,0,0,0,2.7-1.9,11.2,11.2,0,0,0,1.8-2c.5-.7,1.1-1.3,1.5-2a30,30,0,0,0,2.6-4.6,28.8,28.8,0,0,0,1.5-5,35.4,35.4,0,0,0,.7-7.3,4.1,4.1,0,0,0-.7-2.9,1.7,1.7,0,0,0-2.2,0l-1.2,1-2.2,1.5-2.3,1.9h0a43.5,43.5,0,0,0-4.1,3.4c-.6.6-1.3,1.2-1.9,1.9l-1.6,2.1h0l-1.5,1.8-1.3,1.5-.6.6-.3.6-1.3,2-1.2,2.2a29.2,29.2,0,0,0-1.9,4.9h0c-.3,1.5-.7,2.9-1.1,4.3l-.9,4.5-.9,4.2a34.7,34.7,0,0,0-.6,4.5c0,.3.1.5.1.8a1.5,1.5,0,0,0-1.2-.7,1.6,1.6,0,0,0-1.5,1.2h0l-.3.4-.9,1.2-.4.6h-.5a1.6,1.6,0,0,0-1.3.6l-1.1.8a12.5,12.5,0,0,0-2.3,2.3,9,9,0,0,0-1.3,2.8,12.1,12.1,0,0,0-.5,1.8,1.4,1.4,0,0,0,1.1,1.7h.3a1.4,1.4,0,0,0,1.3-1.1c.1-.1.1-.2.1-.4s.5-1.3.7-2a3,3,0,0,0,.4-.8,2.1,2.1,0,0,0,.4-.6l.6-.6.8-.7.2-.2a13.7,13.7,0,0,0,0,3.3,1.3,1.3,0,0,0,1.4,1.1h.3a1.5,1.5,0,0,0,1.1-1.7h0a1.3,1.3,0,0,0-.1-.6c0-.6.1-1.2.1-1.9a3,3,0,0,0,.2-1l.3-.6.3-.8a2.1,2.1,0,0,0,.4-.6,5.4,5.4,0,0,0,1.6-2.6,1.1,1.1,0,0,0,1.3.7,1.4,1.4,0,0,0,1.3-1.5v-.8h0a12.1,12.1,0,0,1,.1-1.9h0c.2-1.2.5-2.4.7-3.6s.5-2.3.8-3.4.4-2.5.7-3.7l.9-3.3h0c.1-.3.1-.5.2-.8h0c.3-1,.6-2,1-3l1.4-2.8a17.4,17.4,0,0,0,1.1-1.8,8.3,8.3,0,0,0,.8-1.2l1.8-2,1.1-1.2,1.1-1.5,2.2-2.4a34.7,34.7,0,0,1,2.9-2.5h-.1l3.2-2.5h0l1.9-1.3.3-.2-.3,3.8h0v.2h0c-.2,1.4-.5,2.8-.8,4.3a5.6,5.6,0,0,1-.4,1.2c-.2.5-.3,1-.5,1.4l-1.2,2.3c-.6.8-1.1,1.6-1.7,2.3h0a16.4,16.4,0,0,1-2.1,2.5,2.7,2.7,0,0,1-.8.7l-.9.7-1.7.9h-.3a1.2,1.2,0,0,0-.9.9,1.7,1.7,0,0,0,.3,1.5,7.1,7.1,0,0,1,1,1.4,12.2,12.2,0,0,1,1.2,1.9,3.1,3.1,0,0,1,.5,1,25,25,0,0,1,.9,2.5l.6,2.7a10.9,10.9,0,0,1,.1,1.8c-.1.8-.1,1.6-.2,2.4l-.6,2.8c-.1.5-.3.9-.4,1.3v.2a1.2,1.2,0,0,0-.8,1.1,1.6,1.6,0,0,0,.8,1.5l.7.2.7-.2a3,3,0,0,0,1.2-1.5,12.9,12.9,0,0,0,.8-2.6,11.1,11.1,0,0,0,.5-2.5,22.9,22.9,0,0,0,.2-2.5,13.3,13.3,0,0,0-.4-4l-.3-1.2.5-.7c.2-.3,3.2-3,3.4-3.3l1.4-1.9,2.5-3.9L414,216l2.7-3.8c1.4-1.7,2.8-3.3,4.3-4.9a15.4,15.4,0,0,1,1.9-1.7h.1l1.7-1.3,1.1-.8a33.7,33.7,0,0,1,3.8-1.9,31.7,31.7,0,0,1,4.9-1.7l2.5-1,2-.9.8-.3,3.1-.7,3-.9,2.6-.7,2.8-.7-1.3,1.6-1.5,1.9c-.5.7-.9,1.4-1.4,2l-.6.7-1,.8-2.7,1.8-4.2,2.1-2.1.8-2.1.8h0l-2.2.5-2.2.5-2.4.6a2.7,2.7,0,0,0-1.8,1l-.6,1.2-.6,1.3-.9,2.2c-.7,1.6-1.5,3.1-2.3,4.6l-.2.3-2.3,3.4a20.9,20.9,0,0,1-1.4,1.7l-1.6,1.7-2.1,1.8-.6.4-.3.2-.5.2a1.4,1.4,0,0,0,.5,2.8h.4a7.8,7.8,0,0,0,2.2-1.2l1.3-1,1.9-1.9a43.5,43.5,0,0,0,3.4-4.1l1.7-2.7,1-.2c1.4-.5,2.8-1.2,4.1-1.8l2.5-.9,2.6-.7,6.3-1.8,3.1-1.2a16.1,16.1,0,0,1,2.9-.9l1.9-.4,4.1-.5,4.4-.8,2-.4,2.1-.7h.4l-1.7,2.5-1.7,1.9-1.7,1.5-1.2.8a57.1,57.1,0,0,1-7,3.5l-2.3.8-5.9,1h-.1l-3.3.2a18.3,18.3,0,0,0-3.3.2l-.6.2a4,4,0,0,0-1,1.2l-.8,1.6c-.7,1.1-1.5,2.1-2.2,3.1s-1.9,2.3-2.9,3.3l-1.3,1.2-1.7,1.1-.7.4h-.3a1.4,1.4,0,0,0,.2,2.8h.3l.9-.3,1-.5,1.1-.7,1.6-1.3a19,19,0,0,0,2.8-2.9l.5-.5.5-.3h.5l3.4-.4h.1a17.3,17.3,0,0,1,3.2-.3l3.8-.3,3.6-.5c1.6-.3,3.2-.9,4.8-1.1h1.5a39.1,39.1,0,0,1,4.8.5l3.5.3H463l-2.2,1.9-2.2,1.6-2.3,1.5-2.7,1.4h0l-1.2.4-2.7.6-2.2.2a1.4,1.4,0,0,0-1.1-1.1h-.9a1.3,1.3,0,0,0-1,.4l-4.1.2h-4a3.7,3.7,0,0,0-1.4.4,1.8,1.8,0,0,0-.5.7.9.9,0,0,0-.7.3l-1.4,1.2-1.6,1.1-1.6,1-1.7.8-1,.3-1.8.4a3.8,3.8,0,0,0-1.5.5,9.1,9.1,0,0,0-2.5,1.8,1.3,1.3,0,0,0-.9,1.2l-.6.9-2,2.2-2.3,2.1-2.7,2.3-3.1,2.2-3.2,2-2.6,1.4-2.6,1.2-1.7.6-1.4.4-2,.4-2.5.5H393a1.5,1.5,0,0,0-1.9-.7l-.4.3a1.3,1.3,0,0,0-1.2-.3,1.3,1.3,0,0,0-.9.7h-.2a77.1,77.1,0,0,1-8.2,3.9l-3.8,1.9-2,1.1-2.3,1.2h-.7A1.4,1.4,0,0,0,370.3,271.8Zm66.5-33h0Z"/></svg>