<svg id="Body_1" data-name="Body 1" xmlns="http://www.w3.org/2000/svg" viewBox="0 0 500 500"><defs><style>.cls-1{fill:lime;}</style></defs><path class="cls-1" d="M371.5,251.5l-.3-3.7c-.1-1.1-.3-2.2-.4-3.3s-.3-2.1-.5-3.2-.4-2.6-.7-4h.1c-1.3-6.3-2.7-12.6-4.1-18.9s-2.9-12.9-4.8-19.3c-.8-2.7-1.6-5.5-2.5-8.2l-1.2-3.5c-.4-1.2-.9-2.3-1.4-3.5s-1.1-2.3-1.8-3.4l-1.9-3.3-1.5-2-1.5-2c-2.4-2.7-4.8-5.3-7.3-7.9l-8.1-7.9-2.6-2.3-2.1-2c-1.6-1.5-3.2-2.9-4.6-4.5l-.3-.3a2.1,2.1,0,0,1-2-.2,5.5,5.5,0,0,1-1.3-2.5l-.5-1.4-7.6-8.3a1.8,1.8,0,0,1-.1-2.4l-2.2-2.3-4.4-4.4-5.5-5.3c-1.6-1.7-3.3-3.3-5-4.9l.2.2c-2.2-2-4.4-3.9-6.8-5.7s-3.8-2.4-5.8-3.5-4.7-2.2-7.1-3.1h.1c-2.1-.8-4.3-1.4-6.4-2.1l-2.2-.5-2.9-.7-5.2-1h-.6l-1.9-.2-2.8-.3a74.5,74.5,0,0,0-8.2-.1l-4.3.4-4.1.4-2.5.4-3.5.6h.2l-4.6.9-3.7.8-3.6.9-4.5,1.4-4.9,1.8-4,1.5-3.9,1.6-5.1,2.3h0a98.4,98.4,0,0,0-9,5h.2a93,93,0,0,0-8.1,5.9h.1a67.8,67.8,0,0,0-7.3,6.9h0a50.8,50.8,0,0,0-7.8,10.6c-.7,1.4-1.4,2.9-2,4.4s-.7,2.3-1,3.4-.4,2.4-.5,3.6a32.5,32.5,0,0,0-.1,5.4c.2,4.1.7,8.2,1.2,12.4l1.2,9.5c.4,3.2.8,6.5,1.1,9.8.2,1.6.3,3.2.4,4.9a22.9,22.9,0,0,0,.2,2.5v2.3a26.2,26.2,0,0,0,.1,2.8c0,.7-.1,1.4-.1,2.1s-.1,1.9-.1,2.8a14.9,14.9,0,0,1-.2,2.1,28.3,28.3,0,0,0-.2,2.9c-.1.7-.3,1.5-.4,2.2a25.1,25.1,0,0,1-.4,2.7,48.5,48.5,0,0,1-1.9,6.8,46.4,46.4,0,0,1-5.8,11.3c-1.3,2-2.7,3.8-4.1,5.7s-3.7,4.8-5.6,7.1l-6.6,7.9-2.2,2.6-1.2,1.5-3.4,4.4-2.4,3.5a16.7,16.7,0,0,0-1.8,2.8,19.8,19.8,0,0,0-1.9,3.1l-2.1,3.9h0c-.7,1.6-1.5,3.2-2.2,4.9l-.3.8a8.7,8.7,0,0,1-.7,1.7l-.9,2.6a.3.3,0,0,1,.1-.2l-1.7,5.3-.6,2.6-.6,2.5c-.4,2.2-.8,4.3-1,6.5a51.7,51.7,0,0,0-.1,6.8h0a78.3,78.3,0,0,0,1,8.3v-.2a93,93,0,0,0,2.6,10.4,71.7,71.7,0,0,0,3.6,9.1h0a53.2,53.2,0,0,0,3.7,6.6h0c1.5,2.2,3.1,4.4,4.8,6.5a79.5,79.5,0,0,0,6.4,6.6h-.1a133.6,133.6,0,0,0,11.7,9.4,72.2,72.2,0,0,0,6.5,4.2,70.1,70.1,0,0,0,6.6,3.7h-.1c2.5,1.4,5.2,2.5,7.7,3.8l5.6,2.5,6.3,2.8,7.5,3.1,8.3,2.9,1,.2,2.8.8,4.4,1.2,6.4,1.3c1.7.4,3.5.6,5.2.9l3.5.5h1.6l6.5.6a118.1,118.1,0,0,0,11.9.1,111.1,111.1,0,0,0,11.6-1.2h.1a.1.1,0,0,1,.1-.1c-.1,0-.1,0-.1.1l6.6-1.3c1.9-.3,3.7-.8,5.5-1.2l5-1.3,6.8-1.9,6.4-2.2,1.9-.7,3.1-1.2c1.7-.7,3.5-1.3,5.2-2.1l6.4-2.8a84,84,0,0,0,8.8-4.8h-.2a60.3,60.3,0,0,0,5.2-3.6l4.2-3.2,5.6-4.7c0,.1-.1.1-.1.2s2.4-2.2,3.7-3.2l2.7-2.5c.9-.9,1.9-1.7,2.7-2.6s2.3-2.4,3.5-3.5l4-4.6c1.4-1.5,2.7-3.1,4-4.7s4.8-6,7.2-9l3-4.4a2.1,2.1,0,0,0,.4-.6,14,14,0,0,1,1-1.6l1.4-2.4,2.4-4.6.3-.8c.2-.6.5-1.2.7-1.7s.7-1.7,1-2.5.9-2.6,1.4-4l.9-3.1c.3-1.2.7-2.4,1-3.5s.6-3.1,1-4.6c0,.1,0,.1-.1.2l1.2-5.9c.3-2.3.7-4.6,1-6.8s.7-4.6,1-6.9.5-4.1.7-6.1.3-3.5.4-5.3.1-4.1.1-6.1,0-4.3-.1-6.4S371.5,253.4,371.5,251.5Z"/><path d="M121.2,329.3h0v0Z"/><path d="M133.3,351.6h0c0-.1-.1-.1-.1-.2S133.3,351.5,133.3,351.6Z"/><path d="M159.1,223h0Z"/><path d="M243.2,396.3h0Z"/><path d="M117.7,304h0v0Z"/><path d="M375.2,257.2c0-1.6-.1-3.3-.1-4.9s-.3-3.2-.4-4.9-.4-3.3-.6-4.9-.5-3.2-.8-4.8c-.6-3.3-1.3-6.5-2-9.7s-1.4-6.4-2.1-9.7c-1.4-6.4-2.9-12.8-4.7-19.1-.8-3-1.8-6.1-2.8-9.1a56.3,56.3,0,0,0-3.4-8.9c-.7-1.3-1.4-2.7-2.2-3.9a23.9,23.9,0,0,0-1.3-2.1c-.5-.7-.9-1.4-1.4-2l-1.7-2.2-1.6-1.8-3.3-3.6-6.4-6.4-3.9-3.8-3.3-3h0l-4.7-4.5c-1.2-1.1-2.3-2.4-3.5-3.6l-1.7-1.9a24.8,24.8,0,0,0-3.2-5.4,35.4,35.4,0,0,0-3.5-4.2,18,18,0,0,0-1.9-2l-8.5-8.6-7.1-6.9a76.8,76.8,0,0,0-8.2-6.9,53.5,53.5,0,0,0-11-6,25.4,25.4,0,0,0-4.6-1.7l-2.9-.9a15.2,15.2,0,0,0-2-.6l-2.6-.7-2.4-.6-2.2-.4-3.1-.6-1.6-.2-3.5-.4-4-.2a62.5,62.5,0,0,0-9.7.4l-4.8.6L231,98l-2.1.4-3.2.6-4.7,1.1-4.5,1.3-2.3.7-1.8.6-4.5,1.7-5.6,2.2-4.3,1.9a69.8,69.8,0,0,0-7.8,3.8,78.3,78.3,0,0,0-20.3,16.4,50.1,50.1,0,0,0-7.7,10.7,35.2,35.2,0,0,0-2.7,6.3,32.4,32.4,0,0,0-1.2,6.2,49.9,49.9,0,0,0,0,6.7l.3,4c.2,1.6.3,3.2.5,4.9l1.2,9.9.6,4.9.6,4.9.3,2.9a14.9,14.9,0,0,0,.2,2.1l.3,4.8a23.5,23.5,0,0,0,.1,2.6V202c0,1.6-.1,3.2-.2,4.9v-.3a24.5,24.5,0,0,1-.2,2.7,12.3,12.3,0,0,1-.2,2c-.3,2-.5,4-.9,5.9h0a45.6,45.6,0,0,1-1.8,6h0a46.9,46.9,0,0,1-2.1,4.6,79.7,79.7,0,0,1-4.5,7.3l-4.1,5.4-4.7,5.9-5.1,6-1.7,2-2.4,3-3.3,4.3-2.9,4c-.9,1.3-1.7,2.7-2.5,4.1l-1,1.5-1.4,2.7a12.8,12.8,0,0,0-1.1,2l-1,2.2c-.4.9-.8,1.7-1.1,2.6a13.4,13.4,0,0,0-.7,1.8c-.6,1.5-1.1,2.9-1.6,4.4s-.7,2.3-1,3.4a7.4,7.4,0,0,0-.4,1.4,29.9,29.9,0,0,0-.8,3.2,11.7,11.7,0,0,0-.5,2,50.7,50.7,0,0,0-1.1,6.8c-.1,2.4-.2,4.7-.1,7.1a76.2,76.2,0,0,0,2.1,13.4,74.7,74.7,0,0,0,4.4,13.1,61,61,0,0,0,6.3,11.5,62.9,62.9,0,0,0,8.8,10.4,99.4,99.4,0,0,0,10.4,8.9,123.9,123.9,0,0,0,11.3,7.6,79.9,79.9,0,0,0,7.6,4.1l6.1,2.9c3,1.5,6,2.8,9,4.1l9.2,3.8,3.2,1.2,6,2.1,3.8,1,3.5,1,1.5.4,5.3,1.1,3.7.7,6.2.9h1.3l3.1.3,6.4.5h5.1c3.1,0,6.1-.1,9.2-.4s6.1-.7,9.2-1.3l6.1-1.1,4.3-1,3.3-.8.9-.2,6-1.7,3.3-1.1,6.4-2.1,3.3-1.3,5.5-2.1,1.3-.6,3.1-1.3,2.6-1.2,4-2c2-1.1,4-2.2,5.9-3.5a31.9,31.9,0,0,0,3.8-2.6l4.9-3.7,3.2-2.6,3.4-2.9,2.6-2.3A8.1,8.1,0,0,0,332,363l4-3.6,1.2-1.3a25,25,0,0,0,2.3-2.3l3-3.3,2.8-3.2,6.8-8.2c1.1-1.3,2.1-2.7,3.2-4.1l2.8-3.9,1-1.5,1.5-2.5c.4-.7.9-1.4,1.3-2.2s.7-1.3,1-2l1.4-2.7.6-1.5c.6-1.5,1.3-2.9,1.8-4.4s.7-2.2,1.1-3.3.3-1,.5-1.4.5-2.1.8-3.2l.6-1.9c.3-1.6.7-3.3,1.1-5s.7-3.5,1-5.2.6-3.4.8-5.1.5-3.2.8-4.9l1.2-9.4A162.1,162.1,0,0,0,375.2,257.2Zm-3.6,12.5c-.1,1.8-.3,3.5-.4,5.3s-.5,4.1-.7,6.1-.6,4.6-1,6.9-.7,4.5-1,6.8l-1.2,5.9c.1-.1.1-.1.1-.2-.4,1.5-.7,3-1,4.6s-.7,2.3-1,3.5l-.9,3.1c-.5,1.4-.9,2.7-1.4,4s-.7,1.6-1,2.5-.5,1.1-.7,1.7l-.3.8-2.4,4.6-1.4,2.4a14,14,0,0,0-1,1.6,2.1,2.1,0,0,1-.4.6l-3,4.4c-2.4,3-4.7,6.1-7.2,9s-2.6,3.2-4,4.7l-4,4.6c-1.2,1.1-2.3,2.3-3.5,3.5s-1.8,1.7-2.7,2.6l-2.7,2.5c-1.3,1-2.5,2.1-3.7,3.2s.1-.1.1-.2l-5.6,4.7-4.2,3.2a60.3,60.3,0,0,1-5.2,3.6h.2a84,84,0,0,1-8.8,4.8l-6.4,2.8c-1.7.8-3.5,1.4-5.2,2.1l-3.1,1.2-1.9.7-6.4,2.2-6.8,1.9-5,1.3c-1.8.4-3.6.9-5.5,1.2l-6.6,1.3c0-.1,0-.1.1-.1a.1.1,0,0,0-.1.1h-.1a111.1,111.1,0,0,1-11.6,1.2h0a118.1,118.1,0,0,1-11.9-.1l-6.5-.6H223l-3.5-.5c-1.7-.3-3.5-.5-5.2-.9l-6.4-1.3-4.4-1.2-2.8-.8-1-.2-8.3-2.9-7.5-3.1-6.3-2.8-5.6-2.5c-2.5-1.3-5.2-2.4-7.7-3.8h.1a70.1,70.1,0,0,1-6.6-3.7,72.2,72.2,0,0,1-6.5-4.2,133.6,133.6,0,0,1-11.7-9.4h.1a79.5,79.5,0,0,1-6.4-6.6h0c0-.1-.1-.1-.1-.2s.1.1.1.2c-1.7-2.1-3.3-4.3-4.8-6.5h0a53.2,53.2,0,0,1-3.7-6.6h0a71.7,71.7,0,0,1-3.6-9.1h0v0a93,93,0,0,1-2.6-10.4v.2a78.3,78.3,0,0,1-1-8.3h0a51.7,51.7,0,0,1,.1-6.8h0v0c.2-2.2.6-4.3,1-6.5l.6-2.5.6-2.6,1.7-5.3a.3.3,0,0,0-.1.2l.9-2.6a8.7,8.7,0,0,0,.7-1.7l.3-.8c.7-1.7,1.5-3.3,2.2-4.9h0l2.1-3.9a19.8,19.8,0,0,1,1.9-3.1,16.7,16.7,0,0,1,1.8-2.8l2.4-3.5,3.4-4.4,1.2-1.5,2.2-2.6,6.6-7.9c1.9-2.3,3.8-4.6,5.6-7.1s2.8-3.7,4.1-5.7a46.4,46.4,0,0,0,5.8-11.3,48.5,48.5,0,0,0,1.9-6.8,25.1,25.1,0,0,0,.4-2.7c.1-.7.3-1.5.4-2.2a28.3,28.3,0,0,1,.2-2.9,14.9,14.9,0,0,0,.2-2.1c0-.9.1-1.8.1-2.8s.1-1.4.1-2.1a26.2,26.2,0,0,1-.1-2.8v-2.3a22.9,22.9,0,0,1-.2-2.5c-.1-1.7-.2-3.3-.4-4.9-.3-3.3-.7-6.6-1.1-9.8l-1.2-9.5c-.5-4.2-1-8.3-1.2-12.4v0h0a32.5,32.5,0,0,1,.1-5.4c.1-1.2.3-2.4.5-3.6s.6-2.3,1-3.4,1.3-3,2-4.4a50.8,50.8,0,0,1,7.8-10.6h0a67.8,67.8,0,0,1,7.3-6.9h-.1a93,93,0,0,1,8.1-5.9h-.2a98.4,98.4,0,0,1,9-5h0l5.1-2.3,3.9-1.6,4-1.5,4.9-1.8,4.5-1.4,3.6-.9,3.7-.8,4.6-.9h-.2l3.5-.6,2.5-.4,4.1-.4,4.3-.4h0a74.5,74.5,0,0,1,8.2.1h0l2.8.3,1.9.2h.6l5.2,1,2.9.7,2.2.5c2.1.7,4.3,1.3,6.4,2.1h-.1c2.4.9,4.8,2,7.1,3.1h0c2,1.1,3.9,2.3,5.8,3.5s4.6,3.7,6.8,5.7l-.2-.2c1.7,1.6,3.4,3.2,5,4.9l5.5,5.3,4.4,4.4,2.2,2.3a1.8,1.8,0,0,0,.1,2.4l7.6,8.3.5,1.4a5.5,5.5,0,0,0,1.3,2.5,2.1,2.1,0,0,0,2,.2l.3.3c1.4,1.6,3,3,4.6,4.5l2.1,2,2.6,2.3,8.1,7.9c2.5,2.6,4.9,5.2,7.3,7.9l1.5,2,1.5,2,1.9,3.3c.7,1.1,1.2,2.3,1.8,3.4s1,2.3,1.4,3.5l1.2,3.5c.9,2.7,1.7,5.5,2.5,8.2,1.9,6.4,3.4,12.8,4.8,19.3s2.8,12.6,4.1,18.9h-.1c.3,1.4.5,2.7.7,4s.4,2.1.5,3.2.3,2.2.4,3.3l.3,3.7c0,1.9.1,3.8.1,5.7s.1,4.2.1,6.4S371.6,267.7,371.6,269.7Z"/><path d="M283,107.7Z"/><path d="M161.8,157.9v-.2h0Z"/><path d="M254,99.8Z"/><path d="M245.8,99.7Z"/></svg>