<svg id="Ears" xmlns="http://www.w3.org/2000/svg" viewBox="0 0 500 500"><defs><style>.cls-1{fill:lime;}</style></defs><polygon class="cls-1" points="215.5 52.2 168.6 36.1 135.6 39.6 138.2 64.3 156.4 89.1 181.2 100.4 207.3 90.4 215.5 52.2"/><polygon class="cls-1" points="268.5 56.1 298.9 31.3 337.6 29.2 348 33.5 342.8 62.2 332.8 83.5 307.6 103.4 285.9 79.4 268.5 56.1"/><path d="M216.2,48.4l-2.9-2.3c-1.9-1.3-3.9-2.4-5.9-3.5a72.2,72.2,0,0,0-7.7-4.3c-4.4-2.1-9.2-3-13.9-3.8l-7.5-1.1-6.4-.9a53.5,53.5,0,0,0-7-.8c-2.2-.2-4.5-.2-6.7-.2h-.3l-2.4-.2-2.4-.2-3.8-.2c-2.9,0-5.8.3-8.8.5h-1.4l-3.6.4a7.1,7.1,0,0,0-2.4.6c-2.2,1-3.2,3.3-3.5,5.6a39,39,0,0,0,.4,10.8A82.6,82.6,0,0,0,132.4,59c.6,1.6,1,3.2,1.6,4.7s1.1,2.8,1.6,4.1a64,64,0,0,0,8.8,15.5,53.4,53.4,0,0,0,16.3,13.6,75.1,75.1,0,0,0,12.8,5.3,54.3,54.3,0,0,0,8.8,2.3l1.8.2a4.5,4.5,0,0,0,4.4-4.1,4.5,4.5,0,0,0,3.5-3.7,4.7,4.7,0,0,0-.3-2.4,4.7,4.7,0,0,0,3.1,2,4.6,4.6,0,0,0,5.1-3.8,8,8,0,0,0-.4-3.1,27.5,27.5,0,0,0-2.3-4.9,30.1,30.1,0,0,0-2.7-4.2c-1.9-2.4-4-4.8-6.7-6.2a8.6,8.6,0,0,0-3.5-.9,7.6,7.6,0,0,0-3.7,1,4.4,4.4,0,0,0,3.6,8.1l.6.5,1.3,1.4a25.6,25.6,0,0,1,2,2.6,40.5,40.5,0,0,1,2.1,3.5l.7,1.8h.1a3.2,3.2,0,0,0,.3,1.4,3.4,3.4,0,0,0-1.2-1.2l-.3-.2h0l-3.3-2.7c-2.6-2.3-5.1-4.7-7.8-6.7a38,38,0,0,0-5.3-3.6,6.8,6.8,0,0,0-4.4-1,4.7,4.7,0,0,0-3.5,1.7,6.9,6.9,0,0,0-1.2,3.9,4.5,4.5,0,0,0,4.5,4.5,3.9,3.9,0,0,0,1.8-.4l.9.7c2.2,1.6,4.2,3.3,6.3,5.1l.4.4-5.9-1.9c-2.2-.9-4.4-1.8-6.6-2.9l-4.6-2.7-4.6-3.7v.2c0-.1-.1-.1-.1-.2l-.3-.2.3.2a48.9,48.9,0,0,1-3.9-4,29.5,29.5,0,0,1-3.4-4.5h0c-1.2-1.9-2.3-3.9-3.3-5.9s-2.5-5.5-3.6-8.3-1.2-3.2-1.6-4.9l-1.5-6.1c-.1-.8-.3-1.7-.4-2.5a5.7,5.7,0,0,0,1.6-1.5l1.1.5,1.3.8,1,.8a4.8,4.8,0,0,0,2.1,4.2,5,5,0,0,0,3.8.3l3.5,1.1,7.5,3.5c2.2,1.1,4.4,2,6.7,3l7.6,3.5c2.9,1.4,5.8,2.4,8.7,3.8l3.5,2.1c1.3,1,2.6,2,3.8,3.1s2.5,2.4,3.6,3.6,2,2.6,2.9,4,1.5,2.4,2.2,3.6a42.5,42.5,0,0,1,2.1,4.9,1.4,1.4,0,0,0,.2.6v.2a4.6,4.6,0,0,0,3.8,4.2h.6a4.5,4.5,0,0,0,4.5-4.5c-.2-3.2-1.6-6.1-3-9a44.1,44.1,0,0,0-7.8-11.2,46.9,46.9,0,0,0-15.9-11.2c-2.5-1.1-5.1-2.1-7.6-3.3-4.6-2.2-9.3-4.1-13.9-6.4L159.2,46a4.6,4.6,0,0,0-3.3-2.2h-1l-.6-.2-1.4-.6-1.7-1c-1-.7-1.8-1.5-2.7-2.1h3.7l3,.2,2.2.2,6.6.2h-.1a57,57,0,0,1,5.8.6l6.6,1c4.1.6,8.3,1.1,12.4,1.9a39.2,39.2,0,0,1,4.9,1.3,20.7,20.7,0,0,1,3.4,1.5l6.2,3.5,5.3,3.2h-.1l1.9,1.6.5.5h0a4.5,4.5,0,0,0,5.3,2.4,4.4,4.4,0,0,0,3.1-5.4A8.9,8.9,0,0,0,216.2,48.4ZM201.9,88.6Z"/><path d="M350.6,36.8a.7.7,0,0,0,.1-.5l.3-.2a4.9,4.9,0,0,0,2.1-4,5,5,0,0,0-2.5-4.2,11.7,11.7,0,0,0-3.1-1.2c-1.7-.5-3.6-.8-5.4-1.2s-4.1-.9-6.1-1.2c-7.8-1.2-15.9-1.7-23.7-.4a69.7,69.7,0,0,0-14.7,4c-2.4,1-4.8,2.2-7.2,3.4s-5,2.4-7.3,3.8a42.8,42.8,0,0,0-6.4,4.8,45.9,45.9,0,0,0-5.5,5.3c-2.7,3-5.4,6.3-6.1,10.3a4.9,4.9,0,0,0,3.3,5.7,5.5,5.5,0,0,0,3.1-.1,4.5,4.5,0,0,0,3.1-5.5v-.2a2.2,2.2,0,0,1,.5-.8c1-1.4,2-2.6,3.1-3.9s2.6-2.6,4-3.8a58.5,58.5,0,0,1,4.9-3.8l4.3-2.4c3.9-1.9,7.7-3.7,11.7-5.4s5.1-1.5,7.7-2.1,4.6-.8,7-1a82.2,82.2,0,0,1,8.6,0h.2l6.9.8-1.8.9L325.6,37c-3.6,2-7,4.4-10.5,6.7h.1a113.5,113.5,0,0,0-9.9,6.6,66.1,66.1,0,0,0-8.3,7.5,63.1,63.1,0,0,0-6.9,9.4,55,55,0,0,0-2.8,4.8c-1.2,2.2-2.3,4.9-1.4,7.4a4.3,4.3,0,0,0,3.5,2.7,5,5,0,0,0,2.1-.2,10.7,10.7,0,0,0-2.2,2.5,4.5,4.5,0,0,0,1.5,6.1,5.8,5.8,0,0,0,1.7.6h1.2l-.3.2a4.4,4.4,0,0,0-.1,6.3,4.9,4.9,0,0,0,2.6,1.3,5.2,5.2,0,0,0,3.4-.9l.2-.2,2.5-1.4,3.4-1.4,3.7-1,3.1-.4h1l-4.6,3.1a19.2,19.2,0,0,1-3.1,1.8,4.5,4.5,0,0,0-1.7,6.1,4.6,4.6,0,0,0,3.2,2.2,4.9,4.9,0,0,0,2.9-.5,53.4,53.4,0,0,0,6.9-4.3c2.3-1.6,4.6-3.2,6.8-5s4.2-3.4,6.2-5.1a65.2,65.2,0,0,0,5.5-5,39.1,39.1,0,0,0,7.8-11.1l.8-2,.6-1.6a6.4,6.4,0,0,1,.2-.7l1.2-3.6a66.6,66.6,0,0,0,1.9-7.7c.4-2.5.6-5.1.8-7.6C349.2,47.3,349.7,42,350.6,36.8ZM338.7,60c-.7,3.2-1.7,6.2-2.7,9.3a.3.3,0,0,1-.1.2l-.6,1.5a20,20,0,0,1-1,2.6l-1,1.7a40.3,40.3,0,0,1-2.6,3.2,65.7,65.7,0,0,1-5.9,5.9c.1-.2.3-.3.4-.4l-6.1,5.1h0a4.5,4.5,0,0,0-4.5-4.5,31.3,31.3,0,0,0-10.9,1.6,42.4,42.4,0,0,0-5.9,2.3l-.7.4.7-.6a31.5,31.5,0,0,1,2.9-2.2l3.7-2.2,2.6-1.1,2.1-.5h.1a9.9,9.9,0,0,1,2.4-.3h.9a4.5,4.5,0,0,0,4.5-4.5,4.6,4.6,0,0,0-4.5-4.5,27.1,27.1,0,0,0-14.6,4.3,36.2,36.2,0,0,0-4.1,2.7,3.5,3.5,0,0,0,.6-1.9h.1v-.3l.6-1.3c1.4-2.5,2.9-5,4.5-7.4s2.5-3.3,3.8-5a61.4,61.4,0,0,1,4.5-4.3c1.9-1.6,3.8-3,5.7-4.4l5.7-3.6c1.8-1.1,3.5-2.4,5.3-3.6s6.5-3.9,9.9-5.7l5.2-2.3,1.4-.4c-.2,1.3-.3,2.5-.5,3.8C340,49,339.7,54.5,338.7,60Z"/><path d="M294.4,78.1Z"/></svg>