<svg id="Ears" xmlns="http://www.w3.org/2000/svg" viewBox="0 0 500 500"><defs><style>.cls-1{fill:lime;}</style></defs><polygon class="cls-1" points="193.4 137.5 195 112.4 178.7 99.4 176.7 104.2 183.6 116.3 171.5 116.9 174.5 124.4 182.3 131.9 173.2 134.9 173.2 139.1 193.4 137.5"/><polygon class="cls-1" points="207.4 94.8 210.6 106.5 231.5 104.6 233.1 86 228.9 87 220.4 90.1 220.7 84 215.5 90.9 213.2 95.4 207.4 94.8"/><polygon class="cls-1" points="256.2 105.5 273.8 103.6 278.7 90.9 276.1 85.7 270.2 89.6 264.7 83.1 257.2 95.8 250.4 90.9 256.2 105.5"/><polygon class="cls-1" points="285.2 113.7 292.1 103.3 300.2 98.7 300.2 107.5 299.2 113.4 310 111.7 309.3 118.6 317.5 123.8 311 132.9 294.7 137.8 285.2 113.7"/><path d="M190.2,142.2h.5a4,4,0,0,0-1.1,0h-.1c-2.3.1-4.5.5-6.8.5h-3.9c-1.8,0-3.7.3-5.4-.2a7.2,7.2,0,0,1-2.7-1.5,4.3,4.3,0,0,1-1.5-2.8,5,5,0,0,1,.7-3.4,12.4,12.4,0,0,1,2.8-2.8,16.2,16.2,0,0,1,3.7-1.9l-1.3-.9a42.7,42.7,0,0,1-3.8-3.6,15.8,15.8,0,0,1-2.6-3.6,9.8,9.8,0,0,1-.8-1.8,13.3,13.3,0,0,1-.5-1.9,4.7,4.7,0,0,1,2.8-5.1,9.7,9.7,0,0,1,6.5-.6l-.7-1.1a20.9,20.9,0,0,1-3.2-8.6c-.2-2.4.4-5.1,2.4-6.6a5,5,0,0,1,3.5-.9,8.3,8.3,0,0,1,3.8,1.4,29.1,29.1,0,0,1,4.9,4.4l2.7,2.8a55.7,55.7,0,0,1,5,5.9,3.2,3.2,0,0,1-.7,4.5,3.3,3.3,0,0,1-4.5-.7l-1.5-2c-2.5-2.8-5.1-5.6-7.8-8.2l-1.3-1h0v.2a16,16,0,0,0,.5,2.1,13.4,13.4,0,0,0,.7,1.8l.9,1.6,1.1,1.5-.3-.4a16.1,16.1,0,0,0,2.2,2.3,30.6,30.6,0,0,1,3.6,3.6,3.2,3.2,0,0,1-1.9,5,4.9,4.9,0,0,1-2.1.1l-.9-.2-2.4-.2-5.8-1h-.6l.6,1a4.4,4.4,0,0,0,.8,1.1l1.6,1.7-.3-.3c1.3,1.2,2.7,2.3,4.1,3.4l1.9,1.3,1.3.8a10.5,10.5,0,0,1,2.2,2,3.4,3.4,0,0,1-.4,4.3c-1.2,1.2-3.1,1.2-4.7,1.4l-2.4.6-.7.2h4.8l4.1-.4,2.5-.2h1.6a3.3,3.3,0,0,1,2.7,3.7,3.2,3.2,0,0,1-2.9,2.6A1.4,1.4,0,0,1,190.2,142.2Z"/><path d="M207.4,106.8a9.4,9.4,0,0,1-1.6-2.3,19.6,19.6,0,0,1-1.5-3.3,24.1,24.1,0,0,1-1.7-6.9c-.1-1.7,0-3.6,1.3-4.9a4.3,4.3,0,0,1,4.6-.6,7.8,7.8,0,0,1,2.2,1.5,27.6,27.6,0,0,1,.8-2.7,23.4,23.4,0,0,1,2.7-4.9c1-1.3,2.2-2.6,3.9-2.7a4.4,4.4,0,0,1,3.8,1.2,10.1,10.1,0,0,1,1.5,2.1l.3-.3a12.2,12.2,0,0,1,2.7-2.4,8.1,8.1,0,0,1,2.9-.9,5.5,5.5,0,0,1,3.1,1,5.8,5.8,0,0,1,1.9,1.9,11.4,11.4,0,0,1,1.3,3.5c1,3.9-.2,7.9-1.1,11.6a24.3,24.3,0,0,1-1.8,5.8,3.3,3.3,0,0,1-4.2,1.6,3.4,3.4,0,0,1-1.7-4.3l.3-.7c.8-2.2,1.3-4.5,1.9-6.8v.2c.1-.9.3-1.8.4-2.7a14.1,14.1,0,0,0,.1-2,2.8,2.8,0,0,0-.1-.9,2.7,2.7,0,0,0-.3-1.2h0l-.4.4h0l-.8.9-.9,1.5h0l-.8,1.8-.4,1.3v.2a3.3,3.3,0,0,1-3.3,2.7,3.2,3.2,0,0,1-3.1-2.9c0-.3-.1-.6-.1-.8a22.2,22.2,0,0,0-.9-3.7h0c0,.1-.1.2-.2.4s.2-.3.2-.4l-.9,2-.5,1.5c0-.2.1-.3.1-.4l-.3,1.7v1.3c0,.6.1,1.2.1,1.8a8.8,8.8,0,0,1,.5,3.9,3.4,3.4,0,0,1-2,2.5,3.5,3.5,0,0,1-3.5-.8l-.8-.9.6,1.2a2.9,2.9,0,0,1,1.5,1.9,3.2,3.2,0,0,1-2.4,3.9h-.5A4.1,4.1,0,0,1,207.4,106.8Z"/><path d="M249.3,100.6a26.6,26.6,0,0,1-2.3-6.5,12.2,12.2,0,0,1-.4-3.2,6.7,6.7,0,0,1,.2-2.8,4.3,4.3,0,0,1,3.7-2.9c1.9-.2,3.6,1.2,5,2.5l.4.4a20.8,20.8,0,0,1,1.9-4.3,15,15,0,0,1,3.3-4.2,5.7,5.7,0,0,1,1.8-1.2,4.7,4.7,0,0,1,2.6-.3,4,4,0,0,1,1.8.7,5,5,0,0,1,1.4,1.5,9.6,9.6,0,0,1,1.1,2.8h.1c1.4-1.3,3.2-2.7,5.2-2.5a5.9,5.9,0,0,1,2.6.7,5.5,5.5,0,0,1,2,1.7c2.7,3.8,1.7,8.4.1,12.4a58,58,0,0,1-4,7.3,3.2,3.2,0,0,1-4.4,1,3.1,3.1,0,0,1-1-4.4c.8-1.4,1.6-2.7,2.3-4.1-.1.1-.1.3-.2.4s1.2-2.5,1.7-3.7l.5-1.5c.1-.4.1-.9.2-1.3V87.6c0-.1-.1-.2-.1-.3h0a.2.2,0,0,0-.2.2l-.9,1L272.2,91l-.9,2-.6,1.1a5.1,5.1,0,0,1-.9,1.6,3.1,3.1,0,0,1-3.4,1,3.1,3.1,0,0,1-2.3-3.2c-.1-1.5,0-3.1,0-4.6a24.5,24.5,0,0,0-.2-2.7l-.8,1.3-.6,1.2-.6,1.9c-.1.7-.3,1.5-.4,2.2a7.6,7.6,0,0,1-.1,1.5,4.9,4.9,0,0,1-.1,1.7,3.8,3.8,0,0,1-1.9,2.4,3.2,3.2,0,0,1-4.1-.9l-.9-1.2h.1c.5,1,1,2.1,1.6,3.1l.8,1a3.4,3.4,0,0,1,2.4,2.4,3.2,3.2,0,0,1-2.3,3.9h-.6C252.8,107.2,250.8,103.3,249.3,100.6Z"/><path d="M294.7,137.5a3.3,3.3,0,0,1,2.4-3.9l4-.9c1.3-.2,2.5-.6,3.7-.9a72.1,72.1,0,0,0,7.7-3l2-1.1.9-.6.6-.7h0l-.2.3.4-.5h.1a.4.4,0,0,1,.1-.3c-.1.2-.1.3-.2.4l.3-.6h-.1a.4.4,0,0,0,.1-.3h0l-.3-.7c0,.2.1.3.1.4v-.2h-.1l-.2-.3h-.2l-.3-.2h.3l-.7-.4h-.3l-.6-.2h-.7l-1.7.2c-1.2.2-2.4.6-3.6.9l-1.7.6-2,.4a3.5,3.5,0,0,1-2.9-1.3,3.5,3.5,0,0,1-.4-3.3,5,5,0,0,1,2.1-2.2,44.8,44.8,0,0,0,4.4-3.2,10,10,0,0,0,1.5-1.3h-.5l-1.2.3a23.3,23.3,0,0,0-3.3,1.4l.3-.2-2.2,1.2-1.8,1.3-1.7,1.6a3.2,3.2,0,0,1-5-4l3.6-6c.8-1.7,1.6-3.3,2.3-5.1a22.5,22.5,0,0,0,.8-2.4l-2.9,2.2a38.3,38.3,0,0,0-2.9,2.8h.1l-2,2.4-1.4,2.3-.6,1.2a4.3,4.3,0,0,1,.2,1.1,3.4,3.4,0,0,1-3.3,3.2,3.9,3.9,0,0,1-2.8-1.6,4.6,4.6,0,0,1-.4-4.1,19.5,19.5,0,0,1,2.6-5.2,38.3,38.3,0,0,1,3.6-4.4,68.2,68.2,0,0,1,5.8-4.9l1.9-1.3a8.5,8.5,0,0,1,4.2-1.7,4.1,4.1,0,0,1,3.6,1.7,8.2,8.2,0,0,1,1.2,4.8,17.1,17.1,0,0,1-1.4,5.5,15.5,15.5,0,0,1-.8,2.3l.5-.2a12.5,12.5,0,0,1,5.4-.5,6.9,6.9,0,0,1,2.5,1,7.4,7.4,0,0,1,1.9,1.6c1.6,2.2,1,4.6-.4,6.7a8.5,8.5,0,0,1,5.4,2.5,8.4,8.4,0,0,1,2,2.9,6.5,6.5,0,0,1,.4,3.9c-.4,2.8-2.6,5-4.9,6.5s-2.4,1.3-3.6,1.9a34.7,34.7,0,0,1-4.1,1.6,28.4,28.4,0,0,1-3.8,1.3l-3.8,1-4,.9h-.4A3.4,3.4,0,0,1,294.7,137.5Z"/></svg>