<svg id="Ears" xmlns="http://www.w3.org/2000/svg" viewBox="0 0 500 500"><defs><style>.cls-1{fill:lime;}</style></defs><polygon class="cls-1" points="197.3 97.9 173.8 85.5 155.6 63 149.7 34.4 156.5 24.3 163.7 26.6 171.5 38 180 50 197.9 56.2 211.9 54.6 212.9 63.7 210.6 82.6 197.3 97.9"/><polygon class="cls-1" points="317.8 49 338.3 45.1 346.2 59.1 347.1 81.6 342.6 92 327.9 96.9 322.4 95.6 314.5 80.3 313.9 59.8 317.8 49"/><path d="M350.2,68.2c-.2-1.5-.4-2.8-.7-4.2s-.7-2.9-1.2-4.3-.8-2.5-1.2-3.7h0a.3.3,0,0,0-.1-.2h0l-1.8-5.8a17.3,17.3,0,0,0-3-5.3,9.1,9.1,0,0,0-2.3-2.1,5,5,0,0,0-2-.8c-2-.2-3.4,1.4-4.9,2.4h.1a.1.1,0,0,0-.1.1h0l-.9.4-1,.4-1.6.5-2.7.3-3.1.2-2.4.3h-.6l-.8.2-.7.3a2.7,2.7,0,0,0-3.2-.6,2.8,2.8,0,0,0-1.3,2v.7c-.7,1.7-1.4,3.4-2,5.2a35,35,0,0,0-1.3,5.6,27.3,27.3,0,0,0-.3,5.7,48.9,48.9,0,0,0,.3,5.4,56.5,56.5,0,0,0,.5,7.1,40.2,40.2,0,0,0,1.4,6.9,26.5,26.5,0,0,0,1.2,3.7,32.4,32.4,0,0,0,1.7,3.2c.6,1,1.1,2.1,1.8,3.1s1.5,1.9,2.3,2.9a2.1,2.1,0,0,0,1.3.7,2.8,2.8,0,0,0,2.1-.7l.4-.6a3.5,3.5,0,0,0,1,1.2,4.8,4.8,0,0,0,2,.7H329a38.5,38.5,0,0,0,4.9-.8h-.1l2.3-.5,2.3-.9a37.4,37.4,0,0,0,4.5-2.2,2.3,2.3,0,0,0,1.1-1.6,5.3,5.3,0,0,0,2.6-1.5c1.6-1.8,2.1-4.3,2.5-6.5s.5-2.7.7-4.1a48.8,48.8,0,0,0,.7-8.5C350.5,71.2,350.3,69.6,350.2,68.2ZM338.3,91.9l-3.2,1.4-1.2.3-2.8.5a7.8,7.8,0,0,1-2.2.3h-1.1a2.3,2.3,0,0,0-1.8-.5,2.4,2.4,0,0,0-1.8,1.2l-.5-.6c0-.1-.1-.1-.1-.2a16.6,16.6,0,0,1-1.6-2.1c-.9-1.5-1.8-3-2.6-4.5a18.8,18.8,0,0,1-1.2-3l-.9-3.4a65.9,65.9,0,0,1-1-7.6L316,68c-.1-1.8-.1-3.7-.1-5.6l.6-3.6h0v-.2h0c.3-1.3.7-2.6,1.1-3.8l1.1-2.7.4-1.2a2.5,2.5,0,0,0,1.7.4l2.4-.3,2-.2a20.6,20.6,0,0,0,3.5-.2l2.5-.5a16,16,0,0,0-.5,2.1,75.5,75.5,0,0,0-1.6,8,31.1,31.1,0,0,0-.3,4.3,39.1,39.1,0,0,0,.3,4.9,46.6,46.6,0,0,0,1.5,8.3,39.7,39.7,0,0,0,2,5.8,20.8,20.8,0,0,0,3.2,5.1,16.4,16.4,0,0,0,2.9,3Zm7.3-16.4c-.3,3.2-.7,6.4-1.3,9.6a14.2,14.2,0,0,1-.7,2.2l-.3.8-.2.3h-.2l.3-.2-.3.2h-.3l-.3-.2a3.1,3.1,0,0,1-1.1-.9l-1.3-1.3-1.2-1.6a22.6,22.6,0,0,1-1.6-2.6l-.9-2.4a49.1,49.1,0,0,1-1.5-5.1,80.5,80.5,0,0,1-1.1-8.4c0-1,0-2,.1-3a53.7,53.7,0,0,1,1.1-7c.2-1.2.5-2.5.8-3.7s.6-2.5,1-3.8.1-.4.2-.6v-.4l.8-.6h0l.2.2.5.5a7.6,7.6,0,0,1,.8,1.1l.9,1.5c.4.9.7,1.9,1,2.8s.9,2.6,1.3,4l1.3,3.6a60.3,60.3,0,0,1,1.5,6.1,45.7,45.7,0,0,1,.5,5.2A21.6,21.6,0,0,1,345.6,75.5Z"/><path d="M212.2,52.5c-1.2-.6-2.6-.2-3.8.2l-1.6.3a9,9,0,0,1-1.6.3h-1.5a2.3,2.3,0,0,0-1.4.4,2.7,2.7,0,0,0-1.2-.3h-1.7l-1.1-.3-2.5-1.1-2.3-.8-2.5-.8-2.9-.7-.9-.4-1.3-.8-4.5-3.4c-1.3-1-2.5-2.1-3.7-3.2l-1.5-1.4a8.6,8.6,0,0,0-.7-1c-1-1.6-1.7-3.4-2.6-5l-1.3-2-1.7-2.2c-.5-.8-.8-1.6-1.3-2.3L167,25.7a9.3,9.3,0,0,0-3-2.2,13.6,13.6,0,0,0-4.8-1.6c-3.2-.3-6.2,2.1-8,4.7a15.1,15.1,0,0,0-1.5,2.8,11.8,11.8,0,0,0-.7,2,37.2,37.2,0,0,0-1.1,8.8,24.9,24.9,0,0,0,.4,4.7A27,27,0,0,0,149,49c.8,2.9,1.6,5.7,2.5,8.5a71.7,71.7,0,0,0,3.5,8c1.5,2.6,3.2,5.2,4.9,7.7a67.6,67.6,0,0,0,5.4,6.6,70,70,0,0,0,6.2,6c1.2,1,2.5,1.9,3.8,2.8l3.4,2.2,3.8,2.5,3.7,2.4,3.9,1.9,1.8.7a2.3,2.3,0,0,0,1.1.3h.4a2.5,2.5,0,0,0,1.2-.4v0h0a2.4,2.4,0,0,0,2.1,2.8,2.4,2.4,0,0,0,2.6-1.8c.1,0,.1-.1.1-.2h.1a.3.3,0,0,1,.1-.2c0,.1-.1.1-.1.2s1.3-1.7,2-2.6l3.3-3.4,2.8-3.6a31,31,0,0,0,4.8-8.5,44.3,44.3,0,0,0,1.9-8l.6-3.9c.2-1.5.2-3,.3-4.5s.1-2.5.1-3.7a18.4,18.4,0,0,0-.4-4.1C214.5,55.1,214,53.2,212.2,52.5ZM152.8,37.6c0-.1.1-.1.1-.2h0l.3-3v.3a.4.4,0,0,1,.1-.3h0a10.5,10.5,0,0,1,.6-2.4l.9-2,.3-.6.8-.9.6-.7,1-.7.4-.2H159l1.1.3,2.1,1,.6.4h0l.2.2.2.2.8,1.1c.8,1.2,1.3,2.5,2.1,3.6l2.3,3,1.8,3.7-2.3,2c-1.3,1.3-2.6,2.7-3.9,3.9l-1.2.9-.8.5-.9.4c-1.8.5-3.5,1.1-5.3,1.5h-1.3l-.4-.3a25,25,0,0,1-.7-2.6c-.2-1.5-.5-3-.6-4.5a33.8,33.8,0,0,1,.1-4.5C152.8,37.5,152.8,37.5,152.8,37.6Zm7.1,26.6-1.8-3.3c-.7-1.6-1.3-3.2-1.9-4.8a7,7,0,0,1-.6-1.9,31,31,0,0,0,5.8-1.5,13.7,13.7,0,0,0,4.6-2.1c1.1-.9,2.1-1.9,3.1-2.9s2.2-2.2,3.4-3.2.3-.3.4-.4l.4.4a59.3,59.3,0,0,0,5.3,4.7l2.6,1.9c.1,0,.1.1.2.2a65.8,65.8,0,0,1-4.2,7.3l-1.5,1.9-3,2.8-1.6,1.3-1.5,1-1.7.9-3.2,1.3h-.3a2.1,2.1,0,0,0-1.4-.4l-1,.2-.3-.4h0A29.8,29.8,0,0,1,159.9,64.2Zm13.2,16.6c-2.4-2.3-4.6-4.7-6.8-7.2l-.8-1.1,1.8-.5a23,23,0,0,0,5-2.4l2.8-2,2.5-2.2a28.5,28.5,0,0,0,4.9-6.1l3-5.4,1.1.5,3.7.9,2.9,1a2.6,2.6,0,0,0-.5,1.7c0,.5.1.9.1,1.4v1.9a23.2,23.2,0,0,1-.6,3.8,26.2,26.2,0,0,1-1.1,4c-.6,1.7-1.3,3.3-2,5l-1.7,2.8L186,78.7a17,17,0,0,1-1.9,1.9l-1.4,1.1-1.5.8-.9.4h-.1a2.6,2.6,0,0,0-1.9-.6,2.3,2.3,0,0,0-1.8,1.3Zm37.4-17.4-.3,3.9c-.1,1.3-.3,2.6-.5,3.9s-.4,2.7-.7,4.1-.7,2.7-1.1,4.1l-.9,2.2c-.7,1.2-1.4,2.4-2.2,3.6a34.1,34.1,0,0,1-3.7,4.8c-1.3,1.4-2.6,2.7-3.8,4.1l-1.4,1.8a1.7,1.7,0,0,0-.4-1.2,2.5,2.5,0,0,0-2.1-1l-3.6-1.6c-2.3-1.2-4.4-2.7-6.6-4.1l-1-.7a15,15,0,0,0,4.1-2.3,19.9,19.9,0,0,0,3-2.8,26.2,26.2,0,0,0,4.8-7.4,31.6,31.6,0,0,0,1.6-4.3,29,29,0,0,0,1.2-4.2c.3-1.4.5-2.9.7-4.3a26.4,26.4,0,0,0-.1-4l1.7.4H201a2.5,2.5,0,0,0,1.5-.5,1.6,1.6,0,0,0,1.2.4,16.4,16.4,0,0,0,3.8-.4,10.2,10.2,0,0,0,2.5-.6c.1.2.1.5.2.7h0v0a16.4,16.4,0,0,1,.2,2.2C210.5,61.2,210.5,62.3,210.5,63.4Z"/></svg>