<svg id="Ears" xmlns="http://www.w3.org/2000/svg" viewBox="0 0 500 500"><defs><style>.cls-1{fill:lime;}</style></defs><polygon class="cls-1" points="194.5 96.8 184.9 98.5 175.1 90.4 179.7 77.4 165.3 51.6 156.2 42.2 171.2 46.1 194.3 62.7 201.7 72.8 194.5 96.8"/><polygon class="cls-1" points="277.1 76.1 292.1 55.5 308.4 38 324.3 31.4 312.9 52.9 298.9 73.8 299.2 82.6 302.2 91.1 286.5 95.8 277.1 76.1"/><path d="M181.9,102.2c-3.2-.8-5.8-3.3-7.5-6A14.2,14.2,0,0,1,172.8,85a11.6,11.6,0,0,1,3.7-5.8,35.9,35.9,0,0,1-1.7-3.4c-.6-1.2-1.1-2.5-1.6-3.8s-2.1-4.8-3.3-7.1l-1.8-2.8a48.2,48.2,0,0,0-3.6-4.3h.1a56.8,56.8,0,0,0-5.1-4.7h.1a43.8,43.8,0,0,1-4.5-4.1l-3.8-4.1h0c-.1-.1-.2-.2-.2-.3h.1l-2.5-2.4-2.2-1.8.4.3a5.3,5.3,0,0,1-1.3-1.3,3.9,3.9,0,0,1,.4-4.8,3.8,3.8,0,0,1,4.7-.8l-.3-.2a37.5,37.5,0,0,0,5.3,1.9c4.5,1.3,9,2.4,13.5,3.9a65.5,65.5,0,0,1,6.9,2.7,56.9,56.9,0,0,1,7.8,4.9,46.9,46.9,0,0,1,5.3,4.7,57.9,57.9,0,0,1,4.8,5.1c1.5,1.9,3,3.7,4.3,5.7s2.3,3.5,3.3,5.3a3,3,0,0,0,.4.8l-.3-.4.4.5V69h0a5.9,5.9,0,0,1,.4.8,3.9,3.9,0,0,1-7.2,3.1h0l-.7-1.1.3.4c-.6-1.1-1.3-2.1-2-3.2l-2.1-3.4L186,59.6l-5.4-5.1c-1.9-1.5-4-2.9-6-4.2l-1.9-1c-2.7-1.2-5.5-2.1-8.2-3l-1.2-.4c0,.1.1.1.2.2a61.1,61.1,0,0,1,12,12.9,28.6,28.6,0,0,1,2.4,4.2l1.5,3.5c1.2,2.7,2.3,5.4,3.6,8a44.9,44.9,0,0,1,2.1,4.4,3.9,3.9,0,0,1-.2,3.5,6,6,0,0,1-2.8,2.4l-.6.3-.3.2-.2.3V86a.8.8,0,0,0-.2.4l-.2.4c0,.2-.1.4-.1.6a5,5,0,0,0-.2,1.2,4.9,4.9,0,0,0,.1,1.2.6.6,0,0,0,.1.4,2.9,2.9,0,0,0,.2.9l.3.7.3.4a7.1,7.1,0,0,0,.7.9,6,6,0,0,1,.8.8l.6.4h.2l.6.2,1.3.3h.4l1.3-.3h-.5l1.2-.4.5-.2-.4.3a10.1,10.1,0,0,0,1.3-.9,4.2,4.2,0,0,1,5.5,1.3,4,4,0,0,1-1.3,5.4,16.2,16.2,0,0,1-4.2,2,14.2,14.2,0,0,1-5,.5Z"/><path d="M188.8,83.1a46.7,46.7,0,0,1-3.2-6.3,27,27,0,0,1-2.2-5.3,3.9,3.9,0,0,1,7.7-1.5.4.4,0,0,0-.1-.3h0c0,.1.1.1.1.2,1,2.5,2.2,5,3.4,7.4a14,14,0,0,0,1,1.6,4,4,0,0,1-1.3,5.5,4.1,4.1,0,0,1-2.4.6A4.5,4.5,0,0,1,188.8,83.1Z"/><path d="M328.2,37l-1.6,2.4c-1.6,2.6-3.1,5.2-4.9,7.8s-3.8,4.7-5.7,7l.4-.4a105.6,105.6,0,0,0-6.9,9.6A132.5,132.5,0,0,0,303,75.8c.1-.1.1-.1.1-.2a10.1,10.1,0,0,1-.7,1.5c.2.1.3.3.4.4a16,16,0,0,1,4.3,8.1,10.4,10.4,0,0,1,0,4.3,9.7,9.7,0,0,1-2.6,4.5,25,25,0,0,1-3.4,3.1,13.4,13.4,0,0,1-4.9,2.5,12.9,12.9,0,0,1-3.9.4,12.2,12.2,0,0,1-2.6-.6,8.3,8.3,0,0,1-1.6-.9,3.9,3.9,0,0,1-.9-5.5,4,4,0,0,1,5.5-.9h1.7l.4-.2h.2l.8-.5,1.7-1.5,1.6-1.5.2-.3V88h.1a1.3,1.3,0,0,1-.1-.6.9.9,0,0,0-.1-.5c0-.1-.1-.3-.1-.4l-.6-1.2-.9-1.5-.5-.6a4.3,4.3,0,0,1-3.4-2.4,4.7,4.7,0,0,1,.1-3.7c.4-1,.9-2,1.3-2.9s-.1.3-.2.4a139.1,139.1,0,0,1,7.6-14.9,116.8,116.8,0,0,1,9.8-13.3c0,.1-.1.1-.1.2s.1-.2.2-.3h0a75.4,75.4,0,0,0,5.3-7.3h0c-1.7.7-3.5,1.6-5.2,2.5l-4.9,3.1-4.1,3.3c-2.2,2.2-4.3,4.6-6.3,7h0a174,174,0,0,0-11.5,15.6c0-.1.1-.2.2-.3l-.3.4h0c-.8,1.4-1.7,2.8-2.4,4.3l-.2.5a4.1,4.1,0,0,1-4.2,3,4,4,0,0,1-3.5-4.3,6.1,6.1,0,0,1,.8-2.6l1.5-2.8c1.1-2,2.4-4,3.7-5.9l4-5.4c1.3-1.9,2.7-3.7,4.1-5.4a97.5,97.5,0,0,1,9.7-10.6,40.5,40.5,0,0,1,5.7-4.3,53.6,53.6,0,0,1,5.7-3.4c2.3-1.1,4.5-2.1,6.8-3a46.7,46.7,0,0,1,6.4-1.8,5.5,5.5,0,0,1,3.6,0A4.2,4.2,0,0,1,330,33"/><path d="M280.5,83.7a15.4,15.4,0,0,1,1.7-4.5,28.5,28.5,0,0,1,3.5-5.5,3.9,3.9,0,0,1,6.4,4.6,36.2,36.2,0,0,0-2.2,3.2l.3-.5L289,83.2l-.9,2.3a.4.4,0,0,1,.1-.3,3.9,3.9,0,0,1-7.7-1.5Z"/></svg>