<svg id="Eyes_3" data-name="Eyes 3" xmlns="http://www.w3.org/2000/svg" viewBox="0 0 500 500"><path d="M192.7,172.2a11.9,11.9,0,0,1-7.4-3,8.2,8.2,0,0,1-2.3-3.5,9.6,9.6,0,0,1,.1-5.3,10.2,10.2,0,0,1,6.5-6.6,7.5,7.5,0,0,1,2.1-.2,5.4,5.4,0,0,1,2.2-.5,8.7,8.7,0,0,1,5.4,1.7,9.6,9.6,0,0,1,4,7,10.1,10.1,0,0,1-2.9,7.7,9.5,9.5,0,0,1-7,2.7Z"/><path d="M272.2,170.7c-2.3-.7-4.6-1.8-5.8-4s-1.2-5.8-.2-8.8,6.8-8.3,10.9-6.5a4.5,4.5,0,0,1,3,.4,10.2,10.2,0,0,1,5.5,5.5,10.8,10.8,0,0,1-.4,8.8,10.2,10.2,0,0,1-5.8,4.8,12.4,12.4,0,0,1-3.3.4A13.2,13.2,0,0,1,272.2,170.7Z"/></svg>