<svg id="Layer_8" data-name="Layer 8" xmlns="http://www.w3.org/2000/svg" viewBox="0 0 500 500"><defs><style>.cls-1{fill:lime;}</style></defs><polyline class="cls-1" points="209.7 152.2 200.9 160.9 191.7 170.5 199.9 188 217.4 191 229.8 185.8 234.4 164.5 228.5 157.1 218.1 151.2 207.7 155.4"/><path class="cls-1" d="M269.1,146.7l-10.4,6.8L254.4,164l2,12.2a13.3,13.3,0,0,0,9.7,7.5l10.8,1.8,11.9-8.6,3.9-15.5-4.8-9.7-10.4-6-9.5,1.2"/><path d="M236.4,171.8a25.4,25.4,0,0,0,.4-2.9,14.9,14.9,0,0,0-.4-5.1,17.2,17.2,0,0,0-3.1-5.8c-.9-1.1-1.7-2.2-2.7-3.3a25.5,25.5,0,0,0-3-2.6,17.8,17.8,0,0,0-5.2-2.9,13,13,0,0,0-3.4-.8h-2.3l-2.6.5-1.8.7h-.1a12.7,12.7,0,0,0-5.1,1.2,23.3,23.3,0,0,0-6.6,4,37.1,37.1,0,0,0-4.9,5.6,16.7,16.7,0,0,0-3.3,6.5,15.1,15.1,0,0,0-.6,3.6,10.5,10.5,0,0,0,.4,3.5,28.5,28.5,0,0,0,4,9.7,22.1,22.1,0,0,0,3.8,4.3,12.8,12.8,0,0,0,3.7,2.3,16.4,16.4,0,0,0,4.9,1h3.8a29.2,29.2,0,0,0,5.1-.4c1.9-.4,3.7-1,5.5-1.5a28.7,28.7,0,0,0,3.7-1.5,22.7,22.7,0,0,0,3.2-2.2,12.2,12.2,0,0,0,2.8-3.2,18.7,18.7,0,0,0,1.5-3.2c.5-1.2.9-2.4,1.3-3.7S236.1,173.1,236.4,171.8Zm-4.1-3.1a12,12,0,0,1-.3,2,52.9,52.9,0,0,1-1.5,5.7h0l-1.2,2.9a7.5,7.5,0,0,1-.7,1.2l-.6.8-.8.8-1.7,1.4-1.2.6-1.6.7h0l-4.1,1.3a13.2,13.2,0,0,0-1.2-2l-1.2-1.8a24.3,24.3,0,0,1-2-3.5,20,20,0,0,1-1-2.1l-.9-3.1a18,18,0,0,1-.2-2.2c-.1-1.2-.1-2.4-.1-3.6a14.8,14.8,0,0,0,.1-2.1,5.7,5.7,0,0,0-.2-2.9,2.3,2.3,0,0,0-3.7-.7c-.6.5-.7,1.3-1,2.1s-.3,1-.4,1.5a22.3,22.3,0,0,0-.5,3.6,37.6,37.6,0,0,0,.1,7.5,54.7,54.7,0,0,0,1.6,7c.2,1,.5,2,.8,3h-.2l-2-.2-1-.3-.8-.3-.8-.5-1.2-.9h.1l-1.7-1.7a11.5,11.5,0,0,1-1.4-1.7l-1.2-2-1.2-2.9h0c-.4-1.3-.8-2.5-1.1-3.8s-.1-.9-.1-1.3v-.5a11,11,0,0,1,.2-1.8c.1-.6.3-1.1.4-1.7l.6-1.4,1-1.7,2.5-3.2,2.7-2.8h-.1l.2-.2h0a8.3,8.3,0,0,1,1.5-1.1,20.7,20.7,0,0,1,2.5-1.5l1.4-.6a2.2,2.2,0,0,0,3-.1l.3-.2a14.8,14.8,0,0,1,2.9-1.2l1.4-.4h1.4l1,.2,1.9.4,1.2.5,1.7,1.1,2.1,1.6,2,1.9,2.7,3.6.9,1.4.3.8a3,3,0,0,1,.2,1,7.7,7.7,0,0,1,.2,1.5A6,6,0,0,1,232.3,168.7Z"/><path d="M292.8,155.2a16.5,16.5,0,0,0-2.4-3.3l-3-3a31.1,31.1,0,0,0-2.8-2.3l-2.2-1.4c-1.9-1.2-3.9-2.4-6.2-2.4a6.5,6.5,0,0,0-4.2,1.4h-.3l-2.8-.2a11.9,11.9,0,0,0-7.1,3.2,26.7,26.7,0,0,0-4.2,4.7,22.3,22.3,0,0,0-3.9,8.4,25.5,25.5,0,0,0,0,11,27.4,27.4,0,0,0,2.1,5.4l1,2a18.5,18.5,0,0,0,2.5,3.7,11.2,11.2,0,0,0,3.6,2.9,26.2,26.2,0,0,0,3.9,1.5l2.6.7a18.3,18.3,0,0,0,4,.5h1.2a17.9,17.9,0,0,0,5.1-1.1,24.2,24.2,0,0,0,4.9-2.3,27.5,27.5,0,0,0,2.6-2.2,22.9,22.9,0,0,0,5.8-8.9,24.8,24.8,0,0,0,2-8,21.7,21.7,0,0,0-.1-5.7A15.9,15.9,0,0,0,292.8,155.2Zm-2.3,10-.3,2.5a21.7,21.7,0,0,1-.7,2.4,28.3,28.3,0,0,1-1.7,4l-1.3,2.3-1.3,1.7-.7.7v-.2a12.2,12.2,0,0,0,0-2.7,43.4,43.4,0,0,0-1.6-6.2,35.6,35.6,0,0,0-2.3-6.2c-.5-1-.9-2-1.5-3l-.8-1.6a5.3,5.3,0,0,0-1.1-1.5,2.3,2.3,0,0,0-2.5-.1,2,2,0,0,0-1.1,1.9v.2a2.9,2.9,0,0,0,0,1.3,9.3,9.3,0,0,0,.5,1c.1.8.4,1.6.5,2.4s.7,3.4,1,5.1a29.3,29.3,0,0,1,.5,2.9v3.2c-.2,1.5-.4,2.9-.5,4.4a17.9,17.9,0,0,0-.2,2.3c0,.5-.1.9-.1,1.4l-1.2.2h-1.5l-1.8-.3a26.2,26.2,0,0,1-4-1.1l-1.7-.8-.9-.4-.8-.7-.7-.6-.7-1.1a28.8,28.8,0,0,1-2.2-3.8l-1.2-2.7-.6-2.2a23,23,0,0,1-.3-2.6,18.2,18.2,0,0,1,0-3.3,14.9,14.9,0,0,1,.2-2.1,15.5,15.5,0,0,1,.7-2.3,14.2,14.2,0,0,1,.8-1.8,20.1,20.1,0,0,1,1.4-2.5,32.5,32.5,0,0,1,2.3-2.9,7.7,7.7,0,0,1,1.8-1.8,3.9,3.9,0,0,1,1-.8l.8-.5.8-.4.9-.2h.8a2.5,2.5,0,0,0,1.1,1.7,2.4,2.4,0,0,0,3.1-.8c.1-.2.2-.3.2-.5a2.4,2.4,0,0,0,1.1-.9c.1-.1.1-.3.2-.5h.1l.6-.3H277l.9.4c1.2.6,2.5,1.4,3.6,2.1l1.9,1.5h0c1.4,1.3,2.9,2.7,4.2,4.1l.8,1,1.4,2.5h-.1c.1,0,.1.1.1.2h0l.6,1.3c0,.1.1.3.1.4a1.7,1.7,0,0,1,.1.7A22.9,22.9,0,0,1,290.5,165.2Z"/><path d="M243.3,172.1a2.3,2.3,0,0,0-2.3-2.2,2.2,2.2,0,0,0-2.2,2.2,4.9,4.9,0,0,0,.1,1.2v1a1.3,1.3,0,0,0-.1.6l-.6,2h0v.2h0c-.7,1.9-1.5,3.7-2.4,5.6v-.3l-.4.9a2.2,2.2,0,0,0,.8,3,2,2,0,0,0,1.1.3,2,2,0,0,0,1.9-1.1,27.5,27.5,0,0,0,2.3-4.9l1.2-3.1a10,10,0,0,0,.5-3.4v-1.9Z"/><path d="M264.5,195.5l-2.7-2.1-2.9-2.3-1.6-1.7-1.5-2a49.4,49.4,0,0,1-3.2-5.5l.2.3a5.4,5.4,0,0,1-.5-1.1h0a2.3,2.3,0,0,0-4.4-1.2c-.7,2.2.8,4.4,1.8,6.3a35.1,35.1,0,0,0,3.3,5.2,20.1,20.1,0,0,0,3.8,3.9l1.7,1.4,3.3,2.5a2.1,2.1,0,0,0,1.3.5,2.1,2.1,0,0,0,1.8-.9A2.2,2.2,0,0,0,264.5,195.5Z"/><path d="M304.7,152.6a42.7,42.7,0,0,0-2.7-6.7,40.2,40.2,0,0,0-3.3-6.1,19,19,0,0,0-3.6-3.9l-2.8-1.9a19.9,19.9,0,0,0-3.6-1.7,28.1,28.1,0,0,0-7-2l-4.1-.6a26.7,26.7,0,0,0-6.3-.4c-3.2.2-6.4,1.2-8.6,3.7-.8.9-1.6,2.2-1.1,3.5a2.8,2.8,0,0,0,1.1,1.3,1.7,1.7,0,0,0,1,.3,2.2,2.2,0,0,0,2.5-1.9.5.5,0,0,0,0-.5h.1l.5-.4.9-.5.8-.3,1.6-.5,1.7-.2h1.8c1.6.1,3.1.4,4.7.6l4.2.7,3.1.8,3.5,1.5,1.9,1.1h-.1a10.9,10.9,0,0,1,1.7,1.3,8,8,0,0,1,1.3,1.3l1.4,1.8c.6,1,1.2,2,1.7,3l1.8,3.9a26.2,26.2,0,0,1,1.5,3.9,33.8,33.8,0,0,1,1.1,3.4c.1.4.1.9.2,1.3v.7c0,.3-.1.5-.1.7a2.1,2.1,0,0,0-.6,1,2.4,2.4,0,0,0,1.6,2.8h.7a2.6,2.6,0,0,0,2-1,3.8,3.8,0,0,0,.6-1.6l.3-1.8a13.3,13.3,0,0,0-.7-4.5A17.2,17.2,0,0,0,304.7,152.6Z"/><path d="M313.9,152.4l-.9-4.6c-.3-1.5-.8-3-1.1-4.5a.9.9,0,0,0-.1-.5v.1a2.2,2.2,0,1,0-4.4,0,14.7,14.7,0,0,0,.5,2.9,10.5,10.5,0,0,1,.4,1.7c.3,1.2.6,2.3.8,3.5l.6,4.1v3.1a56.2,56.2,0,0,1-.9,5.7,2.9,2.9,0,0,1-.2.9,2.2,2.2,0,0,0,1.6,2.7h.5a2.4,2.4,0,0,0,2.2-1.6,34.3,34.3,0,0,0,.9-4.4A31.5,31.5,0,0,0,313.9,152.4Z"/><path d="M195.8,148.7c1.2-.9,2.3-1.9,3.6-2.7l2.2-1.4,2.2-.8,1.7-.5,1-.2h.6a2.1,2.1,0,0,0,2,1.3,2.3,2.3,0,0,0,2.3-2.2c0-1.9-1.8-3.3-3.6-3.6a10,10,0,0,0-4.2.4,27.4,27.4,0,0,0-4,1.5,25.9,25.9,0,0,0-3.9,2.5l-3.3,2.7a31.4,31.4,0,0,0-6,7.1,21.8,21.8,0,0,0-3,8.3c-.3,2.3-.4,4.6-.5,6.9V175a2.2,2.2,0,0,0,2.2,2.2,2.2,2.2,0,0,0,2.3-2.2c0-3.5-.1-7,.1-10.5.1-1.2.3-2.3.5-3.5a9,9,0,0,1,.6-2.2,10.9,10.9,0,0,1,.9-2.3l1.1-1.9,2.1-2.7C193.7,150.8,194.7,149.7,195.8,148.7Zm11.1-5.6h0Z"/><path d="M188.2,187.6l-3.4-.8-.5-.2-.7-.4-.7-.6-.7-.7-1.1-1.4-1.5-2.7h0v-.2h-.1c-.6-1.4-1.2-2.8-1.7-4.3h0c-.1,0-.1-.1-.1-.2v.2a44.3,44.3,0,0,1-1.3-4.9,29.8,29.8,0,0,1-.6-4,58.1,58.1,0,0,1,0-5.9,15.2,15.2,0,0,1,.3-2.1.6.6,0,0,1,.1-.4v-.3h0a2.2,2.2,0,0,0-2.2-3.9c-1.5.7-2.2,2.4-2.5,3.9a29.1,29.1,0,0,0-.3,5.1,18.8,18.8,0,0,0,.1,4.1,30.3,30.3,0,0,0,1.1,6.7,47,47,0,0,0,2.4,6.6,25.6,25.6,0,0,0,3.3,5.8,12.1,12.1,0,0,0,4.7,3.7,27.5,27.5,0,0,0,4.1,1.1h.6a2.2,2.2,0,0,0,2.2-1.6A2.3,2.3,0,0,0,188.2,187.6Z"/></svg>