<svg id="Eyes_2" data-name="Eyes 2" xmlns="http://www.w3.org/2000/svg" viewBox="0 0 500 500"><defs><style>.cls-1{fill:lime;}</style></defs><polygon class="cls-1" points="209.4 149 190 157 182.4 172.1 183.7 178.9 194.6 179.7 209.8 173.4 225.4 165.4 228.3 156.5 224.9 151.9 209.4 149"/><polygon class="cls-1" points="276.2 144.9 299.3 151.3 309.2 165.7 308.2 172.6 295.6 174.3 277.5 169.3 258.8 162.7 254.8 154.1 258.3 149.2 276.2 144.9"/><path d="M312.5,162.3a15.9,15.9,0,0,0-2.6-5l-1.8-2.1a24.4,24.4,0,0,0-2.9-2.7l-2.2-1.4-3.2-2.4a17.8,17.8,0,0,0-6.2-3c-2.2-.6-4.5-1-6.7-1.4l-7.4-2a46.3,46.3,0,0,0-6.5-1,.1.1,0,0,1-.1-.1,6.2,6.2,0,0,0-2.7-.2,16.5,16.5,0,0,0-3.1.4,23.4,23.4,0,0,0-6.9,2.3,12.8,12.8,0,0,0-5.3,5,11.7,11.7,0,0,0-1.2,3.1c-.2.7-.3,1.4-.5,2a19.6,19.6,0,0,0-.4,4.1,11.3,11.3,0,0,0,.6,3.2v.4l-.2.2a3.1,3.1,0,0,0,0,4.5,9.4,9.4,0,0,0,1,1,2.9,2.9,0,0,0-.4,1.6,3.1,3.1,0,0,0,1.8,2.9,6.1,6.1,0,0,0,.7,1.4,41.6,41.6,0,0,0,2.5,5.2,19.7,19.7,0,0,0,7.5,7.4,73.7,73.7,0,0,0,11,4.3h.9a3.3,3.3,0,0,0,3.1-2.4,3.2,3.2,0,0,0-2.2-3.9l-4-1.3-5.1-2.2-1.7-1-1.4-1.1h.1c0-.1,0-.1-.1-.1l-.2-.2.2.2-.9-.9-1.1-1.4a8.3,8.3,0,0,1-.7-1.3l-.5-.9,2.1,1.5c1.4,1,2.8,2,4.3,2.9l4.4,2.6,4.5,2.5a35.7,35.7,0,0,0,5.6,2.6l3.6,1a42.9,42.9,0,0,0,10.7,1.3h.1a3.3,3.3,0,0,0,3.2-3.2,3.4,3.4,0,0,0-3.3-3.3h-2.9l-3.8-.4-5.2-1.3-3.3-1.4-6.5-3.7-3.9-2.3,5.6,1.7c1.8.6,3.5,1.4,5.3,1.9a52.1,52.1,0,0,0,5.7,1l3.3.2h.6l4.1-.4,4.1-.8c3.1-.6,6.4-1.8,8.5-4.3A10.3,10.3,0,0,0,312.5,162.3Zm-6,3a.6.6,0,0,0-.1.4c-.1.2-.1.5-.2.7l-.3.7-.2.4h0v.2h-.1l-.9.6-.5.3-1.1.5-2,.6c-2.2.4-4.4.8-6.6,1h-2.1l-4.8-.6-2.6-.7-4.2-1.6-4.2-1.2-8.9-2.4a55.5,55.5,0,0,1-5.6-2.4l-.8-.4-.4-.3-.3-.4a1,1,0,0,1-.4-.5l-.5-.9h0a.1.1,0,0,0-.1-.1.1.1,0,0,1,.1.1,2.5,2.5,0,0,1-.2-.7.9.9,0,0,1-.1-.5V157c.1-1.1.3-2.1.5-3.2l.3-.9.3-.7.3-.5.5-.7.8-.7-.3.3.6-.6,1.4-.8,1.6-.6,2.9-.8,1.5-.3a2.3,2.3,0,0,0,1.2.2h1.3l5.2.8,6,1.6,6,1.3a23.7,23.7,0,0,1,3.6.9l1.1.4,1.2.8c1,.7,1.9,1.5,3,2.2l2.7,1.8,1,.8,1.6,1.6,1.9,2.3.3.6.3.8v0a.3.3,0,0,1,.1.2v-.2a1.9,1.9,0,0,0,.2.8,1.3,1.3,0,0,0,.1.6Z"/><circle cx="196.5" cy="168.8" r="3.2" transform="translate(-10.1 12.5) rotate(-3.6)"/><circle cx="295.1" cy="164.3" r="3.2" transform="translate(-7.8 14.9) rotate(-2.9)"/><path d="M232.2,163.7l-.5-.4a9.7,9.7,0,0,0,.6-9.6,11.5,11.5,0,0,0-6.1-6.4,11.7,11.7,0,0,0-5.4-1.9,3.2,3.2,0,0,0-3.8-2l-.7.2a37.3,37.3,0,0,0-4.6.9,31.7,31.7,0,0,0-4.4,1.2c-3.1,1-6.3,1.9-9.3,3.2a37.4,37.4,0,0,0-4.5,2.2,19.1,19.1,0,0,0-4.7,3.8,35.7,35.7,0,0,0-4,4.6c-1.1,1.6-2.2,3.3-3.2,5.1a19.6,19.6,0,0,0-2.1,5.7,14.3,14.3,0,0,0,0,6.5,7.9,7.9,0,0,0,3.5,4.9,12.9,12.9,0,0,0,6.1,1.6h.8l2.4-.2,2.6-.5a84.8,84.8,0,0,0,11-2.9,27.8,27.8,0,0,0,4.8-1.8,50.5,50.5,0,0,0,5.1-2.8l2.9-1.7-3.3,2.6c-2.8,1.8-5.5,3.6-8.4,5.2l-5.6,2.3-.8.2-1.1.2h-1a3.6,3.6,0,0,0-2.5.4,3.2,3.2,0,0,0-1.6,2,3.4,3.4,0,0,0,2.3,4h1.5a10.1,10.1,0,0,0,3-.1,26.4,26.4,0,0,0,4-1.2,44.3,44.3,0,0,0,4.5-2,87,87,0,0,0,8.3-5,44.8,44.8,0,0,0,4.4-3.2l.7-.6a12.8,12.8,0,0,1-1.5,2.5l-3.2,4.2-2.6,2.6a25,25,0,0,0-2.3,2.3,3.1,3.1,0,0,0-.4,4.3l6.9-1.7a23.9,23.9,0,0,0,2.3-2.2c1.6-1.9,3.2-3.8,4.6-5.8a47.7,47.7,0,0,0,3.6-6.2,16.3,16.3,0,0,0,.9-1.9c.4-.9.6-1.8.9-2.7a30.1,30.1,0,0,1,.7-3.2h0a.1.1,0,0,0,.1-.1,3.2,3.2,0,0,0-.1-3.4A3.2,3.2,0,0,0,232.2,163.7Zm-46.5,11.8c.1.1.2.2.2.3h0C185.9,175.7,185.8,175.6,185.7,175.5Zm28.1-6.7-4.8,2.8a60.1,60.1,0,0,1-5.9,2.3h.3c-3.2,1-6.5,1.8-9.8,2.5,0-.1.1-.1.2-.1l-3.3.6h-1.7l-1.2-.2h-.5l-.4-.2-.4-.2h-.1l.3.3-.6-.5h.1a.1.1,0,0,1-.1-.1h-.1v-.2a1.7,1.7,0,0,1-.1-.7V173a9.9,9.9,0,0,1,.2-1.7c.1-.5.3-1,.4-1.5s.5-1.2.8-1.7l1.8-3.2,2.3-3.1a41.7,41.7,0,0,1,3.6-3.7l1.1-.9,1.8-1a73.3,73.3,0,0,1,7.2-3h0c3.2-1,6.3-2,9.5-2.8h.8a3.2,3.2,0,0,0,1.2,1.8,3.1,3.1,0,0,0,4.2-.3h.1l1.2.3h-.4l.4.2,2.8,1.6.5.4.2.2c.1.1.2.2.2.3a1.6,1.6,0,0,1,.4.7v.2h0a10.1,10.1,0,0,0,.7,1.5h0v.6a4.1,4.1,0,0,1-.1,1.1v.4l-.2.2-.9,1.2-1.4,1.4-3.2,2.3-2.5,1.7Z"/><path d="M256.5,138.7l.6-.4a71.7,71.7,0,0,1,6.9-3,18.1,18.1,0,0,1,3.1-.9l4-.5a48.4,48.4,0,0,1,7.6-.1l3.5.4,7.6,1.7h-.4l2.7.7a32,32,0,0,1,3.9,1.6l1,.6.9.7c1.2,1.1,2.2,2.3,3.3,3.3l3.2,2.7a3.2,3.2,0,0,0,4.6-.6,3.3,3.3,0,0,0-.6-4.5l-3-2.5h.1c-1-.9-1.8-1.9-2.8-2.7a12.6,12.6,0,0,0-2.6-2.1l-2.8-1.4-3.9-1.5-4.5-1a67.6,67.6,0,0,0-10-1.8h-8.7c-1.7.3-3.5.4-5.2.8a45.7,45.7,0,0,0-6.2,2.2,57.7,57.7,0,0,0-5.6,2.7,3.3,3.3,0,0,0-1.2,4.4A3.4,3.4,0,0,0,256.5,138.7Z"/><path d="M180.1,150.7l.2-.3h0l.6-1,1.3-1.7h0l.2-.2v.2a43.4,43.4,0,0,1,5.3-5.2,18.4,18.4,0,0,1,2.2-1.7,22.6,22.6,0,0,1,2.6-1.6l1.9-.8,1.5-.4,2.2-.3a50.5,50.5,0,0,1,6.7.2l4,.5,3.9.8c2.7.3,5.4.5,8.1,1h.2a3.5,3.5,0,0,0,3-.1,3.3,3.3,0,0,0,1.2-4.4c-1.3-2-4-2-6-2.3l-5-.6c-1.7-.2-3.3-.6-5-.9a54.2,54.2,0,0,0-5.8-.6h-5.4a19.7,19.7,0,0,0-6.4,1.3,31,31,0,0,0-5.7,3,44.4,44.4,0,0,0-5.6,5c-2.6,2.4-5.3,5.1-6.3,8.5a3.3,3.3,0,0,0,2.3,4h.8A3.3,3.3,0,0,0,180.1,150.7Z"/></svg>