<svg xmlns="http://www.w3.org/2000/svg" viewBox="0 0 189.1 85.8"><defs><style>.cls-1{fill:lime;}</style></defs><g id="Layer_2" data-name="Layer 2"><polygon class="cls-1" points="31.2 8.5 13.6 15.3 4.8 30.3 6.8 60.3 16.5 75.9 35.4 80.5 49.1 78.8 65.4 69.4 76.2 57.7 80.7 42 76.2 29.6 69.3 20.5 56.3 13.3 44.6 6.5 31.2 8.5"/><polygon class="cls-1" points="136.8 3.6 119.2 10.4 110.4 25.4 112.4 55.4 122.1 71 141 75.6 154.7 73.9 171 64.5 181.8 52.8 186.3 37.1 181.8 24.7 174.9 15.6 161.9 8.5 150.2 1.6 136.8 3.6"/></g><g id="Layer_1" data-name="Layer 1"><path d="M192.9,167.6l2.3-.4,4.4-1.1,4.5-1.8c4.6-2.4,9-4.9,13.3-7.7l-.5.4a45.9,45.9,0,0,0,4.4-3.3.1.1,0,0,1-.1.1l1.2-1.2,1.5-2c.8-1.3,1.6-2.6,2.3-4a26.3,26.3,0,0,0,1.5-3.5,40.5,40.5,0,0,0,1.6-5.7,23.4,23.4,0,0,0,.4-2.6v-2.1l-.3-2.9-.3-1a78,78,0,0,0-3.1-7.2c-.4-.8-.9-1.5-1.3-2.2l-1.7-2.1-1.3-1.4-1.8-1.3c-2.7-1.6-5.2-3.3-7.7-5.1s-3-1.8-4.6-2.6l.5.2-4.4-2-2.9-.8-4.4-.7h-1.7l-3.6.5-.8.5a4.8,4.8,0,0,1-2.9.2h-.5a3.7,3.7,0,0,1-2.7-.5l-2,.3-2.6.7-2.5,1.1a18.3,18.3,0,0,0-3,1.8l-2.8,2.2-1.1,1.1-1.8,2.2-1.5,2.4c-.3.8-.7,1.6-1,2.5l-.6,2.4a123.8,123.8,0,0,0-2,13.6v4.9a52.1,52.1,0,0,0,1,6.9c.2,1,.5,1.9.8,2.9l1.2,2.9,1.5,2.5h0l2.1,2.6,1.6,1.6,1.3,1,3.7,2.2c3.2,1.5,6.5,3.2,9.8,4.4l2.4.7,2.1.3Zm-12.4,6.6c-2.5-1-5-2.3-7.6-3.5a38.6,38.6,0,0,1-6.5-3.9c-3-2.2-5.2-5.3-7.2-8.4a36.7,36.7,0,0,1-4.5-12.5,59.7,59.7,0,0,1-.7-8.5,59,59,0,0,1,.6-8.3c.3-2.3.7-4.6,1.1-7a49.4,49.4,0,0,1,1.5-6.4,28.5,28.5,0,0,1,4.2-7.9,31.1,31.1,0,0,1,13.4-10.4,28.5,28.5,0,0,1,8.1-2.1,15.5,15.5,0,0,1,4.8.1l2-.4c1.5-.2,3-.5,4.5-.6a24.7,24.7,0,0,1,4.7.2,33.5,33.5,0,0,1,8.3,2,43.7,43.7,0,0,1,6.9,3.3,71.4,71.4,0,0,1,6.4,4.3l2.7,1.6a26.3,26.3,0,0,1,5.9,4.5,30,30,0,0,1,5.3,7.5c.6,1.2,1.1,2.5,1.6,3.7s1.6,3.7,2.2,5.6a29.7,29.7,0,0,1,.7,7.3,28.9,28.9,0,0,1-.8,5.9,44.2,44.2,0,0,1-6.7,15.6,24.1,24.1,0,0,1-5.5,6l-3.3,2.4c-2.3,1.5-4.6,2.8-7,4.1s-4.7,2.8-7.1,4a39.4,39.4,0,0,1-8.3,3.1,32.2,32.2,0,0,1-8.7,1.3h-.3A26.7,26.7,0,0,1,180.5,174.2Z" transform="translate(-154 -91.1)"/><path d="M302.6,160.2c1.4-.1,2.7-.4,4-.6l6.9-1.8a53.8,53.8,0,0,0,5.5-2.4l2.8-1.6,1.5-1.2h0A75.3,75.3,0,0,0,329,147l1.2-1.5,1-1.7c.7-1.4,1.3-2.7,1.8-4l.3-1c.2-1.1.3-2.2.4-3.3a1.3,1.3,0,0,1-.1.6,49.6,49.6,0,0,0,.2-5.5l-.3-1.7a1.1,1.1,0,0,0,.1.5,18.7,18.7,0,0,0-.7-2.2h0c-.9-2.5-1.9-5-3-7.4s-1.7-2.9-2.6-4.3l-2.1-2.7-1.5-1.5-1.4-1.1-4.4-2.7a46.7,46.7,0,0,0-4.9-2.7c-1.8-.9-3.6-1.6-5.4-2.3l-3-.9-3.1-.4H300l-.5.2-.8.7a4.6,4.6,0,0,1-6.5-.9,3.1,3.1,0,0,1-.5-1l-1.6.3a37.4,37.4,0,0,0-4.5,1.2l.5-.2-2.2.9-1.9,1.1a18.4,18.4,0,0,0-2.2,1.7,43.1,43.1,0,0,0-3.7,3.7c-1.4,1.6-2.8,3.3-4.1,5.1l-1.5,2.6a14.2,14.2,0,0,0-.8,1.8l-.9,3.3c.1-.2.1-.4.2-.6a105.4,105.4,0,0,0-2.1,13.7v2.1c.1.8.2,1.6.4,2.5s.5,2,.8,3v-.2a.4.4,0,0,0,.1.3c0,.1,0,.2.1.2s-.1-.1-.1-.2a26.3,26.3,0,0,0,1.5,3.5,23.9,23.9,0,0,0,1.3,2.1,2.2,2.2,0,0,0,.7.9l.9,1,1.4,1.1,2.2,1.3a103.4,103.4,0,0,0,10.9,4.4H287l4.7,1.6a34.3,34.3,0,0,0,4.6,1.1l3.8.5Zm-7.2,8.7a25.7,25.7,0,0,1-4-.8l-7.9-2.6-8.1-3a47.1,47.1,0,0,1-6.3-3.3,22.2,22.2,0,0,1-7-7.6,36,36,0,0,1-3-7,25.5,25.5,0,0,1-1.4-7.2,45.3,45.3,0,0,1,.6-8.2,54.3,54.3,0,0,1,.9-5.6,36.2,36.2,0,0,1,3.2-11.1,56.5,56.5,0,0,1,6.4-9,36.2,36.2,0,0,1,10.9-9,32.3,32.3,0,0,1,9.6-2.9,23.1,23.1,0,0,1,4.6-.5,12.8,12.8,0,0,1,5.5,1h1.8a24.1,24.1,0,0,1,6,.8,47,47,0,0,1,8.2,2.9,71.5,71.5,0,0,1,7.7,4.2l3.7,2.2a26.9,26.9,0,0,1,6.1,5.6,47.1,47.1,0,0,1,7.9,14.2,51.6,51.6,0,0,1,2,6.7,30.5,30.5,0,0,1,.1,7.4,28.2,28.2,0,0,1-1.9,8.6,38,38,0,0,1-3.1,6,40.4,40.4,0,0,1-7.2,7.7,34.1,34.1,0,0,1-5.7,4.3,28.7,28.7,0,0,1-3.9,2,53.2,53.2,0,0,1-7.9,2.9,57.5,57.5,0,0,1-11,1.9h-1A38,38,0,0,1,295.4,168.9Z" transform="translate(-154 -91.1)"/><path d="M312.5,131.5c-1.8-.6-3.6.1-5.3.7H307a4.7,4.7,0,0,0-1.7.3l-.9.4h-3.5l-.8-.3-.5-.3-1.1-.9-.4-.4-.5-.6-.6-1-.2-.5v-.5h0c0-.3.1-.5.1-.8h0v-.2l.2-.3v-.2c.1,0,.1-.1.2-.2h0a17.1,17.1,0,0,0,2.3-1.3l1.6-1.5.5-.5a4.5,4.5,0,0,0,3.3-4.4,4.5,4.5,0,0,0-2.4-4h.1c-2.4-1.5-5.3-1.3-7.9-.5a16.6,16.6,0,0,0-4.3,1.9,13.7,13.7,0,0,0-3.3,2.5,19.7,19.7,0,0,0-4.5,7.8,10.2,10.2,0,0,0-.3,4.6,16.4,16.4,0,0,0,.9,4.4,14,14,0,0,0,5.9,7.2,24.2,24.2,0,0,0,7.3,2.9,25,25,0,0,0,4.7.5h1a14.1,14.1,0,0,0,5.4-1.1h.7a4.7,4.7,0,0,0,3.3-1.4c1.7-1.7,4.1-3.2,4.8-5.7S315.4,132.4,312.5,131.5Z" transform="translate(-154 -91.1)"/><path d="M204.6,134.4a4.6,4.6,0,0,0-5,3.3l-4,1.4-2.5,1.1h-1.4l-.9-.5-1-.7-.4-.5-.4-.5h0c-.1-.1-.1-.1-.1-.2v-.6c0-.2.1-.5.1-.7l.3-.9c0-.1.1-.2.1-.3h.1l.2-.3c2.1-2.2,4.8-4.3,5.1-7.4l.3-.3a4.8,4.8,0,0,0,.9-3.5,5.6,5.6,0,0,0-1.4-2.9,5.7,5.7,0,0,0-5.1-1.5,12.7,12.7,0,0,0-5.6,2.4,16.2,16.2,0,0,0-4.6,4.8c-2,3.1-3.9,6.8-3.6,10.6a15.9,15.9,0,0,0,1.7,6,19.6,19.6,0,0,0,3.5,5,21.3,21.3,0,0,0,7.3,4.9,11.4,11.4,0,0,0,4.1.7,18.3,18.3,0,0,0,6.4-1.3,19.1,19.1,0,0,0,3.2-1.6,12,12,0,0,0,4.1-4.3,18.8,18.8,0,0,0,2.6-6.8A4.7,4.7,0,0,0,204.6,134.4Zm-15.8,2.8Z" transform="translate(-154 -91.1)"/></g></svg>