<svg id="Layer_7" data-name="Layer 7" xmlns="http://www.w3.org/2000/svg" viewBox="0 0 500 500"><defs><style>.cls-1{fill:lime;}</style></defs><polygon class="cls-1" points="188 177.6 196.5 162.1 210.3 155.4 221.4 157.2 232.5 175.4 232.5 179.4 190.7 181.6 188 177.6"/><polygon class="cls-1" points="255.2 175.4 260.1 160.7 277.4 149.2 290.3 149.6 298.3 161.2 303.6 174.5 274.3 174.5 255.2 175.4"/><path d="M234.9,177a20.1,20.1,0,0,0-1.4-2.5c-.5-1.3-1-2.6-1.4-3.9a24.4,24.4,0,0,0-1-2.4,9.3,9.3,0,0,0-.5-1,31.2,31.2,0,0,0-1.5-3.9,26,26,0,0,0-3.1-5,17,17,0,0,0-5.6-4.7,16.3,16.3,0,0,0-4.9-1.4,25.3,25.3,0,0,0-5.5.1,22.1,22.1,0,0,0-6.6,2.1,49.2,49.2,0,0,0-4.5,2.4,23.1,23.1,0,0,0-5.4,4.5,31.1,31.1,0,0,0-2.9,4.7c-.8,1.6-1.6,3.3-2.3,5a34.1,34.1,0,0,0-1.8,4.8,13.5,13.5,0,0,0-.4,2.9c0,.2-.1.5,0,.7a3.4,3.4,0,0,0-1.9-.7H180a26.7,26.7,0,0,0-6.3.4,2.9,2.9,0,0,0-2,3.6,2.8,2.8,0,0,0,2.8,2.1h1l1-.2h6a16.2,16.2,0,0,0-6.2,6.5,3,3,0,0,0,1,4,2.8,2.8,0,0,0,1.5.4,2.7,2.7,0,0,0,2.5-1.5l.7-1.2.8-.9,1-1.1,1.4-1,.6-.4,1-.4h-.2a3,3,0,0,0,1.8-1.7,2.9,2.9,0,0,0-.6-3.2,2.7,2.7,0,0,0-1.3-.7,3.4,3.4,0,0,0,.6-1.2,1.8,1.8,0,0,0,.7.5,2.9,2.9,0,0,0,2.8,2h.4l2.6-.4,1.8-.4,2-.3,4.6-.3h16.2l5.1-.4a32.3,32.3,0,0,1,4.4-.1,21.1,21.1,0,0,1,3.5.5,4.3,4.3,0,0,0,3.5-.4,3.1,3.1,0,0,0,1-3.5C235.5,178.6,235.2,177.8,234.9,177Zm-8.6-.2-5.4.4h0a4.2,4.2,0,0,0,1.6-6l-.2-.4a2.7,2.7,0,0,0-.6-1.2h0a4,4,0,0,0-1.6-1.2,4.2,4.2,0,0,0-3.1.1,4,4,0,0,0-2.4,2.8,5,5,0,0,0,.2,3.6,4.9,4.9,0,0,0,3.1,2.5h-4.5c-1.4,0-2.9-.1-4.4,0h-5.7a40.5,40.5,0,0,0-5,.4h-.1a15.6,15.6,0,0,0-3.1.2l-2.9.7h-.3c0-.3.1-.6.1-.9a17.2,17.2,0,0,1,.7-2.1,63.2,63.2,0,0,1,2.5-6c.7-1.4,1.5-2.7,2.3-4l.6-.7.9-1a33,33,0,0,1,3-2.2l2.2-1.4a46.2,46.2,0,0,1,4.7-1.9l.9-.3,1.9-.2h2.7l1.3.2,1.4.5,1,.4.7.4.4.3a18,18,0,0,1,2,1.9l.8,1c.6.9,1.1,1.9,1.7,2.9s.7,1.5,1,2.3l.6,1.8c.2.5.5.9.7,1.4a1.4,1.4,0,0,1,.2.6h0a34.2,34.2,0,0,1,1.3,3.4,13.4,13.4,0,0,0,.7,1.8h-1.9Z"/><path d="M307.5,174.2a26.7,26.7,0,0,0-.9-2.6l-.9-2.8a14,14,0,0,0-1-3.5,6.1,6.1,0,0,1-.5-1.2l-.5-1.2-1.2-2.6c-.5-1.1-.9-2.2-1.5-3.3a37.5,37.5,0,0,0-2.4-3.6,41.7,41.7,0,0,0-2.6-3.7,10.7,10.7,0,0,0-3.9-3.1l-2.4-.9a9.5,9.5,0,0,0-4.1-.9,22.9,22.9,0,0,0-3.6.7c-1.6.4-3.2.7-4.7,1.2a28.7,28.7,0,0,0-5.1,2.1c-1.5.8-2.9,1.7-4.3,2.6s-3,2-4.5,3.2a37.9,37.9,0,0,0-4.2,3.8,20.7,20.7,0,0,0-3.6,6.7,20.3,20.3,0,0,0-1.5,5.5c0,.8-.1,1.5-.1,2.3h0c-.1,1.3-.3,2.7-.3,4.1s-.1.4-.1.6a2.8,2.8,0,0,0,2.5,3.2,7.5,7.5,0,0,0,2.1.2l3.1-.2a19.7,19.7,0,0,0,3.5-.6l7.5-1.6a92.5,92.5,0,0,1,9.2-1.2c2.1-.1,4.2-.2,6.4-.1a51.4,51.4,0,0,1,5.5.6,58.5,58.5,0,0,0,5.9.4h3.9a6.2,6.2,0,0,0,1.9-.1A3.2,3.2,0,0,0,307.5,174.2Zm-7-1.8H297l-7.5-.8-4.3-.2-4,.2-4.5.5-3.9.5-7.9,1.7-5.3.8a24.6,24.6,0,0,0,.2-2.8h0l.3-2.5c.2-.6.3-1.2.5-1.8s1-2.5,1.6-3.8l.6-1a3.9,3.9,0,0,1,.8-1,21.3,21.3,0,0,1,2.2-2.1,29.5,29.5,0,0,1,4.5-3.4h-.1l5.1-3.1,2.6-1.1c2.3-.7,4.8-1.3,7.2-1.8l.9-.2h.7L290,152l.5.3h-.1l.3.2.5.5a13.3,13.3,0,0,1,1.4,1.9l2.7,3.9-.2-.3a6.4,6.4,0,0,1,.8,1.4v0h0c.4.8.7,1.7,1.1,2.5l1.2,2.3-.2-.3c.3.6.5,1.3.8,2s.6,1.2.9,1.9a12.9,12.9,0,0,0,.4,1.9c.2.6.3,1.2.5,1.9v.3Z"/><path d="M294.7,163.4a3.2,3.2,0,0,0-2.4-1.1,4.4,4.4,0,0,0-3,.1,3.8,3.8,0,0,0-2.3,2.5,5.3,5.3,0,0,0-.1,3.5,4.2,4.2,0,0,0,2.6,2.3,4.7,4.7,0,0,0,1.7.3,4.3,4.3,0,0,0,2.2-.6,4.4,4.4,0,0,0,2.3-3,5.4,5.4,0,0,0-.1-2.2A6.1,6.1,0,0,0,294.7,163.4Z"/><path d="M179.3,163.2h.2a3,3,0,0,0,2.8-3.6c.1-.2.1-.5.2-.7a.6.6,0,0,1,.1-.4v.2h0v-.2h0c.3-.9.8-1.8,1.2-2.7l1.2-2.4.5-.8.3-.4c.9-1.1,1.9-2.1,2.8-3l.5-.4.4-.3.5-.2a2.9,2.9,0,1,0-2.3-5.3,10.6,10.6,0,0,0-2.1,1.1,14.1,14.1,0,0,0-1.8,1.7l-1.6,1.7a13.7,13.7,0,0,0-2.1,2.8l-1.2,2.4v-.3l-1.5,3.2a7.8,7.8,0,0,0-.9,4.7A2.9,2.9,0,0,0,179.3,163.2Z"/><path d="M298.3,141.8l.4.2h.1a25.3,25.3,0,0,0,1.3,2.2l.9,1.5,1.1,1.6h.1l.9,2h0v.4a3.1,3.1,0,0,0,3,2.5h.3a2.8,2.8,0,0,0,2.5-3.2,5.3,5.3,0,0,0-.4-1.7,3.6,3.6,0,0,0-.4-.9c-.2-.6-.5-1.2-.7-1.7a11.3,11.3,0,0,0-1.5-2.1l-1.5-2.6a9.5,9.5,0,0,0-1-1.7,8.6,8.6,0,0,0-2.6-2c-1.4-.5-2.8-1-4.2-.2a3.1,3.1,0,0,0-1.4,3.4A2.9,2.9,0,0,0,298.3,141.8Zm.4.2Z"/><path d="M325.4,181.1l-6-2.8a26.9,26.9,0,0,0-5.7-1.7l.3-.2h.1l.7-.3,3.1-.8,3-.5a3,3,0,0,0,2.5-3.3,2.9,2.9,0,0,0-3.3-2.5,35.5,35.5,0,0,0-4.7.9l-2.1.6-1.9.7c-.4.3-1,.5-1.3.9a2.9,2.9,0,0,0,0,4.1l.3.3h-.3a2.9,2.9,0,0,0,0,5.8h3.4l1.9.5c2.6,1,5.2,2.2,7.8,3.5l1,.2a3.1,3.1,0,0,0,2.8-1.8A3,3,0,0,0,325.4,181.1Z"/><path d="M200,191.9l.3.2h0Z"/><path d="M200.3,192.1h0Z"/><path d="M225.8,184.8l-2.3,1.2-1,.4a24,24,0,0,1-3.8,1.2l-3.7.5-4,.6h-2.6l-2.3-.3-.6-.2-.8-.3-1.3-.8-.9-.4a3,3,0,0,0-3.6,2.1,2.9,2.9,0,0,0,1.7,3.4h-.3a12.2,12.2,0,0,0,2.8,1.4,22.7,22.7,0,0,0,5.8,1h.6a45,45,0,0,0,6.3-.7,33.4,33.4,0,0,0,6.3-1.2l3-1a24.9,24.9,0,0,0,2.8-1.5h.2a3,3,0,0,0,1.5-3.8A2.9,2.9,0,0,0,225.8,184.8Z"/><path d="M287.7,184.1l-1.8.7h-2.3l-3.2-.3-3.6-.5a25,25,0,0,0-3.8-.6l-2.9-.4-4-1-1.5-.6-.9-.3a2.8,2.8,0,0,0-3.2,1,2.9,2.9,0,0,0,.5,4.1,7.6,7.6,0,0,0,1.6.6,15.7,15.7,0,0,0,2.3.9l1.7.4,3.4.8,3.1.3,3,.5a45.2,45.2,0,0,0,6.3.8h3.3a16.4,16.4,0,0,0,4.3-1.3,2.9,2.9,0,0,0,1.5-3.8A3,3,0,0,0,287.7,184.1Z"/></svg>