<?xml version="1.0" encoding="utf-8"?>
<!-- Generator: Adobe Illustrator 25.2.1, SVG Export Plug-In . SVG Version: 6.00 Build 0)  -->
<svg version="1.1" id="Layer_2_1_" xmlns="http://www.w3.org/2000/svg" xmlns:xlink="http://www.w3.org/1999/xlink" x="0px" y="0px"
	 viewBox="0 0 500 500" style="enable-background:new 0 0 500 500;" xml:space="preserve">
<style type="text/css">
	.st0{fill:#00FF00;}
</style>
<polygon class="st0" points="190.7,112.6 160.8,124.9 149,148.4 151,158.8 167.9,160.1 191.4,150.3 215.5,138 220.1,124.3 
	214.9,117.1 "/>
<polygon class="st0" points="294.2,106.3 330,116.1 345.3,138.5 343.8,149.1 324.2,151.8 296.2,144.1 267.3,133.8 261,120.5 
	266.5,112.9 "/>
<path d="M350.4,133.2c-0.9-2.8-2.2-5.4-4-7.7l-2.9-3.3c-1.4-1.5-2.9-2.9-4.5-4.1l-3.3-2.3c-1.7-1.1-3.3-2.4-4.9-3.6
	c-2.9-2.2-6.2-3.8-9.7-4.7c-3.4-0.9-6.9-1.5-10.4-2.2s-7.6-2.2-11.4-3c-3.3-0.8-6.6-1.4-10-1.6H289c-1.3-0.4-2.7-0.6-4-0.4
	c-1.7,0.1-3.3,0.3-4.9,0.7c-3.7,0.6-7.4,1.8-10.7,3.6c-3.1,1.8-6.4,4.3-8.1,7.6c-0.9,1.5-1.5,3.1-2,4.8c-0.2,1.1-0.4,2.1-0.7,3.2
	c-0.5,2.1-0.7,4.2-0.6,6.3c0.1,1.7,0.4,3.4,0.9,5c0,0.2,0.1,0.3,0.2,0.5l-0.4,0.3c-1.9,2-1.9,5.1,0,7.1l1.6,1.4
	c-0.4,0.8-0.7,1.7-0.7,2.6c0,1.9,1.1,3.6,2.8,4.5c0.4,0.7,0.8,1.4,1.1,2.2c1.2,2.7,2.5,5.4,4,8c2.7,4.8,6.7,8.7,11.6,11.3
	c5.4,3,11.2,4.9,17,6.8l1.3,0.2c2.3-0.1,4.2-1.5,4.9-3.7c0.7-2.7-0.9-5.4-3.5-6.2l-6.2-2c-2.7-1-5.3-2.1-7.8-3.4
	c-0.9-0.4-1.8-1-2.7-1.5l-2.1-1.7l0,0l-0.4-0.3l0.3,0.3l-1.3-1.4c-0.6-0.7-1.2-1.4-1.7-2.2l-1.2-2l-0.6-1.4l3.2,2.3
	c2.2,1.6,4.3,3.2,6.6,4.6l6.9,3.9l6.9,3.9c2.7,1.6,5.6,3,8.6,4l5.7,1.7c5.4,1.3,11,1.9,16.6,1.9l0,0c2.8,0,5-2.2,5-5s-2.2-5-5-5H325
	l-5.8-0.7c-2.8-0.5-5.5-1.2-8.2-2.1c-1.7-0.6-3.4-1.3-5-2.1c-3.4-1.8-6.7-3.8-10.1-5.7s-4-2.3-6-3.5l8.7,2.5c2.7,1,5.4,2.2,8.1,2.9
	c2.9,0.8,5.8,1.3,8.8,1.6c1.7,0.2,3.5,0.4,5.2,0.4h0.9c2.2-0.1,4.2-0.4,6.3-0.7s4.3-0.7,6.4-1.2c4.8-0.9,9.9-2.8,13.1-6.7
	C350.8,143.8,351.9,138.3,350.4,133.2z M339.5,141.6l-1.3,1l-0.7,0.5l-1.8,0.7c-1,0.4-2.1,0.7-3.2,0.9c-3.3,0.7-6.7,1.3-10.1,1.6
	c-1.1,0.1-2.2,0.1-3.3,0c-2.5-0.2-4.9-0.6-7.3-1c-1.4-0.3-2.8-0.6-4.1-1.1c-2.2-0.8-4.3-1.7-6.5-2.4l-6.6-1.9l-13.7-3.7
	c-3-1.1-5.9-2.3-8.7-3.6l-1.3-0.7c-0.1-0.2-0.3-0.3-0.5-0.4l-0.6-0.6l-0.5-0.8c-0.3-0.4-0.6-0.9-0.8-1.4l0,0v-0.2l0,0
	c-0.2-0.3-0.3-0.7-0.4-1c0-0.3,0-0.5-0.1-0.8V125c0.2-1.7,0.5-3.4,0.9-5l0.3-1.3c0.1-0.4,0.3-0.7,0.5-1.1l0.4-0.8l0.8-1l1.3-1.2
	l-0.5,0.4l1-0.8l2.1-1.2l2.5-1.1l4.6-1.2l2.2-0.4c0.6,0.2,1.2,0.3,1.8,0.3h2.1c2.7,0.2,5.4,0.6,8.1,1.1c3.1,0.7,6.2,1.7,9.3,2.5
	s6.2,1.3,9.3,1.9s3.7,0.9,5.5,1.5l1.6,0.7l2,1.1c1.5,1.1,3,2.4,4.5,3.4l4.3,2.9l1.5,1.1c0.9,0.8,1.7,1.7,2.5,2.6
	c1,1.1,2,2.3,2.9,3.5l0.5,1c0.2,0.4,0.4,0.8,0.5,1.2l0,0c0.1,0.1,0.1,0.2,0.2,0.4c-0.1-0.1-0.1-0.2-0.1-0.3l0.3,1.2
	c0.1,0.3,0.1,0.6,0.1,0.9l0,0.5v0.7c-0.1,0.3-0.3,0.7-0.4,1.1c-0.1,0.3-0.2,0.7-0.4,1l-0.3,0.6l0,0"/>
<circle cx="171" cy="143.2" r="5"/>
<circle cx="323.6" cy="136" r="5"/>
<path d="M226.1,135.3l-0.8-0.6c2.9-4.4,3.3-10,1-14.8c-1-2.4-2.5-4.6-4.3-6.4c-1.6-1.4-3.3-2.6-5.2-3.6c-2.5-1.6-5.3-2.6-8.3-2.9
	c-0.9-2.4-3.5-3.7-6-3l-1,0.2c-2.4,0.4-4.8,0.8-7.2,1.4s-4.5,1.2-6.7,1.9c-4.9,1.4-9.8,3.1-14.5,5c-2.3,1.1-4.7,2-6.9,3.3
	c-2.7,1.7-5.1,3.7-7.4,5.9c-2.2,2.2-4.2,4.6-6,7.1c-1.8,2.6-3.5,5.2-5.1,8c-1.5,2.7-2.6,5.6-3.1,8.7c-0.7,3.3-0.8,6.8-0.1,10.1
	c0.7,3.2,2.7,5.9,5.4,7.6c2.9,1.6,6.2,2.4,9.5,2.5h1.2c1.2,0,2.5-0.1,3.7-0.3l4-0.8c5.8-1.1,11.5-2.6,17.1-4.4
	c2.4-0.9,5-1.7,7.4-2.8c2.7-1.3,5.3-2.8,7.9-4.4l4.5-2.6c-1.7,1.4-3.4,2.8-5.2,4.1c-4.3,2.7-8.5,5.5-13,7.9
	c-2.8,1.3-5.7,2.5-8.6,3.6l-1.3,0.4l-1.6,0.2h-1.6c-1.3-0.2-2.7,0-3.9,0.6c-1.1,0.8-2,1.9-2.4,3.2c-0.7,2.7,0.9,5.4,3.5,6.2h2.4
	c1.5,0.1,3.1,0.1,4.6-0.2c2.1-0.4,4.2-1,6.2-1.8c2.4-0.9,4.6-2.1,6.9-3.1c4.4-2.3,8.8-5,12.9-7.8c2.4-1.5,4.6-3.1,6.7-4.9l1.3-1
	c-0.8,1.3-1.5,2.6-2.4,3.9s-3.3,4.3-5,6.5s-2.7,2.7-4,4s-2.5,2.3-3.6,3.5c-1.9,1.8-2.1,4.6-0.6,6.7l10.8-2.6
	c1.1-1.1,2.4-2.2,3.5-3.4c2.5-2.9,4.9-5.9,7.1-8.9c2.1-3.1,3.9-6.3,5.5-9.6c0.6-1,1.1-2,1.5-3.1c0.6-1.3,1-2.8,1.3-4.2
	c0.4-1.6,0.7-3.3,1.1-4.9h0.1v-0.2c0.9-1.7,0.9-3.7-0.2-5.3C227.8,138.5,227.4,136.6,226.1,135.3z M154.2,153.7l0.3,0.4l0,0
	L154.2,153.7z M197.6,143.2c-2.4,1.5-4.9,3-7.5,4.4s-6,2.4-9.1,3.5l0.5-0.2c-5,1.7-10,3-15.2,3.9h0.3c-1.6,0.4-3.3,0.7-5,0.9h-2.7
	l-1.9-0.2l-0.7-0.2l-0.7-0.3l-0.5-0.3l-0.3-0.2l0.5,0.4l-0.8-0.7h0.1l-0.2-0.2v-0.2c-0.1,0-0.1-0.1-0.1-0.2v-0.3
	c0-0.4-0.1-0.7-0.1-1.1v-2.4l0.3-2.7c0.2-0.7,0.4-1.5,0.7-2.2c0.3-1,0.7-1.9,1.2-2.8c0.8-1.6,1.8-3.2,2.8-4.8s2.3-3.3,3.5-4.9
	s3.6-3.9,5.5-5.7l1.8-1.3c0.9-0.6,1.8-1.2,2.8-1.7c3.6-1.7,7.4-3.2,11.2-4.5h-0.1c4.9-1.6,9.8-3.2,14.8-4.4l1.2-0.2
	c0.3,1.1,0.9,2.1,1.8,2.9c2,1.4,4.8,1.2,6.6-0.5h0.1l1.9,0.6l-0.7-0.2l0.6,0.3l4.4,2.5l0.7,0.6l0.4,0.3l0.3,0.5l0.6,1v0.1l0.2,0.2
	c-0.1,0-0.1,0-0.1-0.1l1.1,2.3v0.2c0,0.1,0.1,0.3,0.1,0.4v0.5c-0.1,0.6-0.1,1.2-0.2,1.7c-0.1,0.5-0.1,0.3-0.1,0.4v0.2l-0.2,0.4
	l-1.5,1.8l-2.1,2.2c-1.6,1.3-3.3,2.4-4.9,3.5l-4,2.7L197.6,143.2z"/>
<path d="M263.7,96.7l0.9-0.6c3.5-1.8,7-3.3,10.7-4.7c1.6-0.6,3.2-1,4.9-1.4c2.1-0.4,4.1-0.6,6.2-0.8c3.9-0.3,7.8-0.4,11.7-0.2
	l5.3,0.7l11.9,2.6l-0.7-0.2l4.2,1.1c2,0.7,4,1.6,6,2.5l1.6,0.9l1.4,1.2c1.8,1.7,3.3,3.5,5.2,5.1l4.9,4.1c0.8,0.7,1.9,1.1,3,1.1
	c1.6,0,3.1-0.7,4-2c1.6-2.2,1.2-5.3-0.9-7c-1.5-1.3-3.1-2.5-4.5-3.8l0,0c-1.5-1.4-2.8-2.9-4.3-4.3c-1.2-1.3-2.6-2.3-4.1-3.2
	c-1.3-0.8-2.7-1.5-4.2-2.1c-2-0.9-4-1.7-6.1-2.4l-6.9-1.5c-5.2-1.1-10.2-2.5-15.5-2.8c-2.9-0.2-5.7-0.1-8.6-0.1l-4.8,0.3
	c-2.8,0.4-5.4,0.7-8.1,1.3c-3.3,0.8-6.5,1.9-9.6,3.3c-2.9,1.4-6,2.6-8.7,4.2c-2.4,1.4-3.2,4.5-1.8,6.9
	C258.2,97.3,261.3,98.1,263.7,96.7z"/>
<path d="M145.5,115.3l0.2-0.6l0,0c0.3-0.6,0.6-1.1,1-1.6c0.6-0.9,1.3-1.8,2-2.6h-0.1v-0.2l0.3-0.3c0,0.1-0.1,0.2-0.2,0.3
	c2.6-2.8,5.3-5.5,8.2-8c1.1-1,2.2-1.8,3.4-2.7l4.1-2.4l2.9-1.2l2.3-0.6l3.4-0.5c3.4-0.1,6.9-0.1,10.3,0.2c2.1,0.3,4.3,0.5,6.3,0.9
	s4.1,0.9,6.1,1.1c4.2,0.6,8.3,0.9,12.5,1.6h0.3c1.5,0.7,3.2,0.7,4.6-0.1c2.4-1.4,3.2-4.5,1.8-6.9c-1.8-3.1-6-3.1-9.2-3.5l-7.7-0.9
	c-2.6-0.3-5.2-0.9-7.8-1.4c-2.9-0.4-5.9-0.7-8.9-0.9c-2.8-0.2-5.5-0.2-8.3,0c-3.4,0.2-6.8,0.8-10,2c-3.1,1.2-6,2.9-8.7,4.8
	c-3.1,2.3-6.1,4.8-8.8,7.6c-3.9,3.8-8,7.9-9.7,13.2c-0.7,2.7,0.9,5.4,3.5,6.2l1.4,0.2C142.9,119,144.9,117.5,145.5,115.3z"/>
</svg>
