<svg xmlns="http://www.w3.org/2000/svg" viewBox="0 0 500 500"><defs><style>.cls-1{fill:lime;}</style></defs><g id="Layer_9" data-name="Layer 9"><polygon class="cls-1" points="199 136.4 186.4 147.7 186.4 161.6 196 176 218.1 174.2 228.1 165.6 227.7 147.3 213.8 137.8 199 136.4"/><polygon class="cls-1" points="269.8 132.5 258.9 140.8 256.8 156 266.8 168.6 286.3 169.9 295.9 162.1 302 146.4 297.2 138.2 269.8 132.5"/><path d="M232.8,147.1a26.8,26.8,0,0,0-1.8-3.3,16.6,16.6,0,0,0-6.3-5.2l-3.2-1.3c-2-.9-4.1-1.6-6.1-2.4a22.7,22.7,0,0,0-4.1-2.1l-3.3-1.1-1.3-1.1a6.7,6.7,0,0,0-3.4-.7c-2.6.2-5.1,1.8-7.2,3.2l-2.8,2a29.1,29.1,0,0,0-9.7,11.5,24.5,24.5,0,0,0-1.5,16.2,21.3,21.3,0,0,0,9.1,12.8,32.2,32.2,0,0,0,16.6,4.4h.6a28,28,0,0,0,10.7-1.8,23.8,23.8,0,0,0,7.7-4.8,28.4,28.4,0,0,0,4.5-6.4,23.8,23.8,0,0,0,2-6.9,30.6,30.6,0,0,0,.5-3.2,22.2,22.2,0,0,0-.2-6.3A20.9,20.9,0,0,0,232.8,147.1Zm-7.9,13.3c-.2.7-.3,1.4-.5,2l-.5,1a19.8,19.8,0,0,1-1.1,2h0l-1.2,1.6-1,1-.9.7-2.2,1.2a7.2,7.2,0,0,1-2,.9l-2,.6-2.3.3a41.7,41.7,0,0,1-5,0,22,22,0,0,1-3.7-.5l-2.7-.7-3.1-1.3-1.6-.9h0l-.4-.3.4.2-1-.7-1.1-1.1-.9-1.2-1-1.6c-.2-.6-.5-1.1-.7-1.7a13.3,13.3,0,0,1-.5-1.9l-.3-1.8v-2l.3-2.2a26.8,26.8,0,0,1,.7-2.7c.3-.6.5-1.2.8-1.9l1.2-2.1,1.6-1.9,1.9-2a53.4,53.4,0,0,1,4.8-3.5l2.1-1.3.3.2.6.2,1.1.5,2.4.7,1.6.6c1.3.7,2.5,1.4,3.7,1.9a20.8,20.8,0,0,0,3.2,1.2l5.5,2.3,1.4.8.4.4.5.4.6.9a4.1,4.1,0,0,1,.5.9l.3.5c0,.2.1.5.1.7s.4,2.3.5,3.5v.8A45.1,45.1,0,0,1,224.9,160.4Z"/><path d="M183.5,128.5a8,8,0,0,0,3.4.7H193a79.5,79.5,0,0,0,8.4-.8c2.5-.4,5-.9,7.5-1.1l8.8-.8a4.1,4.1,0,0,0-1.1-8.2l-11.7,1.2-4.6.7-5.2.7-7.3.2a4.1,4.1,0,0,0-4.6.5h.1a2.9,2.9,0,0,0-1.3,1.4,4.5,4.5,0,0,0-.4,3.2A3.7,3.7,0,0,0,183.5,128.5Z"/><path d="M306.1,146.3a14.2,14.2,0,0,0-2.8-6.7,14.8,14.8,0,0,0-2.9-2.7,37.5,37.5,0,0,0-3.6-2.4,27,27,0,0,0-5.4-2c-2.5-.6-4.9-.9-7.4-1.3l-1.3-.3-.3-.2h-.1a4.3,4.3,0,0,0-2.5-.5,2.8,2.8,0,0,0-1.1-1.3,3.9,3.9,0,0,0-3.1-.8h-.2l-3.6.2a16.9,16.9,0,0,0-6.8,3.1c-4.6,3.3-9,7.3-11,12.7a16,16,0,0,0-1,8.1,45.9,45.9,0,0,0,1,5.1,22.1,22.1,0,0,0,3.4,7.1,18,18,0,0,0,5.1,5.2c3.4,2.2,7.4,3,11.3,3.7a53.6,53.6,0,0,0,6.9.6h4.7a17.6,17.6,0,0,0,7.9-2.9,21.3,21.3,0,0,0,5.6-5.2l2.6-3.7-.3.4a26.9,26.9,0,0,0,2.8-4.6,25.1,25.1,0,0,0,1.6-4.6A16.1,16.1,0,0,0,306.1,146.3Zm-8.6-.4v0a.3.3,0,0,1-.1-.2.3.3,0,0,0,.1.2h0Zm-.6-1h0Zm1.2,4a1.5,1.5,0,0,1-.1.7c-.3,1.3-.7,2.6-1.1,3.9l-.4,1a14,14,0,0,1-1,1.6l-2.2,3.3.3-.4a25.6,25.6,0,0,1-2,2.6l-.6.7-1.7,1.3a17.1,17.1,0,0,1-2.3,1.3l-1,.4-.5.2-1.5.2-5.4-.2a37.8,37.8,0,0,1-4.7-.6l-5.2-1.3-1.2-.6h0l-.4-.2-.8-.6-.7-.7a13.3,13.3,0,0,1-1.4-1.9,13.7,13.7,0,0,1-1.3-2,11.2,11.2,0,0,1-.5-1.3,23.7,23.7,0,0,1-.9-3.6,22.3,22.3,0,0,1-.4-2.3,6.1,6.1,0,0,1,.1-1.4c0,.2-.1.3-.1.5s.1-.7.2-1.1a10.3,10.3,0,0,1,.4-1.4l.6-1.4a4.1,4.1,0,0,1,.7-1.1,6.4,6.4,0,0,1,1-1.3l2.4-2.4,3.4-2.7a11.8,11.8,0,0,1,1.9-1.1l.7-.3h0l.3-.2h.9a15.1,15.1,0,0,0,3-.2,2.9,2.9,0,0,0,1.5,1.6,11.7,11.7,0,0,0,4.1,1.4l2.5.5,3.4.5,3,.8,1.8.8,1.4.8,1.8,1.4a4.6,4.6,0,0,0,.7.7l.3.5.3.5.2.6a7.5,7.5,0,0,1,.4,1.6.7.7,0,0,1,.1.5Z"/><path d="M271.4,124.2h3.7a40.8,40.8,0,0,0,6.1-.9,64.5,64.5,0,0,0,6.2-2.1h.6a4.1,4.1,0,0,0,4.1-4.1,4.2,4.2,0,0,0-4.1-4.1,12.9,12.9,0,0,0-4.4,1l-2,.8a21.1,21.1,0,0,1-3.6.9l-2.5.4c-3,.1-6.1,0-9.1-.2l-8.8-.6-.8-.5a4.2,4.2,0,0,0-5.4,2.2h0l-.3.7a3.9,3.9,0,0,0,1.1,4c1.6,1.9,4.3,1.8,6.6,1.9C263,123.7,267.2,124.1,271.4,124.2Z"/><path d="M277.6,148.9a4.1,4.1,0,1,0,4.1,4.1A4.2,4.2,0,0,0,277.6,148.9Z"/><circle cx="207.7" cy="157.4" r="4.1"/></g></svg>