<svg id="Layer_4" data-name="Layer 4" xmlns="http://www.w3.org/2000/svg" viewBox="0 0 500 500"><path d="M214.1,157.8a5.1,5.1,0,0,0-6.2,3.5,62.9,62.9,0,0,0-1.1,7.4c-.2,1.6-.3,3.3-.6,4.9l-.3,1-.4,1-.5.8-.4.5a18,18,0,0,1-2,1.9l-1.2.9-.5.3h-.8l-2.3-.7-1.6-.7-.7-.4-.7-.5-.4-.3-.6-.9a19.8,19.8,0,0,1-1.1-2c-.9-1.7-1.7-3.5-2.5-5.4a10.5,10.5,0,0,1-.5-1.9,5,5,0,0,0,.5-1.3,6,6,0,0,0-9.9-5.5c-1.3,1.6-1.4,3.9-1.1,5.8a31.8,31.8,0,0,0,1.4,6.1,38.1,38.1,0,0,0,2.8,6.2c1.6,3.2,3.4,6.2,6.5,8.2a24.6,24.6,0,0,0,7.9,3.1l2.7.3a11.1,11.1,0,0,0,4.3-.9,24.4,24.4,0,0,0,4.3-2.8,21.3,21.3,0,0,0,6.4-8.7,31.3,31.3,0,0,0,1.2-6.8,48.4,48.4,0,0,1,.9-6.5,1.3,1.3,0,0,1,.1-.6A5.1,5.1,0,0,0,214.1,157.8Z"/><path d="M304.3,152.5a5.2,5.2,0,0,0-5.7,4.4,35.6,35.6,0,0,0-.8,5.7c-.2,1.4-.3,2.9-.6,4.4a25,25,0,0,1-.7,2.6c-.3.6-.5,1.3-.8,1.9l-.9,1.4a1.8,1.8,0,0,1-.5.7l-.4.5.2-.2h0l.3-.3-.3.3h0l-.3.3h-2.2l-1.8-.3-1.7-.5-2.5-1.1-1.8-.9-.4-.4-.2-.2-.2-.2-.3-.5-.6-1.6a50.9,50.9,0,0,1-1.4-5.6c-.3-1.3-.5-2.7-.7-4.1v-.4a4.1,4.1,0,0,0,.5-2.9A5.3,5.3,0,0,0,278,152a5.1,5.1,0,0,0-6.2.8c-1.7,1.8-1.9,4.3-1.9,6.6a35.5,35.5,0,0,0,1,6.4c.7,3.2,1.3,6.6,3,9.5a13,13,0,0,0,5.1,5.3,25.3,25.3,0,0,0,3.7,1.8,23.4,23.4,0,0,0,9,2.2h.3a11.5,11.5,0,0,0,7.4-2.1,15.9,15.9,0,0,0,5.1-6.1,30.9,30.9,0,0,0,3-9.8c.2-1.2.2-2.5.4-3.8s.4-3,.7-4.5A5.2,5.2,0,0,0,304.3,152.5Z"/></svg>