<svg id="Layer_6" data-name="Layer 6" xmlns="http://www.w3.org/2000/svg" viewBox="0 0 500 500"><defs><style>.cls-1{fill:lime;}</style></defs><path class="cls-1" d="M275.5,134a22.5,22.5,0,0,0-19.4,11.3,16.6,16.6,0,0,0-11.6-4.6,17,17,0,0,0-15.8,10.8,17.7,17.7,0,0,0-13.5-6.1,18,18,0,0,0,0,36,18.2,18.2,0,0,0,17-12,17.1,17.1,0,0,0,25-.3A22.3,22.3,0,1,0,275.5,134Z"/><path d="M297.6,146.9a18.1,18.1,0,0,0-2.6-4.7,23.8,23.8,0,0,0-7.1-5.5,34.9,34.9,0,0,0-7-2.7,49.8,49.8,0,0,0-6.7-1.4c-3.5-.4-7.1-.4-10.1,1.8a19.4,19.4,0,0,0-5.3,6.4l-1.6-.8a20,20,0,0,0-5.9-1.7l-3.6-.6a22,22,0,0,0-3.6-.4,8.7,8.7,0,0,0-3.6-.1c-3.4.6-6.5,2.7-9.3,4.8a26.9,26.9,0,0,0-3.2,2.7l-.8-.7a18.5,18.5,0,0,0-20.7-.8,26.7,26.7,0,0,0-11.1,13.4,22.6,22.6,0,0,0-1.2,6.8,22.1,22.1,0,0,0,.5,7.7A21.9,21.9,0,0,0,203,183a17.8,17.8,0,0,0,10.6,3h2.3a22.5,22.5,0,0,0,9.8-2.7,10.2,10.2,0,0,0,4.4-4.1,16.3,16.3,0,0,0,1.1-2.3l.5.3a24.5,24.5,0,0,0,7.3,3,17.2,17.2,0,0,0,3.9.4h3.4a18.9,18.9,0,0,0,7-1.7,41.6,41.6,0,0,0,4.2-2.3,27.9,27.9,0,0,0,4.9,4.2,19.1,19.1,0,0,0,8.5,3.7l3.4.2a18.1,18.1,0,0,0,4-.4,22.5,22.5,0,0,0,7.1-2.6,55.8,55.8,0,0,0,5.6-3.9,17.6,17.6,0,0,0,4.4-5,27.9,27.9,0,0,0,2.8-6.6,29.3,29.3,0,0,0,1.1-7.3,31.2,31.2,0,0,0-.5-7.5C298.4,149.8,298.1,148.3,297.6,146.9Zm-29.3-5h0Zm-45.4,32.7v.2a.1.1,0,0,1,.1-.1h0l-.3.4c-.1.1-.2.1-.2.2l-.3.2-1.3.7-1.3.5h0l-1,.3-3.4.5h-2.8l-1.8-.3-.7-.2h.3l-.9-.3-1.1-.6a6.3,6.3,0,0,1-1.2-1h0l-1.1-1-1.1-1.4-1-1.8a6.1,6.1,0,0,1-.5-1.2c-.1-.4-.3-.8-.4-1.3a11,11,0,0,1-.2-1.8v-2.4c.1-1.1.2-2.3.4-3.4l.3-1.2c.3-.6.5-1.3.8-1.9a22.6,22.6,0,0,1,1.6-2.6h0a7.6,7.6,0,0,1,.8-1.1l-.2.2.2-.2.2-.3-.2.2,1.4-1.3a25.1,25.1,0,0,1,2.4-1.9l1.7-1,1.4-.5.7-.2,1.6-.2h.6l1.8.2,1.6.4.8.4,1.7,1h0a3.9,3.9,0,0,0,1,.8,16.6,16.6,0,0,0-1.2,4.5,23.5,23.5,0,0,0,0,7,25.9,25.9,0,0,0,2.9,7.1,10.9,10.9,0,0,0-.8,1.5Zm27.5-3.9h0l-1.6.7-.7.2-3.7.4H241l-1.4-.4-2.1-.9-2-1.1-1.5-1.2-.5-.5-.9-1.1c-.3-.6-.7-1.1-1-1.8l-1-2.2-.3-1.2a1.3,1.3,0,0,0-.1-.6,10.9,10.9,0,0,1,.1-1.8c.1-1.1.2-2.1.4-3.2l.3-.9a6.1,6.1,0,0,1,.5-1.2.8.8,0,0,0-.2.5,4.1,4.1,0,0,1,.5-.9l1.3-1.8,1.3-1.3c1.1-1,2.3-1.8,3.5-2.7l-.2.2.3-.2h0l2.1-1.3,1.3-.6h0a4.3,4.3,0,0,0,2.2.6,3.9,3.9,0,0,0,1.8-.4l5.6,1,1.7.4,1,.4,2.2,1.3a3.9,3.9,0,0,1,1,.8l.6.5,1,1.3a4.1,4.1,0,0,1,.5.9l.6,1.4a2.4,2.4,0,0,1,.2.8,1.3,1.3,0,0,1,.1.6v.4a.6.6,0,0,1-.1-.4,24.1,24.1,0,0,1,0,3.8v.5c-.3,1.2-.7,2.4-1.1,3.6l-.3.6h0l-2.4,2.9L255,168l-.6.4C253.1,169.2,251.8,170,250.4,170.7Zm39.9-8.2a17.1,17.1,0,0,1-.9,3l-.7,1.8-.9,1.5-.4.6-1.1,1c-1.1.9-2.2,1.8-3.4,2.6l-2.3,1.5-1.4.6-2.7.7-1.6.2h-1.5l-1.8-.2h-.5l-2.2-1-1-.6-2.7-2-1.1-1.1-.2-.3a16.5,16.5,0,0,0,2.8-4.4,28,28,0,0,0,1.3-4.1,21.2,21.2,0,0,0,.4-5.6,14.4,14.4,0,0,0-.9-5.8,20.6,20.6,0,0,0-2.3-4.4l.6-.8a23.9,23.9,0,0,1,1.3-2.1l1-1.4a.8.8,0,0,0,.4-.4l.5-.4.3-.2h2.9l3.2.4,4.9,1.3h0l3.5,1.4,2.6,1.7,1.1.8c.1.1.3.2.4.4a14.7,14.7,0,0,1,1,1.3,2.1,2.1,0,0,1,.4.6c.1.2.1.3.2.4s.7,2.6,1,4l.3,1.6c0,1.2.1,2.4,0,3.6A29.1,29.1,0,0,1,290.3,162.5Z"/><path d="M243.3,158.6a4.2,4.2,0,0,0-4.2,4.2,4.3,4.3,0,0,0,4.2,4.3,4.4,4.4,0,0,0,4.3-4.3A4.3,4.3,0,0,0,243.3,158.6Z"/><circle cx="283.4" cy="161.8" r="4.3" transform="translate(-7 13) rotate(-2.6)"/><path d="M213.8,164.6a4.3,4.3,0,0,0-4.3,4.2,4.4,4.4,0,0,0,4.3,4.3,4.3,4.3,0,0,0,4.2-4.3A4.2,4.2,0,0,0,213.8,164.6Z"/><path d="M269.3,189.4H269l-2.2.6-2,.3h-1.3l-1-.3-.6-.3-3.8-2.2a12.5,12.5,0,0,0-3.6-1.5l-2.9-.3c-1.2-.1-2.3,0-3.4,0a28,28,0,0,0-2.9,0l-2.5.5h-3.3l-3.4-.8-1.6-.5-2.1-.3a8.2,8.2,0,0,0-3.5.8,18.7,18.7,0,0,0-4.8,3.7l-1.3,1-.4.3-.6.2-.9.2-1.6.2h-3l-1.3-.4a4.3,4.3,0,0,0-4.5.4,4.4,4.4,0,0,0-.8,6,6.1,6.1,0,0,0,3.4,1.9,16.1,16.1,0,0,0,4.9.6h1a17.3,17.3,0,0,0,6.4-1.2,17.7,17.7,0,0,0,4.6-3.1,12.9,12.9,0,0,0,1.7-1.6l.5-.3.2-.2.9.3a29.9,29.9,0,0,0,3.2.8,19,19,0,0,0,5.4.6l3.5-.5h-.6l1.1-.2c2-.1,4.1-.1,6.1,0h1.3c3,1.7,5.9,4,9.5,4.2a25.1,25.1,0,0,0,5.5-.3,30.6,30.6,0,0,0,4.3-1.3,4.2,4.2,0,0,0-3.3-7.8Z"/><path d="M301.1,152a4.3,4.3,0,0,0,2.6.9,4.1,4.1,0,0,0,3.2-1.5h.1l.5-.4h.3l.3-.2.7-.2a4.3,4.3,0,0,0,3-5.2,4.4,4.4,0,0,0-5.3-3,12,12,0,0,0-6.2,3.9A4.3,4.3,0,0,0,301.1,152Z"/><path d="M306,164.3h.7a4.3,4.3,0,0,0,4.1-3.7,4.2,4.2,0,0,0-3.4-4.7,3.9,3.9,0,0,0-1.7-1.4,4.3,4.3,0,0,0-5.6,2.3,5,5,0,0,0-.2,4.3,4.9,4.9,0,0,0,2.6,2.5C303.6,164,304.9,164,306,164.3Z"/><path d="M310.2,167.2a4.1,4.1,0,0,0-3.4-2.8A4.3,4.3,0,0,0,302,168a6.5,6.5,0,0,0,.8,4.1,6.8,6.8,0,0,0,4.4,3h1a4.3,4.3,0,0,0,4.2-3.1A4.3,4.3,0,0,0,310.2,167.2Z"/><path d="M182.4,156.8a13.4,13.4,0,0,1,2,0l2.5.3,1.9.6,1.1.4H191a4.2,4.2,0,0,0,4.1-3.1,4.2,4.2,0,0,0-2.9-5.2h0a21.5,21.5,0,0,0-5.4-1.4l-4.4-.2a4.2,4.2,0,0,0-4.2,4.2A4.3,4.3,0,0,0,182.4,156.8Z"/><path d="M188.6,160.8a28.4,28.4,0,0,0-7.7.8,4.4,4.4,0,0,0-2.9,5.3,4.3,4.3,0,0,0,4.1,3.1l1.1-.2,1-.2,1.6-.2h2.8a4.2,4.2,0,0,0,4.2-4.2A4.3,4.3,0,0,0,188.6,160.8Z"/><path d="M184.6,172.3a24.8,24.8,0,0,1-2.6,1.9,16,16,0,0,0-4.2,4.4,4.2,4.2,0,0,0,1.5,5.8,4.2,4.2,0,0,0,5.8-1.5l.3-.4h.1a2.3,2.3,0,0,1,.7-.7l-.4.4c1.3-1.1,2.7-2,4-3a4.3,4.3,0,0,0-5.2-6.8Z"/></svg>