<svg id="Layer_7" data-name="Layer 7" xmlns="http://www.w3.org/2000/svg" viewBox="0 0 500 500"><defs><style>.cls-1{fill:lime;}</style></defs><polygon class="cls-1" points="159.5 143.2 171.9 120.4 192.1 110.6 208.3 113.2 224.6 139.9 224.6 145.8 163.4 149 159.5 143.2"/><polygon class="cls-1" points="257.9 139.9 265 118.4 290.4 101.5 309.3 102.1 321.1 119.1 328.9 138.6 285.9 138.6 257.9 139.9"/><path d="M228.2,142.3c-.6-1.3-1.3-2.5-2-3.7a55.9,55.9,0,0,1-2.2-5.7,27.5,27.5,0,0,0-1.5-3.6l-.6-1.4a34,34,0,0,0-2.3-5.7,34.2,34.2,0,0,0-4.5-7.3c-2.2-2.7-4.9-5.4-8.1-6.8a23.5,23.5,0,0,0-7.3-2.1,30.6,30.6,0,0,0-8,.1,29.2,29.2,0,0,0-9.6,3.1,51.9,51.9,0,0,0-6.6,3.5,31.6,31.6,0,0,0-7.9,6.6,32.5,32.5,0,0,0-4.3,6.8c-1.3,2.4-2.4,4.9-3.5,7.3a50.1,50.1,0,0,0-2.5,7.1,20.3,20.3,0,0,0-.7,4.3v1a4.5,4.5,0,0,0-2.7-1h-6.2a41.6,41.6,0,0,0-9.3.6,4.4,4.4,0,0,0-2.9,5.3,4.3,4.3,0,0,0,4.1,3.1l1.1-.2h.4l1.5-.2c2.9-.1,5.9,0,8.8,0a23.8,23.8,0,0,0-9.1,9.5,4.4,4.4,0,0,0,1.5,5.9,5,5,0,0,0,2.1.5,4,4,0,0,0,3.7-2.1c.4-.6.7-1.2,1.1-1.7l1-1.4,1.6-1.6c.7-.5,1.3-1.1,2-1.5l.8-.5a4.7,4.7,0,0,1,1.5-.6h-.2a4.3,4.3,0,0,0-.1-8.2,5.3,5.3,0,0,0,.8-1.7l1.1.8a4.2,4.2,0,0,0,4,2.9h.6l3.8-.6,2.7-.6,3-.4,6.6-.5,7.7-.2c2.7-.1,5.3-.1,8,0h8l7.6-.6a45.6,45.6,0,0,1,6.4-.2,44.6,44.6,0,0,1,5.1.7c1.8.4,3.6.7,5.2-.5a4.5,4.5,0,0,0,1.4-5.1C229,144.6,228.6,143.4,228.2,142.3Zm-12.7-.3-7.8.5h0a6.1,6.1,0,0,0,2.3-8.8l-.4-.5a3.7,3.7,0,0,0-.8-1.8h0a4.6,4.6,0,0,0-2.3-1.8,5.7,5.7,0,0,0-4.6.1,6.3,6.3,0,0,0-3.5,4.1,7.2,7.2,0,0,0,.3,5.2,7.4,7.4,0,0,0,4.5,3.8h-13l-8.4.2c-2.4,0-4.9.3-7.3.5h-.2a34.2,34.2,0,0,0-4.5.4l-4.2.9h-.5l.3-1.4a21.2,21.2,0,0,1,.9-3.1c1.1-2.9,2.3-5.8,3.7-8.7s2.1-4,3.3-5.9l.9-1.1,1.3-1.4c1.4-1.2,2.9-2.2,4.4-3.3l3.3-1.9c2.3-1.1,4.5-2,6.9-2.9l1.3-.4,2.8-.3a25.4,25.4,0,0,1,3.9,0l1.9.3,2.1.6a3.5,3.5,0,0,1,1.4.6,3.1,3.1,0,0,1,1,.5l.7.6a23.7,23.7,0,0,1,2.8,2.7l1.2,1.5a42.3,42.3,0,0,1,2.5,4.2,20.7,20.7,0,0,1,1.5,3.4l.9,2.6,1,2.1a5.9,5.9,0,0,0,.4.8h0l1.8,5.1c.3.9.7,1.7,1,2.6h-2.8Z"/><path d="M334.6,138.2c-.4-1.3-.9-2.5-1.4-3.8a33.1,33.1,0,0,1-1.2-4.2,28.8,28.8,0,0,0-1.5-5,14.2,14.2,0,0,1-.8-1.8c-.3-.6-.5-1.3-.7-1.8l-1.8-3.7A43.1,43.1,0,0,0,325,113a58,58,0,0,0-3.4-5.2,54.4,54.4,0,0,0-3.9-5.5,15.9,15.9,0,0,0-5.7-4.6l-3.5-1.3a13.8,13.8,0,0,0-6-1.3,49.4,49.4,0,0,0-5.3,1l-6.9,1.8a49.3,49.3,0,0,0-7.5,3.1,57.3,57.3,0,0,0-6.2,3.8,59.9,59.9,0,0,0-6.6,4.6,55.9,55.9,0,0,0-6.2,5.7,29.6,29.6,0,0,0-5.3,9.7,25.5,25.5,0,0,0-2.1,8.1l-.3,3.4h0c-.1,2-.4,4.1-.3,6.1a3.1,3.1,0,0,0-.2.8,4.3,4.3,0,0,0,3.6,4.8,16.3,16.3,0,0,0,3.1.3,35.7,35.7,0,0,0,4.6-.4l5.1-.8,10.9-2.3c4.5-.9,9-1.4,13.5-1.9s6.3-.3,9.4-.1l8.1.9a63.6,63.6,0,0,0,8.7.6l4.1-.2h1.5a8.8,8.8,0,0,0,2.8-.1A4.7,4.7,0,0,0,334.6,138.2Zm-10.2-2.6h-5.3c-3.7-.4-7.3-.9-11-1.2a44.3,44.3,0,0,0-6.3-.3l-5.8.2-6.5.8a57.7,57.7,0,0,0-5.8.8c-3.9.7-7.7,1.6-11.6,2.4a68.3,68.3,0,0,1-7.7,1.2l.3-4.1v.2c.1-1.2.2-2.4.4-3.6a27.6,27.6,0,0,1,.8-2.7,38.8,38.8,0,0,1,2.3-5.6l.8-1.5,1.2-1.5,3.3-3.1a52.6,52.6,0,0,1,6.5-4.9h-.1c2.4-1.6,4.9-3.1,7.4-4.5l3.8-1.6a103.7,103.7,0,0,1,10.6-2.8l1.4-.2h.9l4.9,1.9.7.4h.1l-.2-.2a1,1,0,0,0,.5.4l.6.7a30.1,30.1,0,0,1,2.2,2.8l3.9,5.7-.3-.4,1.2,2-.2-.4.2.4h0c.6,1.2,1.1,2.5,1.6,3.7a34.1,34.1,0,0,0,1.7,3.3l-.3-.4a25.2,25.2,0,0,1,1.2,2.9c.4.9.9,1.8,1.3,2.8l.6,2.8c.3.9.5,1.8.8,2.8v.4Z"/><path d="M315.8,122.4a4.1,4.1,0,0,0-3.6-1.6,5.7,5.7,0,0,0-7.6,3.7,7.2,7.2,0,0,0-.2,5.2,6.5,6.5,0,0,0,3.7,3.4,10.9,10.9,0,0,0,2.6.4,7.2,7.2,0,0,0,3.2-.8,6.4,6.4,0,0,0,3.3-4.5,6.9,6.9,0,0,0-.1-3.2A7.9,7.9,0,0,0,315.8,122.4Z"/><path d="M146.7,122h.2a4.4,4.4,0,0,0,4.2-5.2c.1-.3.1-.7.2-1.1s.1-.3.2-.5a.4.4,0,0,0-.1.3h0a.6.6,0,0,1,.1-.4h0c.5-1.3,1.2-2.6,1.8-3.9a37.8,37.8,0,0,0,1.7-3.5,7.5,7.5,0,0,0,.7-1.2l.5-.6c1.4-1.5,2.7-3,4.2-4.4l.6-.6.7-.3.6-.3a4.3,4.3,0,1,0-3.3-7.9,17.8,17.8,0,0,0-3,1.7,15.5,15.5,0,0,0-2.7,2.4l-2.4,2.6a18.4,18.4,0,0,0-3.1,4.1l-1.8,3.5.3-.5c-.8,1.6-1.6,3.2-2.3,4.8a11.7,11.7,0,0,0-1.3,6.9A4.2,4.2,0,0,0,146.7,122Z"/><path d="M321.1,90.7l.6.3h.1c.6,1.1,1.2,2.2,1.9,3.3a23.9,23.9,0,0,0,1.3,2.1l1.7,2.4v.2c.4.9.8,1.9,1.3,2.9h0c0,.2.1.4.1.6a4.2,4.2,0,0,0,4.2,3.6h.6a4.3,4.3,0,0,0,3.6-4.8,10.3,10.3,0,0,0-.5-2.4l-.6-1.3c-.4-.9-.7-1.8-1.1-2.6a33.7,33.7,0,0,0-2.1-3.1L330,88.4a12.8,12.8,0,0,0-1.5-2.5,8.4,8.4,0,0,0-3.8-2.9c-1.9-.8-4.1-1.5-6.1-.3a4.2,4.2,0,0,0-2,4.9A4.4,4.4,0,0,0,321.1,90.7Zm.6.3Z"/><path d="M360.8,148.3l-8.8-4.1a30.3,30.3,0,0,0-8.3-2.4l.4-.3h.1l1-.4,4.7-1.3,4.3-.7a4.3,4.3,0,0,0,3.6-4.8,4.2,4.2,0,0,0-4.8-3.6,55.8,55.8,0,0,0-6.9,1.3l-3.1.9a14.8,14.8,0,0,0-2.7,1,13.7,13.7,0,0,0-2,1.3,4.5,4.5,0,0,0,0,6.1l.5.4h-.5a4.3,4.3,0,0,0,0,8.5h5.1l2.7.8c3.9,1.4,7.6,3.3,11.4,5.1a4.5,4.5,0,0,0,1.6.3,4.3,4.3,0,0,0,1.7-8.2Z"/><path d="M177,164.2l.5.3h0Z"/><path d="M177.4,164.5h0Z"/><path d="M214.8,153.7l-3.3,1.8-1.5.6-5.5,1.7-5.5.8-5.9.9h-3.8l-3.3-.4-1-.3-1.1-.4-1.9-1.1a5.2,5.2,0,0,0-1.3-.6,4.2,4.2,0,0,0-5.2,3,4.2,4.2,0,0,0,2.4,5l-.4-.2a19,19,0,0,0,4,2.1,31,31,0,0,0,8.6,1.5h.9a68.5,68.5,0,0,0,9.1-1,74.2,74.2,0,0,0,9.4-1.8c1.4-.5,2.9-.9,4.2-1.5a41.1,41.1,0,0,0,4.2-2.1h.2a4.3,4.3,0,1,0-3.3-7.9Z"/><path d="M305.6,152.7l-2.7,1.1h-.6l-1.1.2h-1.7l-4.7-.4-5.2-.8-5.5-.9a31.1,31.1,0,0,1-4.4-.6,52.7,52.7,0,0,1-5.7-1.4l-2.3-.9-1.3-.4a4.3,4.3,0,0,0-4,7.4,9.4,9.4,0,0,0,2.3,1l3.4,1.3,2.5.6a40.3,40.3,0,0,0,5,1.1l4.6.5a37.3,37.3,0,0,1,4.4.8c3,.4,6.1.9,9.1,1.1l3,.2h1.9c2.2-.2,4.2-1.2,6.3-1.9a4.3,4.3,0,0,0-3.3-7.9Z"/></svg>