<svg id="Legs_2" data-name="Legs 2" xmlns="http://www.w3.org/2000/svg" viewBox="0 0 500 500"><defs><style>.cls-1{fill:lime;}</style></defs><polygon class="cls-1" points="188.6 370.6 149.5 362.3 133 362.3 123.9 367.1 101.7 376.2 94.7 384.1 76.5 414 65.6 417.5 70 421.8 70 425.8 66.5 431 76.5 430.1 86.9 422.3 88.7 426.6 94.3 430.1 86.1 436.6 92.6 437.5 103.9 432.3 107.3 429.7 116.9 434.4 116.5 437.9 108.6 442.3 113.4 445.3 121.2 441 125.2 439.7 143.8 448.8 143.4 454.4 130.4 462.2 141.2 464 156 454.4 162.1 433.1 183.8 418.4 197.3 399.3 194.7 374.9 188.6 370.6"/><path d="M146.4,372.4h-.1a.1.1,0,0,0-.1.1Z"/><polygon points="146.2 372.5 146.2 372.5 146.2 372.5 146.2 372.5"/><path d="M94.8,417.7Z"/><path d="M198.6,385.9l-.3-3.3c-.2-1-.4-2-.7-3a14,14,0,0,0-.9-2.9,25.9,25.9,0,0,0-1.7-3.8,16.9,16.9,0,0,0-2.1-3.1,4.6,4.6,0,0,0-2.6-1.5,3.3,3.3,0,0,0-1.7.4,4.2,4.2,0,0,0-1.4.9,28.5,28.5,0,0,0-2.3,2.6,1.7,1.7,0,0,0,.2,2.4,1.8,1.8,0,0,0,2.4-.2,20,20,0,0,1,1.9-2.2l.2-.2h.5l.2.2.5.6,1,1.4a24.1,24.1,0,0,1,1.5,3.3l.6,1.5a9.3,9.3,0,0,0,.4,1.3,22.1,22.1,0,0,1,.5,2.5,20,20,0,0,1,.4,2.4h0c.2,2.4.4,4.8.4,7.3a22.8,22.8,0,0,1-.2,2.6,28.2,28.2,0,0,1-.7,3.1l-.6,2.1a18,18,0,0,0-.8,2.1l-1.5,2.8-.9,1.6-1.2,1.7q-1.8,2.3-3.6,4.2c-1.2,1.4-2.5,2.7-3.8,4l.2-.2-.7.7a.1.1,0,0,0,.1-.1c-.1.2-.3.3-.4.4l-3.5,3.2c-1.2,1.1-2.4,2-3.6,3l.2-.2-5.3,4.1-5.3,3.7-1.1.6-.7.3-.9.6a3.6,3.6,0,0,0-.7,1,1.9,1.9,0,0,0-.1.8c-.1.3-.1.7-.2,1v.2h0c-.3,2.4-.6,4.8-1,7.2-.1.8-.2,1.6-.4,2.5s-.4,1.2-.7,1.9l-.7,1.6a6.4,6.4,0,0,1-.8,1.4h0c-.7,1.3-1.5,2.4-2.3,3.6l-1.7,2-2.4,2.1-2,1.4-1.1.6-1.2.6-3.2,1.1a19.8,19.8,0,0,1-2.6.6h-4.4l-1.8-.4,2.4-.7a13,13,0,0,0,2.5-1,10.1,10.1,0,0,0,2.1-1.5l1.3-1.3,1.3-1.4a8.2,8.2,0,0,0,1.8-3.6,5.5,5.5,0,0,0,.1-1.8,4.3,4.3,0,0,1-.1-.5,3.2,3.2,0,0,0-.3-.9,2.4,2.4,0,0,0-.7-1.2l-1.5-1a13.4,13.4,0,0,0-2.4-1.2l-5-2.4-4.9-2.3-3.9-1.9h0a1.5,1.5,0,0,0-.6-.9l.5-.7a16.4,16.4,0,0,1,2.1-2.4l1.5-1.4,1.2-.9.8-.4.6-.2h1.4a1.9,1.9,0,0,0,1.4-2,1.8,1.8,0,0,0-1.2-1.3,6.5,6.5,0,0,0-2.4,0,10.1,10.1,0,0,0-3.3,1.6l-2.5,2.2a30.1,30.1,0,0,0-4.5,6.1l-.3.5-.5.2-1.9,1.2-3.1,1.6-1.4.5H112l.3-.2c.9-.6,1.8-1.1,2.7-1.8l1.2-.8.3-.3.9-.7a7.6,7.6,0,0,0,.9-.9,3.6,3.6,0,0,0,.7-1.7,4.1,4.1,0,0,0-.3-1.6,5.5,5.5,0,0,0-1.8-2.2l-3.7-1.9-4.5-2.1h.1l1.6-1.3a7.1,7.1,0,0,1,1.4-1l.5-.3h.7a1.8,1.8,0,0,0,1.7.3,1.6,1.6,0,0,0,1.1-2.1c-.4-1.4-2.2-1.8-3.4-1.6a9.9,9.9,0,0,0-3.3,1.5,27.6,27.6,0,0,0-2.7,2.3,15.4,15.4,0,0,0-2.3,2.9,13,13,0,0,0-1.4,2.6,1.9,1.9,0,0,0-1.2.4l-.6.5-2.4,1.7-1.6.8a5.8,5.8,0,0,1-1.7.6l-1.7.4H90.8a3.1,3.1,0,0,0,1-.5l1.7-1.3,1.9-1.8a5.5,5.5,0,0,0,1.2-1.9,2.2,2.2,0,0,0-.8-2.1,12.8,12.8,0,0,0-2.2-1.7l-2.4-1.3a17.5,17.5,0,0,0-2.8-1.3,1.8,1.8,0,0,0-2.2,1,1.8,1.8,0,0,0,1.1,2.2h.2c1.5.7,3,1.4,4.4,2.2l.8.6h.1l-2.2,2-.8.5-.4.3h-.8a1.4,1.4,0,0,0-.9,0,2.3,2.3,0,0,0-1.4.7c0-.1-.1-.1-.1-.2a2.1,2.1,0,0,1-.4-.6l-.3-.6-.3-.7c-.1-.3-.1-.5-.2-.8v-1.2a7.6,7.6,0,0,1,.1-1.5l.3-1.5a3.6,3.6,0,0,1,.4-1.1l.6-1.2.6-.9.7-.8.7-.6.8-.6.9-.4.8-.3.9-.2h1.7l.4.2a1.8,1.8,0,0,0,2-1.3,1.7,1.7,0,0,0-1.1-2,9.1,9.1,0,0,0-2.3-.3,9.6,9.6,0,0,0-3.3.6,12.5,12.5,0,0,0-4.9,3.6,11.7,11.7,0,0,0-1.7,3.1l-.8.2L76,428.3l-2.1,1.1-1.1.4-.9.2H69.5l-.8-.2a8.5,8.5,0,0,0,3-1.9l1.1-1.4a3.4,3.4,0,0,0,.6-1.2,2.4,2.4,0,0,0,.2-1.4,1.9,1.9,0,0,0-.5-1c-.1-.2-.3-.3-.5-.5h0l-4-3.9a1.6,1.6,0,0,0-1.3-.4l.7-.5,1.5-.7,1.4-.5,1.5-.3h.1l2.6-.2a8.1,8.1,0,0,0,2.2-.1,3.3,3.3,0,0,0,1.6-1.5c.4-.9.8-1.9,1.1-2.8s1.5-4.1,2.2-6.1c.3-.5.5-1.1.8-1.7l.8-1.6,1.5-2.7c.8-1.2,1.5-2.4,2.3-3.5l2.5-3.5L92,390l2.2-2.3a41.8,41.8,0,0,1,4.4-4,40.5,40.5,0,0,1,3.4-2.3.1.1,0,0,0-.1.1h.1a35.5,35.5,0,0,1,4.4-2.1h-.2l3.3-1.3,3.3-1.3,2.3-.8,1.2-.4h.4a24.4,24.4,0,0,0-6.3,4.1,16.7,16.7,0,0,0-2.5,2.8l-1.3,1.7a1.8,1.8,0,0,0,.5,2.4l.9.2a1.8,1.8,0,0,0,1.5-.7,8.8,8.8,0,0,1,1.2-1.7,10.7,10.7,0,0,1,1.4-1.6,12.9,12.9,0,0,1,1.7-1.6l2.2-1.5a31.4,31.4,0,0,1,3.7-1.8l3.7-1.3a22.5,22.5,0,0,1,3.6-.6,13.7,13.7,0,0,1,2.9-.2l-2.8.8a39.5,39.5,0,0,0-8.6,4,1.9,1.9,0,0,0-.4,2.4,1.5,1.5,0,0,0,1.4.7,1.6,1.6,0,0,0,.9-.3l.7-.4,4.3-2.2a59.8,59.8,0,0,1,6.4-2l1.6-.4a1.7,1.7,0,0,0,1.3-1.6,1.7,1.7,0,0,0,1.2-.5c.6-.8,1.3-1.5,1.9-2.2l1-.8h0l1.1-.7.5-.3h.9l2.4.3a4.6,4.6,0,0,0,2.6-.2,1.8,1.8,0,0,0,.8-1.8.3.3,0,0,0-.1-.2h3.4l1.1.3,1,.3.7.4.4.2.3.3.2.2a1.6,1.6,0,0,0,1.9.9,1.7,1.7,0,0,0,1.3-2,.9.9,0,0,0-.3-.6,2.9,2.9,0,0,0-1-1.2,13.4,13.4,0,0,0-3.1-1.7,20.1,20.1,0,0,0-8.1-.4,23,23,0,0,0-4.3,1.2l-.8.4a34.9,34.9,0,0,0-5.6-.1l-3.4.4-3.2.5c-2,.3-3.9.6-5.9,1.1l-3,.7-3.5,1-1.3.5-1.9.6-2.8,1.1c-1.5.6-3,1.1-4.5,1.8a2.8,2.8,0,0,0-.1-.9c-.4-1.2-1.8-1.4-3-1.4a13.5,13.5,0,0,0-4.9.6,23.4,23.4,0,0,0-4.6,1.9l-3.2,1.8-1.7.9a10.3,10.3,0,0,0-2.6,1.9,1.7,1.7,0,0,0,.1,2.4,1.5,1.5,0,0,0,1.1.4,1.6,1.6,0,0,0,1.3-.6h.2l.8-.5c2.4-1.4,4.9-2.8,7.5-4l2.5-.9,1.5-.3h1.9l.2.4-1.2.6a27.1,27.1,0,0,0-3.5,2.4,20.1,20.1,0,0,0-2.8,2.3l-1.3,1.2-1.1,1.1-2.2,2.4c-.7.7-1.3,1.5-2,2.3a7.1,7.1,0,0,0-1,1.4l-.8,1c-.6.9-1.2,1.7-1.7,2.6a58.9,58.9,0,0,0-3.2,5.4,11.9,11.9,0,0,0-.8,1.6,10.1,10.1,0,0,0-.7,1.5l-1.1,2.7c-.6,1.9-1.3,3.8-2,5.6l-.3.5H72.8a15,15,0,0,0-6.2,1.9,15.9,15.9,0,0,0-5.2,4.8,9,9,0,0,0-1.3,3.2,11.4,11.4,0,0,0,0,3.2,7.3,7.3,0,0,0,1.4,3.4h0a.6.6,0,0,0,.1.4,1.6,1.6,0,0,0,1.6,1.4h.1l.7.6a14,14,0,0,0,6.9,1.9h.2a11,11,0,0,0,4-.8,21.9,21.9,0,0,0,3-1.6l3.2-1.9h-.2l.5-.3a10.8,10.8,0,0,0,.9,5.4,9.8,9.8,0,0,0,4.6,4.4,14.4,14.4,0,0,0,5,1h1.7a18.7,18.7,0,0,0,6.4-2.2l1.6-1.1a8.4,8.4,0,0,0,.8,3.1,12.8,12.8,0,0,0,4.9,5.4,10.8,10.8,0,0,0,5.6,1.6h1.3a15.1,15.1,0,0,0,5.1-2,4.3,4.3,0,0,0-.2,1.1,17.6,17.6,0,0,0,4.7,14.7,18.7,18.7,0,0,0,7,4.3,20.1,20.1,0,0,0,6.9,1.3h.7a22.6,22.6,0,0,0,7.3-1.5l2.9-1.3a17.8,17.8,0,0,0,2.7-1.7l2.6-2.1a13.4,13.4,0,0,0,2-2.1,20.7,20.7,0,0,0,1.9-2.5,32.6,32.6,0,0,0,3.1-5.4,19.2,19.2,0,0,0,1.1-3.1c.2-1,.4-2,.5-3s.5-4,.8-6h0c.1-.4.1-.8.2-1.2a.3.3,0,0,1-.1.2c.1-.4.1-.7.2-1.1l1-.5a43.2,43.2,0,0,0,5-3.3l5-3.8a90.4,90.4,0,0,0,9.5-8.1l-.2.2a4.6,4.6,0,0,1,.7-.7l-.2.2,2-2c1.4-1.6,2.8-3,4.1-4.6a24.3,24.3,0,0,0,2-2.5l1.8-2.6a35.7,35.7,0,0,0,2.6-5.6,27.5,27.5,0,0,0,1.8-8.6A43.4,43.4,0,0,0,198.6,385.9Zm-9-13.9Zm-54.7,0h.2l-1.8,2a2.5,2.5,0,0,0-.4.9H132a1.6,1.6,0,0,0,.4-1.2,1.6,1.6,0,0,0-1.1-1.5l1.2-.2ZM63.4,423.3a6.4,6.4,0,0,1,.2-.7,1.4,1.4,0,0,1,.2-.7l.3-.7.6-.8h0l1-1.1h.1a1.6,1.6,0,0,0,.5,1.7l3.7,3.6h0a.1.1,0,0,0-.1-.1H70c-.1.1-.2.2-.2.3s0-.1.1-.2l-.8,1h-.2l-.6.4-1,.6-.8.2-2.1.4h0l-.4-.6c-.1-.1-.1-.3-.2-.4l-.3-.8c0-.2-.1-.5-.1-.7v-1.5Zm43.2,16.3a3.5,3.5,0,0,1-.5-.8,9.3,9.3,0,0,1-.5-1l-.3-.8c0-.3-.1-.5-.1-.8a.8.8,0,0,0-.1-.4,2.8,2.8,0,0,0,.1-.9c.1-.2.1-.5.2-.7l.3-1,.9-1.6h.2l3.5,1.5,4,2,.7.5.4.3h.1a.1.1,0,0,0,.1.1h0l-.9.7-.3.3-2.3,1.6-2.7,1.7-.3.2h-.3l-.7.4-.8-.7Zm22.7,20.3-1.6-1.1h0l-1.2-1h0a.1.1,0,0,0-.1-.1.1.1,0,0,1,.1.1l-1-1.2-1.2-1.7-.7-1.5a15.9,15.9,0,0,1-.7-2l-.3-1.5a14.1,14.1,0,0,1-.1-2,11.5,11.5,0,0,1,.1-1.9h0a10.5,10.5,0,0,1,.4-1.7,4.9,4.9,0,0,1,.6-1.7,3,3,0,0,1,.4-1,3.5,3.5,0,0,0,1.4.6l1.9.9,1.8.9,4.2,1.9,4.2,2.1,4,1.9.5.4h0c.1.3.1.6.2.9h0v.2a.6.6,0,0,0-.1.4c-.1.1-.1.3-.2.4l-.3.6-.3.5c-.6.8-1.3,1.5-1.9,2.2a6,6,0,0,0-.8.8l-1.1.6a3.1,3.1,0,0,1-1,.5l-2,.8-1.4.3a1.7,1.7,0,0,0-1.3,2,.9.9,0,0,0,.3.7l-.9-.4Z"/><path d="M96.1,371.6h.4a54.1,54.1,0,0,1,5.8-1.2h0l3.6-.4,4.6-.3a30.2,30.2,0,0,1,4.3-.2l5.4-.2h2.4l.8.2a1.6,1.6,0,0,0,2.1-1,1.9,1.9,0,0,0-.4-1.8l.7.2a1.7,1.7,0,0,0,1-.3l.4-.2a17.7,17.7,0,0,1,3.1-1.5,17.5,17.5,0,0,1,3.2-1.2,26.6,26.6,0,0,1,3.9-.7,38.7,38.7,0,0,1,4.8-.3h0a38.9,38.9,0,0,1,4.7.4l5.2.9,1.6.2a2.9,2.9,0,0,0,1.3,0,1.7,1.7,0,1,0-.2-3.3h-.2l-1.8-.2-5.4-1a41.3,41.3,0,0,0-9.3-.2,31.2,31.2,0,0,0-9,2.2,27.4,27.4,0,0,0-4.2,2.1,1.8,1.8,0,0,0-.5,2.4l.3.2c-.1,0-.2,0-.2-.1l-1.8-.4-2.1-.2h-3.1l-3.3.2-5.9.3-3,.2-3.4.4-2.7.5-3.4.8a1.6,1.6,0,0,0-1.3,1.9A1.6,1.6,0,0,0,96.1,371.6Z"/><path d="M128.9,385.2l1.9-1.3,1.3-.6,1.3-.4,1.1-.3a1.7,1.7,0,0,0,1.2-2,1.7,1.7,0,0,0-2-1.3h-.2l-2.3.6a15.1,15.1,0,0,0-2.8,1.5,33.5,33.5,0,0,0-5.1,4.2,54.7,54.7,0,0,0-4.5,5.1,20.4,20.4,0,0,0-2.9,5.2,1.8,1.8,0,0,0,1.1,2.1h.5a1.6,1.6,0,0,0,1.6-1.1l.3-.8a4.7,4.7,0,0,1,.5-1h0c.5-.9,1.1-1.7,1.7-2.6a42.8,42.8,0,0,1,4-4.5Z"/><path d="M161,392.8l.3-2.1a1.8,1.8,0,0,0-.2-1.6,2.2,2.2,0,0,0-.9-.7,1.7,1.7,0,0,0-2.1,1.1,1.3,1.3,0,0,0-.1.6c-.3,1.3-.4,2.7-.6,4.1l-.3,3.9-.3,4.5c-.1,1.5-.1,2.9-.1,4.4a1.7,1.7,0,0,0,1.7,1.6h.1a1.8,1.8,0,0,0,1.6-1.8v-1.2q0-3.2.3-6.3C160.5,397.2,160.8,395,161,392.8Z"/><path d="M155.8,373.9l-3.2,1.3a16.3,16.3,0,0,0-4.9,3.7,25.4,25.4,0,0,0-3.6,5,1.7,1.7,0,0,0-1.7-.7,2.2,2.2,0,0,0-1.3.8,11.5,11.5,0,0,0-1.4,1.7l-1.9,3.2a21.2,21.2,0,0,0-1.1,2.1,7.5,7.5,0,0,0-.7,1.2c-.6,1.4-1.3,2.7-1.8,4a21.6,21.6,0,0,0-1.4,4.3.8.8,0,0,0-.1.4c-.1.2-.3.3-.4.4a16.7,16.7,0,0,0-1.8,2.8,10.2,10.2,0,0,0-1,3.4,20.4,20.4,0,0,0-.3,3.4,1.8,1.8,0,0,0,1.6,1.8h.1a1.7,1.7,0,0,0,1.7-1.6,22.6,22.6,0,0,1,.1-2.6,8.3,8.3,0,0,1,.4-1.5,5.6,5.6,0,0,1,.4-1.2l.3-.6h.2a1.7,1.7,0,0,0,1.7-1.5v-.6a5,5,0,0,0,.2-1.2h0a8.3,8.3,0,0,1,.4-1.5,30.1,30.1,0,0,1,1.1-3.2h0l1-2.1a10.1,10.1,0,0,1,.7-1.5l2-3.7h0l1.5-2.3a1.6,1.6,0,0,0,.9,1.2l.7.2a1.7,1.7,0,0,0,1.6-.9c.4-1,1-2,1.5-3s1-1.6,1.6-2.4a15.4,15.4,0,0,1,1.7-1.9,8.6,8.6,0,0,1,1.4-1.3l1.2-.8,1.5-.7,1.7-.7a4.2,4.2,0,0,0,1.4-.6,1.7,1.7,0,0,0,.1-2.4A1.7,1.7,0,0,0,155.8,373.9Z"/><path d="M158.2,377l-3,4.8a.9.9,0,0,0-.1-.5,1.7,1.7,0,0,0-2.1-1.1c-1.9.7-3.2,2.3-4.4,3.8a38.8,38.8,0,0,0-3,4.8l-2.4,4.5a1.7,1.7,0,0,0,.7,2.3h.8a1.6,1.6,0,0,0,1.5-.9c1.1-2,2.1-4,3.2-5.9a27.5,27.5,0,0,1,1.9-2.8l1.3-1.6h0c0-.1,0-.1.1-.1h0l.6-.5.5-.4.3-.2h.2l-2,3.7-.5.2a6.1,6.1,0,0,0-1.8,2.6,21.7,21.7,0,0,0-1.2,3.6c-.4,1.6-.7,3.2-1,4.8a29.1,29.1,0,0,0-.4,3.1,14,14,0,0,0-.1,5.4,1.7,1.7,0,0,0,1.7,1.3h.3a1.8,1.8,0,0,0,1.4-2c-.1-.2-.1-.4-.2-.6v-.9a31.3,31.3,0,0,1,.4-4.3q.4-3.2,1.2-6.3l.6-1.7a1.8,1.8,0,0,0,1.4-1.1,1.7,1.7,0,0,0,.2-.5l1.6-3.3c.5-1,1.1-2,1.7-3h-.1c.7-1,1.3-2.1,1.9-3.1l1.2-1.9a21.2,21.2,0,0,0,1.2-2,2.7,2.7,0,0,0,.3-1.2,1.7,1.7,0,0,0-3.4-.1V376h.1c-.1,0-.1.1-.1.2l-.5.9Z"/><path d="M162.3,393.1a11.5,11.5,0,0,0-.3,2.6,1.8,1.8,0,0,0,1.7,1.6h.1a1.7,1.7,0,0,0,1.6-1.8v-.7c.1-.3.1-.5.2-.8a2.9,2.9,0,0,0,.2-.9h0V393h0a.4.4,0,0,1,.1-.3c-.1,0-.1.1-.1.2q1.8-6.4,4.2-12.6h0c0-.1.1-.1.1-.2h-.1l.5-.9.3-.8a1.7,1.7,0,0,0-3.2-1.2h0a90.5,90.5,0,0,0-3.8,10.3c-.2.9-.5,1.9-.8,2.8s-.3.9-.4,1.4h-.1a2.4,2.4,0,0,1-.2.8v.2a.1.1,0,0,1-.1.1v.2Z"/><path d="M169.6,393.9c-.1,2-.1,4-.1,6a1.8,1.8,0,0,0,1.1,1.4v.6a1.7,1.7,0,0,0,1.7,1.6h.1a1.8,1.8,0,0,0,1.6-1.8,39.1,39.1,0,0,1-.3-4.9c0-.7-.1-1.4-.1-2.1v-1.8a5.3,5.3,0,0,0-.4-1.7,22.7,22.7,0,0,1,.6-2.5,7.5,7.5,0,0,1,.5-1.6c.1-.3.3-.5.4-.8l.2-.3.6-.6a1.7,1.7,0,0,0-2.6-2.3,11.5,11.5,0,0,0-2.5,5.2A26.1,26.1,0,0,0,169.6,393.9Z"/><path d="M179.6,396.8h.4a1.6,1.6,0,0,0,1.6-1.3c.3-1.6.4-3.2.6-4.9s.3-2.7.4-4a6.9,6.9,0,0,0,.2-1.3,2.9,2.9,0,0,0,.2-.9,1.7,1.7,0,0,0-1.6-1.8,1.7,1.7,0,0,0-1.8,1.5h0c-.3,1.8-.5,3.5-.7,5.3s-.3,3.3-.5,5c0,.1-.1.3-.1.4A1.7,1.7,0,0,0,179.6,396.8Z"/><path d="M179.6,384.1Z"/><path d="M131.2,390.5a1.8,1.8,0,0,0,.7,2.3h.8a1.6,1.6,0,0,0,1.5-.9c.8-1.8,1.7-3.5,2.6-5.2a41.5,41.5,0,0,1,3-4.3,30.7,30.7,0,0,1,2.9-3.4,6.4,6.4,0,0,1,1.5-1.3l1-.8.5-.2,1-.4a1.7,1.7,0,0,0,.7-2.3,1.6,1.6,0,0,0-2.2-.7,5.6,5.6,0,0,0-1.6.7l-1.5,1a19.9,19.9,0,0,0-3,2.8,52,52,0,0,0-4.8,6.5C133.2,386.4,132.1,388.4,131.2,390.5Z"/><path d="M100.9,389.4a10.7,10.7,0,0,1,1.6-1.4l1-.7.6-.3h.9a1.7,1.7,0,1,0-.7-3.3,9.1,9.1,0,0,0-3.5,1.5,23.8,23.8,0,0,0-3.6,3.5,37.1,37.1,0,0,0-2.3,3.2l-.6,1a14.2,14.2,0,0,0-.8,1.8,1.7,1.7,0,0,0,1,2.2H95a1.9,1.9,0,0,0,1.7-1.2,4.3,4.3,0,0,0,.1-.5l.5-.8a27.5,27.5,0,0,1,1.9-2.8h-.1Z"/><path d="M111.1,395.8l.4-.6h0a1.6,1.6,0,0,0,1.1-1.9,1.7,1.7,0,0,0-2-1.3,4.1,4.1,0,0,0-2.4,2.1l-1.2,2.5-.6,1.6c-.2.6-.5,1.3-.7,2l-.6,2.1h0a4.3,4.3,0,0,0-.1.5h0l-.3,1.1a1.8,1.8,0,0,0,1.3,2h.4a1.6,1.6,0,0,0,1.6-1.3l.3-.9a.1.1,0,0,1-.1.1c.1-.1.1-.3.2-.4h-.1l.3-.8h0a35.3,35.3,0,0,1,1.5-4.6A18.6,18.6,0,0,1,111.1,395.8Z"/><path d="M119.4,409.9c.4-1.1.9-2.2,1.3-3.2s.7-1.6,1.1-2.3l.9-1.9,1.1-2.1.5-.9a5.4,5.4,0,0,0,.5-1.1,1.7,1.7,0,0,0-1.3-2,1.6,1.6,0,0,0-1.9,1.1c-.5.9-1.1,1.8-1.6,2.8l-1.5,2.9-1.5,3.5c-.3.7-.5,1.4-.8,2.2a6.4,6.4,0,0,0-.3,2c.1.2.1.5.2.7a1.4,1.4,0,0,0,.2.7,1.8,1.8,0,0,0,1.6,1l.7-.2a1.8,1.8,0,0,0,.8-2.3h-.1v-.3h0c0-.1.1-.1.1-.2v-.3Z"/><path d="M146.4,409.1l.4-.9a3.8,3.8,0,0,0,.1-1,1.8,1.8,0,0,0-2-1.3,1.7,1.7,0,0,0-1.3,1h.1l-.5,1.1-.6,1.6c-.2.9-.3,1.8-.5,2.8a18.4,18.4,0,0,0-.3,4.1,1.7,1.7,0,0,0,1.7,1.6h.1a1.7,1.7,0,0,0,1.6-1.8,1.3,1.3,0,0,1-.1-.6,14.9,14.9,0,0,0,.2-2.1l.6-3.2h.1a.1.1,0,0,1-.1.1Z"/><path d="M160.1,417.3h.1a1.8,1.8,0,0,0,1.7-1.6c.1-1.9.2-3.7.4-5.5a2.8,2.8,0,0,0,.1-.9,1.7,1.7,0,0,0-2-1.3,1.4,1.4,0,0,0-1,.5,3.4,3.4,0,0,0-.5,1.4c0,.5-.1,1.1-.1,1.7s-.2,2.5-.3,3.8A1.8,1.8,0,0,0,160.1,417.3Z"/><path d="M174.1,411.4a1.8,1.8,0,0,0-2,1.4h0a17.9,17.9,0,0,0-.5,3.9,1.7,1.7,0,0,0,1.6,1.8h.1A1.8,1.8,0,0,0,175,417a14.8,14.8,0,0,1,.1-2.1,2.4,2.4,0,0,1,.2-.8,2.5,2.5,0,0,1,.2-.7A1.8,1.8,0,0,0,174.1,411.4Z"/><polygon class="cls-1" points="290.6 370.6 329.7 362.3 346.2 362.3 355.3 367.1 377.5 376.2 384.4 384.1 402.7 414 413.5 417.5 409.2 421.8 409.2 425.8 412.7 431 402.7 430.1 392.3 422.3 390.5 426.6 384.9 430.1 393.1 436.6 386.6 437.5 375.3 432.3 371.8 429.7 362.3 434.4 362.7 437.9 370.5 442.3 365.8 445.3 357.9 441 354 439.7 335.4 448.8 335.8 454.4 348.8 462.2 338 464 323.2 454.4 317.1 433.1 295.4 418.4 281.9 399.3 284.5 374.9 290.6 370.6"/><path d="M332.8,372.4h0Z"/><polygon points="333 372.5 333 372.5 333 372.5 333 372.5"/><path d="M384.4,417.7Z"/><path d="M280.3,393.1a24.9,24.9,0,0,0,1.8,8.6,35.7,35.7,0,0,0,2.6,5.6,24,24,0,0,0,1.8,2.6,24.3,24.3,0,0,0,2,2.5c1.3,1.6,2.7,3,4.1,4.6l2,2-.2-.2.7.7-.2-.2a80.3,80.3,0,0,0,9.4,8.1l5.1,3.8a43.2,43.2,0,0,0,5,3.3l1,.5c0,.4.1.7.1,1.1v-.2c.1.4.1.8.2,1.2h0c.2,2,.5,4,.8,6s.3,2,.5,3a19.2,19.2,0,0,0,1.1,3.1,41,41,0,0,0,3,5.4l2,2.5a13.4,13.4,0,0,0,2,2.1,29.6,29.6,0,0,0,2.6,2.1l2.6,1.7,3,1.3a22.6,22.6,0,0,0,7.2,1.5h.7a20.7,20.7,0,0,0,7-1.3,18.3,18.3,0,0,0,6.9-4.3,17.4,17.4,0,0,0,4.8-14.7,4.3,4.3,0,0,0-.2-1.1,15.1,15.1,0,0,0,5.1,2h1.3a11,11,0,0,0,5.6-1.6,12.8,12.8,0,0,0,4.9-5.4,8.4,8.4,0,0,0,.8-3.1l1.6,1.1a18,18,0,0,0,6.4,2.2h1.7a14.4,14.4,0,0,0,5-1,9.8,9.8,0,0,0,4.6-4.4,10.8,10.8,0,0,0,.9-5.4l.5.3h-.2a33.7,33.7,0,0,0,3.2,1.9,17.3,17.3,0,0,0,3,1.6,11,11,0,0,0,4,.8h.2a13.4,13.4,0,0,0,6.8-1.9l.8-.6h.1a1.6,1.6,0,0,0,1.6-1.4.6.6,0,0,0,.1-.4h0a8.2,8.2,0,0,0,1.3-6.6,7.3,7.3,0,0,0-1.2-3.2,15.9,15.9,0,0,0-5.2-4.8,15.4,15.4,0,0,0-6.2-1.9h-3.2l-.2-.5c-.7-1.8-1.4-3.7-2-5.6l-1.1-2.7-.7-1.5a11.9,11.9,0,0,0-.8-1.6,58.9,58.9,0,0,0-3.2-5.4c-.5-.9-1.1-1.7-1.7-2.6l-.8-1-1-1.4c-.7-.8-1.3-1.6-2-2.3l-2.2-2.4-1.1-1.1-1.3-1.2a20.1,20.1,0,0,0-2.8-2.3,27.1,27.1,0,0,0-3.5-2.4l-1.2-.6c0-.1.1-.2.2-.4h1.9l1.4.3,2.6.9c2.6,1.2,5.1,2.6,7.5,4l.8.5h.2a1.6,1.6,0,0,0,1.3.6,1.5,1.5,0,0,0,1.1-.4,1.7,1.7,0,0,0,.1-2.4,10.3,10.3,0,0,0-2.6-1.9l-1.7-.9-3.2-1.8a23.4,23.4,0,0,0-4.6-1.9,13.8,13.8,0,0,0-4.9-.6c-1.2,0-2.6.2-3,1.4a2.8,2.8,0,0,0-.1.9c-1.5-.7-3-1.2-4.5-1.8l-2.8-1.1-1.9-.6-1.3-.5-3.5-1-3-.7c-2-.5-3.9-.8-5.9-1.1l-3.2-.5-3.4-.4a34.7,34.7,0,0,0-5.6.1l-.8-.4a23,23,0,0,0-4.3-1.2,20.1,20.1,0,0,0-8.1.4,13.4,13.4,0,0,0-3.1,1.7,2.9,2.9,0,0,0-1,1.2.9.9,0,0,0-.3.6,1.7,1.7,0,0,0,1.3,2,1.6,1.6,0,0,0,1.9-.9l.2-.2.3-.3a.5.5,0,0,1,.4-.2l.7-.4,1-.3,1.1-.3h3.4a.3.3,0,0,0-.1.2,1.6,1.6,0,0,0,.8,1.8,4.3,4.3,0,0,0,2.5.2l2.5-.3h.9l.5.3,1.1.7h.1a.1.1,0,0,1-.1-.1l.9.8a20.9,20.9,0,0,1,2,2.2,1.6,1.6,0,0,0,1.1.5,1.8,1.8,0,0,0,1.4,1.6l1.6.4c2.2.6,4.3,1.2,6.4,2l4.3,2.2.6.4a1.9,1.9,0,0,0,1,.3,1.6,1.6,0,0,0,1.4-.7,1.8,1.8,0,0,0-.5-2.4,38.8,38.8,0,0,0-8.5-4l-2.8-.8a13.7,13.7,0,0,1,2.9.2,22.5,22.5,0,0,1,3.6.6l3.6,1.3a21.2,21.2,0,0,1,3.7,1.8l2.3,1.5a12.9,12.9,0,0,1,1.7,1.6,10.7,10.7,0,0,1,1.4,1.6l1.2,1.7a1.8,1.8,0,0,0,1.5.7l.9-.2a1.7,1.7,0,0,0,.4-2.4,17.7,17.7,0,0,0-1.2-1.7,16.7,16.7,0,0,0-2.5-2.8,26.3,26.3,0,0,0-6.3-4.1h.4l1.2.4,2.3.8,3.3,1.3,3.3,1.3h-.2a35.5,35.5,0,0,1,4.4,2.1h.1a.1.1,0,0,0-.1-.1,40.5,40.5,0,0,1,3.4,2.3,41.8,41.8,0,0,1,4.4,4l2.2,2.3,1.9,2.3,2.5,3.5c.8,1.1,1.5,2.3,2.3,3.5l1.5,2.7a8,8,0,0,0,.8,1.6c.2.6.5,1.2.7,1.7.8,2,1.5,4.1,2.2,6.1l1.2,2.8a3.3,3.3,0,0,0,1.6,1.5,8.1,8.1,0,0,0,2.2.1l2.6.2h0a7.6,7.6,0,0,1,1.6.3l1.4.5,1.5.7.7.5a1.6,1.6,0,0,0-1.3.4l-4,3.9h0c-.2.2-.4.3-.5.5a1.9,1.9,0,0,0-.5,1,2.4,2.4,0,0,0,.2,1.4,3.4,3.4,0,0,0,.6,1.2l1.1,1.4a8.5,8.5,0,0,0,3,1.9l-.9.2h-2.3l-.9-.2-1.1-.4-2.1-1.1-5.8-3.4-.8-.2a11.7,11.7,0,0,0-1.7-3.1,12.8,12.8,0,0,0-5-3.6,8.7,8.7,0,0,0-3.2-.6,8.5,8.5,0,0,0-2.3.3,1.7,1.7,0,0,0-1.1,2,1.8,1.8,0,0,0,2,1.3l.4-.2h1.6l1,.2.8.3.9.4.8.6.7.6.7.8.6.9.6,1.2a3.6,3.6,0,0,1,.4,1.1l.3,1.5a7.6,7.6,0,0,1,.1,1.5,4.9,4.9,0,0,1-.1,1.2c0,.3-.1.5-.1.8l-.3.7-.3.6a2.1,2.1,0,0,1-.4.6c0,.1-.1.1-.1.2a2.7,2.7,0,0,0-1.4-.7,1.4,1.4,0,0,0-.9,0h-.8l-.4-.3-.8-.5a20.9,20.9,0,0,1-2.2-2h.1l.8-.6c1.4-.8,2.9-1.5,4.4-2.2s.1-.1.2-.1a1.6,1.6,0,0,0,1-2.2,1.7,1.7,0,0,0-2.1-1,14.3,14.3,0,0,0-2.8,1.3l-2.5,1.3a18.4,18.4,0,0,0-2.2,1.7,2.4,2.4,0,0,0-.7,2.1,5.5,5.5,0,0,0,1.2,1.9l1.8,1.8c.6.4,1.1.9,1.8,1.3a3.1,3.1,0,0,0,1,.5h-2.7l-1.7-.4a5.8,5.8,0,0,1-1.7-.6,8,8,0,0,1-1.6-.8,20.7,20.7,0,0,1-2.4-1.7l-.6-.5a1.9,1.9,0,0,0-1.2-.4,21.5,21.5,0,0,0-1.4-2.6,20.9,20.9,0,0,0-2.3-2.9A20.1,20.1,0,0,0,370,424a8.6,8.6,0,0,0-3.2-1.5c-1.3-.2-3,.2-3.4,1.6a1.7,1.7,0,0,0,1,2.1,1.9,1.9,0,0,0,1.8-.3h.6l.6.3,1.4,1,1.6,1.3h.1l-4.5,2.1a32,32,0,0,0-3.7,1.9,5.5,5.5,0,0,0-1.8,2.2,4.1,4.1,0,0,0-.3,1.6,2.3,2.3,0,0,0,.7,1.7l.9.9a7.1,7.1,0,0,0,.9.7l.3.3,1.2.8c.9.7,1.8,1.2,2.7,1.8l.3.2h-2.6l-1.4-.5-3-1.6-1.9-1.2-.5-.2-.3-.5a30.1,30.1,0,0,0-4.5-6.1,27.5,27.5,0,0,0-2.6-2.2,9.6,9.6,0,0,0-3.2-1.6,6.5,6.5,0,0,0-2.4,0,1.7,1.7,0,0,0,.2,3.3h1.4l.6.2.8.4,1.2.9,1.5,1.4a16.4,16.4,0,0,1,2.1,2.4l.5.7a1.5,1.5,0,0,0-.6.9h0l-4,1.9-4.8,2.3-5.1,2.4-2.3,1.2-1.5,1a3.6,3.6,0,0,0-.8,1.2c-.1.3-.1.6-.2.9a4.3,4.3,0,0,1-.1.5,5.5,5.5,0,0,0,.1,1.8,8.2,8.2,0,0,0,1.8,3.6l1.3,1.4,1.3,1.3a10.1,10.1,0,0,0,2.1,1.5,13,13,0,0,0,2.5,1l2.4.7-1.8.4H339a19.8,19.8,0,0,1-2.6-.6l-3.2-1.1-1.3-.6-1-.6-2.1-1.4-2.3-2.1-1.7-2c-.8-1.2-1.6-2.3-2.3-3.6h0a6.4,6.4,0,0,1-.8-1.4c-.3-.6-.5-1.1-.8-1.6l-.6-1.9c-.2-.9-.3-1.7-.5-2.5l-.9-7.2h0v-.2c-.1-.3-.1-.7-.2-1a1.9,1.9,0,0,0-.1-.8,3.6,3.6,0,0,0-.7-1l-.9-.6-.7-.3-1.1-.6-5.3-3.7-5.3-4.1.2.2c-1.2-1-2.4-1.9-3.6-3l-3.5-3.2a.8.8,0,0,1-.4-.4.1.1,0,0,0,.1.1l-.7-.7.2.2c-1.3-1.3-2.6-2.6-3.8-4s-2.4-2.7-3.6-4.2l-1.2-1.7c-.3-.5-.7-1-1-1.6l-1.4-2.8-.8-2.1-.6-2.1a28.2,28.2,0,0,1-.7-3.1,22.8,22.8,0,0,1-.2-2.6c0-2.5.2-4.9.4-7.3h0a20,20,0,0,1,.4-2.4,22.1,22.1,0,0,1,.5-2.5,9.3,9.3,0,0,0,.4-1.3l.6-1.5a24.1,24.1,0,0,1,1.5-3.3l1-1.4.5-.6v-.2h.6l.2.2a20,20,0,0,1,1.9,2.2,1.7,1.7,0,1,0,2.6-2.2c-.8-.9-1.5-1.8-2.3-2.6a4.2,4.2,0,0,0-1.4-.9,3.3,3.3,0,0,0-1.7-.4,4.6,4.6,0,0,0-2.6,1.5,16.9,16.9,0,0,0-2.1,3.1,18.4,18.4,0,0,0-1.7,3.8,14,14,0,0,0-.9,2.9c-.3,1-.5,2-.7,3s-.3,2.2-.4,3.3A57.7,57.7,0,0,0,280.3,393.1Zm9.2-21.2a.1.1,0,0,0,.1.1h-.1Zm57.2.3,1.2.2a1.6,1.6,0,0,0-1.1,1.5,1.6,1.6,0,0,0,.4,1.2h-.8a.1.1,0,0,0-.1-.1,2.5,2.5,0,0,0-.4-.9l-1.8-2h.1Zm69.1,51.9v.7c-.1.2-.1.5-.2.7a2.4,2.4,0,0,1-.2.8l-.2.4-.4.6h0l-2.1-.4-.8-.2-1-.6-.6-.4h-.2l-.8-1c0,.1.1.1.1.2l-.2-.3h.1a.1.1,0,0,0-.1.1h0l3.7-3.6a1.8,1.8,0,0,0,.5-1.7h.1l1,1.1h0l.6.8.3.7a1.4,1.4,0,0,1,.2.7,6.4,6.4,0,0,1,.2.7Zm-44,16.3a4.6,4.6,0,0,0-.7.7l-.7-.4h-.3l-.3-.2-2.7-1.7-2.3-1.6-.3-.3-.9-.7h0a.1.1,0,0,0,.1-.1h.1l.4-.3.7-.5,4-2,3.5-1.5h.2l.9,1.6.3,1c.1.2.1.5.2.7v1.3c0,.3-.1.5-.1.8l-.3.8-.5,1-.6.8ZM348,460.8l-.9.4a.9.9,0,0,0,.3-.7,1.7,1.7,0,0,0-1.3-2l-1.4-.3-2-.8-1.1-.5-1-.6-.8-.8a20,20,0,0,1-1.9-2.2l-.3-.5a.9.9,0,0,1-.3-.6c-.1-.1-.1-.3-.2-.4a.6.6,0,0,0-.1-.4v-.2h0c.1-.3.1-.6.2-.9h0l.5-.4,4-1.9,4.2-2.1,4.2-1.9,1.8-.9,1.9-.9a3.5,3.5,0,0,0,1.4-.6,10.4,10.4,0,0,1,.4,1,4.9,4.9,0,0,1,.6,1.7,10.5,10.5,0,0,1,.4,1.7h0a11.5,11.5,0,0,1,.1,1.9,14.1,14.1,0,0,1-.1,2l-.3,1.5a15.9,15.9,0,0,1-.7,2l-.7,1.5-1.2,1.7-1,1.2c0-.1,0-.1.1-.1a.1.1,0,0,0-.1.1h0l-1.2,1h0l-1.6,1.1Z"/><path d="M383.1,371.6h-.4a54.1,54.1,0,0,0-5.8-1.2h0l-3.6-.4-4.6-.3a30.2,30.2,0,0,0-4.3-.2l-5.4-.2h-2.4l-.8.2a1.6,1.6,0,0,1-2.1-1,1.9,1.9,0,0,1,.4-1.8l-.7.2a1.7,1.7,0,0,1-1-.3l-.4-.2a37.3,37.3,0,0,0-6.3-2.7,26.6,26.6,0,0,0-3.9-.7,38.7,38.7,0,0,0-4.8-.3h0a37.3,37.3,0,0,0-4.7.4l-5.2.9-1.6.2a2.9,2.9,0,0,1-1.3,0,1.7,1.7,0,0,1-1.6-1.7,1.8,1.8,0,0,1,1.8-1.6h.2l1.8-.2,5.4-1a41.3,41.3,0,0,1,9.3-.2,31.2,31.2,0,0,1,9,2.2,32.9,32.9,0,0,1,4.2,2.1,1.8,1.8,0,0,1,.5,2.4l-.3.2h.2l1.7-.4,2.2-.2h3.1l3.3.2,5.9.3,3,.2,3.4.4,2.7.5,3.4.8a1.6,1.6,0,0,1,1.3,1.9A1.6,1.6,0,0,1,383.1,371.6Z"/><path d="M350.3,385.2l-1.9-1.3-1.4-.6-1.2-.4-1.1-.3a1.7,1.7,0,0,1-1.2-2,1.6,1.6,0,0,1,1.9-1.3h.3a18,18,0,0,1,2.2.6,15.9,15.9,0,0,1,2.9,1.5,28.6,28.6,0,0,1,5,4.2,35.7,35.7,0,0,1,4.5,5.1,18.1,18.1,0,0,1,3,5.2,1.8,1.8,0,0,1-1.1,2.1h-.5a1.6,1.6,0,0,1-1.6-1.1l-.3-.8-.5-1h0a.1.1,0,0,0-.1-.1.1.1,0,0,1,.1.1c-.5-.9-1.1-1.7-1.7-2.6a58.2,58.2,0,0,0-4-4.5Z"/><path d="M318.2,392.8l-.3-2.1a1.5,1.5,0,0,1,.2-1.6,2.7,2.7,0,0,1,.8-.7,1.8,1.8,0,0,1,2.2,1.1,1.3,1.3,0,0,1,.1.6c.3,1.3.4,2.7.6,4.1l.3,3.9.3,4.5c.1,1.5.1,2.9.1,4.4a1.8,1.8,0,0,1-1.7,1.6h-.1a1.8,1.8,0,0,1-1.6-1.8v-1.2q0-3.2-.3-6.3C318.7,397.2,318.4,395,318.2,392.8Z"/><path d="M323.4,373.9l3.2,1.3a16.3,16.3,0,0,1,4.9,3.7,30.3,30.3,0,0,1,3.6,5,1.7,1.7,0,0,1,1.7-.7,2.2,2.2,0,0,1,1.3.8,11.5,11.5,0,0,1,1.4,1.7l1.9,3.2a21.2,21.2,0,0,1,1.1,2.1l.7,1.2c.6,1.4,1.3,2.7,1.8,4a21.6,21.6,0,0,1,1.4,4.3.8.8,0,0,1,.1.4.8.8,0,0,0,.4.4,16.7,16.7,0,0,1,1.8,2.8,19.1,19.1,0,0,1,1,3.4,20.4,20.4,0,0,1,.3,3.4,1.8,1.8,0,0,1-1.6,1.8h-.1a1.7,1.7,0,0,1-1.7-1.6,22.6,22.6,0,0,0-.1-2.6,8.3,8.3,0,0,0-.4-1.5,5.6,5.6,0,0,0-.4-1.2l-.3-.6h-.2a1.7,1.7,0,0,1-1.7-1.5v-.6l-.3-1.2h0l-.3-1.5a30.1,30.1,0,0,0-1.1-3.2h0l-1-2.1a10.1,10.1,0,0,0-.7-1.5l-2-3.7h0l-1.5-2.3a1.6,1.6,0,0,1-.9,1.2l-.7.2a1.7,1.7,0,0,1-1.6-.9l-1.5-3-1.6-2.4a15.4,15.4,0,0,0-1.7-1.9,8.6,8.6,0,0,0-1.4-1.3l-1.2-.8-1.5-.7-1.7-.7a3.5,3.5,0,0,1-1.4-.6,1.6,1.6,0,0,1-.1-2.4A1.7,1.7,0,0,1,323.4,373.9Z"/><path d="M321,377c.9,1.6,2,3.2,3,4.8a.9.9,0,0,1,.1-.5,1.7,1.7,0,0,1,2.1-1.1,11.5,11.5,0,0,1,4.4,3.8,38.8,38.8,0,0,1,3,4.8l2.4,4.5a1.8,1.8,0,0,1-.8,2.3h-.7a1.6,1.6,0,0,1-1.5-.9c-1.1-2-2.1-4-3.2-5.9a27.5,27.5,0,0,0-1.9-2.8l-1.4-1.6a.1.1,0,0,1,.1.1.1.1,0,0,0-.1-.1.1.1,0,0,0-.1-.1.1.1,0,0,1,.1.1l-.6-.5-.5-.4-.3-.2h-.2l2,3.7.5.2a6.1,6.1,0,0,1,1.8,2.6,21.7,21.7,0,0,1,1.2,3.6c.4,1.6.7,3.2,1,4.8a29.1,29.1,0,0,1,.4,3.1,14,14,0,0,1,0,5.4,1.5,1.5,0,0,1-1.6,1.3h-.3a1.8,1.8,0,0,1-1.4-2,1.3,1.3,0,0,0,.1-.6,2.8,2.8,0,0,0,.1-.9,31.3,31.3,0,0,0-.4-4.3c-.4-2.1-.7-4.2-1.2-6.3l-.6-1.7a2.1,2.1,0,0,1-1.5-1.1.8.8,0,0,0-.2-.5c-.4-1.1-1-2.2-1.5-3.3s-1.1-2-1.7-3h.1c-.7-1-1.3-2.1-1.9-3.1l-1.3-1.9a19.8,19.8,0,0,1-1.1-2,2.7,2.7,0,0,1-.3-1.2,1.7,1.7,0,0,1,3.4-.1V376h-.1a.3.3,0,0,1,.1.2l.5.9Z"/><path d="M316.9,393.1a7.6,7.6,0,0,1,.2,2.6,1.6,1.6,0,0,1-1.6,1.6h-.1a1.6,1.6,0,0,1-1.6-1.8v-.7c-.1-.3-.1-.5-.2-.8l-.3-.9h.1V393h0a.4.4,0,0,0-.1-.3c.1,0,.1.1.1.2q-1.8-6.4-4.2-12.6h0v-.2h0a3.6,3.6,0,0,0-.4-.9l-.3-.8a1.7,1.7,0,0,1,1-2.2,1.8,1.8,0,0,1,2.2,1h-.1a74.7,74.7,0,0,1,3.8,10.3l.9,2.8c.1.5.3.9.4,1.4h0a2.4,2.4,0,0,1,.2.8v.2h0v.2Z"/><path d="M309.6,393.9q.1,3,0,6a1.5,1.5,0,0,1-1,1.4v.6a1.7,1.7,0,0,1-1.7,1.6h-.1a1.8,1.8,0,0,1-1.6-1.8c.2-1.6.2-3.2.3-4.9s.1-1.4.1-2.1v-1.8a10.1,10.1,0,0,1,.3-1.7,11.1,11.1,0,0,0-.5-2.5,7.5,7.5,0,0,0-.5-1.6c-.1-.3-.3-.5-.4-.8l-.2-.3-.6-.6a1.7,1.7,0,0,1,2.6-2.3,11.5,11.5,0,0,1,2.5,5.2A26.1,26.1,0,0,1,309.6,393.9Z"/><path d="M299.6,396.8h-.4a1.6,1.6,0,0,1-1.6-1.3c-.3-1.6-.4-3.2-.6-4.9s-.3-2.7-.5-4a5.1,5.1,0,0,0-.2-1.3c0-.3-.1-.6-.1-.9a1.6,1.6,0,0,1,1.6-1.8,1.7,1.7,0,0,1,1.8,1.5h0c.3,1.8.5,3.5.7,5.3s.3,3.3.5,5c0,.1.1.3.1.4A1.8,1.8,0,0,1,299.6,396.8Z"/><path d="M299.6,384.1Z"/><path d="M348,390.5a1.8,1.8,0,0,1-.7,2.3h-.8a1.6,1.6,0,0,1-1.5-.9c-.8-1.8-1.7-3.5-2.6-5.2a41.5,41.5,0,0,0-3-4.3,30.7,30.7,0,0,0-2.9-3.4,9.3,9.3,0,0,0-1.5-1.3l-1-.8-.5-.2-1-.4a1.7,1.7,0,0,1-.7-2.3,1.6,1.6,0,0,1,2.2-.7,7.1,7.1,0,0,1,1.6.7l1.5,1a19.2,19.2,0,0,1,2.9,2.8,37.6,37.6,0,0,1,4.8,6.5A50.7,50.7,0,0,1,348,390.5Z"/><path d="M378.2,389.4l-1.5-1.4-1-.7-.6-.3h-.9a1.7,1.7,0,0,1,.7-3.3,9.1,9.1,0,0,1,3.5,1.5,23.8,23.8,0,0,1,3.6,3.5,37.1,37.1,0,0,1,2.3,3.2l.6,1a14.2,14.2,0,0,1,.8,1.8,1.7,1.7,0,0,1-1,2.2h-.6a1.8,1.8,0,0,1-1.6-1.2,4.3,4.3,0,0,1-.1-.5l-.5-.8a27.5,27.5,0,0,0-1.9-2.8h0A16.8,16.8,0,0,0,378.2,389.4Z"/><path d="M368.1,395.8l-.4-.6h-.1a1.6,1.6,0,0,1-1-1.9,1.7,1.7,0,0,1,2-1.3,3.7,3.7,0,0,1,2.3,2.1,19.6,19.6,0,0,1,1.3,2.5l.6,1.6c.2.6.5,1.3.7,2l.6,2.1h0a4.3,4.3,0,0,1,.1.5h0l.3,1.1a1.8,1.8,0,0,1-1.3,2h-.4a1.6,1.6,0,0,1-1.6-1.3l-.3-.9c0,.1,0,.1.1.1s-.1-.3-.2-.4h.1l-.3-.8h0a35.3,35.3,0,0,0-1.5-4.6Z"/><path d="M359.7,409.9a30.3,30.3,0,0,0-1.2-3.2c-.4-.8-.7-1.6-1.1-2.3l-.9-1.9-1.1-2.1a4.1,4.1,0,0,1-.5-.9,5.4,5.4,0,0,1-.5-1.1,1.7,1.7,0,0,1,1.3-2,1.6,1.6,0,0,1,1.9,1.1c.5.9,1.1,1.8,1.6,2.8s1,1.9,1.4,2.9a26.3,26.3,0,0,1,1.5,3.5l.9,2.2a6.5,6.5,0,0,1,.2,2,1.7,1.7,0,0,1-.1.7,1.4,1.4,0,0,1-.2.7,1.8,1.8,0,0,1-1.6,1l-.7-.2a1.7,1.7,0,0,1-.8-2.3h.1a.4.4,0,0,0-.1-.3h0v0A.9.9,0,0,0,359.7,409.9Z"/><path d="M332.8,409.1l-.4-.9a3.8,3.8,0,0,1-.1-1,1.8,1.8,0,0,1,2-1.3,1.5,1.5,0,0,1,1.2,1h0l.5,1.1a9.8,9.8,0,0,1,.5,1.6,23,23,0,0,1,.6,2.8,18.4,18.4,0,0,1,.3,4.1,1.7,1.7,0,0,1-1.7,1.6h-.1a1.7,1.7,0,0,1-1.6-1.8,1.3,1.3,0,0,1,.1-.6l-.3-2.1c-.1-1-.3-2.1-.5-3.2h-.1A5.6,5.6,0,0,0,332.8,409.1Z"/><path d="M319.1,417.3H319a1.7,1.7,0,0,1-1.7-1.6c-.1-1.9-.2-3.7-.4-5.5a2.8,2.8,0,0,1-.1-.9,1.7,1.7,0,0,1,2-1.3,1.4,1.4,0,0,1,1,.5,3.4,3.4,0,0,1,.5,1.4c0,.5.1,1.1.1,1.7s.2,2.5.3,3.8A1.8,1.8,0,0,1,319.1,417.3Z"/><path d="M305.1,411.4a1.8,1.8,0,0,1,2,1.4h0a17.9,17.9,0,0,1,.5,3.9,1.7,1.7,0,0,1-1.6,1.8h-.1a1.7,1.7,0,0,1-1.7-1.5,14.8,14.8,0,0,0-.1-2.1c-.1-.3-.1-.5-.2-.8a2.5,2.5,0,0,0-.2-.7A1.8,1.8,0,0,1,305.1,411.4Z"/></svg>