<svg id="Legs_4" data-name="Legs 4" xmlns="http://www.w3.org/2000/svg" viewBox="0 0 500 500"><defs><style>.cls-1{fill:lime;}.cls-2{fill:red;}</style></defs><polygon class="cls-1" points="190.7 384.2 191.1 394.6 185.9 414.6 180.7 426.4 189 426.4 200.3 429 210.2 435 216.3 440.3 221.1 425.9 228.5 402.9 228.5 389 190.7 384.2"/><polygon class="cls-2" points="181.1 425.5 172.5 442.9 171.6 452.8 177.2 460.2 189.4 466.7 200.3 466.3 208.9 458.1 216.3 440.3 210.2 435 193.3 428.1 181.1 425.5"/><path d="M230.4,393.5c0-.8-.1-1.6-.1-2.4a16.5,16.5,0,0,0-.4-3.1,1.4,1.4,0,0,0-2.6.8.4.4,0,0,0,.1.3,1.3,1.3,0,0,0,.1.6c0,.6.1,1.3.1,1.9s0,1.2.1,1.8h0a7.6,7.6,0,0,0-.1,1.5,17.9,17.9,0,0,1-.2,2.3l-.3,2.3c-.3,1.6-.6,3.1-1,4.7s-.7,3-1.1,4.5c-.9,3.2-1.7,6.4-2.6,9.5s-2.1,6.4-3,9.6c-.5,1.5-.9,3.1-1.3,4.7s-.8,3-1.3,4.5a6.5,6.5,0,0,1-.4,1.3,1.8,1.8,0,0,0-.5-.7,26.1,26.1,0,0,0-2.4-2.3l-2.1-1.7a13.7,13.7,0,0,0-2-1.3,8.2,8.2,0,0,0-2-1.2l-2.3-1a35.3,35.3,0,0,0-4.6-1.5l-4.7-1.3a30.3,30.3,0,0,0-4.3-1.2l-4.6-1-2.3-.3h-2.2a17.4,17.4,0,0,0,1-1.9l2-4.7,1.8-4.5A36.6,36.6,0,0,0,189,409c.5-1.6.9-3.2,1.3-4.8a65.5,65.5,0,0,0,2-9.8l.3-2.6a22.6,22.6,0,0,0,.1-2.6,18.5,18.5,0,0,0,.1-2.3,5.3,5.3,0,0,0-.1-1.3v-.9a1.3,1.3,0,0,0,.1-.9,1.4,1.4,0,0,0-1.4-1.1l-.8.2a1.6,1.6,0,0,0-.6.9,2.4,2.4,0,0,0,0,1.2v.7c.1,1,.1,2,.1,2.9l-.3,4.2-.3,2.1-.3,2.2h0c-.4,1.7-.7,3.3-1.1,4.9s-.8,3.2-1.3,4.8l-.6,2.1-.6,1.6c-.5,1.2-1,2.3-1.4,3.4l-3,7.2q-2.5,5.5-5.4,10.8a58.1,58.1,0,0,0-3.8,8.9,27.1,27.1,0,0,0-1.6,7.5,14.6,14.6,0,0,0,.9,6.2,19.2,19.2,0,0,0,1.8,3.1l2,2.5,2.6,2.5,1.1.8.8.6,1.3.9a17.1,17.1,0,0,0,2.7,1.4,12.5,12.5,0,0,0,2.5.9l1.5.4,1.2.3a15.2,15.2,0,0,0,2.1.3,11,11,0,0,0,2.6.2,18.4,18.4,0,0,0,10-2.9,14.2,14.2,0,0,0,2.9-2.6l1.6-2,1.5-2.2,2.4-4.1,2.3-4.6,2.1-4.2c.7-1.6,1.4-3.2,2-4.8s1.1-3.2,1.6-4.8l1.2-4.6c.5-1.6.9-3.2,1.4-4.9v.2c.7-2.4,1.5-4.7,2.2-7.1s1.4-4.6,2-6.9,1.7-6.4,2.4-9.7c.1-.7.3-1.5.4-2.2a20,20,0,0,0,.5-2.6l.3-2.5a19.3,19.3,0,0,1,.1-2.4Zm-19.5,57.1-1.7,3.3c-.6,1.1-1.3,2.2-2,3.3l-1.1,1.6-1.1,1.5-1.6,1.8a6.9,6.9,0,0,1-1.3,1.1l-1.1.7-1.3.6h-.1l-2.2.7h-.1l-2.2.4h-2.3a9.9,9.9,0,0,1-2.4-.3l-2.1-.4-1.7-.4-1.9-.8a9.4,9.4,0,0,1-2.2-1.2l-1.6-1-1.3-1-2.3-2.1h.1a.1.1,0,0,1-.1-.1h0a20,20,0,0,1-1.9-2.2l-1.2-1.9h0a11.7,11.7,0,0,0-.5-1.1l-.4-1.3c-.1-.4-.1-.7-.2-1.1v-2h0a18,18,0,0,1,.2-2.2h0a33.8,33.8,0,0,1,.8-3.4c.3-1,.6-2,1-3.1s.7-1.8,1.1-2.7h0c1.1-2.4,2.4-4.8,3.6-7.1a15.1,15.1,0,0,1,1.1-2.2.1.1,0,0,1,.1-.1h.2a1,1,0,0,0,.5-.4h1.7l2.9.3,3.9.9,1.8.4,1.8.5a.1.1,0,0,1-.1-.1l3.8,1.2,3.7,1,2,.7,2,.8a6.1,6.1,0,0,1,1.4.7l1.3.7,1.4.9,1.3,1,2.9,2.6a3.9,3.9,0,0,1,.8,1,2.2,2.2,0,0,1,.5.8,2.5,2.5,0,0,1,.4.7l-.9,2.2h0C213.2,446,212,448.3,210.9,450.6Z"/><path d="M181,427.9Z"/><polygon class="cls-1" points="306.9 383.2 306.5 393.6 311.7 413.6 316.9 425.4 308.7 425.4 297.4 428 287.4 434 281.3 439.3 276.5 424.9 269.1 401.9 269.1 388 306.9 383.2"/><polygon class="cls-2" points="316.5 424.5 325.2 441.9 326 451.8 320.4 459.2 308.2 465.7 297.4 465.3 288.7 457.1 281.3 439.3 287.4 434 304.3 427.1 316.5 424.5"/><path d="M267.3,392.5a19.3,19.3,0,0,0,.1,2.4,19.5,19.5,0,0,0,.2,2.5,20,20,0,0,0,.5,2.6c.1.7.3,1.5.4,2.2.7,3.3,1.6,6.4,2.4,9.7s1.3,4.6,2,6.9,1.5,4.7,2.3,7.1c-.1-.1-.1-.1-.1-.2.5,1.7.9,3.3,1.4,4.9l1.2,4.6c.5,1.6,1,3.2,1.6,4.8s1.3,3.2,2,4.8l2.1,4.2c.8,1.5,1.5,3.1,2.4,4.6s1.5,2.8,2.3,4.1l1.5,2.2,1.6,2a12.5,12.5,0,0,0,3,2.6,15.9,15.9,0,0,0,6,2.5,17.2,17.2,0,0,0,3.9.4,11,11,0,0,0,2.6-.2,15.2,15.2,0,0,0,2.1-.3l1.2-.3,1.5-.4a13.4,13.4,0,0,0,2.6-.9l2.6-1.4,1.3-.9.8-.6,1.1-.8,2.6-2.5,2-2.5a19.2,19.2,0,0,0,1.8-3.1,14.6,14.6,0,0,0,.9-6.2,23.9,23.9,0,0,0-1.6-7.5,49.6,49.6,0,0,0-3.8-8.9c-1.9-3.5-3.6-7.1-5.3-10.8s-2.1-4.8-3.1-7.2-.9-2.2-1.3-3.4a7.6,7.6,0,0,1-.6-1.6,17.2,17.2,0,0,1-.7-2.1c-.5-1.6-.9-3.2-1.3-4.8s-.7-3.2-1.1-4.9h0l-.3-2.2-.3-2.1-.3-4.2c0-.9.1-1.9.1-2.9V384a1.7,1.7,0,0,0,0-1.2,1.6,1.6,0,0,0-.6-.9l-.8-.2a1.4,1.4,0,0,0-1.4,1.1c0,.4,0,.7.2.9a2.8,2.8,0,0,0-.1.9,6.2,6.2,0,0,1-.1,1.3,18.5,18.5,0,0,0,.1,2.3c0,.9.1,1.7.1,2.6l.3,2.6a65.5,65.5,0,0,0,2,9.8,43.4,43.4,0,0,0,1.4,4.8c.5,1.6,1.1,3.1,1.7,4.6l1.8,4.5,2,4.7,1,1.9H313l-2.3.3-4.6,1a34.5,34.5,0,0,0-4.3,1.2l-4.7,1.3a41.1,41.1,0,0,0-4.6,1.5l-2.2,1a8.8,8.8,0,0,0-2.1,1.2,13.7,13.7,0,0,0-2,1.3l-2.1,1.7-2.4,2.3-.5.7-.4-1.3c-.5-1.5-.9-3-1.3-4.5s-.8-3.2-1.3-4.7c-.9-3.2-2-6.4-3-9.6s-1.7-6.3-2.5-9.5l-1.2-4.5c-.3-1.6-.7-3.1-1-4.7l-.3-2.3a17.9,17.9,0,0,1-.2-2.3v-1.5h0v-1.8c.1-.6.1-1.3.2-1.9v-.6a.4.4,0,0,0,.1-.3,1.3,1.3,0,0,0-.9-1.7,1.5,1.5,0,0,0-1.7.9,16.5,16.5,0,0,0-.4,3.1,19.2,19.2,0,0,0,0,2.4Zm16,50.1h.1l-1-2.2.4-.7a2.2,2.2,0,0,1,.5-.8l.8-1,2.9-2.6,1.3-1,1.4-.9,1.3-.7,1.4-.7,2-.8,2.1-.7,3.7-1,3.7-1.2a.1.1,0,0,1-.1.1l1.8-.5,1.9-.4,3.9-.9,2.9-.3h1.6a1,1,0,0,0,.5.4h.2c.1,0,.1,0,.1.1a15.1,15.1,0,0,1,1.1,2.2c1.2,2.3,2.5,4.7,3.6,7.1h0c.4.9.8,1.8,1.1,2.7s.7,2.1,1,3.1a33.8,33.8,0,0,1,.8,3.4h0a.1.1,0,0,0,.1.1c-.1,0-.1,0-.1-.1l.3,2.2h0c0,.7-.1,1.3-.1,2s-.1.7-.2,1.1a6.5,6.5,0,0,1-.4,1.3l-.5,1.1h0l-1.2,1.9a20,20,0,0,1-1.9,2.2h0c0,.1,0,.1-.1.1h.1l-2.3,2.1-1.3,1-1.5,1a12.7,12.7,0,0,1-2.3,1.2l-1.9.8-1.7.4-2,.4a9.9,9.9,0,0,1-2.4.3h-2.4l-2.2-.4h-.1l-2.2-.7h-.1l-1.3-.6-1.1-.7a6.9,6.9,0,0,1-1.3-1.1l-1.6-1.8-1.1-1.5-1.1-1.6c-.7-1.1-1.3-2.2-1.9-3.3l-1.8-3.3C285.6,447.3,284.4,445,283.3,442.6Z"/><path d="M316.6,426.9Z"/></svg>