<svg id="Legs_3" data-name="Legs 3" xmlns="http://www.w3.org/2000/svg" viewBox="0 0 500 500"><defs><style>.cls-1{fill:lime;}</style></defs><polygon class="cls-1" points="221.5 393.8 210.6 420.4 208 432.8 201.4 430.6 192.2 435.8 190.9 445.9 198.8 446.3 204.9 443.3 202.3 450.3 205.3 457.3 213.7 460.8 217.2 454.2 217.6 447.2 221.1 452.4 225.9 452.4 228.5 444.6 225.9 438.4 220.7 436.7 219.8 433.6 232 399.9 221.5 393.8"/><polygon class="cls-1" points="259.2 394.4 275.2 417 282.6 426.2 287.6 426 297.7 428.6 299 433.4 294.5 439.4 287.9 437.6 291.9 444 291.4 447.8 285.2 450.5 280.4 446.3 276.9 441.7 272.5 446.1 268.4 447.4 263.4 442.8 264.4 436.7 270.4 433 271.4 431.2 252.4 397.3 259.2 394.4"/><path d="M231.3,398.6a1.7,1.7,0,0,0-2,1.5,3.6,3.6,0,0,0-.2,1c-.3,1.2-.6,2.5-1,3.7l-1.2,3.6c-1,2.5-2,5-2.8,7.6s-1,4-1.7,6-1.5,4.1-2.2,6.2-.6,2-1,3.1-.8,2-1.1,3.1-.7,3.1.7,4a4.8,4.8,0,0,0,1.7.5l1.5.5.8.3.8.5.7.6.7.7.6.9a2.2,2.2,0,0,1,.5.8,4.9,4.9,0,0,1,.4,1.1,1.9,1.9,0,0,1,.2.7,2.5,2.5,0,0,1,.1.8v.8c-.1.4-.1.8-.2,1.2l-.3.9c0,.1-.1.2-.1.4s-.1.1-.2.2a.3.3,0,0,0-.1.2h-.4l-.3.2h-1.6l-.9-.2-.6-.2-.5-.2-.4-.3h-.1l-.8-.7-1-1a5.8,5.8,0,0,0-1.3-1.4,1.7,1.7,0,0,0-1.8-.1h-.1a1.8,1.8,0,0,0-1,1.5c0,.6.1,1.2.1,1.8s.1,1.1.1,1.6h0v.8h0v.2h0a28,28,0,0,1,0,2.9c-.1.4-.1.8-.2,1.2a2.5,2.5,0,0,0-.2.7l-.2.4a.3.3,0,0,0-.1.2h-.1a.1.1,0,0,0-.1.1.1.1,0,0,0-.1.1h-.4l-.6.2h-.5a4.1,4.1,0,0,1-1.1,0l-1.2-.2-.7-.2-.7-.3-.9-.5-.5-.5a4.6,4.6,0,0,1-.7-.7l-.5-.7-.6-1.1-.6-1.6a19.4,19.4,0,0,1-.5-2,12.4,12.4,0,0,1-.2-1.8v-3c.1-.4.1-.7.2-1a2.5,2.5,0,0,1,.2-.7,1.9,1.9,0,0,0,.2-.8,1.8,1.8,0,0,0-2.6-1.9l-.9.7-3.3,2.5-1.3.7-.9.4-.7.2h-1.6c-.1-.1-.2-.1-.2-.2l-.4-.2-.3-.3-.4-.6-.3-.5a13852799025633.3,13852799025633.3,0,0,1-.4-1.4v-1.2a1.7,1.7,0,0,1,.1-.7,1.4,1.4,0,0,1,.2-.7l.2-.5.6-.9c.4-.6.9-1.1,1.3-1.6l1.8-1.7,1.2-1,1.6-.8,1.3-.5,1-.3h2.5l1.9.4h0l.9.2h-.1a4.5,4.5,0,0,0,1.6.3,1.7,1.7,0,0,0,1.2-.2,3,3,0,0,0,1.5-1.2,6.4,6.4,0,0,0,.9-2.1l.9-2.7c1.1-3.7,2.2-7.5,3.6-11.2h0l1.1-2.9h0c1.1-2.7,2.1-5.5,3.1-8.3s.9-3,1.4-4.5.5-1.9.8-2.8a2.1,2.1,0,0,0,1.1-1.9c-.1-.3-.1-.7-.2-1a1.7,1.7,0,0,0-1.5-1.4,1.7,1.7,0,0,0-1.6.5,4.2,4.2,0,0,0-.9,1.6l-.6,2.1-1.2,3.9c-.5,1.3-.9,2.7-1.4,4s-.9,2.5-1.3,3.8,0-.2.1-.2a30.3,30.3,0,0,0-1.2,3.2v-.3c0,.2-.1.3-.1.5a.4.4,0,0,1,.1-.3c-1.2,3-2.3,6-3.2,9.1s-1.7,5.6-2.7,8.4a.4.4,0,0,1-.1.3h-.5a29.3,29.3,0,0,0-4.1-.7,15.2,15.2,0,0,0-4.2.6,21.2,21.2,0,0,0-3.7,1.8,25,25,0,0,0-3.9,3.4c-1.3,1.6-2.6,3.2-3,5.3a9,9,0,0,0,1.8,7.4,6.4,6.4,0,0,0,6.8,2,17.9,17.9,0,0,0,3.9-2h0a31.3,31.3,0,0,0,.4,4.3,15.8,15.8,0,0,0,1.1,3.7,16.5,16.5,0,0,0,1.5,2.5,10,10,0,0,0,4.5,3.4,8.2,8.2,0,0,0,3.1.7h1.1l1.7-.2a5.8,5.8,0,0,0,2.5-1.2,5.4,5.4,0,0,0,1.5-2.2,16,16,0,0,0,.7-5.8,9.5,9.5,0,0,0,1.7,1,9.4,9.4,0,0,0,2.8.6,6.5,6.5,0,0,0,5-1.8,6,6,0,0,0,1.4-2.6,9.8,9.8,0,0,0,.5-2.9,11.2,11.2,0,0,0-5.8-10,11.8,11.8,0,0,0-3-1,24.1,24.1,0,0,0,.8-2.5,23.1,23.1,0,0,0,1-2.8l2.1-5.9c.7-1.9,1.2-3.9,1.7-5.8s1.2-3.9,1.9-5.9a.4.4,0,0,1-.1.3c.8-2,1.6-3.9,2.2-5.9a36.4,36.4,0,0,0,1.6-6.3A1.8,1.8,0,0,0,231.3,398.6Zm-5.4,50.8Zm0,0Z"/><path d="M300.4,430a9.6,9.6,0,0,0-4.5-4.6,10.8,10.8,0,0,0-4.3-1.3,18.8,18.8,0,0,0-3.4-.2h-3.3l-2.6.2h-.1l-.6-.8-1.7-2.7c-1.3-2-2.5-4.1-3.9-6l-3.9-5.9-2.4-3.8-2.5-3.7v.2l-1.9-3.1a11.5,11.5,0,0,0-2.1-2.7,8.8,8.8,0,0,0-3.2-1.9,1.8,1.8,0,0,0-2.3,1.2A1.9,1.9,0,0,0,259,397h.1l.7.3.5.3c.2.2.4.3.5.5l.6.6.5.7,2.4,3.8,2.3,3.4,3.6,5.7,3.6,5.3h.1l3.7,5.9c0-.1,0-.1-.1-.2.9,1.4,1.7,3.1,3.2,3.9a2.5,2.5,0,0,0,1.7.3h2.5a52.8,52.8,0,0,1,5.6.1l2,.3.7.2.6.3,1.2.7.9.7.6.7.4.5c.1.2.2.3.2.5l.3.5c0,.3.1.5.1.7s.1.4.1.6v.6a1.3,1.3,0,0,0-.1.6c-.1.1-.1.2-.1.4l-.2.3a.3.3,0,0,1-.1.2l-.3.3h.1c0,.1-.1.1-.1.2h-3.5l-2.4-.2a2.3,2.3,0,0,0-1.8.7,2,2,0,0,0-.7,1.5,5.8,5.8,0,0,0,.3,1.4l.3.9a14.2,14.2,0,0,1,.4,2h.1c-.1,0-.1,0-.1-.1a10,10,0,0,1,.2,1.6v1c-.1.3-.1.6-.2.8a1.9,1.9,0,0,1-.2.8.8.8,0,0,1-.2.4c0,.1,0,.2-.1.2s-.1.2-.2.2a.2.2,0,0,1-.2.2h-.1l-.3.2h-1l-.8-.2-.7-.2-.5-.2-.4-.2h.1a.1.1,0,0,1-.1-.1h0a1.8,1.8,0,0,1-.7-.5l-1.9-2.1-1.1-1.5-1.2-1.7c-.2-.4-.5-.9-.7-1.4a3.6,3.6,0,0,1-.4-.9,2.3,2.3,0,0,0-.7-.7,1.9,1.9,0,0,0-2.5.6l-.3.6a.1.1,0,0,1,.1-.1.1.1,0,0,0-.1.1h0a8.3,8.3,0,0,1-.8,1.2,14.1,14.1,0,0,1-1.4,1.8l-1.5,1.5-.8.7-.8.4-.6.2h-.5c0,.1-.1.1-.2.1H268l-.7-.2-.5-.2h-.2l-.5-.4-.2-.3-.4-.4a1.6,1.6,0,0,0-.4-.7c0-.2-.1-.3-.1-.4a10998156482297.2,10998156482297.2,0,0,1-.2-1.2v-.8a3.6,3.6,0,0,1,.2-1,2.5,2.5,0,0,1,.2-.7l.3-.8.3-.5.8-.9a2.4,2.4,0,0,1,.9-.8,3.1,3.1,0,0,1,.9-.7h0l.5-.3.4-.2h2a2.6,2.6,0,0,0,.9-.9,2.2,2.2,0,0,0-.1-2.2c-.5-.9-1-1.6-1.4-2.4l-3-4.7h0l-3.2-5.5a23.3,23.3,0,0,1-1.7-2.6c-.5-.9-1-1.8-1.4-2.7a.3.3,0,0,0,.1.2l-.9-1.8c-.9-2.2-1.8-4.3-2.8-6.4s-2-4.5-2.8-6.9v-.9a1.8,1.8,0,0,0-2-1.6,2.2,2.2,0,0,0-1.1.5,2.1,2.1,0,0,0-.6,1.7,8.4,8.4,0,0,0,1,3.3,25.4,25.4,0,0,0,1.6,3.8c1.2,2.8,2.3,5.5,3.5,8.2,0-.1-.1-.1-.1-.2.7,1.5,1.4,2.9,2.2,4.3a25.6,25.6,0,0,0,2.2,3.5c.7,1.2,1.3,2.5,2.1,3.6s1.5,2.5,2.3,3.7l1.6,2.6.2.3-.5.2a9.3,9.3,0,0,0-2.6,1.8,10.4,10.4,0,0,0-3.4,5.3,8.3,8.3,0,0,0,.7,6.2,7.1,7.1,0,0,0,4.7,3.9,6.9,6.9,0,0,0,3.2,0,10.2,10.2,0,0,0,2.8-1.3,14.2,14.2,0,0,0,3.1-2.9l1-1.2,1.4,2.1,1.8,2.1a10,10,0,0,0,4.3,3.3,7.2,7.2,0,0,0,2.9.6,5.9,5.9,0,0,0,4.7-2.6,7.9,7.9,0,0,0,1.1-2.9,14.1,14.1,0,0,0-.4-5.8,1.9,1.9,0,0,0-.2-.7l2,.2a8.3,8.3,0,0,0,3.5-.6,5.6,5.6,0,0,0,2.4-2.4A8,8,0,0,0,300.4,430ZM288,448h0Zm8.8-12.2Zm.4-.5h0Z"/></svg>