<svg id="Legs_1" data-name="Legs 1" xmlns="http://www.w3.org/2000/svg" viewBox="0 0 500 500"><defs><style>.cls-1{fill:lime;}</style></defs><path class="cls-1" d="M326.7,352.3,338.9,335l26.5-19.6,5.2-14.3L394,283.7l19.2-8.7,3.9,27.8-.9,33.5s-6.5,48.2-7.4,49.5-3.9,14.8-4.3,13.5-.5-66.1-.5-66.1l.5-10.8V310.6l-4.8,13.9-10,15.2-13.5,62.6-14.7,32.1,14.7-80.3-6.9,3-6.1,11.3-18.7,9.1Z"/><path d="M369.7,301.4Z"/><path d="M420.3,307a100.6,100.6,0,0,0-1.6-15.5c-.4-2.7-.9-5.3-1.3-7.9s-.4-2.6-.7-3.9-.5-2.4-.8-3.6a11.6,11.6,0,0,0-.4-1.8,9.4,9.4,0,0,0-.6-1.5,2.3,2.3,0,0,0-2.9-.8,12.2,12.2,0,0,0-2.4,1l-5,2.6-5.6,3.1h-.1l-.8.5h-.2l-.5.2-1.1.7-2.1,1.2c-2.3,1.3-4.5,2.7-6.7,4.1l-3.6,2.4a28,28,0,0,0-3.3,2.4,76.8,76.8,0,0,0-5.9,5.5c-1.7,1.8-3.4,3.6-5,5.6h-.1l-.3.5v-.2l-.3.4-.4.4h0l-.2.2h.1l-.3.4a61.3,61.3,0,0,0-5,6.7l-1.1,1.9a6.9,6.9,0,0,0-.9,3.1h0l-.8.5c-2.3,1.4-4.7,2.6-6.9,4.2a73.8,73.8,0,0,0-6.4,5c-2.1,1.8-4.1,3.6-6,5.5l-5.6,5.7a58.9,58.9,0,0,0-5.1,6.1,77.5,77.5,0,0,0-4.6,6.6,17.4,17.4,0,0,0-1.1,1.8,12.1,12.1,0,0,0-.9,2,5.3,5.3,0,0,0-.4,1.7,2.2,2.2,0,0,0,.7,1.7,2.2,2.2,0,0,0,1.4.6,2.5,2.5,0,0,0,1.2-.1h-.3a2.2,2.2,0,0,0,1.8-2.5.6.6,0,0,0-.1-.4v-.2c.4-.7.7-1.4,1.1-2a82.7,82.7,0,0,1,5.9-8.3c3.1-3.7,6.5-7.1,9.9-10.5s6-5.4,9.2-7.9a45.3,45.3,0,0,1,4.6-3l5-2.9,2.9-1.7a.6.6,0,0,0,.1.4,5.6,5.6,0,0,0,3.5,4.2h.7a2.2,2.2,0,0,0,2.1-1.4,2.1,2.1,0,0,0-1.3-2.8h-.3l-.2-.2c0-.1-.1-.3-.1-.4h0v0c-.1-.2-.1-.4-.2-.5a.3.3,0,0,0,.1.2.4.4,0,0,1-.1-.3h0a3.6,3.6,0,0,1-.2-1.1c0-.1.1-.3.1-.4l2.3-1.4h-.2l5.1-2.7,2.9-1.5,2.5-1.1h0l3.4-1.2h0v.2c-.1,1.1,0,2.3,0,3.5s.3,4.4.5,6.6l.3,5.7-.6.3-3,2-.4.2h0a2.3,2.3,0,0,0-1.9,1.4,2.3,2.3,0,0,0,1.1,2.8h1a4.1,4.1,0,0,0,1.9-.5l2-1.2v2.3h0v3.5a94.5,94.5,0,0,1-.8,10.7c-.2,2.1-.4,4.1-.7,6.1s-.5,3.6-.8,5.4-.9,5.3-1.4,7.9-1.1,5-1.7,7.5-1.2,5-1.9,7.5a2.1,2.1,0,0,0-1.1.4,44.8,44.8,0,0,1-4,3.6h0l-1.2.7-.5.2h-.3c.4-2.1.8-4.3,1.1-6.4s.5-5.1.6-7.7.3-4.3.5-6.5.4-4.4.7-6.5.6-4.3.9-6.5a44.4,44.4,0,0,0,.4-6.3h0a.1.1,0,0,1,.1-.1v-.2h0v-.8c.1-.6.1-1.3.2-1.9a8.1,8.1,0,0,0-.1-2.2,2.2,2.2,0,0,0-2.2-1.9,2.5,2.5,0,0,0-2.1,1.7,7.6,7.6,0,0,0-.1,1.5,10.3,10.3,0,0,1-.1,1.7v.5l-.3,2.1h0l-.3-.9a.4.4,0,0,1,.1.3h0a2.3,2.3,0,0,0-2.5-1.8,2.2,2.2,0,0,0-1.8,2.6,13.3,13.3,0,0,0,.5,1.9l.5,1.7c.3,1.5.5,3.1.7,4.6v.3c0,.1.1.2.1.3s-.1.1-.1.2c-.8,1.6-1.7,3.1-2.6,4.6s-1.1,1.8-1.7,2.7a18.4,18.4,0,0,1-1.7,2.2l-1.2,1.3-1.4,1.3h.1l-3.1,2.6-2.5,1.6c-2,1.1-4.1,2-6.2,3l-3.3,1.5-1.2.5a2.3,2.3,0,0,0-2.6.5l-.9,1.3a2.3,2.3,0,0,0,1.1,3.1,2.3,2.3,0,0,0,1.4.2l1.3-.4,1.1-.5,2.4-1,4.5-2.1a52.8,52.8,0,0,0,5.8-3,27.4,27.4,0,0,0,5-4h0l.9-.9a32.5,32.5,0,0,0,5-6.1,16.3,16.3,0,0,1,1.1-1.7c-.2,1.3-.3,2.7-.5,4.1s-.3,4.3-.3,6.5h0v.1c-.2,2.9-.6,5.8-1,8.7v-.2h0c-.5,2.6-.8,5.2-1.5,7.7s-1.4,5.3-2.1,7.9a68.7,68.7,0,0,0-1.9,7.5c-.6,2.7-.9,5.4-1.4,8.1a61.8,61.8,0,0,1-1.2,6.2l-1.5,6.2c-.6,2.1-1.2,4.2-1.7,6.3l-.6,3.2-.3,1.7a4.6,4.6,0,0,0-.1,2,2.1,2.1,0,0,0,1.6,1.8h.5a2.2,2.2,0,0,0,1.8-1c.5-.7.9-1.5,1.4-2.3a15.9,15.9,0,0,1,1.3-2.2c.9-1.7,1.9-3.3,2.9-4.9s1.7-3.1,2.5-4.6,1.7-3.6,2.5-5.4c2.1-4.9,3.9-10.1,5.7-15.1s3.5-10.4,5.1-15.7a.4.4,0,0,0-.1.3c1.3-4.2,2.4-8.5,3.5-12.8s1.9-8.1,2.7-12.1,1.8-10.7,2.4-16c.3-2.7.6-5.4.7-8l.4-.3a24.3,24.3,0,0,0,2.9-2.6,24.8,24.8,0,0,0,2.5-3,18.5,18.5,0,0,0,2.1-3.3l3.9-6.7c.5-1,1-1.9,1.4-2.8a17.6,17.6,0,0,1,0,2.3h0v.2h0l-.6,15.3c-.2,2.6-.3,5.2-.4,7.8s-.3,5.1-.5,7.7-.4,5.3-.7,7.9l-.3,3.9a14.9,14.9,0,0,1-.2,2.1,2.3,2.3,0,0,0-.2,2c-.2,2.4-.4,4.8-.5,7.3s-.3,5.4-.3,8.1h0v.2h0c-.2,2.9-.5,5.7-.7,8.6a29.7,29.7,0,0,0-.3,4.2,16.1,16.1,0,0,0,.2,4.4c.3,1.3.5,2.6,1.7,3.3l1,.2a2,2,0,0,0,1.6-.7,4.4,4.4,0,0,0,.9-1.8,19.4,19.4,0,0,0,.5-2l1.2-4.5c.6-2,1.3-3.9,1.9-5.9a56.1,56.1,0,0,0,1.3-5.9c.4-2.2.8-4.5,1.1-6.7s.7-4.1,1-6.2.8-5.3,1.1-7.9l.3-2a8.6,8.6,0,0,1,.7-1,2.1,2.1,0,0,0-.2-2.7,25.1,25.1,0,0,0,.4-2.7c.4-2.7.7-5.5,1.1-8.3s.7-5,1.1-7.5c.7-5.4,1.5-10.9,2-16.4.3-2.4.6-4.9.7-7.3s.2-2.9.2-4.3Zm-43.2,83.5a.4.4,0,0,0,.1-.3c-1.5,4.9-3.2,9.7-4.9,14.6-.9,2.5-1.8,5-2.8,7.5s-2.1,4.9-3.1,7.3-1,2.1-1.6,3.1a26.8,26.8,0,0,0,.7-2.7c1.2-4.9,2-10,2.8-14.9a34.3,34.3,0,0,1,.9-4.4c.7-2.6,1.5-5.2,2.2-7.9l1.2-4.5h.8a10.6,10.6,0,0,0,4.8-2.2l.4-.3a.3.3,0,0,0-.1.2c0-.1,0-.1.1-.2h0Zm36.8-101.3a1.6,1.6,0,0,0-1,.2l-.9.4h-.5l1.4-.6.9-.5A1.3,1.3,0,0,0,413.9,289.2Zm-7.1,92.6c0-.1.1-.1.1-.2l-1.2,5.7c0-.9.1-1.7.1-2.6s.1-3.1.2-4.7h0v-.2h0c.1-2.2.2-4.5.4-6.7s.2-2.8.4-4.2h0l2.3-1.9C408.5,371.9,407.6,376.9,406.8,381.8Zm9.1-69.2c-.1,1.8-.3,3.7-.4,5.5q-.7,7.8-1.8,15.6l-1.2,8.3c-.3,2.6-.7,5.2-1,7.8s-.9,6.6-1.4,9.9l-.4.6-1.8,2a.1.1,0,0,1,.1-.1.1.1,0,0,0-.1.1h0l-.6.5c.2-1.8.3-3.6.5-5.4s.4-5.1.6-7.6.2-5.1.3-7.7c.3-5.3.6-10.5.8-15.8.1-2.6.2-5.3.1-8s-.7-5-1-7.5a17,17,0,0,1-.1-2.2h0a1.7,1.7,0,0,1,.1-.7,2.2,2.2,0,0,0-4.2-1.3,4,4,0,0,0-.3,1.5.4.4,0,0,1-.1.3c.1,0,.1-.1.1-.2a.4.4,0,0,1-.1.3h0a43.7,43.7,0,0,1-1.2,5.2c-.4,1.2-.9,2.4-1.4,3.6a41.4,41.4,0,0,1-2.9,5.5c-.9,1.7-1.9,3.4-2.9,5.1a19.4,19.4,0,0,1-2.1,2.9l-1.2,1.4c0-.7.1-1.4.1-2.1h0c.1-4-.1-7.9-.3-11.9a103.2,103.2,0,0,1-.6-11.1,14.9,14.9,0,0,1,.2-2.1,3.3,3.3,0,0,0,.1-2.2,2.3,2.3,0,0,0-2.1-1.7,3.9,3.9,0,0,0-2,.5l-1.5.5a66.2,66.2,0,0,0-6.2,2.4l-6.3,3.2-6.1,3.4,4.1-5.4h-.1l.2-.2.5-.6-.2.2.5-.6.3-.4.2-.2H373c2.3-2.8,4.9-5.4,7.4-8l2-1.8,2-1.6c2.4-1.7,4.9-3.3,7.4-4.9l7.8-4.7h.3a11.9,11.9,0,0,0,1.5-.9l.7-.3,1.6-.9,3.8-2.1,4.1-2.1.3,1.4v-.2a.4.4,0,0,0,.1.3h0a47.1,47.1,0,0,1,.9,5.2,1.3,1.3,0,0,1,.1.6,1.3,1.3,0,0,0-.8.3l-.7.3h0l-1.2.7a2,2,0,0,0-2.1-.5,2.1,2.1,0,0,0-1.4,2.7h0v.2l.3.5a3.4,3.4,0,0,0,1.8,1.3h1.5a2.2,2.2,0,0,0-1,.9,2.6,2.6,0,0,0-.2,2.3,2.5,2.5,0,0,0,1.9,1.4h.4a8.7,8.7,0,0,0,3.1-1l.3,1.9c.3,1.9.5,3.7.7,5.6s.3,3.8.3,5.7.1,2,.1,3A27.1,27.1,0,0,0,415.9,312.6Z"/><path class="cls-1" d="M191.1,352.3,179,335l-26.5-19.6-5.2-14.3-23.5-17.4L104.7,275l-3.9,27.8.9,33.5s6.5,48.2,7.4,49.5,3.9,14.8,4.3,13.5.4-66.1.4-66.1l-.4-10.8V310.6l4.8,13.9,10,15.2,13.4,62.6,14.8,32.1-14.8-80.3,7,3,6.1,11.3,18.6,9.1Z"/><path d="M148.2,301.4Z"/><path d="M97.6,311.3c0,1.4.1,2.9.2,4.3s.4,4.9.6,7.3c.6,5.5,1.4,11,2.1,16.4.3,2.5.7,5,1.1,7.5s.7,5.6,1.1,8.3l.3,2.7a2.2,2.2,0,0,0-.1,2.7l.6,1,.3,2c.4,2.6.7,5.3,1.1,7.9s.7,4.2,1,6.2.7,4.5,1.1,6.7a56.3,56.3,0,0,0,1.4,5.9c.5,2,1.2,3.9,1.9,5.9s.7,3,1.1,4.5l.6,2a4.2,4.2,0,0,0,.8,1.8,2.3,2.3,0,0,0,1.7.7l1-.2c1.1-.7,1.4-2,1.7-3.3a16.1,16.1,0,0,0,.2-4.4c0-1.4-.2-2.8-.3-4.2s-.6-5.7-.7-8.6h0v-.2h0c-.1-2.7-.1-5.4-.3-8.1s-.4-4.9-.6-7.3a2,2,0,0,0-.2-2,14.9,14.9,0,0,0-.2-2.1l-.3-3.9c-.2-2.6-.5-5.2-.7-7.9s-.4-5.1-.5-7.7l-.3-7.8c-.3-5.1-.5-10.2-.7-15.3h0v-.2h0v-2.3l1.5,2.8,3.8,6.7a27,27,0,0,0,2.2,3.3,24.3,24.3,0,0,0,2.4,3l2.9,2.6.4.3c.2,2.6.4,5.3.7,8,.7,5.3,1.5,10.7,2.5,16s1.6,8.1,2.6,12.1,2.3,8.6,3.6,12.8c0-.1-.1-.2-.1-.3,1.6,5.3,3.3,10.5,5.1,15.7s3.5,10.2,5.7,15.1c.8,1.8,1.6,3.6,2.5,5.4a52,52,0,0,0,2.5,4.6c1,1.6,2,3.2,2.9,4.9l1.3,2.2a17.1,17.1,0,0,0,1.3,2.3,2.2,2.2,0,0,0,1.8,1h.5a2.3,2.3,0,0,0,1.7-1.8,6.9,6.9,0,0,0-.1-2l-.3-1.7c-.2-1-.4-2.1-.7-3.2s-1.1-4.2-1.6-6.3-1.1-4.1-1.6-6.2l-1.2-6.2c-.4-2.7-.8-5.4-1.3-8.1s-1.2-5-1.9-7.5-1.5-5.2-2.2-7.9-1-5.1-1.4-7.7h0v.2a85.8,85.8,0,0,1-1-8.7v-.1h0c-.1-2.2-.2-4.3-.4-6.5s-.2-2.8-.4-4.1l1.1,1.7a32.5,32.5,0,0,0,5,6.1l.9.9h-.1a32,32,0,0,0,5.1,4,61.9,61.9,0,0,0,5.7,3l4.6,2.1,2.4,1,1.1.5,1.2.4a2.2,2.2,0,0,0,1.4-.2,2.2,2.2,0,0,0,1.2-3.1,6.4,6.4,0,0,0-1-1.3,2.3,2.3,0,0,0-2.6-.5l-1.1-.5-3.3-1.5c-2.1-1-4.2-1.9-6.2-3l-2.5-1.6a38.8,38.8,0,0,1-3.1-2.6h0l-1.4-1.3-1.2-1.3c-.5-.7-1.1-1.4-1.6-2.2l-1.8-2.7c-.9-1.5-1.7-3-2.5-4.6a.3.3,0,0,1-.1-.2v-.3c0-.2.1-.3.1-.5s0,.2-.1.2.5-3.1.8-4.6.3-1.1.4-1.7l.6-1.9a2.3,2.3,0,0,0-1.8-2.6,2.2,2.2,0,0,0-2.5,1.8h0v-.3a2.9,2.9,0,0,0-.2.9h-.1l-.3-2.1v-.5a9.1,9.1,0,0,0-.1-1.7,7.6,7.6,0,0,0-.1-1.5,2.2,2.2,0,0,0-4.3.2,8.1,8.1,0,0,0,0,2.2,12.3,12.3,0,0,0,.2,1.9v.8h0v.2h0c.1,2.1.2,4.2.5,6.3s.6,4.3.9,6.5.4,4.3.7,6.5.4,4.3.5,6.5a49.9,49.9,0,0,0,.6,7.7c.3,2.1.7,4.3,1,6.4h-.2l-.6-.2-1.1-.7h-.1a44.8,44.8,0,0,1-4-3.6,2.1,2.1,0,0,0-1.1-.4c-.6-2.5-1.3-5-1.9-7.5s-1.1-5-1.6-7.5-1-5.2-1.4-7.9-.6-3.6-.8-5.4-.5-4-.8-6.1-.6-7.1-.7-10.7V330h0v-2.3l2,1.2a3.7,3.7,0,0,0,1.8.5h1.1a2.3,2.3,0,0,0,1.1-2.8,2.3,2.3,0,0,0-1.9-1.4h-.1l-.4-.2-2.9-2-.6-.3c0-1.9.2-3.8.3-5.7s.4-4.4.4-6.6a20.8,20.8,0,0,0,.1-3.5v-.2h.1l3.3,1.2h.1l2.5,1.1,2.9,1.5,5.1,2.7h-.3l2.4,1.4a.6.6,0,0,0,.1.4,5.2,5.2,0,0,0-.2,1.1h0c0,.1-.1.2-.1.3s0-.2.1-.2-.1.3-.2.5.1-.1.1-.2-.1.1-.1.2h0c-.1.1-.1.3-.2.4s-.1.1-.1.2h-.4a2.1,2.1,0,0,0-1.2,2.8,2,2,0,0,0,2,1.4h.8a5.6,5.6,0,0,0,3.5-4.2.6.6,0,0,1,.1-.4l2.9,1.7c1.7.9,3.3,1.9,4.9,2.9a45.3,45.3,0,0,1,4.6,3,115.9,115.9,0,0,1,9.2,7.9c3.4,3.4,6.8,6.8,9.9,10.5s4.1,5.4,6,8.3c.3.6.7,1.3,1,2s.1.1.1.2a.6.6,0,0,1-.1.4,2.2,2.2,0,0,0,1.8,2.5h-.2a2.5,2.5,0,0,0,1.2.1,2.2,2.2,0,0,0,1.3-.6,2.2,2.2,0,0,0,.7-1.7,3.4,3.4,0,0,0-.3-1.7,12.4,12.4,0,0,0-1-2,16.2,16.2,0,0,0-1-1.8,77.5,77.5,0,0,0-4.6-6.6,76,76,0,0,0-5.2-6.1l-5.5-5.7-6-5.5a62.4,62.4,0,0,0-6.5-5,77.4,77.4,0,0,0-6.8-4.2l-.8-.5h0a7.1,7.1,0,0,0-1-3.1c-.3-.7-.7-1.3-1-1.9a77.6,77.6,0,0,0-5-6.7l-.3-.4h0a.3.3,0,0,0-.1-.2h-.1l-.3-.4c-.1-.2-.3-.3-.4-.4l.2.2-.4-.5h0a67.7,67.7,0,0,0-5.1-5.6,60.6,60.6,0,0,0-5.8-5.5l-3.3-2.4-3.6-2.4c-2.2-1.4-4.4-2.8-6.7-4.1l-2.1-1.2-1.1-.7-.6-.2a.1.1,0,0,0-.1-.1l-.8-.5h-.1l-5.7-3.1-5-2.6a9.4,9.4,0,0,0-2.3-1,2.5,2.5,0,0,0-3,.8,8.8,8.8,0,0,0-.5,1.5,11.6,11.6,0,0,0-.4,1.8l-.9,3.6-.6,3.9c-.5,2.6-.9,5.2-1.4,7.9A114.7,114.7,0,0,0,97.5,307C97.5,308.4,97.5,309.8,97.6,311.3Zm41.7,74.5h0v0l.3.3a10.9,10.9,0,0,0,4.9,2.2h.8a37.4,37.4,0,0,0,1.2,4.5c.7,2.7,1.5,5.3,2.2,7.9s.6,2.9.9,4.4c.8,4.9,1.5,10,2.7,14.9a26.8,26.8,0,0,1,.7,2.7l-1.5-3.1c-1.1-2.4-2.1-4.8-3.1-7.3s-1.9-5-2.8-7.5c-1.8-4.9-3.4-9.7-5-14.6a.4.4,0,0,1,.1.3C140.3,388.9,139.8,387.4,139.3,385.8Zm-35.2-97.2.8.5,1.4.6h-.5l-.8-.4a2,2,0,0,0-1-.2C104,289,104.1,288.8,104.1,288.6Zm4.6,78.4,2.3,1.9a.1.1,0,0,1,.1.1c.1,1.4.3,2.8.4,4.2s.3,4.5.4,6.7h0v.2h0c0,1.6,0,3.1.1,4.7s.1,1.7.2,2.6a57.8,57.8,0,0,1-1.2-5.7v.2C110.2,376.9,109.4,371.9,108.7,367Zm-6.8-57.3v-3c.1-1.9.2-3.8.4-5.7s.4-3.7.7-5.6l.3-1.9a8.7,8.7,0,0,0,3.1,1h.4a2.5,2.5,0,0,0,1.7-3.7,2.8,2.8,0,0,0-1-.9h1.4a3.6,3.6,0,0,0,1.9-1.3,1.7,1.7,0,0,0,.2-.5c0-.1.1-.1.1-.2h0a2.1,2.1,0,0,0-1.4-2.7,2,2,0,0,0-2.1.5l-1.3-.7h.1l-.7-.3a1.6,1.6,0,0,0-.9-.3,1.3,1.3,0,0,0,.1-.6c.3-1.7.6-3.5,1-5.2h0a.4.4,0,0,1,.1-.3.3.3,0,0,0-.1.2c.1-.4.3-.9.4-1.4l4.1,2.1,3.7,2.1,1.6.9.7.3a8.3,8.3,0,0,0,1.6.9h0a.1.1,0,0,1,.1.1h.1c2.7,1.5,5.3,3.1,7.9,4.7s5,3.2,7.4,4.9l2,1.6,2,1.8c2.5,2.6,5,5.2,7.4,8a.1.1,0,0,0-.1-.1h0v.2l.4.4.5.6a.2.2,0,0,1-.2-.2l.4.6.2.2h-.1l4.1,5.4-6.1-3.4-6.2-3.2a66.2,66.2,0,0,0-6.2-2.4l-1.6-.5a3.5,3.5,0,0,0-2-.5,2.3,2.3,0,0,0-2.1,1.7,5.5,5.5,0,0,0,.1,2.2l.3,2.1c.1,3.7-.4,7.4-.6,11.1a94.6,94.6,0,0,0-.3,11.9h0v2.1l-1.2-1.4-2.1-2.9-2.9-5.1c-1-1.8-2-3.6-2.9-5.5s-.9-2.4-1.3-3.6a43.9,43.9,0,0,1-1.3-5.2h0v-.4a2.8,2.8,0,0,0-.4-1.5,2.1,2.1,0,0,0-2.4-1.1,2.2,2.2,0,0,0-1.7,2.4c0,.2.1.5.1.7h0c0,.7-.1,1.4-.1,2.2-.3,2.5-.9,5-1,7.5a70.9,70.9,0,0,0,.1,8c.2,5.3.5,10.5.7,15.8.1,2.6.2,5.1.4,7.7s.3,5.1.6,7.6.3,3.6.4,5.4a1.2,1.2,0,0,0-.5-.5h0l-1.8-2-.5-.6c-.4-3.3-.9-6.6-1.3-9.9s-.7-5.2-1.1-7.8-.7-5.6-1.1-8.3c-.7-5.2-1.4-10.4-1.8-15.6-.2-1.8-.3-3.7-.4-5.5S101.9,310.6,101.9,309.7Z"/></svg>