<svg id="Mouth" xmlns="http://www.w3.org/2000/svg" viewBox="0 0 500 500"><path d="M242.9,274.8a18.2,18.2,0,0,1-5.6-2.2,12.2,12.2,0,0,1-4.7-4.3,25.5,25.5,0,0,1-2.7-5.8c-.3-.9-.7-1.8-.9-2.7a103,103,0,0,1-2.5-11c-.2-1.4-.4-2.8-.5-4.3a26.4,26.4,0,0,1-.2-2.8,6.6,6.6,0,0,1-.1-1.4h0V240h0v-.3a3.1,3.1,0,0,1,3.1-2.7,3.2,3.2,0,0,1,3.1,3.1c0,1.2,0,2.3.1,3.5s.3,2.9.6,4.4.5,2.7.7,4.1.7,2.8,1.1,4.3.8,2.8,1.3,4.3.8,1.9,1.3,2.9a10,10,0,0,0,.8,1.4l.6.9.6.5.6.5a3.1,3.1,0,0,0,1,.5,16.3,16.3,0,0,0,1.9.9l2.3.6,1.3.2h2.2l1-.3.6-.2.5-.3h0l.4-.3.5-.5.3-.4a4.1,4.1,0,0,0,.5-.9,4.2,4.2,0,0,0,.4-1,.4.4,0,0,1-.1.3,9,9,0,0,0,.6-2.2,22.3,22.3,0,0,0,.5-3.6c.2-3,.2-6,.1-9v0h0a12.1,12.1,0,0,1-.1-1.9h0v-.4h0c-.1-1.5-.3-2.9-.4-4.4s-.5-3.7-.8-5.6a3.1,3.1,0,1,1,6.1-.8c.3,1.8.6,3.7.8,5.6s.4,3.3.5,4.9h0c.1.7.1,1.4.2,2.1h0a48.6,48.6,0,0,1,0,5.4c0,2.1-.1,4.2-.3,6.2-.4,4-1.6,8.3-4.7,10.9a10.9,10.9,0,0,1-5.1,2.4,12.4,12.4,0,0,1-2.7.3A20.1,20.1,0,0,1,242.9,274.8Z"/></svg>