<svg id="Mouth" xmlns="http://www.w3.org/2000/svg" viewBox="0 0 500 500"><path d="M296,228.7a11.7,11.7,0,0,0-2.6-.4,9.6,9.6,0,0,0-2.4,0,6.8,6.8,0,0,0-2,.7,25.3,25.3,0,0,0-3.6,2,20,20,0,0,0-3.1,2.7c-.8.8-1.5,1.7-2.3,2.6h0a30.7,30.7,0,0,1-2.5,2.6l-.9.7L274,241l-4.7,2.2-4.1,1.1-1.6.2h-1.7l-1-.2-1.5-.7h0l-.9-.6-3.2-2.3-2.6-2.1-2.2-2.3a.1.1,0,0,0,.1.1.1.1,0,0,1-.1-.1h0l-.9-1.1a17.4,17.4,0,0,1-1-1.9,32.5,32.5,0,0,1-1.8-4.3c-.5-1.3-.9-2.6-1.3-3.9a19.5,19.5,0,0,1-.8-2.2l-.3-.6a5.8,5.8,0,0,0-.2-1.9v.3c0-.2-.1-.3-.1-.5s-.1-1.8-.3-2.6a2.3,2.3,0,0,0-2.6-2,2.3,2.3,0,0,0-1.9,2.6c.1,1,.1,2.1.3,3.2V221a1.1,1.1,0,0,0,.1.5h0v.3a6.1,6.1,0,0,0-.5,1.2c-.1.5-.3,1-.4,1.5a35.8,35.8,0,0,1-1.1,3.5c-.6,1.8-1.3,3.6-2,5.3s-1.5,3.3-2.3,4.9-1.5,2.9-2.4,4.3a17.3,17.3,0,0,1-1.7,2.1l-1,1.1-1.2.9-.9.5-1.7.7a18.1,18.1,0,0,1-3.1.9l-2,.3h-1.6l-2.8-.4-3.4-.9c.1,0,.2,0,.2.1s-.1-.1-.2-.1h0l-1.6-.7h0l-1.2-.7-1.2-.9h0l-.3-.2h.2a41.1,41.1,0,0,1-2.9-3c-.9-1.1-1.9-2.2-2.8-3.4a48.7,48.7,0,0,0-3.3-4.3c-2-2.4-5.3-4.4-8.5-3.5a2.7,2.7,0,0,0-2.2,2.9,2.4,2.4,0,0,0,1.3,1.8.1.1,0,0,0-.1-.1h.2a2.3,2.3,0,0,0,2.4-.3h.2l.8.2.5.3.5.3.5.3.8.9c1.7,2,3.2,4.2,4.9,6.2s5,6.1,8.6,7.7a35,35,0,0,0,5.5,1.7,23.1,23.1,0,0,0,4.6.5h.6a22.7,22.7,0,0,0,5.2-.9h.1a1.4,1.4,0,0,0,.2.6l.2.3a7.8,7.8,0,0,0,1.1,2l.3.6a2.5,2.5,0,0,0,.8,1.4h.1l.3.4a.2.2,0,0,0,.2.2l2.3,3.3c1.7,2.1,3.5,4.3,6,5.6a12.2,12.2,0,0,0,6.1,1.7,11.3,11.3,0,0,0,3.2-.5,21,21,0,0,0,6.1-3.2,20.6,20.6,0,0,0,3.1-2.8,17.8,17.8,0,0,0,2.3-3.3,39.2,39.2,0,0,0,1.6-3.6,15.5,15.5,0,0,0,.7-3.1,4.2,4.2,0,0,0,.4-1.6,7.5,7.5,0,0,0,.2-2.1h0l1.8.4a15.7,15.7,0,0,0,5.3-.4l2.4-.7a27.4,27.4,0,0,0,4-1.5l3.6-1.7a17.5,17.5,0,0,0,2.9-1.8,34.5,34.5,0,0,0,5.3-5.5l1.8-1.8,1.3-.9,2.7-1.6.8-.3h.9l2.9.4a2.4,2.4,0,0,0,2.6-2A2.3,2.3,0,0,0,296,228.7Zm-4.1,4.1Z"/><path d="M263.8,261.6a2.3,2.3,0,0,0-3,1.2l-1.1,2.4-1.5,2.4-2.1,2.7-1.5,1.5a12.4,12.4,0,0,1-1.8,1.4l-3.4,2h0l-2.4.9-1.8.6-2,.2a8.1,8.1,0,0,1-2.2,0l-2.5-.3-1.2-.3-1.2-.5-.9-.6-1.5-1.1-3-3.1a81.9,81.9,0,0,1-5.5-7.3l-.8-1.3v-.3a2.3,2.3,0,0,0-3.2-.9,2.4,2.4,0,0,0-.9,3.1,38.2,38.2,0,0,0,3.1,4.7,41.9,41.9,0,0,0,2.6,3.3c.9,1.2,1.9,2.3,2.9,3.4a16.5,16.5,0,0,0,8.1,5.3,29.4,29.4,0,0,0,5.1.5,22.8,22.8,0,0,0,6.3-.9,31.5,31.5,0,0,0,5.6-2.6c1-.7,2.1-1.3,3.1-2.1a24.4,24.4,0,0,0,3.5-3.7,32.4,32.4,0,0,0,4.5-7.6A2.3,2.3,0,0,0,263.8,261.6Z"/></svg>