<svg id="Mouth" xmlns="http://www.w3.org/2000/svg" viewBox="0 0 500 500"><defs><style>.cls-1{fill:lime;}</style></defs><polygon class="cls-1" points="206 245.1 212 243 218.2 240.5 225.7 236.5 235.2 237.4 246.3 233.7 252 236.1 257 242.5 265.8 240.8 274.7 241.5 278.3 245.5 275.3 262.8 264.3 261.5 254.9 262.8 244 262.7 240.4 264.8 236.6 266.1 230.1 269.2 219 261.6 209.3 257.3 201 251.3 206 245.1"/><path d="M291.5,246.3a4.6,4.6,0,0,0-2.6.2l-1.2.3-3.9.6h-2.1a.1.1,0,0,0-.1-.1h-.2l-.3-.2-.4-.5-.8-.9a4.3,4.3,0,0,0-.4-.7l-.2-.3a16.5,16.5,0,0,0-1.9-2.7,8.7,8.7,0,0,0-1.7-1.6,9.4,9.4,0,0,0-2.3-1,14,14,0,0,0-5-.5,18.9,18.9,0,0,0-4.7.6c-1.4.3-2.8.9-4.3,1.3h-1.5l-.3-.2-.3-.2h0l-.9-.9-1.9-2.4a13.4,13.4,0,0,1-1.1-1.4,8.8,8.8,0,0,0-2.9-2.5,9.2,9.2,0,0,0-3.9-1.1,10.8,10.8,0,0,0-4,1.1l-2.9,1.5-1.7.8-.9.3h-1.2a15.3,15.3,0,0,0-2.9-.7l-2.5-.4h-1.9a3.8,3.8,0,0,1-1.5,0H225a10.8,10.8,0,0,0-4.7,1.5,9.2,9.2,0,0,0-2.5,1.9l-1.6,1.8a1,1,0,0,0-.5.4l-.5-.2a1.4,1.4,0,0,0-1.6,1.1h0l-1.3.4-2.7.5a12.9,12.9,0,0,0-4.4,1.1,15.7,15.7,0,0,0-4.9,4.7,17.6,17.6,0,0,0-1.4,2.3,5,5,0,0,0-.5,1.3,2.1,2.1,0,0,0,.1,1.1,5.2,5.2,0,0,0,1.8,2.1l1.6,1.1a13.4,13.4,0,0,0,2.4,1.2l2.4,1.2a23.5,23.5,0,0,0,4.4,1.7l3.1.8,1.4.6,2.4,1.3.8.6.6.5,2.3,3.1,1.8,2.1a5,5,0,0,0,2.2,1.6,5.8,5.8,0,0,0,1.8.4h.9a14.9,14.9,0,0,0,3.6-.5l2.7-.7a12.2,12.2,0,0,0,2.4-1,11.5,11.5,0,0,0,2.5-1.2l2.2-1.2,1.6-.7,2-.6,1.5-.2h1.6l3.9,1.1a15.9,15.9,0,0,0,3,.6,6.8,6.8,0,0,0,4.4-.7,11.7,11.7,0,0,0,3-2.4l.8-.7.5-.3c.1,0,.2,0,.2-.1h2l.7.2,2.9,1.2a21.8,21.8,0,0,0,4.8,1.9,12.4,12.4,0,0,0,2.7.3,7.1,7.1,0,0,0,2.8-.9,22.7,22.7,0,0,0,2.5-1.8,37.8,37.8,0,0,0,4.1-3.9,17.7,17.7,0,0,0,1.6-2.2l1.6-2.3,1.2-2.4c.4-.9.9-1.7,1.3-2.6a3.2,3.2,0,0,0,.5-1.9A2.2,2.2,0,0,0,291.5,246.3Zm-73.1-4.2.2.5c.1.1.1.2.1.4v.4a4.3,4.3,0,0,1-.1.5v.2h-1.2l-1.1-.3h0v-.3A9,9,0,0,0,218.4,242.1ZM233,238l.8.2a.4.4,0,0,0,0,.5,2.2,2.2,0,0,0,.1.8v1.6h-.1v.2h-1.4l-.8-.2h-.2c0-.1.1-.2.1-.3h0l.9-2.8Zm38.2,19.3h0Zm-2.5,2h0v.2a1.4,1.4,0,0,1-.2-.6.4.4,0,0,0-.1-.3,11.5,11.5,0,0,1,.1-1.9h1l1.3.2h.3v.2c-.2,1-.6,2-.9,3h0l-1.5-.6A1.7,1.7,0,0,0,268.7,259.3Zm7.6-13.8-.3.6h-.5l-.6-.3-.8-.6h.1l.6-1.2.2-.3.7.9Zm-12.4-3v.2a24.4,24.4,0,0,1,.1,2.7,4.9,4.9,0,0,0-.1,1.2l-1.1-.2h-1.7l.3-2.6a.6.6,0,0,0,.1-.4h.2ZM246.2,235h.6v.3a2.2,2.2,0,0,1,.1.8v.4a3.8,3.8,0,0,1-.1,1,2.9,2.9,0,0,1-.2.9v.3l-2-.4a18,18,0,0,0,.8-2.1,2,2,0,0,0,.3-1.1h.6Zm-35.9,10.2c.1.2.1.5.2.8a5.1,5.1,0,0,1,.2,1.3v.4h-.2l-.3.2h-1.7l-.3-.3v-.2a.3.3,0,0,1-.1-.2h0l-.5-1.5.5-.2Zm4.5,12.6-1-.3a.8.8,0,0,1,.1-.4l.3-1.1h2.2l.9.2h0c0,.2-.1.4-.1.6a12.2,12.2,0,0,1-.7,1.7Zm15.3,10.1a4.2,4.2,0,0,0-.4-1.2c-.1-.5-.3-1-.4-1.5s-.1-.5-.1-.7v-.2h1.7a16.6,16.6,0,0,1,.6,2.1h0c.1.4.1.8.2,1.2h0l-.5.2h0Zm8-2.9c-.2-.7-.3-1.4-.5-2.1l-.6-1.6a.1.1,0,0,0,.1-.1l1.7-.4h0l.3.6c.1.5.3,1,.4,1.5s.1.8.2,1.3Zm8.8-3.1-.2-.3a14.8,14.8,0,0,0-.1-2.1,1.3,1.3,0,0,0-.1-.6l1.7.2.8.2h0v.9c-.1.5-.3,1-.4,1.4s-.1.2-.1.3Z"/><path d="M247.8,265Z"/><path d="M199.5,258.2l-2.4-.9-2.8-1.1a.1.1,0,0,1,.1.1h-.2l-1.3-.8-.8-.5-.3-.3h0v-.2h-.1V254h0v-.5a2.4,2.4,0,0,0,.2-.8c.2-.3.3-.7.5-1l.7-1.4h.1l.9-1.3h.2a1.6,1.6,0,0,0,1.3-1.7,2.3,2.3,0,0,0-.6-1.2,2,2,0,0,0-1.5-.4,2.1,2.1,0,0,0-1.4,1,13.3,13.3,0,0,0-1.4,1.9,8.2,8.2,0,0,0-1.2,2,8.6,8.6,0,0,0-.7,2.1,7.4,7.4,0,0,0-.1,2.1,3.8,3.8,0,0,0,.8,1.7A10.4,10.4,0,0,0,193,259l1.9.8,3.4,1.3h.4a1.6,1.6,0,0,0,1.7-1A1.6,1.6,0,0,0,199.5,258.2Z"/><path d="M300,246a9.8,9.8,0,0,0-.9-2.9,6.4,6.4,0,0,0-2.1-2.5,7.2,7.2,0,0,0-2.7-1.5,2.6,2.6,0,0,0-2.4.2,1.5,1.5,0,0,0-.5,1.9,1.6,1.6,0,0,0,1.2.9h.8l.7.3.6.3.6.5.3.3.5.6.3.5a1.4,1.4,0,0,1,.2.6,2.5,2.5,0,0,1,.2.7,5,5,0,0,1,.2,1.2v.8a2.2,2.2,0,0,1-.1.8l-.3,1.6a1.5,1.5,0,0,0,1.1,1.8h.2a1.6,1.6,0,0,0,1.7-1.2l.3-1.6A9.2,9.2,0,0,0,300,246Z"/><path d="M260.8,271a1.6,1.6,0,0,0-2,.9l-.3.7c-.3.4-.5.9-.8,1.4l-.9,1.2-.5.5-.3.3-.3.2h-1.6l-.6-.2-.6-.2-.7-.4-.6-.5a3.8,3.8,0,0,0-1.4-1.1,1.5,1.5,0,0,0-1.7.1,1.9,1.9,0,0,0-.7,1.2,3.6,3.6,0,0,1-.2,1c0,.1-.1.2-.1.3s-.2.2-.2.3l-.2.3-.5.5-1.5,1.2-2.7,1.5-.6.3h-.9l-.6-.3-.6-.3-.9-.7-1.1-1.2a1.2,1.2,0,0,1-.5-.5c-.1-.2-.2-.3-.2-.4s-.1-.3-.2-.4a1.6,1.6,0,0,0-1.7-1.1,1.5,1.5,0,0,0-1.3,1.7,5,5,0,0,0,.5,1.3,9.1,9.1,0,0,0,1.1,1.6,20.9,20.9,0,0,0,2.2,2,9.1,9.1,0,0,0,1.7.9l1.6.5h.5a5.8,5.8,0,0,0,1.8-.4l1.4-.8,3.1-1.9a12.5,12.5,0,0,0,2.3-2.3c.1-.2.1-.4.2-.5h.2a9.7,9.7,0,0,0,2.3,1.1,5.7,5.7,0,0,0,2.6.2,6.4,6.4,0,0,0,2.4-1,10.5,10.5,0,0,0,2.9-3.4,13.9,13.9,0,0,0,1.1-2.1A1.6,1.6,0,0,0,260.8,271Zm-6.6,5.5h0Z"/></svg>