<svg id="Mouth" xmlns="http://www.w3.org/2000/svg" viewBox="0 0 500 500"><defs><style>.cls-1{fill:lime;}</style></defs><polygon class="cls-1" points="249.4 227.2 263.7 227.2 260.7 203.8 229.9 203.5 232.4 227.9 249.4 227.2"/><path d="M258.5,280.1a31.5,31.5,0,0,0,9.6-1.9,19,19,0,0,0,6.3-3.7,22.8,22.8,0,0,0,3.8-5c2.6-4.6,3.3-10,3.6-15.3.1-2,.1-4,.1-6.1s0-4.6-.2-6.9a43.7,43.7,0,0,0-1.1-6.3,51.1,51.1,0,0,0-1.8-6.4,38.1,38.1,0,0,0-2.8-6.2,26.9,26.9,0,0,0-3.4-4.9l-1.8-2.3a39,39,0,0,0-4-5.1,44.7,44.7,0,0,0-6.1-6.2,32.2,32.2,0,0,0-6.9-4.1c-2-.9-4.1-1.4-6.1-2.1a26.5,26.5,0,0,0-6.9-1.5,8.8,8.8,0,0,0-6.4,2,16.7,16.7,0,0,0-4.5,5.4,4.9,4.9,0,0,0-.4,1.1l-.2.5-.3.8a3.7,3.7,0,0,0-1.9,3.2v1.3a8.1,8.1,0,0,1,.1,1.6l-.6,2.5c-.5,2.2-1.1,4.3-1.6,6.5s-.9,4.2-1.3,6.3a32.5,32.5,0,0,1-1.1,4.2l-2.2,6a27.8,27.8,0,0,0-.7,16.4,30.8,30.8,0,0,0,4.3,9.8c1.3,1.7,2.7,3.5,4.1,5.1a27.3,27.3,0,0,0,8.4,6.3,64.6,64.6,0,0,0,6,2.7,34.4,34.4,0,0,0,8.8,2.2h7.2Zm-6.4-73,2.9,1.7,1.8,1.4h0a2.2,2.2,0,0,0,.2,1.1l.3,1c.3,1.6.5,3.2.7,4.7h0c.1,1.3,0,2.5,0,3.7l-.3,1.9a4.3,4.3,0,0,1-.2,1.1l-.2.3-.2.4-.2.3h-1.5l-.4-.2-.3-.2-.4-.3-.3-.4-.4-.4a10,10,0,0,1-.8-1.4c-.5-1-.8-2-1.2-3a63.2,63.2,0,0,1-1.8-6.2c-.2-.6-.3-1.2-.5-1.8a42,42,0,0,0-.8-4.7v-.5l1.1.4-.4-.2Zm-15.6.2a5.6,5.6,0,0,0,.9-1.7l.4-.6.9-.9.6-.4h.9a12.4,12.4,0,0,0,.6,4.3c.2,1.1.5,2.1.8,3.2l.3,1c0,.4.1.8.1,1.3v3.3a27,27,0,0,1-.4,2.8,2.4,2.4,0,0,0-.2.8,10.4,10.4,0,0,0-.4,1l-.5.7a9.4,9.4,0,0,1-.9,1.2l-.3.4-.3.2h-1l-.8-.8-.8-1a3.1,3.1,0,0,1-.5-1c-.2-.2-.2-.4-.3-.7a8.4,8.4,0,0,1-.5-1.7,11,11,0,0,1-.2-1.8c-.1-1.3-.2-2.6-.2-3.9l1-3.7C236,208.6,236.2,207.9,236.5,207.3Z"/><path d="M291.1,261.3a3.9,3.9,0,0,0-4.2,3.2c-.2,1.4-.4,2.7-.7,4.1s-.7,2.6-1.1,3.9l-1.5,3.5a21.6,21.6,0,0,1-1.8,3l-.9,1.3a8,8,0,0,1-1.3,1.3l-1.1.9-2.3,1.3-2.6,1.1-2.4.7-2.3.3a35.3,35.3,0,0,1-4.6,0l-2.4-.4-.7-.2a3.5,3.5,0,0,0-3.7.1,3.4,3.4,0,0,0-1.7,2.2,3.8,3.8,0,0,0,1.3,4,11.2,11.2,0,0,0,5.1,1.5,26.9,26.9,0,0,0,4,.3h.2a28.7,28.7,0,0,0,8.8-1.1,31.6,31.6,0,0,0,9.2-5,24.5,24.5,0,0,0,6-8.2c.7-1.6,1.4-3.3,2-5a50.8,50.8,0,0,0,1.9-8.6A3.8,3.8,0,0,0,291.1,261.3Z"/></svg>