<svg id="Mouth" xmlns="http://www.w3.org/2000/svg" viewBox="0 0 500 500"><defs><style>.cls-1{fill:lime;}</style></defs><polygon class="cls-1" points="267.8 212.7 252 228.5 253 246.8 247.4 244.7 242.5 235.1 237.8 237.7 236.8 251.8 232.3 260.6 235.4 265.7 246.8 267 257 260.6 267.5 245.8 271.5 230.2 267.8 212.7"/><path d="M273.4,260.3a2.4,2.4,0,0,0-3.2,1.2c-.5,1.3-1,2.6-1.6,3.8l-1.2,2.1-.7.9-1.1,1.1h0a.1.1,0,0,0-.1.1.1.1,0,0,1,.1-.1l-1.8,1.3h.2c-.1.1-.2.1-.2.2h0a69.3,69.3,0,0,1-7.5,4.3l-1.8.8-3.9,1-4.1.4-3.8.4h-.2a45.1,45.1,0,0,1-5.2,0l-1.8-.2-1.9-.5-1.5-.7-2.9-1.7-1.5-1.1-.9-.9-2.6-3.3-1.4-2.2a16.7,16.7,0,0,1-.8-2,2.4,2.4,0,0,1-.2-.8.7.7,0,0,1-.1-.5v-1c0-.4.1-.7.1-1.1s.3-1.1.5-1.6l.9-2.3v.2c0-.1,0-.1.1-.2h0l2.2-3.8,2.5-4.2a11.5,11.5,0,0,0,1.7-3.3,10.2,10.2,0,0,0,.6-2.5,16.2,16.2,0,0,0,0-2.2l3.7-1,.9-.3c0,1.7.1,6.1.1,6.4s-.1.9-.1,1.3-.3,1-.5,1.5-.5,1.2-.7,1.9a9.9,9.9,0,0,1-1.1,1.7h0a20.5,20.5,0,0,0-2.4,3.6,6.8,6.8,0,0,0-.9,3.9,9,9,0,0,0,1,3.9,6.9,6.9,0,0,0,3.3,3,8.6,8.6,0,0,0,3.6.8l4.4.2H245a10.6,10.6,0,0,0,2.5-.2,19.1,19.1,0,0,0,5.7-1.9c1.3-.7,2.6-1.4,3.8-2.2l3.4-2.5a25.4,25.4,0,0,0,3.7-4.3,27.5,27.5,0,0,0,2-3.8c1.1-2.5,2.1-5.1,3.2-7.6a59.4,59.4,0,0,0,3.2-7.9,30.1,30.1,0,0,0,.9-4.1,23.2,23.2,0,0,0,.4-4.6c0-1.4,0-2.8-.1-4.2s-.1-3-.3-4.4-.4-2.8-.7-4.2a20.6,20.6,0,0,0-1.5-4.8c-.6-1.2-1.7-2.5-3.2-2.5h-1l-.8.4a3.3,3.3,0,0,0-1.3,1.3c-.7,1-1.3,2.1-1.9,3.1a29.7,29.7,0,0,1-2.7,3.3l-2.9,2.9c-2.3,2.1-4.9,3.9-7.4,5.8s-4.6,3.5-6.9,5.1a19.2,19.2,0,0,1-3.1,1.8l-2,.9h.3c-3,1-6.1,2-9.2,2.8l-2.3.5h-1.4a46.9,46.9,0,0,1-5.3-.1c-2-.2-4.1-.3-6.2-.7h.1l-1-.2-1.1-.5-1.4-.8-.7-.5h0l-.3-.3-.6-.8a4.1,4.1,0,0,1-.5-.9h0c-.1,0-.1-.1-.1-.2v.2l-.2-.4c0-.1-.1-.2-.1-.4v-1.1a14.9,14.9,0,0,1,.2-2.1c.1-.1.1-.3.2-.5a3.6,3.6,0,0,1,.4-.9c.7-1.3,1.4-2.5,2.2-3.7l2.6-3.6a23.3,23.3,0,0,0,2-3.4,2.4,2.4,0,0,0,.5-1.4,2.5,2.5,0,0,0-2.5-2.4,3,3,0,0,0-1.5.5,4.4,4.4,0,0,0-1,1.6,14,14,0,0,1-1,1.6c-1.3,1.9-2.8,3.7-3.9,5.7s-1.2,1.9-1.7,2.9a13.3,13.3,0,0,0-1.3,4.3c0,.8-.1,1.7-.1,2.5.2,3.1,2.4,5.9,4.9,7.5l.5.3a8.6,8.6,0,0,0,.7,2.1c.3.8.6,1.7,1,2.6a52.9,52.9,0,0,0,2.5,5.4c.9,1.6,2.3,3.3,4.2,3.6h.6a4.5,4.5,0,0,0,2-.4,2.1,2.1,0,0,0,1-.6c-.5.8-.9,1.6-1.3,2.4a14.6,14.6,0,0,0-1.6,3.6,15.5,15.5,0,0,0-.7,2.3,16,16,0,0,0-.1,3.8,19.8,19.8,0,0,0,2.4,5.8,36.7,36.7,0,0,0,2.7,3.8l2.1,2.3a23.4,23.4,0,0,0,3.1,2.4,35.8,35.8,0,0,0,3.9,2.1,17,17,0,0,0,5.5,1.3h2.8a58.3,58.3,0,0,0,5.9-.3l3.9-.4a29.7,29.7,0,0,0,4.3-.7,24,24,0,0,0,3.8-1.2l4-2,3.8-2.3a37.3,37.3,0,0,0,3.8-2.8c2.8-2.5,4.5-6,5.7-9.5A2.3,2.3,0,0,0,273.4,260.3Zm-27.3-24.8,3.7-2.7c-.1.9-.1,1.7-.2,2.6s.1,2.1.2,3.1.6,3.7.8,5.6h0l-.4-.2H250l-.6-.5-.6-.6-.4-.5a5.4,5.4,0,0,1-.7-1.3,7.2,7.2,0,0,1-.9-2,21.7,21.7,0,0,1-.7-2.4.4.4,0,0,0,.1.3.6.6,0,0,1-.1-.4v-.9Zm-4.6,2.6a6.4,6.4,0,0,0,.2.7,16.3,16.3,0,0,0,1.1,3.1,13.6,13.6,0,0,0,3.8,5.4,8.2,8.2,0,0,0,2.8,1.4l1.3.4a4.1,4.1,0,0,0,1.6.3h.2a3.3,3.3,0,0,0,2.5-1.6,6.1,6.1,0,0,0,.5-3,9.1,9.1,0,0,0-.1-1.7c-.1-1.1-.3-2.1-.5-3.2a29.1,29.1,0,0,1-.4-3.1v-1.9l.3-2.7a2.6,2.6,0,0,0-1.1-2.3,1.8,1.8,0,0,1,.7-.5l3.6-2.8a44,44,0,0,0,6.3-5.9,29.7,29.7,0,0,0,2.7-3.5l.6-.8a8.3,8.3,0,0,0,.4,1.5c.4,2.3.7,4.6.9,7a.4.4,0,0,1-.1-.3,43.3,43.3,0,0,1,.1,7.2,30.6,30.6,0,0,1-.5,3.2,18.1,18.1,0,0,1-.9,3.1,29,29,0,0,1-1.6,4.1c-.6,1.3-1.2,2.6-1.7,3.9s-2.1,5.1-3.3,7.6l-1,1.7a10.1,10.1,0,0,1-1.3,1.6l-1.1,1.1c-1.1,1-2.4,1.9-3.6,2.8l-2.9,1.6-2.2,1-1.5.4-1.8.2h-1.9c-2.1-.2-4.2-.2-6.3-.3h-1l-.6-.2h-.6c0-.1-.1-.1-.1-.2l-.3-.4a.1.1,0,0,1-.1-.1l-.3-.7c0-.1-.1-.2-.1-.3s-.1-.5-.1-.8v-.6a.4.4,0,0,0,.1-.3l.2-.5a2.1,2.1,0,0,1,.4-.6c.8-1.2,1.6-2.3,2.3-3.5a15.9,15.9,0,0,0,1.8-3.7,10.9,10.9,0,0,0,.8-3.1c.1-.6.1-1.2.2-1.7v-.2a32.9,32.9,0,0,0-.7-7.4ZM222,246.9c0-1.1-.1-2.3,0-3.4a2.9,2.9,0,0,0-.2-.9h3.7v.6c0,.3-.1.6-.1.9l-.3,1c-.1.2-.1.4-.2.5s-1.3,2.2-2,3.3l-1.1,1.9a8.5,8.5,0,0,0,.3-2.3A8.6,8.6,0,0,1,222,246.9Zm-4.8,1.3-1-1.9.2.3c-.7-1.5-1.4-3-2-4.6h.5l2.6.2a5.6,5.6,0,0,0-.4,1.2C217.1,245.1,217.2,246.6,217.2,248.2Z"/><path d="M285.2,210.9c-.1-1-.4-1.9-.6-2.9a21,21,0,0,0-1.5-4.2,15.9,15.9,0,0,0-4.4-4.9,10.2,10.2,0,0,0-10.4-1.7,18.1,18.1,0,0,0-4.6,1.7,25.1,25.1,0,0,0-4.1,3.2,8.6,8.6,0,0,0-1.8,2,3.1,3.1,0,0,0-.6,2.1,2.6,2.6,0,0,0,1.8,2,2.5,2.5,0,0,0,2.9-1.5v-.2l1.9-1.8,1.5-1.1,1.1-.7,1.4-.6,3.2-.8,1.1-.2h1.2l.9.4,1.2.7,1.3,1,.9.9.6.7.6,1a6.1,6.1,0,0,0,.5,1.2,23.7,23.7,0,0,1,.9,3.6,1.1,1.1,0,0,1,.1.5,2.5,2.5,0,0,0,2.4,2.1h.3A2.4,2.4,0,0,0,285.2,210.9Z"/></svg>