<svg id="Nose_4" data-name="Nose 4" xmlns="http://www.w3.org/2000/svg" viewBox="0 0 500 500"><path d="M205.4,218.9a5.1,5.1,0,0,1-2.7-.9,8.5,8.5,0,0,1-2.5-2.5,17.8,17.8,0,0,1-2.2-4.1,11.7,11.7,0,0,1-1-4.1,4.2,4.2,0,0,1,2.7-4.1,11.8,11.8,0,0,1,6.2-.1l4.1.8a19.1,19.1,0,0,1,3.9-4.6,36.8,36.8,0,0,1,3.9-3,38.1,38.1,0,0,1,8.4-4,42.3,42.3,0,0,1,9.9-1.9,18.7,18.7,0,0,1,5.3.2,28.4,28.4,0,0,1,3.1.6,24.3,24.3,0,0,1,7.3,2.5,25.6,25.6,0,0,1,5.4,3.9,24.5,24.5,0,0,1,2.9,3.5l2.6-.8,1.9-.3a6.9,6.9,0,0,1,3.2-.1,4.9,4.9,0,0,1,3,2.1,8.5,8.5,0,0,1,1.2,3.8,5.8,5.8,0,0,1-.9,3.9,15,15,0,0,1-1.8,2.4,2.5,2.5,0,0,1-3.5.1,2.4,2.4,0,0,1-.2-3.5l.8-.9a2.1,2.1,0,0,0,.4-.6c.1,0,.1-.1.1-.2v-.2a.3.3,0,0,1,.1-.2v-.2a.9.9,0,0,0-.1-.5,1.3,1.3,0,0,0-.1-.6v.3c-.1-.1-.1-.3-.2-.4s0-.2-.1-.2v-.2h-.2l-2.7.5-2,.6a5,5,0,0,1-3.4.5,4.7,4.7,0,0,1-1.9-1.8l-1.2-1.6h0l-.2-.3.2.2a8.6,8.6,0,0,0-1.3-1.4,4.7,4.7,0,0,0-1-1l-2.4-1.7-2.4-1.3-2-.7h.1l-5.8-1.3-2.1-.2h-2.6a34.5,34.5,0,0,0-5.6,1,42,42,0,0,0-5,1.7l-2.9,1.3-2.6,1.7a35.6,35.6,0,0,0-3.1,2.6,10.3,10.3,0,0,0-1.4,1.5l-.9,1.4a7.1,7.1,0,0,1-1,1.4,2.5,2.5,0,0,1-1.8,1,12.4,12.4,0,0,1-2.7-.3l-4.5-.9H202c.2.6.5,1.3.7,2s.5,1.1.8,1.7l.9,1.3h0l.5.6.4.3c0,.1,0,.1.1.1a2.1,2.1,0,0,1,2,.1,2.4,2.4,0,0,1,1.1,3.3,3.2,3.2,0,0,1-2.9,1.7Z"/></svg>