<svg id="Nose_2" data-name="Nose 2" xmlns="http://www.w3.org/2000/svg" viewBox="0 0 500 500"><path d="M223.4,194.6a2.3,2.3,0,0,0-2.6-1.9,6.9,6.9,0,0,0-2.5,1l-1.9,1.2-3,2.5a41.1,41.1,0,0,0-3,2.9,22.5,22.5,0,0,0-3.1,3.7,3.7,3.7,0,0,0-.5,3.5,4.3,4.3,0,0,0,2.5,2.3,4.5,4.5,0,0,0,1.6.3,6.8,6.8,0,0,0,4.6-2.1,37.1,37.1,0,0,0,2.7-2.9l2.4-2.9c.8-1.1,1.6-2.4,2.4-3.6a2.1,2.1,0,0,0,0-2.3A3.3,3.3,0,0,0,223.4,194.6Z"/><path d="M261.8,198.4l-3.1-2.8c-1-.8-2-1.8-3.1-2.6l-1.8-1.2a6.9,6.9,0,0,0-1.9-1,2,2,0,0,0-1.3.1,2.5,2.5,0,0,0-2.4-.9h0a1.8,1.8,0,0,0-1.3.6,2.7,2.7,0,0,0-.6,2.3,3.7,3.7,0,0,0,.4,1.5l.4.9a10.9,10.9,0,0,0,.8,1.5,34.6,34.6,0,0,0,3.2,4.6,25.7,25.7,0,0,0,2.8,2.9,16.4,16.4,0,0,0,4,2.9l1.9.8a8.5,8.5,0,0,0,2.3.4h.4a3.1,3.1,0,0,0,2-.9,3.2,3.2,0,0,0,1.1-1.7,4.5,4.5,0,0,0-.4-3.4A14.9,14.9,0,0,0,261.8,198.4Zm-2.1,4.7.2-.2.4.4h.1Z"/><path d="M217,220.1l-6.3-1.4-2.4-.6c-1.6-.4-3.3-.7-4.9-1.2l-1.2-.5-.8-.5-.6-.4-.4-.4-.6-.8-.4-.7-.6-1.4-.3-1.5a15.7,15.7,0,0,1-.4-2.3h0v-.2h0v-2.4l.3-2.1.3-1.4a2.5,2.5,0,0,1,.4-.7h.3a2.3,2.3,0,0,0-2.4-3.9h.1a3.7,3.7,0,0,0-1.9,1.6,10.8,10.8,0,0,0-1,2.7,20.4,20.4,0,0,0-.5,7.4c.4,4.2,2,8.8,6.1,10.9a14,14,0,0,0,3.4,1.3,19.8,19.8,0,0,0,3.3.8l2.5.7,6.8,1.5h.5a2.3,2.3,0,0,0,2.3-1.6A2.4,2.4,0,0,0,217,220.1Z"/><path d="M280.9,205.9a9.3,9.3,0,0,0-1.3-3.1,2.4,2.4,0,0,0-3.1-.8,2.3,2.3,0,0,0-.9,3.1l.6,1.1a2,2,0,0,1,.3.8c.1.3.1.6.2.8v.8a2.8,2.8,0,0,0-.1.9l-.3.9-.2.4v.2l-.2.3-.4.4-.5.4h0l-.5.3-.9.4h0l-2.8.7a2.3,2.3,0,0,0-2.2,2.3,2.3,2.3,0,0,0,.9,1.8,2.2,2.2,0,0,0,1.3.4h1.1l1.8-.4a12.8,12.8,0,0,0,3.8-1.6,6.3,6.3,0,0,0,2.5-2.6,10.6,10.6,0,0,0,1.2-3.4A9,9,0,0,0,280.9,205.9Z"/><path d="M238.4,192l-.4-.2-.5-.3h-.2v-.2h-.1c-.1-.2-.2-.3-.2-.5a5.6,5.6,0,0,1-.4-1.2,9.9,9.9,0,0,1-.2-1.7h0v-1.9a5.9,5.9,0,0,1,.2-1.4v-.2a2.4,2.4,0,0,0,.7-1.6,2.7,2.7,0,0,0-.9-2,2.6,2.6,0,0,0-2.8,0,5.4,5.4,0,0,0-1.6,3.6,18.1,18.1,0,0,0,0,5.2,12.8,12.8,0,0,0,1.4,4.3,7.4,7.4,0,0,0,3.4,2.6h.8a2.2,2.2,0,0,0,.9-4.3Z"/></svg>