<svg id="Nose_1" data-name="Nose 1" xmlns="http://www.w3.org/2000/svg" viewBox="0 0 500 500"><path d="M246.7,229.3l-3.6-.8c-1.4-.4-2.7-.7-4-1.2a24.4,24.4,0,0,1-4.4-1.9,22,22,0,0,1-2.8-1.8,30.9,30.9,0,0,1-3.1-2.3,12.9,12.9,0,0,1-1.7-1.6,8.6,8.6,0,0,1-1.3-1.4l-1.2-1.3-2.5,1.1-3.7,1.4a25.7,25.7,0,0,1-5.4,1.6,9.9,9.9,0,0,1-4.2-.2,12.4,12.4,0,0,1-2-1,6.9,6.9,0,0,1-1.8-1.6,8.6,8.6,0,0,1-1.3-2,15.5,15.5,0,0,1-.8-2.3,11,11,0,0,1,.3-5.1,28.3,28.3,0,0,1,3.6-7.9c.8-1.2,1.6-2.5,2.5-3.7l2.6-3.6a36.9,36.9,0,0,1,3.8-4.1l1.9-1.7,1.1-.8.8-.5a2.1,2.1,0,0,1,2.9,1.1,2.3,2.3,0,0,1-1,3l-1.2,1h0l-2.6,2.4-2.2,2.6c-.7.7-1.2,1.5-1.8,2.2h0c-1.4,2.1-2.9,4.3-4.2,6.6v0h0a25.9,25.9,0,0,0-1.4,2.9,13.4,13.4,0,0,0-.7,1.8c-.1.3-.1.7-.2,1a2.8,2.8,0,0,1-.1.9,1.3,1.3,0,0,0,.1.6v.5a1.4,1.4,0,0,1,.2.6l.3.6.4.7.4.5h-.1l.3.2.4.3.4.3h-.2l.9.3h2.1l1.9-.4h-.2a47.8,47.8,0,0,0,6.9-2.5l3.1-1.3a2.6,2.6,0,0,1,2.4.1,5.3,5.3,0,0,1,1.5,1.5l1.7,1.8-.2-.2,1.5,1.6a50.9,50.9,0,0,0,4.7,3.4l2.1,1.3,2.9,1.1h0a67.7,67.7,0,0,0,8.9,2.1h-.3l2.5.2h1.7l1.6-.3.9-.4,1.7-.9h-.1l3.1-2.2,1.6-1.5,1.5-1.7,3.4-5.1c.7-1.2,1.4-2.5,2.7-2.9a3.2,3.2,0,0,1,2.7.5l1.3.4,1.2.3h1.6l1.2-.2,2.4-.9.8-.4,1.5-1,.3-.2v-.2h.1v-.2a.4.4,0,0,1-.1.3c.1-.2.2-.3.2-.5a.4.4,0,0,0,.1-.3v0a2.1,2.1,0,0,0,0-.8v0c-.1-.2-.1-.4-.2-.6a20,20,0,0,0-1-2.1c-.4-.8-.9-1.6-1.4-2.4h-.1c-.6-1-1.3-1.9-2-2.9l-2.2-2.9-3-3.1-2.8-3.3-.9-.9a2,2,0,0,1-2.4-1,2.4,2.4,0,0,1,.6-3.2,3.6,3.6,0,0,1,1.8-.8,3.5,3.5,0,0,1,2.2.8,4.7,4.7,0,0,1,1,1,9.4,9.4,0,0,1,1,1c1,1.3,2,2.5,3.1,3.7s1.9,1.9,2.7,2.9a27.8,27.8,0,0,1,2.6,3.4c.8,1.2,1.7,2.3,2.4,3.5a30.5,30.5,0,0,1,2.1,4,8.2,8.2,0,0,1,.8,4.6,7.2,7.2,0,0,1-2.2,4,16.3,16.3,0,0,1-4,2.4,13.9,13.9,0,0,1-6.3,1.2A10.9,10.9,0,0,1,271,215l-3.8,5.8a23.5,23.5,0,0,1-5.5,5.4l-2.6,1.7a15.5,15.5,0,0,1-5.1,1.8h-2.1A29.6,29.6,0,0,1,246.7,229.3Z"/></svg>