<svg id="Nose_3" data-name="Nose 3" xmlns="http://www.w3.org/2000/svg" viewBox="0 0 500 500"><path d="M226.4,235.3a14.2,14.2,0,0,1-3.7-3.2,17.4,17.4,0,0,1-3.3-5.3,51.8,51.8,0,0,1-2.8-9.5c-.3-1.5-.5-3.1-.7-4.7s-.3-3.7-.4-5.6a70.8,70.8,0,0,1-.1-9.2c.1-1.8.2-3.6.4-5.4s.3-3.1.5-4.6.8-5.8,1.1-8.7.3-3.3.5-4.9.4-3.4.5-5.1a2.4,2.4,0,0,1-.4-2.3,2.8,2.8,0,0,1,1.8-2,2.7,2.7,0,0,1,3.1.8,3.5,3.5,0,0,1,.8,2.4,14.5,14.5,0,0,1-.2,3.6l-.3,3.1c-.3,2.2-.5,4.4-.7,6.6-.5,4.7-1.2,9.3-1.7,13.9-.1,2.3-.2,4.5-.2,6.8s.3,5,.4,7.5h0v.1c.1,1.3.2,2.5.4,3.7l.6,3.7c.2,1,.4,1.9.7,2.9s.6,2.1,1,3.2a27.7,27.7,0,0,0,1,2.6l1.1,1.7a14.7,14.7,0,0,0,1,1.3,9.4,9.4,0,0,0,1,1h0l.8.7.8.5,1,.4h-.3l1.5.4,2.1.3h1.9l3.6-.5,4.4-1.3,1.4-.6,1-.6.8-.6,1.1-1,.9-1.2.6-1,.6-1.4a9.4,9.4,0,0,0,.4-1.6c.2-1.1.3-2.2.4-3.3a43.4,43.4,0,0,0,0-5.1c-.1-1.3-.2-2.6-.4-3.9s-.4-3.1-.7-4.7-1.1-5.7-1.7-8.5-1.7-6.8-2.5-10.3a83,83,0,0,0-2.9-9.7h0c-.3-.9-.6-1.8-1-2.7h-.1a2.7,2.7,0,0,1-.9-3.7,2.6,2.6,0,0,1,3.6-.9,6.4,6.4,0,0,1,1.5,1.3,8.4,8.4,0,0,1,1.1,2.1l.9,2.6,1.6,4.6c.9,3.1,1.6,6.2,2.4,9.4s1.5,6.2,2.1,9.4,1.3,6.2,1.8,9.3a60.6,60.6,0,0,1,.6,9.5,30.7,30.7,0,0,1-1,7.4,16,16,0,0,1-6.4,8.7,29.6,29.6,0,0,1-6.4,2.6,31,31,0,0,1-5.3,1l-2.7.2A17.1,17.1,0,0,1,226.4,235.3Z"/></svg>