<svg id="Nose_7" data-name="Nose 7" xmlns="http://www.w3.org/2000/svg" viewBox="0 0 500 500"><path d="M211.8,239.5a13.6,13.6,0,0,1-2.9-.6,5.4,5.4,0,0,1-3.3-2.6,7.7,7.7,0,0,1-1.2-3.6,18.4,18.4,0,0,1,.6-4.7,25.4,25.4,0,0,1,1.6-3.8l.9-1.6,2.1-3.4a37.5,37.5,0,0,1,3.5-4.4l4.2-4.6-.2.2c.7-.8,1.5-1.6,2.2-2.5l2.1-2.3a2.1,2.1,0,0,1,1.7-1,2.1,2.1,0,0,1,2.1,2,2.9,2.9,0,0,1-1.1,2.1l-1.4,1.5V210l-7.1,8.1.2-.2c-1,1.1-2,2.3-2.9,3.5l-1.5,2.4-1.5,2.8a10.8,10.8,0,0,0-.8,1.9,9.8,9.8,0,0,0-.5,1.6c-.1.5-.1,1-.2,1.5v.8a2.2,2.2,0,0,1,.1.8c.1.1.1.2.1.4l.2.3.2.3a.3.3,0,0,0,.1.2l.2.2.2.2a.1.1,0,0,0-.1-.1h-.1l.6.4h.2l.6.2a25.7,25.7,0,0,0,4,.5,36.9,36.9,0,0,0,4.7-.1l2-.2,2.1-.6h-.2a71.3,71.3,0,0,1,9.9-3.2,12.2,12.2,0,0,1,6,.4l2.4.9,2.1,1,2,.8,1.7.5a23,23,0,0,0,2.6.3h3v-.2h.1l.2-.2h-.1c.1-.1.1-.3.2-.4l.3-1c.1-.5.1-1,.2-1.4v-1.5a2,2,0,0,1,.8-2.7,2.1,2.1,0,0,1,2.8.8,3.6,3.6,0,0,1,.4,1.1,4.1,4.1,0,0,1,.1,1.1,7.1,7.1,0,0,1-.1,1.4,10.3,10.3,0,0,1-1.4,5.1,6,6,0,0,1-4.8,2.3,13.8,13.8,0,0,1-2.9-.1,20.5,20.5,0,0,1-5.9-1.5l-2.5-1.1-2.4-1-1.3-.3h-1.8l-1.4.2-4.8,1.4h.2l-3.5,1.3-3.2,1-3.4.4h-2.4Z"/></svg>