<svg id="Nose_6" data-name="Nose 6" xmlns="http://www.w3.org/2000/svg" viewBox="0 0 500 500"><path d="M236.7,247.5a8.7,8.7,0,0,1-5.6-3.9,23.4,23.4,0,0,1-2.9-6.2c-.4-1.1-.7-2.2-1.1-3.4v-.3a20,20,0,0,1-2.8,3.7,5.8,5.8,0,0,1-3.9,1.9A4.4,4.4,0,0,1,217,238a10.6,10.6,0,0,1-2.3-4.3,32.1,32.1,0,0,1-1-6.2,14.9,14.9,0,0,1-.2-2.1c0-.5-.1-1.1-.1-1.7s-.2-2.9-.2-4.4,0-5.3,0-8c0-1,0-2,.1-3.1a3.8,3.8,0,0,1,.5-2.1,2.6,2.6,0,0,1,1.8-.9,2.2,2.2,0,0,1,2.2,2.2,1.4,1.4,0,0,1-.2.7v.6c-.2,5.1-.1,10.2.1,15.4v0h0c.2,2.2.4,4.5.8,6.7a21.7,21.7,0,0,0,.7,2.4l.3.8.2.4.2.2c0,.1,0,.1.1.1h.5l.4-.3h-.1l.3-.2.6-.7a4.4,4.4,0,0,0,.8-1.1h0c.9-1.3,1.6-2.7,2.4-4a4.2,4.2,0,0,1,1.7-2,2.8,2.8,0,0,1,3.2,1.1,13.4,13.4,0,0,1,.7,1.8,10.3,10.3,0,0,0,.4,1.4c.1.6.3,1.2.4,1.9l1.2,3.9a23.9,23.9,0,0,0,1.3,2.8,5.1,5.1,0,0,0,.9,1.6l.5.7c.2.1.3.3.4.4l.4.3.6.4h.3l.7.2h.5l.7-.4-.2.2.2-.2.5-.5.3-.4.9-1.6c.5-1,.9-2.1,1.3-3.1s.5-1.6.7-2.3a19.9,19.9,0,0,1,.9-2.6,2.4,2.4,0,0,1,3.4-1.3,4.3,4.3,0,0,1,1.3,1.7,18.6,18.6,0,0,0,1,2.5.9.9,0,0,0,.3.5l.2.3.3.3h0l.3.3h.5l.6.2h.3l.6-.2h.2l.2-.2h-.1l.3-.4a5.6,5.6,0,0,0,.5-.8,5.8,5.8,0,0,0,.5-1.4c.3-.8.5-1.7.8-2.5l.3-1.8a19.2,19.2,0,0,0,.3-2.2c.1-1.5.2-3,.2-4.4s-.1-3.4-.2-5.1l-.3-5.1c-.1-1.6-.1-3.1-.2-4.7a2.8,2.8,0,0,0-.1-.9,2.3,2.3,0,0,1,1.9-2.5,2.1,2.1,0,0,1,2.4,1.9,69.7,69.7,0,0,1,.4,7.9c.2,2.7.4,5.4.4,8.1s0,2.5-.1,3.8-.2,2.6-.4,3.9-.6,3-1,4.4a15.5,15.5,0,0,1-1.8,3.9,6.1,6.1,0,0,1-3.4,2.5l-1.4.2-1.9-.2a6.1,6.1,0,0,1-2.7-1.5l-1.1-1.2a10.9,10.9,0,0,1-.5,1.7,19.3,19.3,0,0,1-2.6,4.9,6.7,6.7,0,0,1-2.8,2.2,4.7,4.7,0,0,1-1.7.4h-1.6Z"/><path d="M243.1,236.5c-.4-.9-.1-1.9-.1-2.9a21.7,21.7,0,0,0-.1-4.4v-.1a2.1,2.1,0,0,1,1.4-2.7,2.2,2.2,0,0,1,2.7,1.4,4.6,4.6,0,0,1,.3,2,9.7,9.7,0,0,0,.1,1.7v1.8a14.9,14.9,0,0,1-.2,2.1h0v-.3h0c0-.1,0-.2-.1-.2v-.2a2.3,2.3,0,0,1-1.1,2.8l-.9.2A2.1,2.1,0,0,1,243.1,236.5Z"/></svg>