<svg id="Nose_5" data-name="Nose 5" xmlns="http://www.w3.org/2000/svg" viewBox="0 0 500 500"><path d="M228.1,237.6a5.9,5.9,0,0,0,1.7,1,7.8,7.8,0,0,0,2.1.4h.9l1.2-.6.9-1.2a4.8,4.8,0,0,0,.5-1.7c0-.4.1-.8.1-1.2v-1.7c0-1.9,0-3.9-.1-5.9s-.4-4-.7-6a5.2,5.2,0,0,1-.2-1.1c-.1-.7-.1-1.3-.2-2s-.2-2.7-.2-4.1a14.8,14.8,0,0,0-.1-2.1c0-.7-.1-1.4-.1-2a7.1,7.1,0,0,0-.5-2.6,1.7,1.7,0,0,0-2.8,0,2.7,2.7,0,0,0-.4,1.8v1.2l.3.7a12.5,12.5,0,0,0-.2,5.1,4.3,4.3,0,0,1,.1.5c-.1.5-.3,1.1-.4,1.7l-2.8,8.1a16,16,0,0,0-1.1,5.7,9.3,9.3,0,0,0,.6,4.1A7.2,7.2,0,0,0,228.1,237.6Z"/><path d="M248.2,228.3l-3.1-4.7a8.3,8.3,0,0,1-.7-1.3c-.5-1.2-.8-2.4-1.2-3.5l-.6-3.1-.3-4.7c0-.7-.1-1.4-.1-2.1a21.3,21.3,0,0,0-.3-2.5,1.8,1.8,0,0,0-2.9-.6l-.2.3a1.6,1.6,0,0,0-1,.8,3.4,3.4,0,0,0-.1,2c.1.3.1.7.2,1.1.3,2.9.3,5.9.6,8.8a34.4,34.4,0,0,0,.5,4.5c.2,1.5.6,3,.9,4.5a14.7,14.7,0,0,0,.8,2.8c.2.5.4,1.1.7,1.7l.6,1.3a10,10,0,0,0,2.3,3.1,4.1,4.1,0,0,0,2.6.9h0a2.8,2.8,0,0,0,2.3-1.1,4.7,4.7,0,0,0,1.2-2.7,6.3,6.3,0,0,0-.7-3Z"/><path d="M234.9,244.2l-1.4,1.8-.4.6-.5.4h-3.3l-.4-.2-1.1-.8-1-.8a31.5,31.5,0,0,1-2.2-2.9v.2c-.7-1-1.4-1.9-2-2.9l-1.1-1.5a3.2,3.2,0,0,0-1.9-1.7,1.6,1.6,0,0,0-2,1.3,1.9,1.9,0,0,0,.7,1.7l.2.2,2.6,3.9,1.6,2.1a16.7,16.7,0,0,0,2.5,2.8,9.5,9.5,0,0,0,3.8,2.1h2.8a4.7,4.7,0,0,0,1.7-.4,4.4,4.4,0,0,0,1.6-1l1.5-1.7.6-.9h.1a1.7,1.7,0,0,0-2.5-2.3Z"/><path d="M258,243.5a8.8,8.8,0,0,0,1.4-4.5,7.6,7.6,0,0,0-.2-3,1.8,1.8,0,0,0-2.1-1.1,1.8,1.8,0,0,0-1.1,2.2h0a.8.8,0,0,0,.1.4v.6c0,.5-.1.9-.1,1.4l-.3,1v.4l-.3.5v.2l-.2.2-.2.2h0v.2h-1a1.8,1.8,0,0,0-1.6,1.6,2,2,0,0,0,.4,1.3,2.5,2.5,0,0,0,1.5.6h.2A4.9,4.9,0,0,0,258,243.5Z"/><path d="M263.1,245a1.8,1.8,0,0,0-2.2,1v.4l-.4.5a1.2,1.2,0,0,1-.5.5l-.3.3-.6.4-.3.2H258a1.8,1.8,0,0,0-1.7,1.8,2,2,0,0,0,1.2,1.6h.8a4.1,4.1,0,0,0,1.8-.5,8,8,0,0,0,4-4.1A1.7,1.7,0,0,0,263.1,245Z"/><path d="M232.6,201.1h.3a1.7,1.7,0,0,0,1.6-1.1l.8-.2a1.5,1.5,0,0,0,.8-.8,4.1,4.1,0,0,0,.2-1.9c0-1.1-.1-2.1-.2-3.2s-.1-1.1-.2-1.7l-.3-1.8a3.1,3.1,0,0,0-.6-1.3,1.8,1.8,0,0,0-1.3-.9,1.7,1.7,0,0,0-1.2.2,1.8,1.8,0,0,0-1,1.7,1.7,1.7,0,0,0,.9,1.4l.3,2.5h0c.1,1,.2,2,.2,3l-.5.3a4.5,4.5,0,0,0-1.1,1.9A1.7,1.7,0,0,0,232.6,201.1Z"/></svg>