<svg id="Pet" xmlns="http://www.w3.org/2000/svg" viewBox="0 0 500 500"><defs><style>.cls-1{fill:lime;}</style></defs><polygon class="cls-1" points="317.2 316.3 307.2 318.5 303.5 325.6 305.4 355.2 313.5 380.1 322.6 388.6 335.4 385.8 346 381.9 355.6 388.8 362.5 391.9 373 388 379.5 386.9 391.7 395.3 401 397.7 407.9 394 413.2 385.8 401.6 389.9 388.2 380 383.8 373 371.7 373.4 364.5 371 357.6 363.2 344.7 356.3 342.1 343.4 336.1 328 329.1 318.7 317.2 316.3"/><path d="M414.7,383.5a1.7,1.7,0,0,0-1.7,0c-.4.1-.7.5-1,.8l-1.1.8a1.8,1.8,0,0,1-.7.5l-2.3,1.2-1,.3h.2a29.9,29.9,0,0,1-4.3,1h-1.5l-.4-.2-.4-.3-3-2.6c-1.1-.9-2.1-1.9-3.1-2.9l-1.1-1.1a8.3,8.3,0,0,0-.8-1.2,45.4,45.4,0,0,0-3.9-4.8,12.9,12.9,0,0,0-5.3-3.9,14.3,14.3,0,0,0-5.8-.8,39.1,39.1,0,0,0-5.8,1h-4.8l-.4-.2-.4-.3-.4-.3-.7-.8c-1-1.4-1.9-2.8-3-4.1a32.3,32.3,0,0,0-3.7-3.7,16.6,16.6,0,0,0-3.9-2.6,13.3,13.3,0,0,1-2.1-.9,15.1,15.1,0,0,1-2.2-1.1l-1.5-1-1.2-1.1-.7-.8-.2-.3h0c-.1-.1-.1-.3-.2-.4l-.6-2.5-.3-1.7c-.1-.8-.1-1.6-.2-2.4a4.3,4.3,0,0,1-.1-.5h.1a3.2,3.2,0,0,1-.3-.9,2.7,2.7,0,0,1-.2-1.3,3.7,3.7,0,0,1-.5-1.1v-.3H344a8.5,8.5,0,0,0-.6-1.7c-.4-1.3-.8-2.6-1.3-3.8s-1.1-2.7-1.7-4.1l-1.7-3.5c-1.1-2-2.2-4-3.4-5.9a25.1,25.1,0,0,0-2.7-3.7,22.7,22.7,0,0,0-4.9-3.9,16.4,16.4,0,0,0-7.8-1.9h-5.5a13.1,13.1,0,0,0-3.9.5,18.4,18.4,0,0,0-4,1.9,10,10,0,0,0-2.7,2.3,16.1,16.1,0,0,0-2.1,6.4,30.3,30.3,0,0,0-.6,3.2c0,.8-.2,1.6-.2,2.4a22.9,22.9,0,0,0,.1,3.7c0,1.2.1,2.4.2,3.6s.1,2.4.1,3.7.1,2,.2,3,.2,2.2.4,3.3a22,22,0,0,0,.6,3.7c.3,2.1.8,4.2,1.2,6.4s.9,4.4,1.4,6.6.4,2.2.7,3.3a34,34,0,0,0,1.2,3.4c.8,2.2,1.8,4.2,2.8,6.3a26.1,26.1,0,0,0,1.7,2.8l1.8,2.7a25.1,25.1,0,0,0,4.5,4.7,15.2,15.2,0,0,0,7.7,3,9.5,9.5,0,0,0,4.1-.3,21.5,21.5,0,0,0,3.2-1.3l3.1-1.6c1.9-1,3.8-2,5.8-2.9h-.2l2.4-.9,1.2-.2h1.6l.5.2a2,2,0,0,1,.8.4l1.1.7a18,18,0,0,1,2,1.9l3.2,3.1a12.7,12.7,0,0,0,4.4,2.8,12.8,12.8,0,0,0,3.5.9,17.8,17.8,0,0,0,4,0,13,13,0,0,0,4.3-1.5c1.4-.9,2.6-1.9,3.9-2.9l1.1-.8.3-.2h1.6l.6.2.9.4h-.1a40.5,40.5,0,0,1,4.3,2.9,40.2,40.2,0,0,0,4.7,3.4,22,22,0,0,0,5.4,2.5,33.4,33.4,0,0,0,6.3,1.2,15.2,15.2,0,0,0,2.1.3,7.2,7.2,0,0,0,3.3-.7,14.4,14.4,0,0,0,3.2-2.3,18.4,18.4,0,0,0,4.3-4.5c.5-.9,1-1.8,1.4-2.7a13.6,13.6,0,0,1,1-2.1l.3-.5.3-.4a2,2,0,0,0,.3-1.1A1.7,1.7,0,0,0,414.7,383.5Zm-37.8,4.8Zm31.7,2.6h0l-.9,1a26.9,26.9,0,0,1-3.2,2.7l-.7.5h0l-.5.3-.6.2h-2q-3.1-.5-6.3-1.2l-1.5-.5-2.8-1.3-2.8-1.9a45.7,45.7,0,0,0-6.1-4.5,9.7,9.7,0,0,0-3.3-1.4h-1l-1.5.2a4.6,4.6,0,0,0-1.9.8,20.4,20.4,0,0,0-3.3,2.5h0c0,.1,0,.1-.1.1h0l-1.6,1-.9.5-.7.3-1,.2-2,.2h-1.2l-1.3-.3h0l-1.5-.6-1.2-.6-1.1-.7-1.8-1.7c0,.1,0,.1.1.1l-4-3.9a13.2,13.2,0,0,0-2.5-1.6,7.4,7.4,0,0,0-3.3-.9,9.5,9.5,0,0,0-3.7.5l-2,.8a45.2,45.2,0,0,0-4.9,2.5l-5.6,2.8h0l-1.4.5h-2.7l-1.7-.4h0l-1.8-.6-1.2-.6-1.1-.7-1.4-1.2-1.4-1.6c-.5-.7-1.1-1.4-1.6-2.2l-1.5-2.3c-.6-1.1-1.3-2.2-1.8-3.3s-1.1-2.4-1.6-3.6a13.4,13.4,0,0,1-.7-1.8l-.6-1.9c-.4-1.6-.8-3.2-1.1-4.9s-.7-3.6-1.1-5.4-.7-3.4-1-5.1-.6-3.2-.8-4.8l-.3-3.3c0-1.2-.1-2.5-.1-3.7s-.1-2.2-.2-3.3l-.3-4.6.3-3.7.9-4.7.6-1.7.3-.6.4-.6.3-.4.5-.4.8-.5a7.6,7.6,0,0,1,1.8-.9l1.3-.5,1.2-.2h4.9a33.1,33.1,0,0,1,4.4.2,4.5,4.5,0,0,1,1.6.3l.9.3,1.1.5,2.5,1.8a5.2,5.2,0,0,1,1.1,1l1.2,1.3c1.1,1.5,2,3.1,2.9,4.6h0c.1,0,.1,0,.1.1h0c1.5,2.6,2.8,5.3,4.1,8s1.5,4,2.2,6.1l.6,1.6-.3.4a1.8,1.8,0,0,0,.3,2.4l1,.9-.2-.2.3.3h0a26.4,26.4,0,0,0,.2,2.8c.1.5.3,1,.4,1.5l.3,1.5a7.5,7.5,0,0,0,.9,2.5,9.5,9.5,0,0,0,2.1,2.4,18.5,18.5,0,0,0,3.7,2.5l2.7,1.3,2.3,1.1.8.5,1.2,1.1,1.7,1.5,2,2.4h0c.9,1.1,1.7,2.4,2.6,3.5a7.5,7.5,0,0,0,1.9,1.7,6.5,6.5,0,0,0,3.1,1.1h2.3l2.4-.2,2.3-.4,2.1-.4,2.2-.2h1.3l.9.2,1.1.4,1.1.6,1.2.7.9.8c1,1.1,2,2.2,2.9,3.4s1.8,2.7,2.9,4l2,1.8,1.8,1.7,2.3,2a9.2,9.2,0,0,0,3.4,2.1,6.7,6.7,0,0,0,3.7-.1l2.9-.7a5.5,5.5,0,0,0,1.7-.5h.1Z"/><path d="M310,330.7a1.6,1.6,0,0,0-1.5-1,2.3,2.3,0,0,0-1.6.4,3.1,3.1,0,0,0-1.1,2,5.5,5.5,0,0,0,.2,1.8,3.7,3.7,0,0,0,1.8,1.9l1,.2.9-.2a2.6,2.6,0,0,0,1.5-1.2,3.3,3.3,0,0,0-.3-3.2A1.6,1.6,0,0,0,310,330.7Z"/><path d="M328.6,330.3a2.4,2.4,0,0,0-.6-.8,3.6,3.6,0,0,0-1.1-1h-.4a1.8,1.8,0,0,0-1.5-1.1,3.3,3.3,0,0,0-1.4.4,2.9,2.9,0,0,0-1.2,1.5,3.8,3.8,0,0,0-.6,2.3,3.2,3.2,0,0,0,.3,1.4,5,5,0,0,0,.8,1.2,4.8,4.8,0,0,0,2.2,1.5h1a3.5,3.5,0,0,0,1.4-.3,3.8,3.8,0,0,0,1.4-1.4,2.7,2.7,0,0,0,.3-1.2,2.9,2.9,0,0,0-.1-1.3A6.1,6.1,0,0,0,328.6,330.3Z"/><path d="M322,342a11.1,11.1,0,0,0-2.4-3.4,2.9,2.9,0,0,0-3.6-.3,3.7,3.7,0,0,0-1.1,1.8,8.8,8.8,0,0,0-.7,2.3,10.5,10.5,0,0,0,0,2.5,3.7,3.7,0,0,0,.6,2.1,1.8,1.8,0,0,0,1.4.6,1.8,1.8,0,0,0,1.9-1.7,2.9,2.9,0,0,0-.2-.9v-.2c0-.3-.1-.6-.1-.9a4.1,4.1,0,0,1,.1-1.1,1.1,1.1,0,0,1,.1-.5h0c0,.1.1.1.1.2a10.9,10.9,0,0,1,.8,1.5l1.3,3.3a1.7,1.7,0,0,0,1.7,1.3h.6a1.9,1.9,0,0,0,1.1-2.4A34.7,34.7,0,0,0,322,342Z"/><path d="M309.5,301a3.9,3.9,0,0,0,1.8.4,4.3,4.3,0,0,0,1.6,0,2,2,0,0,0,1.2,1.3l.4.2a1.9,1.9,0,0,0-.2.8,3.7,3.7,0,0,0,.5,2.5l-.4.4a1.9,1.9,0,0,0,.1,2.6,2.1,2.1,0,0,0,1.2.5,1.8,1.8,0,0,0,1.4-.6l.2-.2a3.9,3.9,0,0,0,1.3-2,2.3,2.3,0,0,0-.1-1.4,3,3,0,0,0-.4-1H318v-.2h.1c0-.2.1-.3.2-.5s1.9-2.4,1-3.8h0c0-.1,0-.1.1-.1l.6-.5a1.8,1.8,0,0,0,.4-2.2,1.8,1.8,0,0,0-1.7-1,5.1,5.1,0,0,0-2.1.6l-.6.4-.7.2-2.2.5h-1.5v-.2l.8-.8,1.2-1.1,1.4-1a3.1,3.1,0,0,0,1-.5l.6-.2a1.8,1.8,0,0,0,2.9-1.8,2.3,2.3,0,0,0-2.2-1.9,6.5,6.5,0,0,0-4,1.2,13.2,13.2,0,0,0-3.7,2.9,5.5,5.5,0,0,0-1.9,3.4,2.8,2.8,0,0,0,.4,2A3.9,3.9,0,0,0,309.5,301Z"/></svg>