<svg id="Wings" xmlns="http://www.w3.org/2000/svg" viewBox="0 0 500 500"><defs><style>.cls-1{fill:lime;}.cls-2{fill:red;}.cls-3{fill:#0cf;}</style></defs><polygon class="cls-1" points="336.4 176 350.3 166 359.6 153.2 361.8 141.9 368.1 135.8 368.6 142.5 372.5 142.3 377.5 136.9 376.6 131.7 382.9 131 387.4 131.9 402.9 122.5 445.2 116.5 469.5 120.8 446.7 122.5 410 128.2 389 137.8 387.9 139.7 412.9 146.2 432.4 153 453.5 163.8 467.4 176.6 482.4 198.8 457.4 178.6 432 162.1 408.1 150.8 385.7 146.4 383.3 149.5 402.7 169.7 412.9 186.2 423.7 215.7 424.8 235.9 424.8 253.1 420 260.7 420 234.4 414.4 210.7 404 191 394.2 175.1 378.1 154.7 379.4 164.7 384.2 182.9 386.6 196.2 385.7 208.3 380.7 234.6 379.6 213.1 377 183.8 371.2 165.8 366.6 159.5 357.6 168.2 349.7 183.4 346.6 192.5 336.4 176"/><polygon class="cls-2" points="366.8 157.6 357.6 168.2 350.3 183.7 364.4 191.6 379.2 221.2 379.6 213.1 373.1 171.9 366.8 157.6"/><polygon class="cls-2" points="346.6 192.5 347.8 188.8 347.4 189.7 346.6 192.5"/><polygon class="cls-2" points="347.8 188.8 350.3 183.7 349.7 183.4 347.8 188.8"/><polygon class="cls-2" points="411.6 202.3 400.5 186 384.4 163.6 378.3 157.5 383.8 178.8 386.4 194.2 385.5 211.6 380.7 234.6 391.6 233.5 405.7 239.2 413.7 250.5 418.7 259.8 420.2 251.3 418.3 223.8 411.6 202.3"/><polygon class="cls-2" points="449.4 172.9 415.9 154 399 149 385.7 146.4 389 153.6 398.7 163.8 409 179.7 419.8 199.9 425.7 225.3 425.5 254.8 433.1 231.1 445.2 215.1 458 204 477.8 200.1 482.4 198.8 449.4 172.9"/><polygon class="cls-2" points="421.8 148.8 440.9 156 457.6 167.3 467.4 174.7 461.3 157.5 460.4 144.9 463.9 134.3 471.3 121.5 459.1 122.1 433.7 123.6 410 128.2 394.6 134.5 387.9 139.7 404.8 143.8 421.8 148.8"/><polygon class="cls-3" points="366.6 124.5 368.6 137.8 368.6 142.5 372.5 142.3 377.5 136.9 370.1 126 366.6 124.5"/><path d="M460.8,168.3h0Z"/><path d="M463.6,170.8h0Z"/><path d="M485.1,199.2a3.7,3.7,0,0,0-.5-1.1l-1.5-2.6-3.2-5.1-.2-.2a1.5,1.5,0,0,0-.1-.7c-.4-.7-.7-1.5-1.1-2.2l-.9-1.9-1.1-1.9-1-1.4-5.8-8.1h-.1c-.9-1.5-1.7-3-2.5-4.6,0,.1,0,.2.1.2l-1.7-3.6c-.7-1.7-1.5-3.3-2.1-5s-.8-2.4-1.1-3.6-.3-2.4-.4-3.7h0v-.2h0c-.1-1.4-.1-2.8-.1-4.2s.1-2,.1-3,.2-2.2.4-3.3a18.2,18.2,0,0,1,.7-2.5c.5-1.3,1.1-2.7,1.7-4h0a63.8,63.8,0,0,1,3.8-6.7c.7-1.1,1.4-2.3,2.2-3.4l.9-1.6a1.4,1.4,0,0,0,1.2-.6.4.4,0,0,1,.1-.3h.1a3,3,0,0,0,1.6-.2,1.7,1.7,0,0,0,1.1-1.8,2.1,2.1,0,0,0-1.3-1.6l-2.6-1-2.8-1.1a53.6,53.6,0,0,0-5.7-1.7c-2.1-.5-4.2-.8-6.3-1.1a27.6,27.6,0,0,0-4-.6,1.8,1.8,0,0,0-2.2-1.2l-1.2.3h-1c-1.5.1-3,0-4.5,0l-4.1.2c-2.8.2-5.6.6-8.3,1l-6,.9-6.3.9c-2.1.4-4.1.7-6.1,1.2l-6.2,1.6c-4,1.1-8.2,2.1-11.8,4.2-1.9,1.1-3.7,2.3-5.4,3.5l-1.4.9h-.6a1.6,1.6,0,0,0-.7.7l-.7.4h-.1a10.1,10.1,0,0,0-3.7-1.2,11.4,11.4,0,0,0-3.7.4c-1.1.3-2.9.8-3.7,1.8l-1.6-1.7-.4-.5h-.2l-.2-.3v.2l-1.8-2.5a27.8,27.8,0,0,1-2.1-2.7h0a29,29,0,0,1-1.9-2.9,1.9,1.9,0,0,0-1.8-.9,1.7,1.7,0,0,0-1.4,1.3,4.2,4.2,0,0,0,.3,2.2l.6,2c.3,1.2.5,2.4.8,3.6s.5,2.3.6,3.5a27,27,0,0,1,.4,2.8h-.1l-1.8,1.3-1.2.9a1.2,1.2,0,0,0-.5.5l-.3.3-1.3,1.4a17.4,17.4,0,0,0-1.1,1.8,10.2,10.2,0,0,0-1,3.4,17,17,0,0,0-.1,2.2h0v.2h0l-.3,1.9c-.1.5-.3,1.1-.4,1.6l-.9,2a42.5,42.5,0,0,1-2.7,4.6,26.2,26.2,0,0,1-2.4,3.4l-2.6,3.1-2.3,2.5-2.3,2.1-2.7,2.2a18.6,18.6,0,0,1-2.7,2.2l-1.1.8a1.7,1.7,0,0,0,.2,2.6,2.1,2.1,0,0,0,1.2.4,2.2,2.2,0,0,0,1.3-.6l2.4-1.9,2.6-2.1a29.6,29.6,0,0,0,2.6-2.4,25,25,0,0,0,2.3-2.3l2.1-2.3,1.9-2.4a64.5,64.5,0,0,0,3.7-5.4l1.5-2.8a13.9,13.9,0,0,0,1.2-2.8,31.8,31.8,0,0,0,.8-3.3,27.1,27.1,0,0,0,.1-2.9,2,2,0,0,0,.1-.7,6.4,6.4,0,0,1,.2-.7,3.6,3.6,0,0,1,.4-.9,2.2,2.2,0,0,1,.5-.8,1,1,0,0,1,.4-.5l1-1.2.3-.2h.1a.8.8,0,0,1,.4-.4l.6-.5V142a1.8,1.8,0,0,0,1,1.6.3.3,0,0,1,.1.2,1.8,1.8,0,0,0,1.7,1.3h.4a16.6,16.6,0,0,0,3.1-1.2,11.4,11.4,0,0,0,4.7-3.7,8.9,8.9,0,0,0,1.2-3.9,2.7,2.7,0,0,0-.8-1.8h.1a4.8,4.8,0,0,1-.9-1.1l.5-.4h.2l.7-.3,1.5-.4,1.3-.2h1.3l.7.2.9.4h.2a1.1,1.1,0,0,0,.8.2,1.4,1.4,0,0,0,1,.5h.2a1.7,1.7,0,0,0,1.4-.7l1.6-1,.9-.2a14.7,14.7,0,0,0,2.2-1l3-1.7,3.4-1.4H399l1.6-.5,2.8-.9,2.8-.8a16.8,16.8,0,0,1,3.2-.9l2.9-.7,6.4-1.4,5.9-1.4c3.2-.5,6.4-1.2,9.7-1.6s6.4-1,9.7-1.2a59.3,59.3,0,0,1,7.3-.1c3.2.4,6.4,1,9.6,1.6h.8l-8.7,1h-.2l-11,.6-5.5.7-5.7.8c-2.1.2-4.1.4-6.2.8l-6.1,1.1a99.1,99.1,0,0,0-11.9,3.1l-5.7,2.4-2.8,1.2-2.7,1a18.2,18.2,0,0,0-5.4,2.7l-2,1.7-1.5,1a1.8,1.8,0,0,0-.6,1.8h0a1.9,1.9,0,0,0,.3,2.5,2,2,0,0,0,1.1.3L395,144l4.2.9,12.8,3,6.1,1.5a58.7,58.7,0,0,1,6,1.6l3.5,1.4,4.1,1.8,3.8,1.7,3.3,1.6,5.6,3.1,2.7,1.6,2.7,1.8,4.4,3.4,4.4,3.6h0l2.8,2.5,1.3,1.2,1.5,1.4,2.8,3c1.3,1.4,2.5,2.8,3.7,4.3l1.7,2.1,1.8,2.6,3.3,4.9-.9-.7-4.1-3.3-4.1-3.7a55.8,55.8,0,0,0-4.6-3.9l-4.5-3.7-2.6-1.9-2.4-1.6h.2l-1.4-.9-5-3.6a58.4,58.4,0,0,0-5.3-3.3l-5.6-3.2-5.4-2.8-4.8-2.6-4.6-2.6a60.8,60.8,0,0,0-9.9-4.1l-12-3.5a54.7,54.7,0,0,0-5.8-1.5l-3.1-.7-1.5-.3-1-.2h-1.6l-.7.2-1.3-.4h-.1a1.8,1.8,0,0,0-2.3.9,2.4,2.4,0,0,0,0,1.2v.2a1.6,1.6,0,0,0-.8,1,1.7,1.7,0,0,0,1,2.1h0a.1.1,0,0,1,.1.1l.5.4,2.9,2.8,2.9,3.2v-.2l5.2,5.9c1.9,2.4,3.9,4.9,5.6,7.4l5.5,8-.2-.2,3,4.6a19.8,19.8,0,0,1,1.1,2l1.2,2.3c1.3,2.8,2.4,5.6,3.6,8.3s1.3,2.9,1.9,4.4a11.1,11.1,0,0,1,.7,1.6,10.7,10.7,0,0,1,.7,1.9l.3.9h.1v.4h.1c0,.1,0,.2.1.2a5.3,5.3,0,0,0,.3,1.2c.1,0,.1.1.1.2s1,3,1.4,4.5l.6,2.1.6,2.5c.4,2.2.8,4.4,1.1,6.7s.3,2.4.4,3.6l.3,3.4h0v.2h0c.2,3,.3,6,.4,9.1v3.9a46.9,46.9,0,0,1,0,5.3l-.3,2.3c-.3,1.2-.6,2.3-1,3.5a24.4,24.4,0,0,1-1,2.4c.1-1.3.2-2.6.2-3.9s.1-3.2.1-4.8-.1-3.4-.2-5.1l-.3-3.9c-.1-.9-.3-1.9-.4-2.8s-.3-2.3-.4-3.4-.3-4.1-.5-6.1-.8-4.2-1.3-6.3-1.3-4-2-6h.1c-.9-2.4-1.5-5-2.4-7.4a15.4,15.4,0,0,0-1.1-3,17.3,17.3,0,0,0-1.4-3.1l-3.1-5.4-1.8-2.7-1.8-2.5-3.7-5.1h.1l-6.2-9.4v.2c-1.2-1.7-2.3-3.4-3.6-5s-2.6-3.1-3.8-4.7l-1.8-2.3-2-2.4c-.6-.7-1.2-1.5-1.9-2.2a10.2,10.2,0,0,0-1.8-1.8h0c0-.2-.1-.3-.2-.5a2.1,2.1,0,0,0-.4-.6,1,1,0,0,0-.5-.4l-.6-1a4.1,4.1,0,0,0-.5-.9,3.9,3.9,0,0,0-1-.8l1.7-1.4a1.8,1.8,0,0,0-2.5-2.5l-.6.6-1.4,1.1-.9.6h0l-.7.3-.7.2h-1.4l-.8-.2-.9-.2H369l-.6-.3-.6-.3-.4-.4-.3-.2V149a1.8,1.8,0,0,0-1.7-1.7,2.1,2.1,0,0,0-1.5.7,2.5,2.5,0,0,0-.4,1.2,3,3,0,0,0,.3,1.2,3.4,3.4,0,0,0,.9,1.2,6.9,6.9,0,0,0,1.3,1.1,8.1,8.1,0,0,0,2.9,1.2,8.5,8.5,0,0,0,2.3.3h1.2a8.4,8.4,0,0,0,2.4-.7,7.7,7.7,0,0,0,.2,1.5l.3,1.3a4.2,4.2,0,0,0,.4,1,1.9,1.9,0,0,0-.2.7,9,9,0,0,0,.8,2.8l.6,1.5c.4,1.1.7,2.2,1,3.3s.5,1.9.7,2.9l1.7,6.2c.7,2.1,1.3,4.3,2,6.4s1.1,4,1.5,6,.5,2.6.7,3.9a11,11,0,0,1,.2,1.8c.1.7.1,1.3.2,2,.1,3,.1,5.9.1,8.8s-.3,2.7-.4,4l-.6,3.8c-.4,2.4-.9,4.9-1.4,7.3s-1.3,6.1-2,9.1v-1.8c0-2.1.2-4.3.3-6.4s.2-4.2.1-6.3-.3-4-.4-5.9h-.1v-.2h0V204c0-1,.1-2.1,0-3.2s-.4-4.4-.6-6.6l-.3-3.1c-.2-1-.4-2.1-.5-3.1s-.3-2-.5-3a22.9,22.9,0,0,1-.8-2.8c-.3-1.1-.5-2.1-.8-3.2s-.5-2-.8-3-1.3-3.8-2-5.6-.8-2.7-1.3-4a14.1,14.1,0,0,0-1.7-3.2h0l-1.2-2a1.5,1.5,0,0,0-1.1-.8,13.2,13.2,0,0,0-1.2-2h.1a2.2,2.2,0,0,0-1.6-1.2,1.8,1.8,0,0,0-1.7.8l-1.2,1.5L362,161l-1.1,1.5-.5.6a2.3,2.3,0,0,0-.7.7,29.6,29.6,0,0,0-2.4,2.6h.1l-2.2,2.4h.1c-1.2,1.3-2.4,2.6-3.5,4a22,22,0,0,0-1.7,2.5l-1.4,2.5c-.4.9-.7,1.8-1,2.7s-.3,1.2-.5,1.7-.2.1-.2.2a2.3,2.3,0,0,0-1,1.2,5.9,5.9,0,0,0-.2,1.4l.3,2a4.3,4.3,0,0,1-.1.5c-.1.5-.3.9-.4,1.4a7.8,7.8,0,0,0-.5,1.4,5.3,5.3,0,0,0-.2,2.5,2,2,0,0,0,1.3,1.2h.4a2.1,2.1,0,0,0,1.1-.4,3.8,3.8,0,0,0,.9-1.8c.2-.6.3-1.2.5-1.9l.3-1.6,1-2.8,3.8,1.7a37.5,37.5,0,0,1,4.4,2.4l1.5,1.3,1.4,1.3c1.3,1.6,2.5,3.3,3.8,5l2.8,3.6,1.1,1.9c.9,1.7,1.5,3.6,2.4,5.3a20,20,0,0,0,1,2.1c.5.9,1,1.8,1.4,2.7a13.9,13.9,0,0,1,1.2,2.8,45,45,0,0,1,1.7,6c.1.5.1.9.2,1.4a16.2,16.2,0,0,1-.1,2.2,19.7,19.7,0,0,1-.3,2.4c0,.2-.1.4-.1.6a6.1,6.1,0,0,0-.3,1.3,2.9,2.9,0,0,0,.2.9c.1.2.2.5.4.6l.2.2c0,1.1,0,2.1.1,3.2v2.9a10.9,10.9,0,0,1,.1,1.8c.1.7.1,1.3.2,1.9a1.7,1.7,0,0,0,1.7,1.5l.9-.2c.9-.5,1-1.7,1.2-2.6a17.4,17.4,0,0,1,.5-2.2c.1-.6.3-1.3.4-1.9h.7l6.7-1,2.4.4,3,.8,3.1,1.3a12.8,12.8,0,0,1,2.5,1.5l2,1.4,1.5,1.2a75.3,75.3,0,0,1,5.6,5.7l1.2,1.6.8,1.3c.2.5.5.9.7,1.4l.9,1.9.6,1.7h0a23.1,23.1,0,0,1,1,2.8l1.2,2.7a2.3,2.3,0,0,0,1.2,1,13.8,13.8,0,0,0,1.1,6.3,1.6,1.6,0,0,0,1.6,1.1,1.8,1.8,0,0,0,1.2-.5,2.4,2.4,0,0,0,.5-1.6,3.8,3.8,0,0,1,.1-1h0a12.7,12.7,0,0,1,.3-2.8,10.9,10.9,0,0,1,.5-1.7c.2-.6.6-1.3.9-2a1.5,1.5,0,0,0,1.1.4h.2a1.7,1.7,0,0,0,1.5-1.7h0c0-.1.1-.2.1-.3l1.2-5,.9-4.3a28.6,28.6,0,0,1,.7-2.8c.2-.8.4-1.7.7-2.6s.9-2.8,1.3-4.3a13.4,13.4,0,0,0,.7-1.8l.6-1.5c.6-1.1,1.1-2.2,1.6-3.3l1.4-2.5c.7-1.2,1.4-2.4,2.2-3.6a50.2,50.2,0,0,1,4.1-5.3l3-3.3,1.5-1.4,1.6-1.5a99.2,99.2,0,0,1,7.9-6.3l2.9-1.7h0l2.3-1.2a32,32,0,0,1,4.3-1.7h.1a31.7,31.7,0,0,1,4.4-1.2l3.3-.5h2.4l5.4.3a1.4,1.4,0,0,0,1.1-.2,4.3,4.3,0,0,0,1.7,1.3h.5a1.5,1.5,0,0,0,1.2-.5,1.9,1.9,0,0,0,.5-1.4A4.6,4.6,0,0,0,485.1,199.2ZM375.4,137c-.1.2-.1.4-.2.5s-.1.3-.1.4l-.2.3-.3.3-.5.6-.9.6h0c0,.1,0,.1-.1.1h.1l-1.3.7-1.7.8a31.2,31.2,0,0,0,.1-4.3,26.4,26.4,0,0,0-.2-2.9c-.1-1-.2-2-.4-3a12.5,12.5,0,0,0-.3-1.9l.6.7.4.6.4.3.6.8.9,1c1.1,1.3,2.1,2.7,3.1,4Zm88.3,33.8-2.8-2.4-3.1-2.5-5.6-4.4-2.6-1.8-2.8-1.7-5.7-3.2-5.5-2.7-5.8-2.5c-1.1-.4-2-.9-3.1-1.2l-1.6-.7-1.5-.4c-4.1-1.3-8.4-2.2-12.6-3.2l-12.4-2.9-6.3-1.3-2.3-.4h.2l2.2-1.8,1.3-.8,6.9-2.7,3.4-1.4,3.5-1.4a111.1,111.1,0,0,1,11.3-3.1l2.7-.5c2-.3,4-.8,6-1l6.2-.7,6.1-.9,5.7-.5h.2l8.5-.5c2.7-.1,5.4-.6,8.1-.8h3.6l2.5.4-.2.3-1.4,2.2-2.4,3.8a19.8,19.8,0,0,0-1.1,2,19.6,19.6,0,0,0-1.3,2.5,26.1,26.1,0,0,0-2.4,5.4,22.5,22.5,0,0,0-1.1,6.3c-.1,1.4-.1,2.9-.2,4.3s0,2.4.1,3.5a29.7,29.7,0,0,0,.6,4.3c.9,4,2.7,7.7,4.4,11.4a14.2,14.2,0,0,0,.8,1.8Zm-88.3,37.1h0c-.4-1-.9-1.9-1.3-2.9a49.7,49.7,0,0,0-2.5-5.2,28.1,28.1,0,0,0-3.3-4.4l-1.8-2.4a29.7,29.7,0,0,0-2.7-3.5,14.8,14.8,0,0,0-3-2.6,52.9,52.9,0,0,0-7.4-4l-1.7-.8h-.1c.4-.8.7-1.7,1.1-2.5l1-1.8c.5-.6.9-1.2,1.4-1.7h-.2l1.5-1.7a11.8,11.8,0,0,0,1.3-1.8c.7-1,1.3-2.2,1.9-3.2s1.9-2.5,2.9-3.7l.2-.3,1.4-1.3a8,8,0,0,0,1.5-1.7l.3-.4v.2a5.6,5.6,0,0,1,.4,1.2c.2,1.1.3,2.1.4,3.1v1.2a1.8,1.8,0,0,0,1.8,1.7,1.6,1.6,0,0,0,1.5-1c.4,1,.6,2,1,3l1,2.7h0c.7,2.2,1.4,4.4,1.9,6.7s.5,2,.8,3,.5,2,.7,3.1.3,2,.5,3.1a17.5,17.5,0,0,1,.4,3.2c.1,1.1.2,2.3.4,3.4l.3,3a24.4,24.4,0,0,1,.1,2.7c0,.9-.1,1.7-.1,2.6s.1,1.9.1,2.9l.3,2.5h-.1v.2h0v1.3C376.8,210.5,376.1,209.2,375.4,207.9ZM418,254.3h0v.2h0c0,.4-.1.8-.1,1.2v-.2l-1.1-3.2c-.4-.9-.8-1.9-1.3-2.8l-.8-1.4a10,10,0,0,0-.8-1.4,23.9,23.9,0,0,0-2.1-2.6l-2-2.1-2.1-2.2-2.3-2.1-2.6-1.8a28.4,28.4,0,0,0-7.7-3.6c-2.3-.7-9.4-.2-12-.1.5-1.8.9-3.7,1.4-5.5s.8-4,1.3-6c.8-4.2,1.7-8.4,2.3-12.6a75.8,75.8,0,0,0,.4-12.6c0-1.1-.1-2.2-.2-3.3s-.3-2-.4-3l-.3-1.5-.3-1.6c-.2-1-.5-2-.7-2.9s-1.2-4.2-1.9-6.3l-1.9-6.4c-.5-2-.9-4-1.4-5.9s-.3-1.1-.5-1.6a12.1,12.1,0,0,1-.5-1.8l-.3-.7,2.7,3.2,3.2,4,3.4,4.2,3.2,4.5a.3.3,0,0,1-.1-.2l.8,1.3h0l5.3,8.1c1.8,2.6,3.7,5.2,5.6,7.7s3.2,5.1,4.7,7.8l1,2.1a18,18,0,0,1,.8,2.1c.6,1.7,1.1,3.4,1.6,5.1s1.1,3.3,1.6,4.9,1,2.9,1.4,4.3l.9,3.9.6,4.1.3,3.9c.2,2.6.6,5.2.9,7.8v0h0l.3,4.8a86.4,86.4,0,0,1-.2,10.2Zm56.7-56.2a32.9,32.9,0,0,0-5.4.5,49.8,49.8,0,0,0-5.5,1.6l-3.8,1.6a44.7,44.7,0,0,0-6.1,3.3c-1.4.9-2.7,2-4,3l-2.3,1.9-2.4,2-2.7,2.7-.7.7-1.5,1.6c-1.2,1.3-2.4,2.7-3.5,4.1a43.5,43.5,0,0,0-3.8,5.7,37.2,37.2,0,0,0-1.9,3.4,3.7,3.7,0,0,0-.5,1.1,18.6,18.6,0,0,0-1,2c-.4.9-.8,1.9-1.1,2.8s-.7,1.9-1.1,2.8-.1.7-.2,1c-.1-3.4-.2-6.7-.4-10.1s-.3-4.1-.5-6.1l-.3-3.1c-.2-1-.3-2.1-.5-3.2s-.3-1.4-.4-2.1-.1-.9-.2-1.3-.3-1.2-.5-1.9l-.3-1.3c-.6-2-1.2-4-1.9-6h.1a6.9,6.9,0,0,0-.4-1h0v-.4h-.1c0-.1,0-.2-.1-.2l-.3-1.1h-.1c-1.3-3.9-3.1-7.5-4.7-11.3l-1.2-2.8c-.4-1-.8-2-1.3-3a17.4,17.4,0,0,1-1-1.9l-.6-1.1-1.8-3c-1.2-1.9-2.5-3.7-3.7-5.5l-3.6-5.3-3.9-5.3c-1.2-1.6-2.6-3.1-4-4.7l.2.2c-1.7-1.9-3.4-3.9-5.2-5.7l-2.5-2.7-.4-.4c.1,0,.1-.1.1-.2h.1l2.4.6a1.9,1.9,0,0,0,1.8-.6l1.2.3,2.9.6,5.6,1.6,5.8,1.7,5.5,1.7h0l3.2,1.2,3.1,1.4c2.5,1.2,4.8,2.6,7.2,4l7.3,3.7c-.1,0-.2,0-.2-.1,2.1,1.1,4.2,2.2,6.2,3.4l6.1,3.9,4.2,3,4.2,2.8h.1l2.7,2,2.5,2,5.3,4.4,2.8,2.5,2.7,2.5,5.9,4.8h-.1l2.3,2Z"/><path d="M421.2,201.9Z"/><polygon class="cls-1" points="174.9 176 161 166 151.6 153.2 149.5 141.9 143.2 135.8 142.7 142.5 138.8 142.3 133.8 136.9 134.7 131.7 128.4 131 123.8 131.9 108.4 122.5 66.1 116.5 41.7 120.8 64.5 122.5 101.3 128.2 122.3 137.8 123.4 139.7 98.4 146.2 78.9 153 57.8 163.8 43.9 176.6 28.9 198.8 53.9 178.6 79.3 162.1 103.2 150.8 125.6 146.4 128 149.5 108.6 169.7 98.4 186.2 87.6 215.7 86.5 235.9 86.5 253.1 91.3 260.7 91.3 234.4 96.9 210.7 107.3 191 117.1 175.1 133.2 154.7 131.9 164.7 127.1 182.9 124.7 196.2 125.6 208.3 130.6 234.6 131.7 213.1 134.3 183.8 140.1 165.8 144.7 159.5 153.7 168.2 161.6 183.4 164.7 192.5 174.9 176"/><polygon class="cls-2" points="144.5 157.6 153.7 168.2 161 183.7 146.9 191.6 132.1 221.2 131.7 213.1 138.2 171.9 144.5 157.6"/><polygon class="cls-2" points="164.7 192.5 163.5 188.8 163.9 189.7 164.7 192.5"/><polygon class="cls-2" points="163.5 188.8 161 183.7 161.6 183.4 163.5 188.8"/><polygon class="cls-2" points="99.7 202.3 110.8 186 126.9 163.6 133 157.5 127.5 178.8 124.9 194.2 125.8 211.6 130.6 234.6 119.7 233.5 105.6 239.2 97.6 250.5 92.6 259.8 91 251.3 93 223.8 99.7 202.3"/><polygon class="cls-2" points="61.9 172.9 95.4 154 112.3 149 125.6 146.4 122.3 153.6 112.5 163.8 102.3 179.7 91.5 199.9 85.6 225.3 85.8 254.8 78.2 231.1 66.1 215.1 53.3 204 33.5 200.1 28.9 198.8 61.9 172.9"/><polygon class="cls-2" points="89.5 148.8 70.4 156 53.7 167.3 43.9 174.7 50 157.5 50.9 144.9 47.4 134.3 40 121.5 52.2 122.1 77.6 123.6 101.3 128.2 116.7 134.5 123.4 139.7 106.5 143.8 89.5 148.8"/><polygon class="cls-3" points="144.7 124.5 142.7 137.8 142.7 142.5 138.8 142.3 133.8 136.9 141.2 126 144.7 124.5"/><path d="M50.5,168.3h0Z"/><path d="M47.7,170.8h0Z"/><path d="M25.4,201.1a1.6,1.6,0,0,0,.5,1.4,1.5,1.5,0,0,0,1.2.5h.5a4.3,4.3,0,0,0,1.7-1.3,1.2,1.2,0,0,0,1,.2l5.5-.3h2.3l3.4.5a36,36,0,0,1,4.4,1.2H46a26.3,26.3,0,0,1,4.2,1.7l2.4,1.2h0l2.9,1.7a99.2,99.2,0,0,1,7.9,6.3l1.6,1.5,1.5,1.4,3,3.3a50.2,50.2,0,0,1,4.1,5.3c.8,1.2,1.5,2.4,2.2,3.6l1.4,2.5c.5,1.1,1,2.2,1.6,3.3l.6,1.5a13.4,13.4,0,0,0,.7,1.8c.4,1.5.9,2.9,1.3,4.3s.5,1.8.7,2.6a28,28,0,0,1,.6,2.8c.4,1.5.7,2.9,1,4.3l1.2,5a.4.4,0,0,0,.1.3h0a1.7,1.7,0,0,0,1.5,1.7h.2a1.5,1.5,0,0,0,1.1-.4c.3.7.7,1.4.9,2a10.9,10.9,0,0,1,.5,1.7,24,24,0,0,1,.3,2.8h0c0,.4.1.7.1,1a2.4,2.4,0,0,0,.5,1.6,1.8,1.8,0,0,0,1.2.5,1.6,1.6,0,0,0,1.6-1.1,13.8,13.8,0,0,0,1.1-6.3,2.3,2.3,0,0,0,1.2-1l1.2-2.7a23.1,23.1,0,0,1,1-2.8h0a11.5,11.5,0,0,1,.6-1.7l.9-1.9c.2-.5.5-.9.7-1.4l.8-1.3,1.2-1.6c1.8-2,3.6-3.9,5.5-5.7l1.6-1.2,2-1.4a12.8,12.8,0,0,1,2.5-1.5l3.1-1.3,3-.8,2.4-.4,6.7,1h.7c.1.6.3,1.3.4,1.9s.3,1.5.5,2.2.3,2.1,1.2,2.6l.9.2a1.7,1.7,0,0,0,1.7-1.5c.1-.6.1-1.2.2-1.9a10.9,10.9,0,0,1,.1-1.8v-2.9c0-1.1.1-2.1.1-3.2l.2-.2c.2-.1.3-.4.4-.6s.1-.6.2-.9a6.1,6.1,0,0,0-.3-1.3,1.3,1.3,0,0,1-.1-.6,9.9,9.9,0,0,1-.3-2.4,16.2,16.2,0,0,1-.1-2.2,6.8,6.8,0,0,1,.2-1.4,45,45,0,0,1,1.7-6,13.9,13.9,0,0,1,1.2-2.8c.4-.9.9-1.8,1.4-2.7l1-2.1c.8-1.7,1.5-3.6,2.4-5.3l1.1-1.9,2.8-3.6c1.3-1.7,2.5-3.4,3.8-5a15.9,15.9,0,0,1,1.3-1.3l1.6-1.3a37.5,37.5,0,0,1,4.4-2.4l3.8-1.7,1,2.8.3,1.6c.2.7.3,1.3.5,1.9a3.1,3.1,0,0,0,.9,1.8,2.1,2.1,0,0,0,1.1.4h.4a1.6,1.6,0,0,0,1.2-1.2,4.3,4.3,0,0,0-.1-2.5l-.5-1.4c-.1-.5-.3-.9-.4-1.4a.7.7,0,0,1-.1-.5l.3-2a3.2,3.2,0,0,0-.3-1.4,1.8,1.8,0,0,0-.9-1.2c0-.1-.1-.1-.2-.2s-.3-1.1-.5-1.7-.6-1.8-1-2.7l-1.4-2.5a22,22,0,0,0-1.7-2.5c-1.1-1.4-2.3-2.7-3.5-4h0l-2.1-2.4h.1a29.6,29.6,0,0,0-2.4-2.6,4.6,4.6,0,0,0-.7-.7l-.5-.6-1.2-1.5-1.2-1.4-1.2-1.5a1.8,1.8,0,0,0-1.7-.8,2.2,2.2,0,0,0-1.6,1.2h.1a8.2,8.2,0,0,0-1.2,2,2,2,0,0,0-1.2.8,12.8,12.8,0,0,1-1.1,2h0a14.1,14.1,0,0,0-1.7,3.2c-.5,1.3-.9,2.6-1.4,4s-1.3,3.7-1.9,5.6-.6,2-.8,3-.5,2.1-.8,3.2a22.9,22.9,0,0,1-.8,2.8c-.2,1-.4,2-.5,3s-.3,2.1-.5,3.1l-.3,3.1c-.2,2.2-.6,4.4-.6,6.6s0,2.2,0,3.2,0,2.2-.1,3.2h.1c-.1.1-.1.1-.1.2h0c-.1,1.9-.3,3.9-.4,5.9s0,4.2.1,6.3l.3,6.4v1.8c-.7-3-1.3-6.1-2-9.1s-1-4.9-1.4-7.3l-.6-3.8c-.1-1.3-.3-2.6-.4-4s0-5.8.1-8.8a13.6,13.6,0,0,1,.2-2,11,11,0,0,1,.2-1.8c.2-1.3.4-2.6.7-3.9s.9-4,1.5-6,1.3-4.3,2-6.4,1.1-4.1,1.6-6.2l.8-2.9c.3-1.1.6-2.2,1-3.3l.6-1.5a9,9,0,0,0,.8-2.8,1.9,1.9,0,0,0-.2-.7l.4-1,.3-1.3a7.7,7.7,0,0,0,.2-1.5,8.4,8.4,0,0,0,2.4.7H140l2.4-.3a8.1,8.1,0,0,0,2.9-1.2l1.3-1.1a5.4,5.4,0,0,0,.9-1.2,3,3,0,0,0,.3-1.2,2.5,2.5,0,0,0-.4-1.2,2.1,2.1,0,0,0-1.5-.7,1.7,1.7,0,0,0-1.7,1.7v.2l-.3.2-.5.4-.5.3-.7.3h0l-.9.2-.8.2h-1.4l-.7-.2-.7-.3h0l-.9-.6-1.4-1.1-.6-.6a1.8,1.8,0,0,0-2.5,2.5l1.7,1.4a3.9,3.9,0,0,0-1,.8l-.6.9a4.7,4.7,0,0,1-.5,1,1,1,0,0,0-.5.4,2.1,2.1,0,0,0-.4.6c-.1.2-.2.3-.2.5h-.1a14.5,14.5,0,0,0-1.7,1.8c-.7.7-1.3,1.5-1.9,2.2l-2,2.4-1.8,2.3c-1.3,1.6-2.6,3.1-3.8,4.7s-2.4,3.3-3.6,5v-.2l-6.2,9.4h.1l-3.7,5.1-1.8,2.5-1.8,2.7c-1.1,1.8-2.1,3.6-3.1,5.4a29.6,29.6,0,0,0-1.5,3.1,26.4,26.4,0,0,0-1,3c-.9,2.4-1.5,5-2.4,7.4h.1a46.9,46.9,0,0,0-2,6c-.5,2.1-1,4.2-1.3,6.3l-.6,6.1-.3,3.4c-.1.9-.3,1.9-.4,2.8l-.3,3.9c-.1,1.7-.2,3.4-.2,5.1v4.8l.3,3.9a24.4,24.4,0,0,1-1-2.4c-.4-1.2-.7-2.3-1-3.5a9.7,9.7,0,0,1-.3-2.3c-.1-1.8-.1-3.5-.1-5.3s.1-2.6.1-3.9c.1-3.1.2-6.1.4-9.1h0v-.2h0l.3-3.4c.1-1.2.3-2.4.4-3.6s.7-4.5,1.1-6.7l.6-2.5a16.6,16.6,0,0,1,.6-2.1c.4-1.5.9-3,1.4-4.5v-.2a5.6,5.6,0,0,0,.4-1.2c.1,0,.1-.1.1-.2H93v-.4h0a3.6,3.6,0,0,0,.4-.9,10.7,10.7,0,0,1,.7-1.9l.6-1.6,2-4.4c1.2-2.7,2.3-5.5,3.5-8.3l1.3-2.3a19.8,19.8,0,0,1,1.1-2l3-4.6c-.1,0-.1.1-.2.2l5.4-8c1.8-2.5,3.7-5,5.7-7.4l5.2-5.9v.2c.9-1.1,1.9-2.1,2.9-3.2a38.3,38.3,0,0,1,2.9-2.8,1,1,0,0,1,.5-.4.1.1,0,0,1,.1-.1h0a1.7,1.7,0,0,0,1-2.1,1.6,1.6,0,0,0-.8-1v-.2a1.7,1.7,0,0,0-2.3-2.1h-.1l-1.3.4-.7-.2h-1.6l-1,.2-1.5.3-3.1.7a54.7,54.7,0,0,0-5.8,1.5l-12,3.5a57.3,57.3,0,0,0-9.9,4.1l-4.6,2.6-4.8,2.6L74,163.3l-5.5,3.2a58.4,58.4,0,0,0-5.3,3.3l-5,3.6-1.4.9H57l-2.4,1.6L52,177.7l-4.6,3.7q-2.2,1.8-4.5,3.9L38.8,189l-4.1,3.3-.9.7,3.3-4.9,1.8-2.6a17.3,17.3,0,0,1,1.7-2.1l3.6-4.3,2.9-3,1.5-1.4a7.4,7.4,0,0,1,1.3-1.2l2.7-2.5h0l4.5-3.6,4.4-3.4,2.7-1.8,2.7-1.6,5.6-3.1,3.3-1.6,3.8-1.7,4.1-1.8,3.5-1.4c2-.6,3.9-1.2,5.9-1.6l6.2-1.5,12.8-3,4.2-.9,7.8-1.5a2.1,2.1,0,0,0,1.2-.3,1.9,1.9,0,0,0,.3-2.5h0a2,2,0,0,0-.6-1.8l-1.5-1-2-1.7a18.2,18.2,0,0,0-5.4-2.7l-2.7-1-2.9-1.2c-1.8-.8-3.7-1.7-5.6-2.4A99.1,99.1,0,0,0,93,124.8l-6.1-1.1c-2.1-.4-4.1-.6-6.2-.8l-5.7-.8-5.5-.7c-3.7-.3-7.4-.4-11.1-.6h-.1l-8.7-1h.8c3.2-.6,6.4-1.2,9.6-1.6a59.3,59.3,0,0,1,7.3.1c3.3.2,6.5.7,9.7,1.2s6.5,1.1,9.7,1.6l5.9,1.4,6.4,1.4,2.9.7a16.8,16.8,0,0,1,3.2.9l2.8.8,2.8.9,1.6.5H112l3.5,1.4,3,1.7a14.7,14.7,0,0,0,2.2,1l.9.2,1.6,1a1.7,1.7,0,0,0,1.4.7h.2a1.4,1.4,0,0,0,1-.5,1.2,1.2,0,0,0,.8-.2h.2l.9-.4.7-.2h1.3l1.3.2,1.5.4.7.3h.2l.5.4-.9,1.1h.1a2.7,2.7,0,0,0-.8,1.8,8.9,8.9,0,0,0,1.2,3.9,11.4,11.4,0,0,0,4.7,3.7,16.6,16.6,0,0,0,3.1,1.2h.4a1.8,1.8,0,0,0,1.7-1.3c0-.1,0-.2.1-.2a1.8,1.8,0,0,0,1-1.6v-3.3l.6.5.4.4h.1l.3.2,1,1.2a1,1,0,0,1,.4.5,2.2,2.2,0,0,1,.5.8,3.6,3.6,0,0,1,.4.9,6.4,6.4,0,0,1,.2.7,2,2,0,0,0,.1.7,27.1,27.1,0,0,0,.1,2.9,17.7,17.7,0,0,0,.8,3.3,13.9,13.9,0,0,0,1.2,2.8c.5.9.9,1.9,1.5,2.8a63.3,63.3,0,0,0,3.6,5.4l2,2.4,2.1,2.3a25,25,0,0,0,2.3,2.3,29.6,29.6,0,0,0,2.6,2.4l2.6,2.1,2.4,1.9a2,2,0,0,0,1.3.6,2.5,2.5,0,0,0,1.2-.4,1.8,1.8,0,0,0,.2-2.6l-1.2-.8a17.8,17.8,0,0,1-2.6-2.2l-2.7-2.2-2.3-2.1a27.3,27.3,0,0,1-2.3-2.5l-2.6-3.1c-.9-1.1-1.7-2.2-2.5-3.4s-1.8-3-2.6-4.6l-.9-2-.4-1.6a12.5,12.5,0,0,1-.3-1.9h0v-.2h0a17,17,0,0,0-.1-2.2,10.2,10.2,0,0,0-1-3.4,17.4,17.4,0,0,0-1.1-1.8l-1.3-1.4-.3-.3a1.2,1.2,0,0,0-.5-.5l-1.2-.9-1.9-1.3h0l.3-2.8c.2-1.2.4-2.4.7-3.5s.5-2.4.8-3.6a14.6,14.6,0,0,0,.5-2,4.3,4.3,0,0,0,.4-2.2,1.7,1.7,0,0,0-1.4-1.3,1.9,1.9,0,0,0-1.8.9l-1.9,2.9h0c-.7,1-1.4,1.8-2.1,2.7s-1.2,1.7-1.9,2.5l.2-.2-.2.3H138l-.5.5-1.5,1.7c-.8-1-2.6-1.5-3.7-1.8a11.4,11.4,0,0,0-3.7-.4,10.1,10.1,0,0,0-3.7,1.2h-.1l-.7-.4a1.6,1.6,0,0,0-.7-.7h-.7l-1.3-.9c-1.8-1.2-3.5-2.4-5.4-3.5-3.6-2.1-7.8-3.1-11.9-4.2L98,118.3c-2-.5-4-.8-6.1-1.2l-6.3-.9-6-.9c-2.7-.4-5.5-.8-8.3-1l-4.1-.2c-1.5,0-3,.1-4.5,0h-1l-1.3-.3a1.7,1.7,0,0,0-2.1,1.2,27.6,27.6,0,0,0-4,.6c-2.1.3-4.2.6-6.3,1.1a53.6,53.6,0,0,0-5.7,1.7l-2.8,1.1-2.6,1a2,2,0,0,0-1.3,1.6,1.7,1.7,0,0,0,1.1,1.8,3,3,0,0,0,1.6.2h.1v.3a1.4,1.4,0,0,0,1.2.6l.9,1.6c.8,1.1,1.5,2.3,2.2,3.4s2.6,4.4,3.8,6.7h0c.6,1.3,1.2,2.7,1.7,4a18.3,18.3,0,0,1,.6,2.5,18.8,18.8,0,0,1,.5,3.3c0,1,.1,2,.1,3s0,2.8-.1,4.2h0v.2h0a22,22,0,0,1-.5,3.7,24.2,24.2,0,0,1-1,3.6c-.6,1.7-1.4,3.3-2.1,5l-1.7,3.6v-.2a41.7,41.7,0,0,1-2.6,4.6h0l-5.8,8.1-1,1.4-1.1,1.9-.9,1.9-1.1,2.2a1.4,1.4,0,0,0-.2.7c0,.1-.1.1-.1.2l-3.2,5.1-1.5,2.6a3.7,3.7,0,0,0-.5,1.1A3.6,3.6,0,0,0,25.4,201.1Zm110.4-64.5c1.1-1.3,2.1-2.7,3.1-4a9.4,9.4,0,0,0,1-1l.6-.8.3-.3.5-.6.6-.7a12.9,12.9,0,0,0-.4,1.9l-.3,3a26.4,26.4,0,0,0-.2,2.9,31.2,31.2,0,0,0,.1,4.3l-1.7-.8-1.3-.7h.1c-.1,0-.1,0-.1-.1H138l-.8-.6-.5-.6-.3-.3-.2-.3c0-.1-.1-.2-.1-.4s-.1-.3-.2-.5A.6.6,0,0,0,135.8,136.6ZM47.1,171.4c.2-.6.6-1.2.8-1.8,1.7-3.7,3.5-7.4,4.4-11.4a29.7,29.7,0,0,0,.6-4.3c.1-1.1.1-2.3.1-3.5s-.1-2.9-.2-4.3a22.5,22.5,0,0,0-1.1-6.3,26.1,26.1,0,0,0-2.4-5.4c-.4-.9-.9-1.7-1.3-2.5a19.8,19.8,0,0,1-1.1-2l-2.4-3.8-1.4-2.2-.2-.3,2.5-.4H49c2.7.2,5.4.7,8.1.8l8.5.5h.2l5.7.5,6.1.9,6.2.7c2,.2,4,.7,6,1l2.7.5a111.1,111.1,0,0,1,11.3,3.1l3.5,1.4,3.4,1.4,6.9,2.7,1.3.8,2.2,1.8h.2l-2.3.4-6.3,1.3-12.4,2.9c-4.2,1-8.5,1.9-12.6,3.2l-1.5.4-1.6.7a28.5,28.5,0,0,0-3.1,1.2l-5.8,2.5-5.5,2.7L64.5,158l-2.8,1.7L59,161.5l-5.5,4.4-3.1,2.5-2.8,2.4Zm86.8,40.5v-1.3h0v-.2h0l.3-2.5c0-1,.1-1.9.1-2.9s-.1-1.7-.1-2.6a24.4,24.4,0,0,1,.1-2.7l.3-3a19.5,19.5,0,0,0,.3-3.4c.1-1.1.3-2.1.5-3.2a28.7,28.7,0,0,1,.5-3.1c.2-1.1.5-2.1.7-3.1s.5-2,.8-3,1.2-4.5,1.9-6.7h0l1-2.7c.4-1,.6-2,.9-3a1.8,1.8,0,0,0,1.6,1,1.6,1.6,0,0,0,1.7-1.7,4.9,4.9,0,0,0,.1-1.2c.1-1,.2-2,.4-3.1a5.6,5.6,0,0,1,.4-1.2v-.2l.3.4a8,8,0,0,0,1.5,1.7l1.3,1.3.3.3a32.7,32.7,0,0,1,2.8,3.7c.7,1,1.3,2.2,2,3.2l1.2,1.8,1.6,1.7h-.2a10.9,10.9,0,0,1,1.3,1.7l1.1,1.8a26,26,0,0,1,1,2.5h0l-1.7.8a52.9,52.9,0,0,0-7.4,4,14.8,14.8,0,0,0-3,2.6,29.7,29.7,0,0,0-2.7,3.5l-1.8,2.4a28.1,28.1,0,0,0-3.3,4.4,49.7,49.7,0,0,0-2.5,5.2c-.4,1-.9,1.9-1.3,2.9h0C135.2,209.2,134.5,210.5,133.9,211.9ZM93.3,254.3a86.4,86.4,0,0,1-.2-10.2l.3-4.8h0v0c.3-2.6.7-5.2.9-7.8l.3-3.9.6-4.1c.3-1.3.5-2.6.9-3.9s.9-2.9,1.4-4.3,1.1-3.2,1.6-4.9,1-3.4,1.6-5.1a18,18,0,0,1,.8-2.1,20,20,0,0,1,1-2.1c1.5-2.7,3-5.3,4.7-7.8s3.8-5.1,5.5-7.7l5.4-8.1h0l.8-1.3a.3.3,0,0,1-.1.2l3.1-4.5,3.5-4.2,3.2-4,2.7-3.2-.3.7c-.2.6-.3,1.2-.5,1.8s-.3,1-.5,1.6-.9,3.9-1.4,5.9-1.3,4.3-2,6.4l-1.8,6.3a24.6,24.6,0,0,0-.7,2.9l-.3,1.6-.3,1.5c-.1,1-.3,2-.4,3s-.2,2.2-.2,3.3a66.4,66.4,0,0,0,.4,12.6c.6,4.2,1.4,8.4,2.3,12.6.4,2,.9,4,1.3,6s.9,3.7,1.4,5.5c-2.6-.1-9.7-.6-12,.1a28.4,28.4,0,0,0-7.7,3.6l-2.6,1.8-2.3,2.1c-.8.7-1.4,1.5-2.1,2.2l-2,2.1a23.9,23.9,0,0,0-2.1,2.6l-.9,1.4c-.2.5-.5,1-.7,1.4a17.5,17.5,0,0,0-1.3,2.8l-1.1,3.2v.2c0-.4-.1-.8-.1-1.2h0v-.2ZM32.9,198.4l2.3-2h-.1l5.9-4.8,2.7-2.5,2.8-2.5,5.3-4.4,2.5-2,2.7-2h.1c1.4-.9,2.8-1.8,4.1-2.8l4.2-3,6.2-3.9c2-1.2,4.1-2.3,6.2-3.4h-.2l7.3-3.7c2.4-1.4,4.7-2.8,7.2-4l3.1-1.4,3.2-1.2h0l5.5-1.7,5.8-1.7,5.5-1.6,3-.6,1.2-.3a1.9,1.9,0,0,0,1.8.6l2.4-.6h.1c0,.1,0,.2.1.2l-.4.4-2.6,2.7-5.1,5.7.2-.2c-1.4,1.6-2.8,3.1-4,4.7s-2.7,3.5-3.9,5.3l-3.6,5.3c-1.3,1.8-2.5,3.6-3.7,5.5l-1.8,3-.6,1.1a17.4,17.4,0,0,1-1,1.9c-.5,1-.9,2-1.3,3l-1.2,2.8c-1.6,3.8-3.4,7.4-4.7,11.3H90a3.5,3.5,0,0,0-.3,1.1c-.1,0-.1.1-.1.2h-.1a.8.8,0,0,1-.2.4h0l-.3,1h0l-1.8,6-.3,1.3c-.2.7-.3,1.3-.5,1.9a5.9,5.9,0,0,0-.2,1.3,15.5,15.5,0,0,0-.4,2.1c-.2,1.1-.3,2.2-.5,3.2l-.3,3.1c-.3,2-.4,4.1-.5,6.1s-.3,6.7-.4,10.1l-.3-1c-.3-.9-.6-1.9-1-2.8s-.7-1.9-1.1-2.8a18.6,18.6,0,0,0-1-2,3.7,3.7,0,0,0-.5-1.1c-.6-1.2-1.3-2.3-1.9-3.4a43.5,43.5,0,0,0-3.8-5.7c-1.1-1.4-2.3-2.8-3.5-4.1l-1.5-1.6-.7-.7L66,212l-2.3-2-2.3-1.9c-1.3-1-2.6-2.1-4-3a44.7,44.7,0,0,0-6.1-3.3l-3.8-1.6a49.8,49.8,0,0,0-5.5-1.6,32.9,32.9,0,0,0-5.4-.5Z"/><path d="M90.1,201.9Z"/></svg>